<?xml version="1.0" encoding="UTF-8" standalone="no"?>
<!-- Generator: Adobe Illustrator 25.1.0, SVG Export Plug-In . SVG Version: 6.00 Build 0)  -->

<svg
   version="1.1"
   id="amongus"
   x="0px"
   y="0px"
   width="446"
   height="573.617"
   viewBox="0 0 446 573.617"
   enable-background="new 0 0 648 648"
   xml:space="preserve"
   sodipodi:docname="amongus.svg"
   inkscape:version="1.3.2 (091e20e, 2023-11-25, custom)"
   xmlns:inkscape="http://www.inkscape.org/namespaces/inkscape"
   xmlns:sodipodi="http://sodipodi.sourceforge.net/DTD/sodipodi-0.dtd"
   xmlns="http://www.w3.org/2000/svg"
   xmlns:svg="http://www.w3.org/2000/svg"><defs
   id="defs11" />
<path
   fill="#1d1d1b"
   d="m 281.6194,469.36718 c 0,0 -10.42534,92.33514 56.5924,87.86742 67.01775,-4.46771 65.52784,-4.46771 83.39971,-139.99211 17.87087,-135.5244 0,-178.71266 0,-178.71266 0,0 32.76392,-22.33958 22.33958,-80.4209 -10.42534,-58.08131 -49.14588,-58.08131 -49.14588,-58.08131 0,0 -23.82849,-93.8240419 -151.90636,-99.78166377 C 114.82098,-5.7116657 108.86436,98.537718 108.86436,98.537718 l -8.935432,65.527842 c 0,0 -99.92065762,-38.72155 -99.78166644,122.12025 0.13599134,156.43707 -8.93543296,180.20256 95.64492944,180.20256 0,0 -7.784506,107.22019 68.175669,107.22819 74.46328,0.007 68.50665,-28.2962 81.9098,-104.24938 z"
   id="path1"
   style="stroke-width:0.999937" />
<path
   fill="#1d1d1b"
   d="m 443.95009,158.10893 c -10.42534,-58.08131 -49.14588,-58.08131 -49.14588,-58.08131 0,0 -23.82849,-93.8240419 -151.90636,-99.78166377 C 114.81998,-5.7116657 108.86336,98.537718 108.86336,98.537718 l -8.935432,65.527842 c 0,0 -99.92065755,-38.72155 -99.78166638,122.12025 0.13599134,156.43707 -8.93543292,180.20256 95.64492938,180.20256 0,0 -7.784506,107.22019 68.175669,107.22719 74.46328,0.007 68.50665,-28.2962 81.9098,-104.24938 h 35.74274 c 0,0 -10.42534,92.33514 56.5924,87.86742 67.01775,-4.46771 65.52784,-4.46771 83.39971,-139.99211 17.87087,-135.5244 0,-178.71266 0,-178.71266 0,0 32.76392,-22.33858 22.33858,-80.4199 z M 95.450213,184.51126 90.992496,443.55282 C -1.2426502,457.56093 20.272984,429.16573 19.646024,287.64171 c -0.002,-0.46997 -0.002,-0.92794 -0.004,-1.40091 C 18.867073,144.20882 95.460212,183.9233 95.460212,183.9233 Z M 404.23661,404.32931 c -9.4324,117.89351 -19.85774,134.27547 -62.30204,134.27547 -35.17877,0 -40.57343,-32.67492 -40.73042,-60.83713 -0.058,-10.38934 0.58697,-20.15672 0.72496,-27.44926 0.035,-1.85988 0.039,-3.56978 -0.014,-5.07568 -22.33958,-2.23386 -72.42141,1.02794 -72.42141,1.02794 -12.23122,69.3086 -9.68038,108.71709 -64.03893,108.71709 -49.68285,0 -53.29862,-35.69273 -53.08063,-84.07066 0.033,-7.45353 0.14999,-15.18404 0.21198,-23.15753 0.079,-10.18935 0.111,-20.66469 0.119,-31.34201 0.016,-21.47264 -0.067,-43.79122 -0.088,-66.39779 -0.054,-56.95738 0.29598,-115.72965 3.69177,-167.35037 3.97275,-60.39017 13.07317,-105.42931 34.92978,-132.883568 19.10179,-24.497445 47.53498,-33.101899 91.65818,-28.689179 109.28107,10.928306 126.19799,69.687577 126.19799,69.687577 0,0 -196.9385,-37.668609 -177.57773,82.96273 23.05354,143.64089 181.49248,86.48651 213.64544,75.99718 0.34498,-0.11299 0.67996,-0.22199 0.99594,-0.32298 0.002,-0.001 0.004,-0.001 0.006,-0.002 -0.002,0.005 -0.004,0.009 -0.006,0.014 0.40898,19.41277 2.20686,35.35975 2.31285,62.934 0.082,21.33365 -0.84594,49.60486 -4.23473,91.96217 z M 317.8571,249.94811 c -85.43858,5.88962 -116.91758,-45.88809 -107.61317,-105.6823 2.78282,-13.95511 13.68313,-25.91035 26.17433,-30.64305 0.83595,-0.31698 1.6249,-0.60496 2.39085,-0.87995 0.20299,-0.071 0.40498,-0.14499 0.60896,-0.21498 6.54759,-2.22986 13.84913,-3.55578 21.62263,-4.35273 17.61788,-1.80488 37.65461,-0.90194 56.8164,-1.69389 40.58742,-1.67689 74.38527,9.99337 93.10809,28.01622 8.98543,8.65045 14.50208,18.76181 15.624,29.56613 4.95069,47.65897 -18.8778,79.42996 -108.73209,85.88455 z"
   id="path2"
   style="stroke-width:0.999937" />
<path
   fill="#ab1f23"
   d="M 95.450213,184.51126 90.992496,443.55282 C -1.2426502,457.56093 20.272984,429.16573 19.646024,287.64171 41.264652,226.53959 78.087315,196.06753 95.450213,184.51126 Z M 408.47234,312.36614 c -0.10599,-27.57425 -1.90388,-43.52123 -2.31285,-62.934 -25.50538,54.50154 1.03694,149.6525 -126.77395,146.21672 -36.16971,-0.97194 -68.80764,-0.15999 -89.35633,-25.31839 C 132.40387,299.78094 135.17069,138.03021 151.23967,49.784812 129.38406,77.23907 120.28264,122.27821 116.30989,182.66838 c -3.39679,51.62172 -3.74576,110.39299 -3.69177,167.35037 0.021,22.60657 0.105,44.92515 0.088,66.39779 -0.008,10.67732 -0.041,21.15266 -0.119,31.34201 -0.062,7.97349 -0.17798,15.704 -0.21198,23.15753 -0.21799,48.37693 3.39778,84.07066 53.08063,84.07066 54.35855,0 51.80771,-39.40749 64.03893,-108.71709 0,0 50.08183,-3.2628 72.42141,-1.02794 0.053,1.5059 0.049,3.2168 0.014,5.07568 -0.13799,7.29254 -0.78295,17.06092 -0.72496,27.44926 0.15699,28.16321 5.55165,60.83713 40.73042,60.83713 42.4443,0 52.86864,-16.38196 62.30204,-134.27547 3.38779,-42.35631 4.31573,-70.62752 4.23473,-91.96217 z"
   id="path3"
   style="stroke-width:0.999937" />
<path
   fill="#e31e26"
   d="m 95.460212,183.9233 -0.01,0.58796 c -17.362898,11.55627 -54.185561,42.02833 -75.804189,103.13045 -0.002,-0.46997 -0.002,-0.92794 -0.004,-1.40091 -0.77595,-142.03198 75.818188,-102.3175 75.818189,-102.3175 z m 94.567998,186.40617 c 20.54869,25.1574 53.18762,24.34545 89.35633,25.31839 127.81089,3.43578 101.26957,-91.71518 126.77395,-146.21672 0.002,-0.005 0.004,-0.009 0.006,-0.014 -0.002,0.001 -0.004,0.001 -0.006,0.002 -0.31498,0.10099 -0.65096,0.21099 -0.99594,0.32298 -32.15296,10.48933 -190.5919,67.64371 -213.64544,-75.99718 -19.35977,-120.630339 177.57773,-82.96273 177.57773,-82.96273 0,0 -16.91692,-58.759271 -126.19799,-69.687577 -44.1232,-4.41172 -72.55739,4.191734 -91.65818,28.689179 -16.06798,88.245398 -18.8348,249.997128 38.78954,320.545658 z"
   id="path4"
   style="stroke-width:0.999937" />
<path
   fill="#2f6061"
   d="m 426.59019,164.06256 c -22.85055,25.81636 -51.14675,30.28507 -111.21394,32.76692 -28.92816,1.19492 -66.51878,-1.48891 -78.95599,-83.19972 0.78195,-0.31298 1.5829,-0.60396 2.38885,-0.88795 -0.76595,0.27499 -1.5539,0.56297 -2.39085,0.87995 -12.4912,4.7327 -23.39151,16.68794 -26.17433,30.64305 -9.30441,59.79421 22.17459,111.57292 107.61317,105.6823 89.85429,-6.45359 113.68278,-38.22458 108.73309,-85.88455 z"
   id="path5"
   style="stroke-width:0.999937" />
<path
   fill="#87bac7"
   d="m 315.37625,196.82948 c 60.06719,-2.48185 88.36339,-6.94956 111.21394,-32.76692 -1.12192,-10.80432 -6.63857,-20.91668 -15.624,-29.56613 -13.01618,14.2471 -29.32714,19.76475 -63.21799,18.04186 -18.60582,-0.94494 -58.62528,-1.86988 -86.7065,-44.36419 -7.7745,0.79695 -15.07504,2.12187 -21.62263,4.35273 -0.20498,0.07 -0.40597,0.14399 -0.60896,0.21498 -0.80695,0.28399 -1.6069,0.57497 -2.38885,0.88795 12.43621,81.71081 50.02583,84.39564 78.95499,83.19972 z"
   id="path6"
   style="stroke-width:0.999937" />
<path
   fill="#f3f3f3"
   d="m 347.7472,152.53829 c 33.89085,1.72189 50.20281,-3.79476 63.21799,-18.04186 -18.72282,-18.02285 -52.51967,-29.69311 -93.10809,-28.01622 -19.16179,0.79195 -39.19952,-0.11099 -56.8164,1.69389 28.08122,42.49431 68.10168,43.41925 86.7065,44.36419 z"
   id="path7"
   style="stroke-width:0.999937" />
<g
   id="g7">
</g>
<g
   id="g8">
</g>
<g
   id="g9">
</g>
<g
   id="g10">
</g>
<g
   id="g11">
</g>
</svg>
