<?xml version="1.0" encoding="UTF-8" standalone="no"?>
<!-- Uploaded to: SVG Repo, www.svgrepo.com, Generator: SVG Repo Mixer Tools -->

<svg
   width="662"
   height="747.099"
   viewBox="0 0 105.92 119.53584"
   aria-hidden="true"
   role="img"
   class="iconify iconify--noto"
   preserveAspectRatio="xMidYMid"
   version="1.1"
   id="svg9"
   sodipodi:docname="bananenschil.svg"
   inkscape:version="1.3.2 (091e20e, 2023-11-25, custom)"
   xmlns:inkscape="http://www.inkscape.org/namespaces/inkscape"
   xmlns:sodipodi="http://sodipodi.sourceforge.net/DTD/sodipodi-0.dtd"
   xmlns="http://www.w3.org/2000/svg"
   xmlns:svg="http://www.w3.org/2000/svg">
  <defs
     id="defs9" />
  <sodipodi:namedview
     id="namedview9"
     pagecolor="#505050"
     bordercolor="#eeeeee"
     borderopacity="1"
     inkscape:showpageshadow="0"
     inkscape:pageopacity="0"
     inkscape:pagecheckerboard="0"
     inkscape:deskcolor="#505050"
     inkscape:zoom="0.513125"
     inkscape:cx="306.94275"
     inkscape:cy="412.18027"
     inkscape:window-width="1920"
     inkscape:window-height="1017"
     inkscape:window-x="1912"
     inkscape:window-y="-8"
     inkscape:window-maximized="1"
     inkscape:current-layer="svg9" />
  <path
     d="m 105.15541,91.718519 c -1.13974,2.359451 -5.908628,2.209486 -8.538016,1.379679 C 89.898957,90.978691 85.719929,85.200036 85.719929,85.200036 L 61.485566,63.495085 c 0,0 7.708207,-5.998605 15.536386,-6.908393 7.478261,-0.8598 16.786095,5.218786 19.235526,16.696116 1.989537,9.307835 5.138802,12.587072 6.088582,13.79679 0.94978,1.219717 3.78912,2.619391 2.80935,4.638921 z"
     fill="#ff8e00"
     id="path1"
     style="stroke-width:0.999767"
     sodipodi:nodetypes="cccccccc" />
  <path
     d="m 71.273289,80.351163 -6.288537,-13.136944 0.339921,-4.678911 c 0,0 1.339689,-3.929086 -7.028365,2.419437 -3.879097,2.939316 -6.218553,8.358056 -6.218553,8.358056 0,0 -1.179726,-2.919321 -5.318763,-6.778423 -3.679144,-3.419205 -8.627993,-5.078819 -8.627993,-5.078819 0,0 -10.277609,-1.999535 -11.397349,-1.129737 -7.248313,5.658683 -12.547081,12.547081 -12.547081,12.547081 L 8.8578085,93.018217 -1.3067195e-4,98.446954 c 0,0 2.41943727195,3.539176 5.91862327195,2.219476 2.7293647,-1.029753 6.1085794,-4.119034 7.9281554,-8.008129 2.499419,-5.348756 7.748198,-15.466403 10.417577,-18.665658 5.1588,-6.158568 10.217623,-8.408044 13.986746,-6.618461 4.289003,2.029528 0.8598,22.284816 0.8598,22.284816 l -27.573586,23.204602 -0.46989,3.15926 c 0,0 4.009067,3.84911 15.056497,3.48919 11.04743,-0.35992 25.823993,-4.44897 35.171819,-17.196 8.248081,-11.237382 9.977678,-21.964887 9.977678,-21.964887 z"
     fill="#ffa726"
     id="path4"
     style="stroke-width:0.999767" />
  <path
     d="m 49.528348,81.560882 c 0.239944,5.548709 -3.219251,13.956753 -11.217391,20.965118 -7.988141,7.00837 -16.426179,9.32783 -21.66496,9.72774 -3.799116,0.28993 -4.928853,-1.87957 -4.928853,-1.87957 0,0 7.658218,-7.04836 13.346895,-12.697037 5.398744,-5.368751 11.277376,-16.646128 12.557079,-21.834921 1.279702,-5.188793 0.119972,-8.677981 0.119972,-8.677981 0,0 2.479423,0.68984 6.128574,4.348988 3.539177,3.549175 5.528714,6.968379 5.658684,10.047663 z"
     fill="#ffb803"
     id="path5"
     style="stroke-width:0.999767" />
  <path
     d="m 15.406285,115.33302 c -0.829807,1.92955 -3.679144,2.00953 -4.918855,0.93978 -1.1697285,-1.00976 -2.3094634,-3.0193 -1.1297378,-5.26877 0.7798188,-1.47966 3.3392238,-1.88956 4.7788888,-0.73983 1.439665,1.14973 2.01953,3.31923 1.269704,5.06882 z"
     fill="#875b54"
     id="path6"
     style="stroke-width:0.999767" />
  <path
     d="m 9.7176085,94.437887 c -3.2792368,4.548941 -6.5684717,5.238781 -7.9281554,5.388745 -1.18972321,0.139967 -2.48942087,-1.379678 -2.33945576,-2.779352 0.14996512,-1.399675 2.44943016,-3.369217 2.72936506,-7.668217 0.2799349,-4.299 -0.059986,-20.065332 8.6879786,-29.123225 6.168565,-6.378516 13.726807,-4.179028 18.605672,-2.489421 5.498721,1.899558 8.667984,3.69914 8.667984,3.69914 0,0 -4.498954,-0.309928 -12.257149,5.808648 -4.508951,3.559173 -7.158335,8.448035 -9.657753,14.056731 -1.799582,4.059055 -4.199023,9.907695 -6.5084865,13.106951 z"
     fill="#fee4b4"
     id="path7"
     style="stroke-width:0.999767" />
  <path
     d="m 96.937319,106.17515 c -0.919786,1.83957 -3.169262,2.97931 -5.1588,2.88933 -4.20902,-0.17996 -8.048127,-2.34945 -12.297139,-7.82818 C 73.472778,93.47811 68.243994,74.86244 64.324906,69.903594 61.675522,66.554373 58.37629,64.894759 58.37629,64.894759 c 0,0 1.819576,-1.539642 3.639153,-2.489421 1.819577,-0.949779 6.218553,-0.499884 6.218553,-0.499884 l 18.775633,30.172981 z"
     fill="#feb804"
     id="path8"
     style="stroke-width:0.999767" />
  <path
     d="m 86.329787,65.064719 c 4.119042,5.888631 4.658916,11.057428 5.278772,16.3362 0.55987,4.768891 1.709602,14.796558 3.4392,18.065798 1.739595,3.269233 3.429202,5.398743 1.559637,7.388273 -1.869565,1.98954 -7.368286,1.27971 -11.317367,-3.01929 -3.179261,-3.4692 -4.938851,-7.248313 -7.328295,-12.797023 -2.389445,-5.548709 -5.908626,-18.645662 -10.477563,-24.564285 -2.919321,-3.779121 -5.828644,-3.889096 -5.828644,-3.889096 0,0 3.849104,-3.13927 11.197395,-3.219251 6.588467,-0.06998 10.047663,0.799814 13.476865,5.698674 z"
     fill="#ffe4b4"
     id="path9"
     style="stroke-width:0.999767" />
</svg>
