<?xml version="1.0" standalone="no"?>
<!DOCTYPE svg PUBLIC "-//W3C//DTD SVG 1.1//EN" "http://www.w3.org/Graphics/SVG/1.1/DTD/svg11.dtd" >
<svg xmlns="http://www.w3.org/2000/svg" xmlns:xlink="http://www.w3.org/1999/xlink" version="1.1">
<metadata>
Created by FontForge 20201107 at Fri Jun  8 07:28:25 2001
 By 
Copyright (c) Typographer Mediengestaltung, 2001. All rights reserved.
</metadata>
<defs>
<font id="FrederickText" horiz-adv-x="398" >
  <font-face 
    font-family="FrederickText"
    font-weight="400"
    font-stretch="normal"
    units-per-em="1000"
    panose-1="0 0 4 0 0 0 0 0 0 0"
    ascent="800"
    descent="-200"
    x-height="514"
    cap-height="670"
    bbox="-189 -216 1426 913"
    underline-thickness="20"
    underline-position="-143"
    unicode-range="U+0020-F002"
  />
<missing-glyph horiz-adv-x="500" 
d="M63 0v795h375v-795h-375zM125 63h250v670h-250v-670z" />
    <glyph glyph-name=".notdef" horiz-adv-x="500" 
d="M63 0v795h375v-795h-375zM125 63h250v670h-250v-670z" />
    <glyph glyph-name=".null" horiz-adv-x="0" 
 />
    <glyph glyph-name="nonmarkingreturn" horiz-adv-x="264" 
 />
    <glyph glyph-name="space" unicode=" " horiz-adv-x="264" 
 />
    <glyph glyph-name="exclam" unicode="!" horiz-adv-x="224" 
d="M97 -15l-56 63l56 63l57 -67zM87 163l-32 454q-1 9 23 29t33 20q6 0 27.5 -21.5t21.5 -30.5q0 1 -42 -364l-10 -87h-21z" />
    <glyph glyph-name="quotedbl" unicode="&#x22;" horiz-adv-x="351" 
d="M274 729l-10 -141q0 -6 2 -26q0 -10 -17 -18q-2 -1 -15.5 -9.5t-18.5 -8.5q-4 0 -4 32v39l-9 112l71 32zM144 729l-10 -141q0 -6 2 -26q0 -10 -17 -18q-2 -1 -15.5 -9.5t-18.5 -8.5q-4 0 -4 32v39l-9 112l71 32z" />
    <glyph glyph-name="numbersign" unicode="#" horiz-adv-x="364" 
d="M241 177l-21 -177h-38l21 177h-106l-21 -177h-37l21 177h-52l4 31h51l19 153h-52l4 31h52l20 169h37l-20 -169h106l20 169h38l-20 -169h51l-3 -31h-52l-18 -153h51l-3 -31h-52zM226 361h-107l-18 -153h106z" />
    <glyph glyph-name="dollar" unicode="$" horiz-adv-x="438" 
d="M220 234l-29 21q-81 59 -98 75q-32 31 -32 64q0 49 33 80q17 16 91 61q23 14 35 23v44q0 14 9 14t9 -14v-38q96 -54 115 -54q6 0 15.5 13.5t13.5 13.5q8 0 8 -6q0 -7 -26 -48q-28 -45 -48 -45q-16 0 -78 39v-141l36 -26q58 -42 74 -58q40 -39 40 -80q0 -48 -17.5 -70.5
t-107.5 -87.5l-25 -18v-108q0 -5 -9 -5t-9 5v106q-26 10 -80 31q-62 24 -75 24q-15 0 -28 -42q-6 -21 -11 -21q-6 0 -6 12q0 32 16 81q20 59 45 59q44 0 139 -53v149zM220 348v138q-25 22 -45 22q-16 0 -31.5 -19.5t-15.5 -42.5q0 -26 22 -47q16 -16 70 -51zM238 220v-141
q20 -20 44 -20q14 0 24 17t10 39q0 41 -78 105z" />
    <glyph glyph-name="percent" unicode="%" horiz-adv-x="679" 
d="M616 224v-122q0 -28 -5.5 -38t-27.5 -29q-72 -60 -84 -60q-17 0 -72 36q-30 19 -30 55v124q0 59 21 82q11 12 54 39.5t55 27.5q5 0 28 -14q61 -37 61 -101zM558 56v157q0 35 -23.5 58t-58.5 23q-16 0 -16 -34v-161q0 -30 28 -52t59 -22q11 0 11 31zM269 440v-122
q0 -28 -5.5 -38t-27.5 -29q-72 -60 -84 -60q-17 0 -72 36q-30 19 -30 55v124q0 59 21 82q11 12 54 39.5t55 27.5q5 0 28 -14q61 -37 61 -101zM211 272v157q0 35 -23.5 58t-58.5 23q-16 0 -16 -34v-161q0 -30 28 -52t59 -22q11 0 11 31zM487 523l-271 -536q-6 -12 -22 -12
q-20 0 -20 9q0 3 10 23l267 536q6 12 30 12q16 0 16 -9q0 -3 -10 -23z" />
    <glyph glyph-name="ampersand" unicode="&#x26;" horiz-adv-x="541" 
d="M195 373l50 -90q4 0 16 21q3 7 19 30q27 32 71 32q5 0 50 -7q39 -6 52 -6q45 0 48 32q1 12 6 12q6 0 6 -14q0 -106 -83 -106q-10 1 -60 7q11 -30 11 -47q0 -51 -55 -102q44 -72 63 -72q18 0 31 27q5 10 9 10t4 -5q0 -17 -43.5 -57.5t-63.5 -47.5q-20 12 -50 59
q-4 6 -15 23q-103 -82 -115 -82q-9 0 -68 98t-59 114q0 18 57 71q27 25 51 54q-14 20 -40 60q-35 54 -34 55l66 68q63 65 72 65q6 0 115 -74q-18 -23 -111 -128zM284 207q29 -57 38 -57q7 0 25 24q22 29 22 59q0 24 -17.5 41t-42.5 17q-19 0 -35.5 -8t-16.5 -18q0 -5 27 -58
zM189 384l55 59q-80 70 -95 70q-23 0 -23 -22q0 -21 63 -107zM255 87l-110 206q-9 16 -14 16q-4 0 -25 -21t-21 -27q0 -38 54 -115l7 -10q15 -22 40 -64q14 -24 18 -24q8 0 26 15t25 24z" />
    <glyph glyph-name="quotesingle" unicode="'" horiz-adv-x="203" 
d="M144 729l-10 -141q0 -6 2 -26q0 -10 -17 -18q-2 -1 -15.5 -9.5t-18.5 -8.5q-4 0 -4 32v39l-9 112l71 32z" />
    <glyph glyph-name="parenleft" unicode="(" horiz-adv-x="292" 
d="M33 277q0 156 55 268q44 90 144 187q8 8 12 8q10 0 10 -8q0 -2 -3 -6q-62 -73 -92 -155q-40 -110 -40 -291q0 -170 35 -277q27 -82 95 -167q2 -2 2 -7q0 -10 -7 -10q-3 0 -6 3q-101 103 -140 174q-65 119 -65 281z" />
    <glyph glyph-name="parenright" unicode=")" horiz-adv-x="292" 
d="M258 277q0 -162 -65 -281q-39 -71 -140 -174q-3 -3 -6 -3q-7 0 -7 10q0 5 2 7q68 85 95 167q35 107 35 277q0 181 -40 291q-30 82 -92 155q-3 4 -3 6q0 8 10 8q4 0 12 -8q100 -97 144 -187q55 -113 55 -268z" />
    <glyph glyph-name="asterisk" unicode="*" horiz-adv-x="410" 
d="M184 579l-30 157q16 31 43 31q28 0 38 -31l-30 -157l140 77q40 -7 40 -35q0 -19 -15 -43l-159 -21l119 -110q-5 -53 -43 -53q-12 0 -25 7l-68 146l-70 -146q-10 -3 -22 -3q-20 0 -32.5 11.5t-10.5 30.5l1 9l117 109l-159 21q-13 19 -13 36q0 36 38 41z" />
    <glyph glyph-name="plus" unicode="+" horiz-adv-x="468" 
d="M268 302v-163h-50v163h-173v50h173v163h50v-163h174v-50h-174z" />
    <glyph glyph-name="comma" unicode="," horiz-adv-x="203" 
d="M44 57q14 17 41 39t31 20l34 -37q14 -15 14 -40q0 -68 -49 -129q-41 -51 -60 -51q-2 0 -2 2q0 3 10 19q30 47 30 87q0 49 -42 78q-10 7 -7 12z" />
    <glyph glyph-name="hyphen" unicode="-" horiz-adv-x="221" 
d="M30 203l-1 55l142 92v-58z" />
    <glyph glyph-name="hyphen" unicode="&#x2010;" horiz-adv-x="221" 
d="M30 203l-1 55l142 92v-58z" />
    <glyph glyph-name="period" unicode="." horiz-adv-x="186" 
d="M96 -14q-8 0 -37 29t-29 37q47 59 58 59q7 0 33.5 -24t33.5 -34q-2 -6 -29 -36.5t-30 -30.5z" />
    <glyph glyph-name="slash" unicode="/" horiz-adv-x="291" 
d="M38 -183l186 918h44l-187 -918h-43z" />
    <glyph glyph-name="zero" unicode="0" 
d="M63 144q0 43 4 127.5t4 127.5q0 36 35 67q100 89 115 89q21 0 80 -64q25 -27 30 -39t5 -39q0 -40 -3 -120.5t-3 -120.5q0 -34 -10 -52q-8 -14 -35 -42q-55 -56 -94 -84l-47 29q-48 30 -64.5 54.5t-16.5 66.5zM250 133l4 238q1 40 -20 73q-24 38 -62 38q-14 0 -14 -42
q0 -46 -4.5 -139t-4.5 -140q0 -29 45 -58q38 -24 43 -24q12 0 13 54z" />
    <glyph glyph-name="one" unicode="1" horiz-adv-x="330" 
d="M234 27q0 -22 -3.5 -27.5t-17.5 -5.5q-44 0 -55 -54q-4 -13 -9 -13q-7 0 -7 8q0 28 5 76q5 55 6 76q0 26 4 149q4 120 4 157q0 87 -50 87q-5 0 -18 -2.5t-14 -2.5q-4 0 -4 6q0 10 84 74q46 -21 62 -39q23 -25 23 -68q0 -16 -5 -210z" />
    <glyph glyph-name="two" unicode="2" 
d="M354 103q0 -17 -12 -56q-17 -54 -43 -54q-31 0 -94 11.5t-94 11.5q-23 0 -49 -12q-7 -4 -13 -4q-4 0 -4 6q0 4 60 74q65 76 69 82q65 93 65 157q0 73 -57 128q-46 45 -76 45q-9 0 -26.5 -11.5t-18.5 -11.5q-4 0 -4 5q0 15 51 50q46 31 54 31q6 0 36 -21q68 -47 85 -67
q25 -29 25 -80q0 -58 -47 -137q-37 -62 -79 -103q-32 -31 -32 -44q0 -6 35 -11q8 -1 50.5 -7t53.5 -6q30 0 41 13q14 17 20 17q4 0 4 -6z" />
    <glyph glyph-name="three" unicode="3" 
d="M202 376l22 -13q61 -36 72 -46q31 -27 37 -72q3 -21 3 -55q0 -133 -55 -185q-25 -24 -67 -55q-54 -40 -71 -40q-7 0 -7 4t21 23l27 24q39 42 51.5 76t12.5 92q0 75 -11 101q-17 43 -76 59q-30 8 -30 19q0 10 56 71t56 71q0 5 -48 11q-27 3 -53 6q-34 7 -41 7
q-15 0 -23 -18.5t-12 -18.5q-5 0 -5 8q0 27 43 90q14 20 22 20q19 0 66.5 -9.5t72.5 -9.5q24 0 44 5l24 6q5 0 5 -6q0 -16 -95 -120z" />
    <glyph glyph-name="four" unicode="4" 
d="M214 -85v339q-18 0 -54 1t-54 1q-7 0 -29 -1.5t-24 -1.5q-13 0 -13 11q0 6 29 40q52 62 71 87q134 179 145 179q12 0 12 -36v-231q0 -13 14 -13q2 0 19 2.5t20 2.5q8 0 8 -19q0 -25 -14 -25q-1 0 -16.5 1.5t-17.5 1.5q-13 0 -13 -7v-234q0 -14 -16 -21q-39 -18 -47 -65
q-4 -22 -12 -22t-8 10zM214 298v142q0 6 -3 6q-6 0 -53 -61q-62 -81 -62 -86q0 -10 80 -10q38 0 38 9z" />
    <glyph glyph-name="five" unicode="5" 
d="M102 347q-59 38 -59 49q0 10 75 83q21 22 43 43q35 33 50 33q17 0 53 -10.5t54 -10.5q1 0 16.5 3.5t17.5 3.5q4 0 4 -6q0 -16 -31.5 -51t-46.5 -35q-9 0 -55 21t-57 21q-15 0 -48 -33q11 -9 49 -37q100 -72 119 -106.5t19 -132.5q0 -93 -10 -127q-17 -56 -69 -87
q-112 -66 -143 -66q-9 0 -9 8q0 5 26 16q71 29 95 82q22 48 22 165q0 68 -28 105q-19 25 -87 69z" />
    <glyph glyph-name="six" unicode="6" 
d="M277 65l-31 -26q-55 -46 -60 -46q-6 0 -30 15q-53 33 -71.5 64t-18.5 91q0 -6 5 218q2 79 36 126q14 19 77 65.5t78 46.5q6 0 6 -4q0 -5 -26 -27l-14 -12q-57 -48 -67 -156q33 17 51 38q9 11 14 11q17 0 62 -38.5t45 -55.5q0 -7 -5 -195q-1 -50 -8 -66q-8 -19 -43 -49z
M154 379v-232q0 -20 34 -50q28 -26 51 -35q7 10 8 39l5 235q0 14 -32.5 39.5t-47.5 25.5q-18 0 -18 -22z" />
    <glyph glyph-name="seven" unicode="7" 
d="M244 -172l-67 42q-20 13 -25 20t-5 26q0 143 102 416q38 102 38 112q0 6 -51 11q-21 2 -69 11l-58 11q-13 0 -23 -11t-12 -11q-7 0 -7 5q0 14 29 61q21 34 33 34q22 0 72.5 -11.5t76.5 -11.5q8 0 23.5 1t23.5 1q5 0 6 -2q0 -16 -22 -75q-34 -90 -63 -199
q-42 -156 -42 -234q0 -85 49 -177q8 -15 8 -21q0 -3 -3 -3q-6 0 -14 5z" />
    <glyph glyph-name="eight" unicode="8" 
d="M54 136q0 49 23 79q18 23 66 53q-71 79 -71 127q0 38 36 76q17 18 68 56q37 28 44 28q12 0 40 -19q40 -27 52 -52q8 -17 8 -47q0 -40 -9.5 -55t-42.5 -42l-32 -26l33 -28q45 -38 60 -60t15 -51q0 -39 -13 -72l-64 -60q-39 -34 -73 -50l-17 10q-70 41 -82 51
q-41 35 -41 82zM167 494q-25 0 -25 -41q0 -49 48 -100q25 -27 30 -27q8 0 18.5 18.5t10.5 38.5q0 38 -21 72q-25 39 -61 39zM160 252l-3 -1q-23 -28 -23 -67q0 -52 54 -87q41 -27 76 -27q16 0 16 21q0 51 -34 91q-26 30 -86 70z" />
    <glyph glyph-name="nine" unicode="9" 
d="M59 201q0 239 25 265q11 11 73 50t71 39q1 -1 9 -4q73 -46 89 -71q13 -20 13 -86v-328q0 -131 -27 -160q-16 -17 -74.5 -50t-78.5 -33q-7 0 -7 6q0 1 35 34t40 40q24 32 24 143q0 4 -2 6q-1 2 -6 0q-3 -1 -7 -1t-31.5 -22.5t-34.5 -22.5q-4 1 -11 6q-69 49 -88 92
q-12 27 -12 97zM140 239q0 -54 11 -80q13 -32 53 -59q30 -20 41 -20q9 0 11 41q-1 -25 -1 46v101v59q-1 34 -1 43q0 49 -10 66q-8 14 -50 45q-12 9 -17 9q-20 0 -27 -51q-1 -32 -3 -64z" />
    <glyph glyph-name="colon" unicode=":" horiz-adv-x="236" 
d="M190 54q-9 -16 -26 -35q-23 -27 -30 -31q-5 1 -8 4q-6 6 -64 58l62 68q32 -27 66 -64zM182 441q0 -4 -26.5 -34.5t-29.5 -30.5q-5 0 -34.5 26.5t-29.5 35.5q0 7 26 34.5t32 27.5q5 0 33.5 -27t28.5 -32z" />
    <glyph glyph-name="semicolon" unicode=";" horiz-adv-x="239" 
d="M182 441q0 -4 -26.5 -34.5t-29.5 -30.5q-5 0 -34.5 26.5t-29.5 35.5q0 7 26 34.5t32 27.5q5 0 33.5 -27t28.5 -32zM138 113q10 0 33 -31t23 -43q0 -94 -84 -164q-18 -15 -26 -15l-1 1q0 -26 20 31.5t20 74.5q0 47 -42 78q-8 8 -8 7q0 11 26 36t39 25z" />
    <glyph glyph-name="less" unicode="&#x3c;" horiz-adv-x="496" 
d="M426 553l-1 -40l-312 -202l314 -209l-1 -44l-373 250v6z" />
    <glyph glyph-name="equal" unicode="=" horiz-adv-x="479" 
d="M50 354v40h377v-40h-377zM50 260v40h377v-40h-377z" />
    <glyph glyph-name="greater" unicode="&#x3e;" horiz-adv-x="496" 
d="M61 553l1 -40l312 -202l-314 -209l1 -44l373 250v6z" />
    <glyph glyph-name="question" unicode="?" horiz-adv-x="335" 
d="M237 405q3 5 3 15q0 68 -34 112t-87 44q-3 0 -18 -6.5t-20 -6.5q-3 0 -3 4q0 14 37.5 51t54.5 37q21 0 63 -29q55 -38 55 -91q0 -64 -31 -133q-24 -54 -46 -76q-4 -4 -62 -23q-52 -17 -52 -28q0 -24 35 -64q11 -12 11 -17q0 -6 -5 -6q-24 0 -68 68t-44 98q0 24 89 29
q71 4 122 22zM209 50l-40 -46q-12 -14 -25 -22q-6 0 -38 28t-32 38q0 6 32.5 41.5t39.5 35.5q8 0 38.5 -28.5t30.5 -34.5q0 -5 -6 -12z" />
    <glyph glyph-name="at" unicode="@" horiz-adv-x="745" 
d="M471 515h62l-42 -147q-24 -84 -24 -154q0 -42 20 -42q74 0 126 75q47 68 47 145q0 110 -85 183q-81 71 -192 71q-131 0 -219 -90t-88 -222q0 -131 87.5 -222.5t218.5 -91.5q149 0 231 109h41q-96 -142 -271 -142q-145 0 -244 100.5t-99 245.5t99 246t243 101
q128 0 219 -78q95 -82 95 -208q0 -92 -61 -168q-65 -81 -154 -81q-40 0 -54 35q-9 23 -6 70q-51 -106 -114 -106q-53 0 -83 51q-25 42 -25 99q0 76 53 149q57 80 130 80q29 0 49.5 -21t22.5 -52zM384 497q-53 0 -92 -107q-31 -85 -31 -153q0 -27 12 -45q14 -22 40 -22
q57 0 94 99q29 78 29 149q0 79 -52 79z" />
    <glyph glyph-name="A" unicode="A" horiz-adv-x="653" 
d="M543 146q0 -69 58 -69q6 0 19 10.5t17 10.5q7 0 7 -7q0 -9 -103 -103q-15 6 -59 38l-47 34q-4 0 -47 -30q-26 -17 -53 -36q-147 42 -211 42q-45 0 -68 -16q-17 -12 -49 -53q-12 4 -12 15q1 0 9 10q116 140 211 264q-84 28 -139 75q-71 60 -71 134q0 97 101 150
q80 42 188 42q109 0 203 -49q23 43 60 56q-14 -65 -14 -317v-201zM435 266v67v39q-1 22 -1 28q0 73 21 108q6 9 6 12q0 6 -5 6q-10 0 -99 -122q-7 -9 -104 -133q47 -9 94 -9q63 0 88 4zM431 91v146q-17 -1 -74 -1q-74 0 -122 14l-140 -179q4 0 20 4t18 4q57 12 116 12
q93 0 138 -5q2 0 17 -4.5t18 -4.5q9 0 9 14zM223 590q-67 0 -121 -31q-65 -37 -65 -99q0 -67 65 -120q50 -41 127 -65q181 214 181 235q0 8 -20 23q-76 57 -167 57z" />
    <glyph glyph-name="B" unicode="B" horiz-adv-x="608" 
d="M259 521l-42 -28v-283q0 -10 -43 -48t-44 -46l3 -2q6 0 33 10t38 10q17 0 55 -8v395zM276 322v-199q19 -5 81.5 -28t70.5 -23q21 0 21 56q0 115 -28 150q-34 42 -145 44zM276 528v-177q0 -9 4 -9q11 0 93.5 71t82.5 80q0 10 -56 41t-71 31q-13 0 -33 -12.5t-20 -24.5z
M107 175v258q0 115 -63 115q-22 0 -40 -36l-11 9q2 16 56 67.5t70 51.5q18 0 57.5 -52.5t38.5 -71.5q8 5 44 29v119l8 9l9 -9v-104q20 17 62 51q47 38 61 38q17 0 84 -44t69 -58q-7 -12 -69 -66q-48 -42 -80 -69q31 -18 92 -56q36 -24 47 -73q5 -25 5 -89q0 -52 -71 -124
t-123 -72q-32 0 -101 23t-103 23q-127 0 -127 -120q0 -8 2 -28l-5 -3q-11 0 -18 23q-6 19 -6 33q0 84 103 145q9 39 9 81z" />
    <glyph glyph-name="C" unicode="C" horiz-adv-x="631" 
d="M364 348q0 -70 -22 -108q-18 -32 -63 -57l-94 -53q68 -41 160 -41q117 0 196 41q47 31 54 31q4 0 4 -5q0 -10 -45.5 -55.5t-61.5 -57.5q-31 -23 -95 -37q-55 -12 -104 -12q-132 0 -215 79t-83 211q0 58 16 125q20 82 51 111q14 13 42 29q34 19 43 26q0 25 6 53
q9 41 24 41q5 0 5 -4t-4.5 -19.5t-4.5 -21.5q0 -17 12 -17q8 0 51.5 26.5t60.5 26.5q14 0 68 -15q97 -27 147 -27q15 0 39 10t26 10q8 0 8 -9t-56 -56t-67 -47q-39 0 -124.5 34.5t-124.5 34.5q-27 0 -27 -15q0 -19 46 -55q22 -16 65 -50q40 -34 52 -54q15 -25 15 -73z
M148 556q-21 -2 -38 -90q-14 -75 -14 -114q0 -131 54 -189q14 -15 20 -15q11 0 32 13q61 38 61 142q0 41 -12.5 73.5t-48.5 89.5q-42 65 -54 90z" />
    <glyph glyph-name="D" unicode="D" horiz-adv-x="811" 
d="M755 391q0 -46 -17 -121q-19 -83 -42 -111q-35 -42 -136.5 -99.5t-153.5 -62.5q-193 57 -272 57q-33 0 -67.5 -28.5t-37.5 -28.5l-4 3q0 6 111 110q29 27 37 51q7 20 7 63q0 126 -89 126q-36 0 -36 -27q0 -2 1.5 -9.5t1.5 -10.5q0 -7 -5 -7q-18 0 -18 43q0 31 23.5 54.5
t54.5 23.5q25 0 44 -14t25 -16l1 3v83q0 19 43 47.5t43 35.5q0 5 -5 3q-6 -4 -9 -4q-25 0 -75 -4.5t-75 -4.5q-23 0 -69 48.5t-46 71.5q0 6 6 6q4 0 15 -11q21 -25 85 -25q49 0 145.5 10.5t145.5 10.5q152 0 248 -55q120 -69 120 -211zM339 126v430h-50l1 -317q0 -9 -47 -50
t-47 -45q0 -3 32 -3q57 0 111 -15zM357 310q42 38 130 116q6 -1 86 -81l59 51q-7 75 -90 121q-70 39 -153 39h-32v-246zM357 283v-161q152 -49 181 -49q12 0 23 10q79 75 79 241q0 36 -3 52q-50 -46 -138 -119q-10 1 -43.5 37t-40.5 36q-5 0 -58 -47z" />
    <glyph glyph-name="E" unicode="E" horiz-adv-x="709" 
d="M342 598l107 62q13 -3 98 -29q69 -21 91 -21q13 0 27 11q9 -3 9 -8q0 -13 -104.5 -90.5t-104.5 -85.5q0 -6 8 -6q73 0 120 4q-1 -13 -5 -56q-3 -31 -3 -56q0 -14 1 -25v-25q0 -4 -8 -4q-9 0 -11 21q-1 11 0 26q1 13 1 19q0 12 -4 15t-20 3h-174q-10 0 -16 3v-132
q-1 -5 -35 -31q-27 -16 -41 -27q-23 -18 -34 -36q221 -46 312 -46q24 0 69 21.5t38 21.5q9 0 9 -9q0 -7 -51 -53.5t-62 -50.5q-34 -28 -68 -28q-53 0 -134 20l-325 80q-13 3 -29 12q5 9 173 141q-1 117 -107 117q-9 0 -26.5 -6t-18.5 -6q-6 0 -6 6q0 8 113 87t113 97
q0 36 -64 63q-52 22 -96 22q-8 0 -35.5 -4t-34.5 -4q-2 1 -2 7q0 15 61 28q46 10 77 10q101 0 192 -58zM544 533q0 16 -85 36q-72 17 -107 19v-193q0 -1 -2 -6q-1 -4 1 -4q15 0 104 68.5t89 79.5zM244 500q-14 -9 -151 -114q42 -2 36 -2q60 0 113 -65h2v181zM244 215v52
q-25 -15 -71 -50q-57 -43 -57 -51t51 -21q35 -9 64 -13q13 48 13 83z" />
    <glyph glyph-name="F" unicode="F" horiz-adv-x="571" 
d="M199 359h-46q-133 0 -133 -63q0 -11 -5 -11q-4 0 -9 12t-5 25q0 58 51 92q45 30 106 30q41 0 41 12v108q0 20 -15 21l255 100q127 -52 127 -56q0 5 -17 -26q-35 -62 -57 -155q-18 -75 -18 -121q0 -43 3 -55v-3q-5 4 -8 4q-10 0 -10 79q0 8 -19 8h-67v-443q0 -4 -8 -4
q-10 0 -10 4v682q0 28 -14 28q-36 0 -36 -38v-533q0 -37 -12 -48q-114 -105 -199 -128q-55 40 -97 40q-47 0 -47 -33q0 -5 3.5 -14.5t3.5 -10.5q0 -5 -8 -5q-16 0 -16 34q0 45 34 77.5t79 32.5q26 0 77.5 -32l51.5 -32q10 0 17 27t7 64v331zM475 449l27 83q6 18 6 26
q-1 3 -5 4q-27 13 -73 44q-31 21 -51 21q-6 0 -6 -46v-132h102z" />
    <glyph glyph-name="G" unicode="G" horiz-adv-x="772" 
d="M304 582v-218q174 91 265 160q-35 12 -130 43q-99 32 -122 32q-13 0 -13 -17zM304 326v-275q99 -29 161 -29q70 0 114 42.5t44 111.5q0 90 -60.5 141t-151.5 51q-35 0 -63 -7q-44 -11 -44 -35zM214 626q6 0 6 -5q-1 -4 -11 -20q-89 -113 -89 -241q0 -90 44 -173
q46 -87 122 -129v607q0 3 9 8t13 5q0 -2 -1 -30q-1 -30 1 -31q8 -2 51 24q18 11 54 32q207 -64 269 -64q8 0 51 10q3 -1 3 -5q0 -17 -119 -86t-119 -74q0 -3 38 -11q184 -40 184 -185q0 -139 -112 -207q-93 -57 -240 -57q-156 0 -252 74q-105 82 -112 233q-11 232 210 325z
" />
    <glyph glyph-name="H" unicode="H" horiz-adv-x="757" 
d="M503 563l15 -7q112 -52 130 -86q6 -11 6 -31v-389q0 -20 16 -20q9 0 35 11.5t30 11.5q8 0 8 -8q0 -18 -131 -60q-72 -23 -68 -23q-5 0 -5 22v285h-195v-175q0 -11 6 -11q3 0 18 9t17 9q8 0 8 -9q0 -11 -65.5 -58.5t-81.5 -47.5q-21 0 -167 79q47 57 61 82q25 46 25 98
q0 63 -26 104q-31 49 -90 49q-14 0 -28 -12.5l-14 -12.5q-10 0 -10 13q0 34 36 61q33 25 68 25q11 0 32 -8t25 -8q5 0 5 5v81q0 14 -30 28q-26 13 -42 13q-15 0 -33 -12l-18 -12q-9 0 -9 9q0 17 52 57q36 28 69 47q12 -4 55.5 -26.5t52.5 -29.5q18 -16 18 -53v-265
q0 -46 -27 -81q-14 -18 -50 -44q-27 -19 -27 -32q0 -7 60 -36t74 -29q18 0 18 28v540q0 14 9 14t9 -14v-175q79 53 159 94zM344 424v-84h182q15 0 15 3v58q0 36 -47 58q-38 18 -78 18q-23 0 -46 -15q-26 -16 -26 -38zM541 324h-197v-39h184q13 0 13 4v35z" />
    <glyph glyph-name="I" unicode="I" horiz-adv-x="433" 
d="M150 -6q-16 0 -45 12t-45 12t-30 -9q-17 -10 -17 -25q0 -3 1.5 -12.5t1.5 -11.5q0 -7 -7 -7q-13 0 -13 23q0 40 53 108q27 34 80 101q-66 20 -66 78t57 122q38 43 107 98q58 46 59 56q-60 2 -128 25q-37 13 -59 13q-19 0 -34.5 -11t-15.5 -28q0 -5 5.5 -17t5.5 -15
q0 -4 -7 -4q-8 0 -14 19q-4 13 -4 26q0 28 42.5 75.5t69.5 47.5q23 0 98.5 -33t113.5 -33q6 0 23.5 4.5t21.5 4.5l5 -3q0 -4 -17 -27q-49 -67 -49 -127q0 -55 8.5 -164.5t8.5 -164.5q0 -17 -8 -28q-5 -5 -24 -17q-141 -88 -178 -88zM278 505q-10 0 -51 -42q-51 -52 -57 -60
q-36 -43 -36 -70q0 -44 69 -44q40 0 47 22q2 6 2 57q0 63 23 114q8 18 8 20q0 3 -5 3zM248 271q-17 -8 -80 -75t-63 -79q0 -6 16 -10q12 -3 63 -27.5t53 -24.5q22 0 22 36q0 30 -5.5 90t-5.5 90z" />
    <glyph glyph-name="J" unicode="J" horiz-adv-x="511" 
d="M-79 -150h-15q-2 16 -2 18q0 53 59 83q47 24 106 24q39 0 112.5 -24t98.5 -24q32 0 51 51q15 40 15 78q0 69 -33 115q-37 52 -103 52q-18 0 -33 -8q-22 -12 -27 -14q-2 2 -2 6q0 36 33 63.5t70 27.5q31 0 87 -32v10q0 52 -19 89q-25 47 -71 47q-4 0 -37.5 -18.5
t-57.5 -18.5q-53 0 -87 43q-32 40 -32 94q0 63 43.5 113t106.5 50q35 0 103 -26t103 -26q28 0 62 21q4 0 4 -5t-5 -19q-16 -45 -16 -114q0 -50 4 -148.5t4 -148.5q0 -112 -13 -157q-6 -21 -36 -58q-100 -124 -237 -124q-32 0 -95 17.5t-93 17.5q-24 0 -37.5 -15.5
t-10.5 -39.5zM49 504q0 -44 32 -78t76 -34q26 0 50 14q28 16 28 40q0 17 -15 22l-18 6q1 13 21 13q21 0 25 -16q2 -10 1 -33q2 0 16.5 4.5t19.5 4.5q10 0 27.5 -12.5t18.5 -12.5q6 0 6 7q0 2 -1.5 11t-1.5 12q0 36 20 71q11 20 38 48q20 21 20 26q0 3 -5 3q-1 0 -19.5 -7.5
t-19.5 -8.5q-38 -13 -84 -13q-24 0 -71.5 11t-71.5 11q-40 0 -66 -25t-26 -64z" />
    <glyph glyph-name="K" unicode="K" horiz-adv-x="766" 
d="M249 597v-371q0 -50 -28 -85q-15 -19 -60 -54q-41 -33 -57 -57l3 -4q109 35 194 41l3 582q-30 -11 -39 -17q-16 -11 -16 -35zM758 127l10 -10q-23 -28 -62 -68q-51 -52 -68 -52q-18 22 -69 82q-59 -46 -81 -59q-49 -29 -93 -29q-29 0 -87 5t-87 5h-83q-21 0 -60 -11.5
t-56 -11.5l-6 5q3 1 19 17q75 53 94 119q12 41 12 158q0 72 -18 121q-26 72 -85 72q-19 0 -39 -7l-5 5q0 5 35 28l146 98q85 57 149 90q-6 -18 -6 -39v-77l2 -7q4 2 164 102q26 -10 64 -58q25 -31 53 -69q-26 -18 -79 -54q-63 -43 -68 -57q47 -33 105 -120q37 -59 74 -117
q64 -96 80 -96q10 0 45 35zM318 326v-238q0 -21 -1 -13q1 -7 7 -7q32 0 94.5 7.5t93.5 7.5q50 0 50 14q0 8 -65.5 118t-75.5 117q-47 31 -70 31q-11 0 -22 -12.5t-11 -24.5zM318 542v-173q22 8 106 61.5t84 67.5q-22 24 -66 76q-21 25 -29 25q-7 0 -95 -57zM156 551
q-9 0 -38 -18t-36 -27q6 -6 28 -14.5t31 -8.5q5 0 5 3v62q1 3 10 3z" />
    <glyph glyph-name="L" unicode="L" horiz-adv-x="665" 
d="M334 88h181q63 0 101 24q13 8 19 8q5 0 5 -5q0 -22 -108 -121q-14 -13 -25 -13q-18 0 -51 6q-169 31 -289 31q-96 0 -155 -18q-6 9 -6 10q0 3 3 3q81 31 115 75t34 119q0 230 -132 230q-24 0 -41 -12.5t-16 -30.5l1 -13q0 -6 -4 -6q-7 0 -14 12t-7 29q0 43 33.5 70
t86.5 24q28 -2 50 -13q3 -1 45 -29v75q0 5 -17 17q72 26 272 103q66 -45 104 -45q18 0 36 8l10 -9l-12 -10q-24 -19 -85 -70q-31 7 -77 33l-46 26q-11 0 -11 -15v-493zM264 586v-374q0 -79 -120 -152q-11 -7 -11 -12q62 17 183 39v520l-6 -9q-11 -1 -46 -12z" />
    <glyph glyph-name="M" unicode="M" horiz-adv-x="961" 
d="M441 327h-115v-327l-8 -12l-10 12v43h-18q-14 0 -49 -25q-16 -12 -49 -35q-46 26 -90 39l-45 -38l-13 12q26 25 77 74q34 40 34 116q0 57 -22 111q-29 71 -77 71q-18 0 -38 -33q-12 11 -12 31q0 33 22.5 57t54.5 24q14 0 37 -12t30 -12h5l3 77q1 18 -45 42q-54 28 -60 36
q-12 2 -26 -12l-8 12q5 10 46.5 47.5t48.5 37.5q23 0 145 -77q16 2 74 34q65 37 83 41q11 3 71.5 -47.5t60.5 -64.5q35 14 83 49q40 30 79 59q152 -51 152 -70l-9 -8t-9 -15v-454q17 -11 65 -37q2 0 8 9.5t9 9.5l11 -11q-45 -58 -93 -93q-30 10 -66 36q-45 32 -45 54v333
q0 41 42.5 100t42.5 64v1l-75 -46q-71 37 -97 37q-15 0 -27 -16v-554l-10 -12l-7 11v42q-41 -6 -87 -52l-74 76v265zM326 563v-151h115l-1 96q-76 73 -97 73q-17 0 -17 -18zM602 409v131q-2 2 -4 3q-8 0 -29 -13t-21 -20v-101h54zM309 69v487q0 18 -6 24q-19 -1 -43 -19
v-259q0 -94 -10 -115q-6 -13 -69 -82q29 -36 118 -36h10zM602 67v261h-54l1 -205q0 -51 53 -56z" />
    <glyph glyph-name="N" unicode="N" horiz-adv-x="786" 
d="M328 568v-218h238v102q0 43 -81 90q-76 44 -122 44q-35 0 -35 -18zM565 334h-237v-39h237v39zM565 279h-222q-5 0 -15 -7v-69q0 -98 -24 -145q-34 -64 -123 -64q-26 0 -76 15t-76 15q-33 0 -39 -22q-8 -30 -13 -34q-19 20 -19 48q0 44 30.5 77t74.5 33q34 0 70 -18
q19 19 19 69v315q0 32 -34.5 69t-66.5 39l-33 -19l-8 16q43 22 149 68q28 -17 103 -95q101 37 209 95q93 -49 129 -79q74 -60 74 -122v-333q0 -19 46 -44q10 3 35 27l12 -9q-64 -91 -105 -108q-62 38 -81 77q-16 32 -16 110v95zM310 561l-6 9l-41 -18v-361q0 -29 -72 -68
q-12 -6 -44 -25q2 -8 47 -21q41 -12 56 -12q60 0 60 120v376z" />
    <glyph glyph-name="O" unicode="O" horiz-adv-x="838" 
d="M230 82v527q-121 -56 -121 -232q0 -73 32 -162q36 -101 89 -133zM775 335q0 -158 -111 -255q-106 -92 -266 -92q-171 0 -276 76q-120 86 -120 250q0 163 124 260q114 89 281 89q163 0 261 -81q107 -87 107 -247zM646 402q-12 104 -121 167q-95 55 -208 55q-33 0 -69 -7
v-369q79 53 205 142q11 -2 73 -69q20 8 61 38q20 14 59 43zM657 291q0 40 -8 91q-20 -12 -110 -81q-78 -60 -101 -69q-21 26 -34 40q-28 29 -39 30q-48 -36 -117 -82v-152q68 -59 184 -59q119 0 176 85q49 72 49 197z" />
    <glyph glyph-name="P" unicode="P" horiz-adv-x="808" 
d="M316 54v-148q9 -9 61 -16q61 -8 76 -15l-12 -6h-328q-6 1 -16 7l12 7q27 0 27 24v171q-24 9 -49 9q-29 0 -49 -18t-20 -44q0 -15 7 -29l-7 -4q-21 20 -21 53q0 67 37.5 113.5t103.5 42.5q0 30 -3 89t-3 89q0 72 39 115q28 29 105 70v5l-32 -1q-33 -1 -91.5 24.5
t-85.5 25.5q-48 0 -48 -27q0 -11 16 -31l-10 -9q-29 20 -29 47q0 44 27.5 69.5t72.5 25.5t130 -46t118 -46q23 0 80 27t84 27q40 0 146 -75q56 -40 74 -91q13 -38 13 -119q0 -120 -29 -169q-25 -43 -131 -113q-20 -14 -61 -41q-44 -28 -67 -28q-25 0 -70 17t-67 18zM298 169
v386q-30 -22 -40 -39.5t-10 -53.5v-275q0 -10 50 -18zM316 565v-217q26 5 77 49q24 21 73 63q12 -12 43 -40l37 -34q65 44 65 59q0 47 -102 98q-91 46 -146 46q-20 0 -47 -24zM316 305v-141q183 -62 243 -62q39 0 57 93q12 62 12 131q0 58 -6 85q-30 -8 -77 -54
q-61 -60 -72 -68q-13 14 -41.5 42.5t-43.5 32.5q-72 -48 -72 -59zM298 60l-50 12v-110q0 -19 8 -38q10 -24 26 -24t16 18v142z" />
    <glyph glyph-name="Q" unicode="Q" horiz-adv-x="848" 
d="M113 383q0 -158 90 -274q12 -12 27 -26l2 380q0 127 -2 126q-49 -7 -86 -86q-31 -66 -31 -120zM764 -161q-61 38 -121.5 74.5t-109.5 51.5q-62 19 -142 19q-163 0 -271 84q-118 92 -118 251q0 163 142 260q126 86 297 86q150 0 245.5 -91t95.5 -240q0 -89 -44 -168
t-121 -133q194 -110 214 -110q19 0 64 30l13 -10zM251 599v-351q45 29 100 70q73 56 97 72l4 2l81 -70q42 27 115 77q-18 105 -119 167q-90 54 -204 54q-18 0 -74 -21zM251 225v-157q71 -58 187 -58q113 0 171 87q50 74 50 193q0 23 -7 89q-39 -17 -190 -143l-87 73
q-41 -27 -124 -84z" />
    <glyph glyph-name="R" unicode="R" horiz-adv-x="781" 
d="M334 283v-263q87 0 97 -15q-14 -8 -60 -8q-8 0 -58 2l-45 2q-76 0 -145 -11q-4 -1 -7 5q-1 4 0 9q41 17 41 27v457l-17 12q56 23 79 33q44 20 76 40q-6 4 -37 1q-25 -2 -40 -3q-20 -2 -62 12q-45 14 -65 14q-64 0 -64 -58q0 -23 34 -57l-8 -4q-23 0 -38 31q-12 25 -12 51
q0 44 31.5 73t77.5 29q35 0 107 -30t110 -30q33 0 90 20q77 27 90 30q54 -29 69 -44q30 -29 30 -72q0 -72 -19 -103q-11 -17 -51 -45q-43 -29 -58 -49q30 -22 137 -152q96 -117 113 -117q22 0 44 27l7 -11q-12 -24 -53 -53q-34 -24 -66 -38q-49 14 -102 91q-30 46 -91 137
q-50 71 -99 71q-23 0 -36 -11zM315 564l-52 -32v-501l10 -11h42v544zM333 572v-271q27 9 83 33q64 27 72.5 38t16.5 55q7 37 7 60q0 45 -37 77.5t-82 32.5q-26 0 -60 -25z" />
    <glyph glyph-name="S" unicode="S" horiz-adv-x="751" 
d="M220 171q13 14 75 116l-43 -1q-74 -2 -126 36q-57 42 -57 114q0 92 76 162t168 70q47 0 127 -31q86 -34 125 -38q57 45 97 69l7 -8q-24 -41 -116 -115t-119 -116l71 2q77 2 133 -40q62 -45 62 -120q0 -88 -91 -184.5t-178 -96.5q-32 0 -124 34q-115 42 -131 46
q-72 -175 -137 -175q-48 0 -48 79q0 68 31 136q39 85 97 85q22 0 101 -24zM183 344q-39 8 -77 56l-8 -6q26 -86 196 -86q16 0 51 1.5t54 1.5q77 -1 124 -21q53 -22 96 -79l2 3q-2 37 -39 70q-64 57 -147 57q-20 0 -59 -3t-59 -3q-8 0 -134 9zM472 508q-185 104 -264 104
q-29 0 -50 -26.5t-21 -56.5q0 -59 66 -87q47 -20 116 -20q37 0 90 4q25 31 63 82zM239 163l155 -58q111 -41 150 -41q29 0 47 36q15 29 15 61q0 84 -110 111q-57 14 -178 14q-26 -35 -79 -123zM158 73q-34 10 -55 10q-42 0 -68 -40q-23 -35 -23 -79q0 -53 33 -53q28 0 68 67
q28 48 45 95z" />
    <glyph glyph-name="T" unicode="T" horiz-adv-x="823" 
d="M489 89v448q-28 11 -44 11q-7 0 -12 -2v-376q-87 -26 -100 -45q59 -40 156 -36zM507 536v-447q76 2 138 23q46 16 128 53l3 -4q-6 -74 -121 -126q-95 -43 -176 -43q-144 0 -236 66q-103 75 -106 213q-3 143 85 234q38 39 89 64q-106 31 -142 26q-56 -8 -86 -20
q-49 -20 -49 -62q0 -24 15 -35q4 -3 30 -13l-17 -10q-26 0 -41 26q-13 22 -13 50q0 71 66 110q54 32 131 32q71 0 211.5 -28t211.5 -28q36 0 75 19q5 2 65 37l2 -2q0 -63 -58 -106q-53 -40 -118 -40q-19 0 -87 11zM316 136q20 12 20 191v237q-48 -42 -73 -118
q-22 -66 -22 -139q0 -117 75 -171z" />
    <glyph glyph-name="U" unicode="U" horiz-adv-x="777" 
d="M336 657v-264h218v95q0 17 -36.5 50t-53.5 33q-2 0 -21 -8t-20 -9l-8 8l127 94q38 -17 78 -62q43 -50 43 -87v-361q0 -46 33 -60q40 -11 67 -19q-35 -29 -55 -42q-43 -30 -58 -32q-30 21 -89 70q-22 -3 -87 -36.5t-67 -33.5q-51 0 -150.5 27t-150.5 27q-18 0 -27 -1l-6 4
q9 16 35.5 47t35.5 50q13 27 13 72q0 24 2.5 71t2.5 71q0 208 -125 208q-30 0 -49 -40q-16 -33 -16 -67q0 -35 20 -61t52 -26q49 0 49 35l-15 15l-22 -6l-6 8q0 25 28 25q31 0 31 -35q0 -56 -66 -56q-39 0 -64 34q-23 31 -23 72q0 59 43 116q38 52 94 83l84 -40
q54 -29 68 -57q16 -32 16 -102v-222q0 -14 -37 -53q-44 -46 -50 -57q12 -2 60 -9t84 -13v543l9 12zM336 373v-34h212q5 0 5 4v34h-206q-11 0 -11 -4zM336 323v-213q11 -2 89 -24q53 -15 89 -15q16 0 40 11v230q0 -4 1 -1q0 3 1 12q-5 0 -7 1z" />
    <glyph glyph-name="V" unicode="V" horiz-adv-x="772" 
d="M111 442q28 0 86 -33v64q0 35 -59 77q-56 39 -93 39q-7 0 -26 -19l-12 10q2 12 58.5 46.5t72.5 36.5q28 -14 90 -47q71 -38 81 -56l-3 -51q19 3 51 25v119l8 8l9 -8v-106l85 58q53 35 88 48q32 -16 95 -49q65 -36 65 -66q0 -95 -1 -167q-1 -94 0 -130q-12 -97 -96 -163
q-49 -37 -174 -92q-107 53 -219 118q-24 14 -25 89q-2 94 -10 121q-19 61 -89 61q-58 0 -58 -38q0 -15 17 -35l-7 -3q-14 0 -24 23q-8 18 -8 35q0 35 31 60t67 25zM357 517l-54 -33l1 -307l53 -35v375zM598 339v38h-224v-38h224zM598 393v122q-118 57 -142 57q-23 0 -82 -42
v-137h224zM374 323v-161q0 -21 -5 -23l126 -63q16 -8 32 -8q36 0 55 37q16 30 16 69v149h-224z" />
    <glyph glyph-name="W" unicode="W" horiz-adv-x="964" 
d="M618 571l48 24v71h17v-65q54 30 103 55q39 -24 70 -56q41 -42 41 -75v-212q0 -64 -16 -109.5t-57 -93.5q-19 -23 -71 -69q-60 -52 -73 -52t-87 43t-92 43q-5 0 -154 -80q-187 82 -187 91q50 80 50 142q0 52 -34 96.5t-85 44.5q-63 0 -63 -32q0 -6 6 -22t6 -19
q0 -5 -10 -5q-12 0 -20 24q-6 19 -6 35q0 42 49 79q33 25 92 52q54 25 57 29v2q0 12 -62 46t-79 34q-11 0 -32 -11l-21 -11q-4 0 -4 6q0 7 65.5 47.5t76.5 40.5q17 0 89 -47t80 -47q12 0 51 27v67h18v-59q98 59 129 59q7 0 51 -41q18 -17 54 -52zM316 554v-235
q0 -82 -63 -135q-22 -19 -22 -23q0 -12 135 -69v490zM384 586v-499l60 -11q25 0 43 13.5t18 35.5v389q0 29 -34 55.5t-64 26.5q-4 0 -13.5 -3.5t-9.5 -6.5zM611 133l55 -36v482q-55 -22 -55 -41v-405zM683 583v-491q63 -21 77 -21q13 0 22 51q7 42 7 65v319q0 27 -34 53.5
t-62 26.5q-10 0 -10 -3zM114 439q0 -4 25 -10q22 -9 70 -40v100q-33 -15 -89 -45l-2.5 -2t-3.5 -3z" />
    <glyph glyph-name="X" unicode="X" horiz-adv-x="667" 
d="M270 416v99q0 32 -21 42q-13 6 -52 6h-33h-20q-11 -1 -13 -1q-50 0 -87 23q-44 27 -44 74q0 10 5 10q6 0 15 -10q16 -18 73 -18q29 0 85.5 6.5t85.5 6.5q111 0 117 -111q12 3 40 27q0 41 1 102h17v-90q2 2 47 39q39 32 44 32q13 0 39.5 -13t39.5 -13q12 0 37 15q6 0 6 -7
q0 -19 -36 -52.5t-55 -33.5q-17 0 -48.5 16.5t-35.5 16.5q-12 0 -38 -23v-145q0 -12 40 -12q39 0 49 10q3 3 6 3q5 0 5 -7q0 -15 -19.5 -47t-33 -31.5t-47.5 -2.5v-218q96 -41 124 -41q15 0 36.5 16.5t22.5 16.5q7 0 7 -8q0 -11 -64.5 -61t-77.5 -50t-107 42t-110 42
q-9 0 -56 -36t-51 -36q-14 0 -42.5 9t-43.5 9q-26 0 -56 -15q-34 -18 -34 -41q0 -5 5 -17.5t5 -13.5q0 -3 -5 -3q-10 0 -16.5 16t-6.5 26q0 62 52 101q46 35 111 35q39 0 113 -17q11 0 19 31q6 25 6 42v158q0 18 -22 19q12 -1 3 -1q-10 -1 -38 -1q-27 0 -27 3q19 65 21 67
q6 8 55 8q8 0 8 7zM421 130v420q-30 -24 -37 -35q-11 -18 -11 -49v-297q0 -35 11 -40q24 -10 29 -10q8 0 8 11z" />
    <glyph glyph-name="Y" unicode="Y" horiz-adv-x="787" 
d="M193 85v126q0 65 -27 112q-33 57 -95 57q-40 0 -40 -33q0 -11 6 -25l-8 -3q-8 0 -14 17q-5 14 -5 24q0 35 33 58q29 20 67 20q46 0 83 -30v54q0 59 -30 97.5t-88 38.5q-22 0 -39 -13.5t-17 -33.5q0 -25 23 -51l-7 -8q-15 2 -29 31t-14 47q0 43 42 69q35 22 81 22
q62 0 117 -31q64 -35 70 -91q35 13 55 24l1 98l17 3v-92l168 89q18 9 178 -112v-196q0 -179 -106 -246q-77 -49 -244 -49q-11 0 -94 2l-91 2q-157 0 -157 -78q0 -72 136 -72q73 0 213 44.5t213 44.5q46 0 85 -19q50 -24 50 -64q0 -21 -16 -48q-17 -30 -37 -30l-9 4q1 1 9 17
q8 12 9 16q0 39 -69 39q-65 0 -190 -38t-190 -38q-89 0 -150 25q-86 35 -86 110q0 110 196 110zM357 545l-56 -24q0 -65 -1 -200q-1 -188 0 -237l-1 -1l58 -5v467zM375 553v-211q33 24 104 97l69 -69l65 58l1 74q-131 79 -163 79q-27 0 -76 -28zM375 80h35q133 0 176 85
q28 55 28 202v34q-44 -37 -125 -120l-76 72q-38 -20 -38 -28v-245z" />
    <glyph glyph-name="Z" unicode="Z" horiz-adv-x="796" 
d="M368 337h-96l80 82l113 -1q20 19 112 115l-32 -2q-58 -4 -162 24q-110 30 -162 30q-78 0 -134 -46q-60 -48 -60 -125q0 -40 25.5 -68.5t63.5 -28.5q31 0 54 23.5t23 55.5q0 39 -27 45l1 22q20 0 34 -23.5t14 -44.5q0 -45 -27.5 -73.5t-71.5 -28.5q-54 0 -83.5 33.5
t-29.5 89.5q0 106 84 182t191 76q55 0 163 -25t163 -25q82 0 136 67l12 -14l-254 -258l99 1l-74 -83l-118 -1q-125 -118 -297 -287l3 -6q29 0 145 35t175 35q22 0 76 -4q40 -3 76 -3q60 0 94 23q25 17 60 73l13 -9q-8 -51 -67 -123q-64 -78 -110 -78q-62 0 -185 15t-185 15
q-80 0 -170 -34l-8 7q5 18 156 162q176 167 187 180z" />
    <glyph glyph-name="bracketleft" unicode="[" horiz-adv-x="238" 
d="M222 -116l-180 1v815l150 -1l-1 -26q-58 1 -82 0v-760q25 -1 113 0v-29z" />
    <glyph glyph-name="backslash" unicode="\" horiz-adv-x="238" 
d="M124 1q-26 -14 -74 -34l-14 -10v493h-37v42q18 13 36 34v82q0 7 71.5 40.5t88.5 33.5q26 0 97 -21q11 -3 11 -10q0 -11 -16 -38.5t-25 -27.5q-3 0 -51 21t-61 21q-26 0 -26 -17v-609z" />
    <glyph glyph-name="bracketright" unicode="]" horiz-adv-x="291" 
d="M22 -116l180 1v815h-150l1 -27q57 1 82 0v-760q-31 -2 -113 1v-30z" />
    <glyph glyph-name="asciicircum" unicode="^" horiz-adv-x="341" 
d="M159 803h34l137 -100l-23 -11l-134 52l-131 -48l-22 7z" />
    <glyph glyph-name="underscore" unicode="_" horiz-adv-x="460" 
d="M13 -86h460v-44h-460v44z" />
    <glyph glyph-name="grave" unicode="`" horiz-adv-x="194" 
d="M191 670l-167 95l57 37l127 -115z" />
    <glyph glyph-name="a" unicode="a" horiz-adv-x="374" 
d="M205 246v111q0 83 -126 83q-23 0 -39 -48q-13 -39 -13 -69q0 -55 36 -77q28 -18 86 -18q56 0 56 18zM205 88v111q0 16 -14 16h-56q-34 0 -34 -20v-79q0 -22 23.5 -40t46.5 -18q34 0 34 30zM294 420v-348l11 -19q9 2 33 16l1 -19q1 -3 -23 -14q-14 -4 -29 -11
q-70 -32 -79 -32q-8 0 -11 9q-1 6 0 20q1 13 1 18q-9 1 -47.5 -25.5t-44.5 -26.5l-100 68q5 26 5 59q0 32 -5 71q14 7 73 34q-73 28 -73 105q0 31 29 108q32 84 57 84q27 0 105 -26q68 -23 106 -41q-1 -10 -9 -30z" />
    <glyph glyph-name="b" unicode="b" horiz-adv-x="384" 
d="M219 104v271q0 24 -29.5 43t-54.5 19q-22 0 -22 -29v-207q0 -134 82 -134q24 0 24 37zM108 675q4 -4 6 -52q1 -35 0 -92l-1 -62l10 -7q17 2 68 48q118 -58 118 -72v-338q0 -37 -61 -63q-33 -12 -100 -38q-141 60 -141 75q0 1 8 12t8 20v302q0 10 -22 42q20 20 24 58
q0 21 -1 64t-1 64l6 6l20 -15q6 0 28.5 23.5t30.5 24.5z" />
    <glyph glyph-name="c" unicode="c" horiz-adv-x="316" 
d="M109 427v-312q0 -26 36 -43q30 -14 58 -14q7 0 29.5 3t27.5 3l7 -9q-1 -7 -67 -34.5t-81 -29.5l-113 70l7 11t7 22v324q0 19 -9 20q19 9 136 74l96 -18q2 0 16.5 5t15.5 5h5q2 -1 4 -1q-43 -79 -53 -79q-18 0 -52.5 9t-52.5 9q-5 0 -11 -5.5t-6 -9.5z" />
    <glyph glyph-name="d" unicode="d" horiz-adv-x="392" 
d="M308 669v-574q0 -23 10 -23q3 0 18 10t17 10v-17q0 -9 -62.5 -45.5t-77.5 -36.5q-3 0 -3 10q0 8 2 24.5t2 24.5q0 5 -1 5q-7 0 -50 -25t-52 -25t-58.5 33t-49.5 39q18 18 18 26v328l-14 14q-6 6 182 83q20 -13 27 -13q2 1 2 5v103q0 26 -79 26q-4 0 -7 8q-2 6 0 8
q1 4 8 4q15 0 51.5 -11t49.5 -11q11 0 39 20t31 20q2 -2 0 -8q-1 -5 -3 -12zM111 447v-305q0 -14 34.5 -41.5t50.5 -27.5q22 0 22 30v311q0 11 -37.5 33.5t-50.5 22.5q-19 0 -19 -23z" />
    <glyph glyph-name="e" unicode="e" horiz-adv-x="333" 
d="M111 226q0 -97 -1 -109q100 -55 119 -55q12 0 32 10t26 10l5 -10q0 -7 -133 -74l-76 34q-63 31 -73 42q11 14 11 30v325l-9 14l149 78q5 3 51 -29t51 -32q6 0 14 9.5t9 9.5l8 -6q-3 -11 -84 -117zM111 252h2q93 119 93 130q0 15 -96 84z" />
    <glyph glyph-name="f" unicode="f" horiz-adv-x="238" 
d="M36 -43v493h-37v42q18 13 36 34v82q0 7 71.5 40.5t88.5 33.5q26 0 97 -21q11 -3 11 -10q0 -11 -16 -38.5t-25 -27.5q-3 0 -51 21t-61 21q-26 0 -26 -17l2 -106h60v-57h-60q-2 -34 -2 -446q-26 -14 -74 -34z" />
    <glyph glyph-name="g" unicode="g" horiz-adv-x="424" 
d="M116 420l1 -269l79 -62l45 38q-17 87 -17 128q0 42 26 82q29 45 68 45l5 -4q-13 -48 -13 -76q0 -96 41 -240q6 -45 6 -82q0 -48 -12 -60q-7 -7 -80.5 -46.5t-78.5 -39.5q-25 0 -135 76l-72 -69l-17 15q46 60 169 168q-40 26 -111 75q4 11 7 28v287q0 15 -26 15l-1 1
q3 3 10 4q46 21 163 80q35 -7 203 -49l-28 -72q-28 9 -82 25q-87 23 -136 25q-14 -8 -14 -23zM110 -25q24 -17 70 -42q55 -30 72 -30q20 0 20 64q0 29 -5 70q-7 57 -18 57q-14 0 -71 -53q-22 -22 -68 -66z" />
    <glyph glyph-name="h" unicode="h" horiz-adv-x="385" 
d="M19 4l-1 429q0 5 -7.5 14.5t-7.5 10.5q7 11 15 24l1 128q0 2 -5 20q-3 11 -4 18q6 -2 19 -12q19 -11 21 -11q11 0 37.5 34.5t29.5 34.5q-4 -21 -9 -43v-180q0 -2 2 -2q10 0 52 24.5t48 24.5q11 0 60 -30t49 -36q-14 -26 -14 -35v-337q0 -17 15 -17l25 4q4 0 2 -17
l-141 -58l9 26v389q0 22 -40 38q-28 11 -46 11q-21 0 -21 -14v-437z" />
    <glyph glyph-name="i" unicode="i" horiz-adv-x="234" 
d="M53 91v311q0 11 -19 27q-26 17 -26 20q0 6 60 72l92 -75q-8 2 -9 -1q-8 -13 -8 -28v-316q0 -29 26 -46q9 -3 9 -7q0 -11 -67 -57l-74 63q16 22 16 37zM147 651l-130 -75q11 -21 14 -20q12 4 37.5 11t37.5 11q66 19 67 18q0 -5 -26 55z" />
    <glyph glyph-name="j" unicode="j" horiz-adv-x="228" 
d="M67 521q15 -6 85 -70q-7 -7 -14 -48l-1 -394q0 -38 -67 -105q-8 -8 -36 -30t-34 -23l-7 7q39 56 45 71q9 23 9 80v383q0 24 -16 41l-30 31q10 4 31 27.5t35 29.5zM127 661l-130 -75l14 -20l90 27l44 12q4 1 8 1q-1 1 -4 6q-9 17 -22 49z" />
    <glyph glyph-name="k" unicode="k" horiz-adv-x="366" 
d="M17 638q5 0 19 -12t21 -12q10 0 32.5 30.5t27.5 30.5q3 0 0 -7q-3 -6 -4 -9v-178q0 -15 2 -13q8 3 44 24q32 18 42 18q8 0 50.5 -29.5t41.5 -31.5q-4 -11 -6 -56q0 -10 5 -27.5l5 -17.5q0 -4 -4 -7q-14 -8 -44 -24q-40 -21 -40 -26q0 -7 52 -144q31 -82 46 -82
q1 0 10 5.5t11 5.5q9 0 9 -12q0 -7 -88 -67q-75 133 -73 161q1 19 -17 52.5t-35 33.5q-11 0 -11 -8l-1 -235l-89 -1v404q0 2 -8 10.5t-8 9.5t8 10t8 14l-1 161q-1 6 -4 17t-1 12zM113 435v-165q0 -4 4 -4q41 0 66 28.5t25 71.5q0 37 -20 60t-55 23q-20 0 -20 -14z" />
    <glyph glyph-name="l" unicode="l" horiz-adv-x="207" 
d="M82 -6q-5 0 -40.5 28.5t-35.5 32.5q0 3 14 15.5t14 21.5v319q0 1 -10 11t-10 11t9.5 9t10.5 13v175q0 3 -2 13q27 -21 32 -21q10 0 60 56v-577q0 -20 37 -43q0 -7 -34.5 -35.5t-44.5 -28.5z" />
    <glyph glyph-name="m" unicode="m" horiz-adv-x="606" 
d="M139 2h-90v403l-44 40l69 69l69 -55q86 53 95 53q14 0 96 -50q80 50 84 50q6 0 116 -71q-11 -22 -11 -35v-339q0 -30 12 -30q2 0 12 3.5t11 3.5q3 0 3 -14q0 -8 -129 -44q1 19 1 415q0 6 -33 25t-51 19t-18 -34v-409h-90v361q0 77 -76 77q-26 0 -26 -25v-413z" />
    <glyph glyph-name="n" unicode="n" horiz-adv-x="436" 
d="M139 2l-91 -1v215v201l-37 33l63 58l67 -45l100 50q7 2 60.5 -30t53.5 -37q0 -4 -6 -8q-14 -10 -14 -30l-1 -358q30 14 39 14q3 0 3 -7q-2 -9 -3 -10q-47 -24 -61 -31q-40 -19 -65 -24l-1 377q0 33 -23 57.5t-54 22.5q-24 -2 -29 -13q-1 -2 -1 -36v-398z" />
    <glyph glyph-name="o" unicode="o" horiz-adv-x="384" 
d="M28 106l1 321q0 4 -9 11.5t-9 9.5q1 1 9 5l150 69q16 0 87 -34t71 -41q0 -3 -6 -9.5t-6 -11.5v-351q0 -3 -10 -10t-14 -8q-76 -36 -119 -59l-162 79q17 8 17 29zM222 76q2 6 2 26l1 279q0 22 -42 45q-38 22 -62 22q-4 0 -4 -12t1 -61v-86v-148q0 -27 39 -44
q44 -14 65 -21z" />
    <glyph glyph-name="p" unicode="p" horiz-adv-x="404" 
d="M45 -159v151q-27 0 -33 2t-6 11q0 15 23 49q16 24 16 29v326l-35 44q0 6 29 31t37 25q6 0 30.5 -24.5t31.5 -24.5q4 0 43 26t47 26q12 0 66 -31.5t54 -38.5q0 -5 -7.5 -10t-7.5 -13v-328q0 -31 -2 -37.5t-14 -14.5q-90 -57 -95 -57q-19 3 -87 10v-78q0 -36 51 -54
q18 -6 18 -10q0 -9 -25 -9q-39 0 -85 29q-7 6 -12 6q-3 -2 -11 -14q-14 -21 -26 -21zM135 423v-346q0 -9 44 -19q36 -8 48 -8q16 0 16 32v301q0 26 -26 46.5t-60 20.5q-22 0 -22 -27z" />
    <glyph glyph-name="q" unicode="q" horiz-adv-x="396" 
d="M20 99v344q0 14 41 32q87 39 83 39q14 0 94.5 -31.5t80.5 -34.5t-3 -6q-10 -13 -10 -28v-485q0 -13 4 -37.5t4 -37.5q0 -11 -5 -11q-12 0 -13 23q-3 52 -14 52q-12 0 -48 -41q-9 -10 -15 -10q-9 0 -9 11q0 15 2 59l3 59v21q0 27 -6 27q-14 0 -50 -23t-45 -23q-6 0 -58 30
l-7 4q-43 25 -43 35q14 16 14 32zM216 71v298q0 25 -41 47q-33 18 -54 18q-11 0 -11 -10v-304q0 -25 34 -41q29 -14 59 -14q13 0 13 6z" />
    <glyph glyph-name="r" unicode="r" horiz-adv-x="310" 
d="M144 428v-303q0 -23 10.5 -37t40.5 -31q17 -10 18 -12q0 -11 -83 -45q-10 0 -51 28.5t-41 35.5q0 2 9 14t7 29v254q0 37 -2 46q-6 19 -30 31q-14 7 -14 14q0 10 24.5 36.5t32.5 26.5q7 0 40.5 -22.5t37.5 -22.5q13 0 39 23.5t28 23.5q13 0 44.5 -22.5t31.5 -34.5
q0 -9 -13 -59.5t-15 -50.5q-10 0 -16 17q-9 23 -33 52q-28 32 -48 32q-17 0 -17 -23z" />
    <glyph glyph-name="s" unicode="s" horiz-adv-x="400" 
d="M329 206v-95q0 -32 -6 -42t-33 -21q-8 -3 -52.5 -28t-48.5 -25q-19 0 -85 26l-69 27q-15 0 -15 -57q0 -8 -9 -8q-11 0 -11 30q0 66 81 162q17 20 17 25q0 9 -33 30.5t-33 29.5q0 1 5.5 15t4.5 19v158l82 38q60 28 64 28q11 0 54.5 -41t46.5 -41q6 0 22 27t18 27
q4 0 22 -9q-110 -146 -110 -166q0 -7 51 -34t51 -34q-1 -4 -4 -7q-10 -13 -10 -34zM148 458q-24 0 -24 -15v-141q0 -9 14.5 -19t25.5 -10t66 82q-73 103 -82 103zM239 114v70q0 29 -14 43q-10 9 -39 19q-8 3 -54 -44.5t-46 -61.5q0 -11 68 -46q55 -28 71 -28q14 0 14 48z
" />
    <glyph glyph-name="t" unicode="t" horiz-adv-x="335" 
d="M141 445l1 -293q0 -99 105 -91q36 3 37 4q0 -6 -17 -14l-98 -46q-5 -7 -11 -13q-41 0 -80 24q-42 26 -42 61q0 4 3 5q13 19 13 58v299q0 15 -49 46q10 4 96 70q28 22 42 34v-86h124v-58h-124z" />
    <glyph glyph-name="u" unicode="u" horiz-adv-x="402" 
d="M226 82v325q0 25 -22 37q-1 0 -41 19q2 8 63 59q103 -55 103 -67q0 -3 -6.5 -24.5t-6.5 -29.5v-303q0 -19 18 -19q4 0 10 1l6 -7q-10 -10 -58 -42.5t-61 -38.5q-5 22 -5 59q-19 -4 -51.5 -25t-47.5 -25q-11 2 -60.5 31.5t-54.5 38.5q18 11 18 32v298q0 24 -15 32
q-10 6 -21 14q45 75 51 75t85 -65q-5 -13 -10 -25v-246q0 -52 12 -77q17 -37 63 -37q21 0 31 10z" />
    <glyph glyph-name="v" unicode="v" horiz-adv-x="404" 
d="M326 402v-322q0 -8 -74 -40l-55 -24q-30 -13 -32 -13q-4 0 -76 35q-65 31 -65 41q0 1 4 5q12 9 12 47v271q0 30 -30 52q-6 5 -6 9q0 8 27.5 32t35.5 24q3 0 29.5 -22.5t37.5 -22.5q8 0 50 24.5t50 24.5q39 0 74 -17q41 -20 41 -50l-5 -5q-18 -13 -18 -49zM130 406v-221
q0 -47 25 -77.5t63 -30.5q18 0 18 38v265q0 36 -21 58t-56 22q-22 0 -27 -18q-2 -8 -2 -36z" />
    <glyph glyph-name="w" unicode="w" horiz-adv-x="597" 
d="M301 29l-36 18q-4 -1 -55 -24q-44 -20 -47 -20q-12 0 -78 33.5t-66 41.5q16 19 16 29v298q0 30 -25 46q-9 6 -9 9q0 8 27 33.5t35 25.5l29 -22.5t37 -22.5q11 0 44 21q42 27 58 27q7 0 47 -23.5t50 -25.5q14 2 40 21q38 28 57 28q8 0 63 -32l12 -7q38 -22 38 -27
q0 -6 -4.5 -8.5t-8.5 -4.5q-6 -7 -6 -31v-322q0 -15 -4.5 -19t-42.5 -20q-114 -48 -111 -48q-8 0 -60 26zM125 438v-244q0 -51 24 -83.5t61 -32.5q22 0 22 30v279q0 29 -23.5 51t-55.5 22q-28 0 -28 -22zM322 429v-229q0 -53 25 -87.5t63 -34.5q19 0 19 28v278
q0 31 -24.5 54t-56.5 23q-26 0 -26 -32z" />
    <glyph glyph-name="x" unicode="x" horiz-adv-x="401" 
d="M135 228l-61 153q-16 39 -59 61q-20 10 -20 16q5 6 31 33.5t33 27.5q8 0 46.5 -25.5t44.5 -25.5q13 0 70 51q8 -4 45 -25q55 -32 55 -40t-56.5 -77t-56.5 -84q0 -7 15 -45l32 -82q17 -47 27 -61q17 -25 53 -34q16 -4 16 -8q0 -9 -28.5 -34.5t-39.5 -25.5q-12 0 -43 21
t-38 21q-6 0 -37.5 -26t-42.5 -26q-6 0 -39 17t-40 17q-10 0 -32.5 -42.5t-24.5 -42.5q-6 0 -6 9q0 13 16 46q24 49 58 94l13 17q77 100 69 120zM87 106q0 -7 44 -27q41 -18 57 -22q7 0 7 6q0 127 -51 127q-4 0 -30.5 -39t-26.5 -45zM220 341l37 52q5 7 -33.5 31.5
t-55.5 24.5q-15 0 -15 -12q0 -16 19 -67q19 -54 27 -54q3 0 21 25z" />
    <glyph glyph-name="y" unicode="y" horiz-adv-x="424" 
d="M36 86v310q0 20 -13 35q-3 4 -27 24q6 11 62 59l82 -69l-14 -16v-271q0 -44 26.5 -75.5t67.5 -31.5q12 0 14 11v300q0 40 -16 57q-5 7 -49 34q53 60 65 61l118 -63q-19 -11 -24 -32q-3 -9 -4 -37q1 1 1 -320q0 -14 -80 -33q-113 -27 -149 -42q-80 -33 -80 -80
q0 -22 21 -36q18 -12 41 -12q44 0 121.5 48t105.5 48t47.5 -17t19.5 -43q0 -15 -6 -29q-7 -18 -20 -18l-8 5q11 14 11 27q0 26 -37 26q-26 0 -101.5 -31.5t-118.5 -31.5q-90 0 -90 68q0 35 36 61q19 14 67 34q-42 24 -88 54q19 22 19 26z" />
    <glyph glyph-name="z" unicode="z" horiz-adv-x="413" 
d="M290 285l-57 -72l-62 16l-84 -126q10 -10 256 -10q2 1 22 4q13 2 18 -4q-5 -13 -62 -92q-154 21 -223 21q-58 0 -70 -4q-4 -1 -16 -18q-15 -19 -23 -25l-10 7q2 40 167 252l-66 15l57 70l53 -14l70 91q-11 20 -265 66l71 71q162 -44 231 -44q7 0 24.5 1.5t20.5 1.5l4 -4
q0 -16 -128 -185z" />
    <glyph glyph-name="braceleft" unicode="{" horiz-adv-x="384" 
d="M222 297q-49 -46 -99 -103q-53 56 -110 107q48 44 106 110q49 -52 103 -100v389l168 1l1 -28q-43 -1 -82 0v-760q9 -1 84 1l-1 -30l-170 1v412z" />
    <glyph glyph-name="bar" unicode="|" horiz-adv-x="337" 
d="M198 -208v900h66v-900h-66z" />
    <glyph glyph-name="braceright" unicode="}" horiz-adv-x="423" 
d="M192 297q62 -61 98 -103q49 52 111 107q-48 44 -107 110q-43 -47 -102 -100v389l-168 1l-1 -28q48 -1 82 0v-760q-10 -1 -84 1l1 -30l170 1v412z" />
    <glyph glyph-name="asciitilde" unicode="~" horiz-adv-x="320" 
d="M332 800l11 -11q-47 -87 -110 -87q-20 0 -72 27t-76 27q-29 0 -70 -51l-11 11q48 89 108 89q24 0 74 -26t74 -26q36 0 72 47z" />
    <glyph glyph-name="exclamdown" unicode="&#xa1;" horiz-adv-x="234" 
d="M104 516l56 -63l-56 -63l-56 67zM115 339l31 -455q1 -9 -23 -29t-33 -20q-7 0 -28 22t-21 31q0 27 42 363l11 88h21z" />
    <glyph glyph-name="cent" unicode="&#xa2;" horiz-adv-x="331" 
d="M284 503q-43 -79 -53 -79q-18 0 -52.5 9t-52.5 9q-5 0 -11 -5.5t-6 -9.5v-312q0 -26 36 -43q30 -14 58 -14q7 0 29.5 3t27.5 3l7 -9q-3 -11 -112 -53v-93h-35v82h-1l-113 70l7 11t7 22v324q0 19 -9 20q23 11 109 59v82h35v-68l88 -17q2 0 16.5 5t15.5 5h5q2 -1 4 -1z" />
    <glyph glyph-name="sterling" unicode="&#xa3;" horiz-adv-x="425" 
d="M244 243h-87q16 -36 16 -91q0 -31 -6 -61q44 32 58 32q17 0 51.5 -11.5t53.5 -11.5q40 0 65 60l10 -10q-5 -46 -19 -90q-21 -65 -46 -65q-34 0 -100 14t-100 14q-41 0 -66 -25l-7 17q67 67 67 145q0 47 -16 83h-63v35h57l-14 39h-43v34h33q-8 38 -8 54q0 91 36 148
q42 68 128 70q71 1 113 -43.5t42 -115.5q0 -29 -22 -59t-50 -34q-12 -2 -20.5 2.5t-7.5 4.5q4 31 4 30q12 -2 16 -2q33 0 33 46q0 24 -32 44.5t-57 20.5q-59 0 -93 -34.5t-34 -93.5q0 -15 4 -35h104v-37h-102q5 -20 8 -37h94v-37z" />
    <glyph glyph-name="currency" unicode="&#xa4;" horiz-adv-x="545" 
d="M531 458l-24 -57q-73 87 -175 87q-63 0 -113.5 -43t-65.5 -106h329l-24 -56h-315v-28h303l-24 -57h-269q19 -64 65 -104q50 -44 114 -44q102 0 180 92v-82q-81 -66 -180 -66q-88 0 -154 60q-61 55 -84 144h-84l24 57h52q-1 5 -1 14t1 14h-76l24 56h60q21 90 83 146
q65 60 155 60q114 0 199 -87z" />
    <glyph glyph-name="yen" unicode="&#xa5;" horiz-adv-x="435" 
d="M182 224h-63v33q6 1 63 1v6q0 15 -14 35q-32 81 -44 103q-33 61 -72 61q-5 0 -14 -6.5t-15 -6.5q-11 0 -17 22q2 2 46 50q37 40 43 40q3 0 37 -24q36 -32 59 -80q13 -31 41 -93l9 -19q6 -13 122 214l31 -30q6 19 14 19q5 0 9 -7l-40 -78q-7 16 -19 16q-20 0 -106 -183
l5 -39q23 -1 65 -1q2 -4 2 -16q0 -15 -2 -17h-65l-1 -47l65 -2q1 -2 2 -18t-1 -17h-65v-86q0 -7 18 -36q5 -10 -2 -17h-109q-11 2 -4 14q23 39 23 62l-1 63h-63v35q16 2 59 2v49z" />
    <glyph glyph-name="brokenbar" unicode="&#xa6;" horiz-adv-x="566" 
d="M239 343v350h85v-350h-85zM239 -132v349h85v-349h-85z" />
    <glyph glyph-name="section" unicode="&#xa7;" horiz-adv-x="510" 
d="M374 107q38 -41 38 -84q0 -50 -39 -102q-17 -23 -76 -83l-200 71l43 75l205 -73q26 35 26 57q0 36 -51 74q-3 2 -112 71q-66 42 -93 64q-64 53 -64 127q0 72 86 146q-37 40 -37 86q0 78 116 182l198 -72l-45 -73l-205 73q-24 -37 -24 -57q0 -46 89 -99q62 -37 94 -58
q59 -39 86 -66q50 -50 50 -109q0 -71 -85 -150zM147 439q-51 -48 -51 -88q0 -42 57 -88q34 -27 106.5 -73.5t104.5 -71.5q51 45 51 85q0 43 -48 85q-38 33 -108 78q-93 59 -112 73z" />
    <glyph glyph-name="dieresis" unicode="&#xa8;" horiz-adv-x="251" 
d="M215 701q-22 0 -38 14.5t-16 34.5q0 21 16 35t39 14q22 0 37.5 -14.5t15.5 -34.5t-16 -34.5t-38 -14.5zM45 701q-22 0 -38 14.5t-16 34.5q0 21 15.5 35t38.5 14q22 0 38 -14.5t16 -34.5t-16 -34.5t-38 -14.5z" />
    <glyph glyph-name="copyright" unicode="&#xa9;" horiz-adv-x="762" 
d="M375 680q141 0 242.5 -102.5t101.5 -244.5q0 -145 -102.5 -245.5t-247.5 -100.5q-146 0 -247.5 101.5t-101.5 247.5q0 147 103.5 245.5t251.5 98.5zM364 640q-124 0 -211.5 -91.5t-87.5 -215.5q0 -127 88.5 -216.5t215.5 -89.5q129 0 216.5 89.5t87.5 218.5t-90 217
t-219 88zM527 530v-155h-21q-19 61 -42 90q-33 42 -87 42q-112 0 -112 -182q0 -165 120 -165q108 0 121 129h27q-7 -157 -151 -157q-83 0 -136.5 58t-53.5 141q0 78 53.5 140.5t129.5 62.5q24 0 64.5 -17t41.5 -17q18 0 25 30h21z" />
    <glyph glyph-name="ordfeminine" unicode="&#xaa;" horiz-adv-x="302" 
d="M208 431q-30 20 -34 63l-101 -63q-50 36 -50 76q0 53 66 110l-33 79l9 15q21 -6 34 -6q20 0 54 20l62 -23q8 -3 13 -3q12 0 27 18l9 -7q-11 -17 -24 -49q-5 -22 -5 -48v-68q0 -66 21 -66q2 1 21 11l6 -10zM175 663l-107 34l30 -70l77 -37v73zM175 578l-74 36
q-19 -42 -19 -63q0 -41 36 -79l57 37v69z" />
    <glyph glyph-name="guillemotleft" unicode="&#xab;" horiz-adv-x="407" 
d="M340 381l19 -14q-42 -65 -96 -134q59 -74 96 -134l-19 -13q-63 63 -157 147q117 107 157 148zM193 381l19 -14q-42 -65 -96 -134q59 -74 96 -134l-19 -13q-54 56 -156 147q89 79 156 148z" />
    <glyph glyph-name="logicalnot" unicode="&#xac;" horiz-adv-x="667" 
d="M516 169v238h-450v84h534v-322h-84z" />
    <glyph glyph-name="registered" unicode="&#xae;" horiz-adv-x="362" 
d="M162 662q55 0 96 -42t41 -97q0 -58 -41 -98t-99 -40q-59 0 -99 40t-40 99t41.5 98.5t100.5 39.5zM157 646q-49 0 -84 -36.5t-35 -86.5q0 -51 35 -86.5t86 -35.5t86.5 36t35.5 87q0 50 -37 86t-87 36zM135 520v-43q0 -14 6 -17q3 -2 19 -2v-11h-75v11q16 0 20.5 2.5
t4.5 16.5v92q0 14 -4.5 16.5t-20.5 2.5v11h73q60 0 60 -37q0 -30 -45 -39q21 -10 33 -45q7 -13 10 -15q5 0 9 21h8l1 -10q0 -31 -26 -31q-20 0 -26 20q-2 18 -4 37q-8 20 -43 20zM135 530h12q43 0 43 30q0 29 -35 29q-14 0 -17 -3.5t-3 -18.5v-37z" />
    <glyph glyph-name="macron" unicode="&#xaf;" horiz-adv-x="281" 
d="M22 587v46h235v-46h-235z" />
    <glyph glyph-name="macron" unicode="&#x2c9;" horiz-adv-x="281" 
d="M22 587v46h235v-46h-235z" />
    <glyph glyph-name="degree" unicode="&#xb0;" horiz-adv-x="400" 
d="M198 341q-70 0 -118 48t-48 118q0 69 48.5 117.5t117.5 48.5t117.5 -48.5t48.5 -117.5q0 -70 -48.5 -118t-117.5 -48zM198 615q-45 0 -76.5 -31t-31.5 -77q0 -45 31.5 -76.5t76.5 -31.5t76.5 31.5t31.5 76.5t-31.5 76.5t-76.5 31.5z" />
    <glyph glyph-name="plusminus" unicode="&#xb1;" horiz-adv-x="667" 
d="M375 371v-224h-84v224h-225v84h225v225h84v-225h225v-84h-225zM66 -23v84h534v-84h-534z" />
    <glyph glyph-name="twosuperior" unicode="&#xb2;" horiz-adv-x="333" 
d="M251 313q-66 20 -108 20q-49 0 -97 -20l-23 8q12 59 111 127q47 32 63 57q24 36 24 77q0 23 -23 48l-121 -75l-53 47l110 70l167 -68q4 -17 4 -30q0 -52 -36 -86q-24 -23 -79 -46q-61 -26 -79.5 -39t-42.5 -47q80 36 146 36q47 0 89 -15z" />
    <glyph glyph-name="threesuperior" unicode="&#xb3;" horiz-adv-x="333" 
d="M84 314l-84 67l57 53l122 -94q29 29 29 68q0 89 -104 89h-15v19q106 1 106 82q0 39 -27 39q-12 0 -27 -11l-69 -49l-47 51l62 43l199 -55q-10 -48 -29 -71t-61 -36q101 -25 101 -83q0 -101 -213 -112z" />
    <glyph glyph-name="acute" unicode="&#xb4;" horiz-adv-x="244" 
d="M86 542h-35l75 111q39 58 64 58q12 0 22 -8.5t10 -20.5q0 -21 -65 -79q-23 -20 -71 -61z" />
    <glyph glyph-name="mu" unicode="&#xb5;" horiz-adv-x="500" 
d="M42 462h99v-275q0 -62 9 -91q16 -52 64 -52q28 0 58 26l48 42v350h99v-385q4 -37 26 -37q37 0 44 60h24q-6 -114 -103 -114q-79 0 -90 93q-30 -29 -66 -61q-41 -32 -81 -32q-51 0 -86 42q-1 -10 -1 -23q0 -37 20 -116q8 -32 8 -51q0 -23 -16 -38.5t-39 -15.5
q-54 0 -54 53q0 23 17 81q6 22 14 52q6 44 6 82v410z" />
    <glyph glyph-name="mu" unicode="&#x3bc;" horiz-adv-x="500" 
d="M42 462h99v-275q0 -62 9 -91q16 -52 64 -52q28 0 58 26l48 42v350h99v-385q4 -37 26 -37q37 0 44 60h24q-6 -114 -103 -114q-79 0 -90 93q-30 -29 -66 -61q-41 -32 -81 -32q-51 0 -86 42q-1 -10 -1 -23q0 -37 20 -116q8 -32 8 -51q0 -23 -16 -38.5t-39 -15.5
q-54 0 -54 53q0 23 17 81q6 22 14 52q6 44 6 82v410z" />
    <glyph glyph-name="paragraph" unicode="&#xb6;" horiz-adv-x="448" 
d="M390 635v-851h-36v851h-91v-851h-35v509q-83 5 -119 17q-56 19 -86 64t-30 105q0 109 97 159q47 24 123 24h242v-27h-65z" />
    <glyph glyph-name="periodcentered" unicode="&#xb7;" horiz-adv-x="246" 
d="M130 295q26 0 43.5 -18t17.5 -44t-18 -44t-44 -18t-44 18t-18 44q0 27 18 44.5t45 17.5z" />
    <glyph glyph-name="periodcentered" unicode="&#x2219;" horiz-adv-x="246" 
d="M130 295q26 0 43.5 -18t17.5 -44t-18 -44t-44 -18t-44 18t-18 44q0 27 18 44.5t45 17.5z" />
    <glyph glyph-name="cedilla" unicode="&#xb8;" horiz-adv-x="160" 
d="M63 0h32l-16 -42q93 0 93 -65q0 -40 -38 -62q-32 -19 -74 -19q-55 0 -105 29l18 31q49 -26 84 -26q47 0 47 39q0 33 -39 33q-13 0 -37 -6z" />
    <glyph glyph-name="onesuperior" unicode="&#xb9;" horiz-adv-x="333" 
d="M182 316l-70 41l16 17v193q0 56 -16 56q-6 0 -26 -14l-9 13l77 51q35 -12 46 -39q7 -18 7 -63v-183q3 -6 11 -14q4 -4 8 -7l26 18l9 -14z" />
    <glyph glyph-name="ordmasculine" unicode="&#xba;" horiz-adv-x="281" 
d="M144 432q-73 32 -109 32h-8l-6 10q19 22 19 70v140q53 11 96 42q48 -28 104 -33v-217q-45 -12 -96 -44zM181 649q-38 18 -81 25v-165l81 -29v169z" />
    <glyph glyph-name="guillemotright" unicode="&#xbb;" horiz-adv-x="411" 
d="M66 86l-19 13q47 73 96 134q-54 69 -96 134l19 14q85 -83 157 -148q-87 -75 -157 -147zM212 86l-19 13q53 81 97 134q-57 71 -97 134l19 14q85 -83 157 -148q-83 -73 -157 -147z" />
    <glyph glyph-name="onequarter" unicode="&#xbc;" horiz-adv-x="528" 
d="M479 542l-420 -553l-31 23l419 554zM110 225l-60 -1l1 242q0 46 -21 46q-1 0 -7.5 -3t-8.5 -3q-10 0 -10 12q0 5 14 15q21 17 43 33q30 -14 39.5 -26t9.5 -42v-273zM478 117l-36 -1l-1 -129l-56 -1v132h-128l184 249v-210l38 -1zM385 248q-27 -36 -67 -97h67v97z" />
    <glyph glyph-name="onehalf" unicode="&#xbd;" horiz-adv-x="574" 
d="M487 -14q-18 0 -55.5 6.5t-57.5 6.5q-3 0 -17.5 -4.5t-21.5 -4.5l-13 11q6 13 32 43l57 68q35 47 35 74q0 28 -23 62q-26 37 -52 37q-6 0 -23 -23l-18 14q0 18 74 57q38 -5 66 -36.5t28 -69.5q0 -48 -34 -92l-60 -78q19 -10 77 -10q17 0 18.5 3t19.5 17l6 -9
q-1 -20 -11 -43q-12 -29 -27 -29zM59 -11l-31 23l419 554l32 -24zM60 222l1 244q0 46 -21 46q-1 0 -7.5 -3t-8.5 -3q-10 0 -10 12q0 5 14 15q21 17 43 33q30 -14 39.5 -26t9.5 -42v-273z" />
    <glyph glyph-name="threequarters" unicode="&#xbe;" horiz-adv-x="530" 
d="M489 542q-87 -115 -420 -553l-31 23l419 554zM181 538q-39 -62 -76 -102q50 -29 57 -39q14 -20 14 -70q0 -83 -37 -117q-17 -16 -39 -32q-34 -24 -44 -24q-2 1 -13 6q44 42 53 56q18 27 18 74q0 53 -12 71q-7 10 -28 16t-31 19q2 12 29 42l38 42q-75 12 -80 12
q-2 0 -11 -11q-6 -6 -11 -13l-7 11q2 15 17.5 43.5t26.5 28.5q14 0 42 -5.5t42 -5.5q21 0 42 7zM390 146v117q-47 -67 -80 -117h80zM478 117l-36 -1l-1 -121h-52v122l-132 1l184 249v-217h38z" />
    <glyph glyph-name="questiondown" unicode="&#xbf;" horiz-adv-x="334" 
d="M77 91q-3 -3 -3 -14q0 -68 34 -112t87 -44q4 0 19.5 6.5t18.5 6.5t3 -4q0 -16 -37.5 -52t-54.5 -36q-21 0 -63 29q-55 38 -55 91q0 62 31 133q24 56 46 76q5 4 62 23q52 17 52 28q0 24 -35 64q-11 12 -11 17q0 6 5 6q24 0 68 -68t44 -98q0 -24 -89 -29q-74 -4 -122 -23z
M105 447l40 46q12 14 25 22q4 0 37 -29t33 -37q0 -6 -32.5 -41.5t-39.5 -35.5q-9 0 -39 28t-30 35q0 5 6 12z" />
    <glyph glyph-name="Agrave" unicode="&#xc0;" horiz-adv-x="683" 
d="M543 146q0 -69 58 -69q6 0 19 10.5t17 10.5q7 0 7 -7q0 -9 -103 -103q-15 6 -59 38l-47 34q-4 0 -47 -30q-26 -17 -53 -36q-147 42 -211 42q-45 0 -68 -16q-17 -12 -49 -53q-12 4 -12 15q1 0 9 10q116 140 211 264q-84 28 -139 75q-71 60 -71 134q0 97 101 150
q80 42 188 42q109 0 203 -49q23 43 60 56q-14 -65 -14 -317v-201zM435 266v67v39q-1 22 -1 28q0 73 21 108q6 9 6 12q0 6 -5 6q-10 0 -99 -122q-7 -9 -104 -133q47 -9 94 -9q63 0 88 4zM431 91v146q-17 -1 -74 -1q-74 0 -122 14l-140 -179q4 0 20 4t18 4q57 12 116 12
q93 0 138 -5q2 0 17 -4.5t18 -4.5q9 0 9 14zM223 590q-67 0 -121 -31q-65 -37 -65 -99q0 -67 65 -120q50 -41 127 -65q181 214 181 235q0 8 -20 23q-76 57 -167 57zM302 725q27 -14 84 -45l45 9l-103 99q-53 51 -79 45q-15 -3 -23.5 -15t-5.5 -26q5 -25 82 -67z" />
    <glyph glyph-name="Aacute" unicode="&#xc1;" horiz-adv-x="683" 
d="M644 91q0 -9 -103 -103q-15 6 -59 38l-47 34q-4 0 -47 -30q-26 -17 -53 -36q-147 42 -211 42q-45 0 -68 -16q-17 -12 -49 -53q-12 4 -12 15q1 0 9 10q116 140 211 264q-84 28 -139 75q-71 60 -71 134q0 97 101 150q80 42 188 42q109 0 203 -49q23 43 60 56
q-14 -65 -14 -317v-201q0 -69 58 -69q6 0 19 10.5t17 10.5q7 0 7 -7zM461 520q0 6 -5 6q-10 0 -99 -122q-7 -9 -104 -133q47 -9 94 -9q63 0 88 4v67v39q-1 22 -1 28q0 73 21 108q6 9 6 12zM410 510q0 8 -20 23q-76 57 -167 57q-67 0 -121 -31q-65 -37 -65 -99q0 -67 65 -120
q50 -41 127 -65q181 214 181 235zM431 91v146q-17 -1 -74 -1q-74 0 -122 14l-140 -179q4 0 20 4t18 4q57 12 116 12q93 0 138 -5q2 0 17 -4.5t18 -4.5q9 0 9 14zM344 725q-26 -14 -84 -45l-45 9l103 99q53 51 79 45q15 -3 23.5 -15t5.5 -26q-5 -24 -82 -67z" />
    <glyph glyph-name="Acircumflex" unicode="&#xc2;" horiz-adv-x="684" 
d="M543 146q0 -69 58 -69q6 0 19 10.5t17 10.5q7 0 7 -7q0 -9 -103 -103q-15 6 -59 38l-47 34q-4 0 -47 -30q-26 -17 -53 -36q-147 42 -211 42q-45 0 -68 -16q-17 -12 -49 -53q-12 4 -12 15q1 0 9 10q116 140 211 264q-84 28 -139 75q-71 60 -71 134q0 97 101 150
q80 42 188 42q109 0 203 -49q23 43 60 56q-14 -65 -14 -317v-201zM435 266v67v39q-1 22 -1 28q0 73 21 108q6 9 6 12q0 6 -5 6q-10 0 -99 -122q-7 -9 -104 -133q47 -9 94 -9q63 0 88 4zM431 91v146q-17 -1 -74 -1q-74 0 -122 14l-140 -179q4 0 20 4t18 4q57 12 116 12
q93 0 138 -5q2 0 17 -4.5t18 -4.5q9 0 9 14zM223 590q-67 0 -121 -31q-65 -37 -65 -99q0 -67 65 -120q50 -41 127 -65q181 214 181 235q0 8 -20 23q-76 57 -167 57zM299 803h34l137 -100l-23 -11l-134 52l-131 -48l-22 7z" />
    <glyph glyph-name="Atilde" unicode="&#xc3;" horiz-adv-x="684" 
d="M543 146q0 -69 58 -69q6 0 19 10.5t17 10.5q7 0 7 -7q0 -9 -103 -103q-15 6 -59 38l-47 34q-4 0 -47 -30q-26 -17 -53 -36q-147 42 -211 42q-45 0 -68 -16q-17 -12 -49 -53q-12 4 -12 15q1 0 9 10q116 140 211 264q-84 28 -139 75q-71 60 -71 134q0 97 101 150
q80 42 188 42q109 0 203 -49q23 43 60 56q-14 -65 -14 -317v-201zM435 266v67v39q-1 22 -1 28q0 73 21 108q6 9 6 12q0 6 -5 6q-10 0 -99 -122q-7 -9 -104 -133q47 -9 94 -9q63 0 88 4zM431 91v146q-17 -1 -74 -1q-74 0 -122 14l-140 -179q4 0 20 4t18 4q57 12 116 12
q93 0 138 -5q2 0 17 -4.5t18 -4.5q9 0 9 14zM223 590q-67 0 -121 -31q-65 -37 -65 -99q0 -67 65 -120q50 -41 127 -65q181 214 181 235q0 8 -20 23q-76 57 -167 57zM501 800l14 -11q-58 -87 -137 -87q-27 0 -90.5 27t-94.5 27q-40 0 -87 -51l-15 11q62 89 136 89
q31 0 92 -26t92 -26q46 0 90 47z" />
    <glyph glyph-name="Adieresis" unicode="&#xc4;" horiz-adv-x="684" 
d="M543 146q0 -69 58 -69q6 0 19 10.5t17 10.5q7 0 7 -7q0 -9 -103 -103q-15 6 -59 38l-47 34q-4 0 -47 -30q-26 -17 -53 -36q-147 42 -211 42q-45 0 -68 -16q-17 -12 -49 -53q-12 4 -12 15q1 0 9 10q116 140 211 264q-84 28 -139 75q-71 60 -71 134q0 97 101 150
q80 42 188 42q109 0 203 -49q23 43 60 56q-14 -65 -14 -317v-201zM435 266v67v39q-1 22 -1 28q0 73 21 108q6 9 6 12q0 6 -5 6q-10 0 -99 -122q-7 -9 -104 -133q47 -9 94 -9q63 0 88 4zM431 91v146q-17 -1 -74 -1q-74 0 -122 14l-140 -179q4 0 20 4t18 4q57 12 116 12
q93 0 138 -5q2 0 17 -4.5t18 -4.5q9 0 9 14zM223 590q-67 0 -121 -31q-65 -37 -65 -99q0 -67 65 -120q50 -41 127 -65q181 214 181 235q0 8 -20 23q-76 57 -167 57zM415 701q-22 0 -38 14.5t-16 34.5q0 21 16 35t39 14q22 0 37.5 -14.5t15.5 -34.5t-16 -34.5t-38 -14.5z
M245 701q-22 0 -38 14.5t-16 34.5q0 21 15.5 35t38.5 14q22 0 38 -14.5t16 -34.5t-16 -34.5t-38 -14.5z" />
    <glyph glyph-name="Aring" unicode="&#xc5;" horiz-adv-x="683" 
d="M644 91q0 -9 -103 -103q-15 6 -59 38l-47 34q-4 0 -47 -30q-26 -17 -53 -36q-147 42 -211 42q-45 0 -68 -16q-17 -12 -49 -53q-12 4 -12 15q1 0 9 10q116 140 211 264q-84 28 -139 75q-71 60 -71 134q0 97 101 150q80 42 188 42q109 0 203 -49q23 43 60 56
q-14 -65 -14 -317v-201q0 -69 58 -69q6 0 19 10.5t17 10.5q7 0 7 -7zM461 520q0 6 -5 6q-10 0 -99 -122q-7 -9 -104 -133q47 -9 94 -9q63 0 88 4v67v39q-1 22 -1 28q0 73 21 108q6 9 6 12zM410 510q0 8 -20 23q-76 57 -167 57q-67 0 -121 -31q-65 -37 -65 -99q0 -67 65 -120
q50 -41 127 -65q181 214 181 235zM431 91v146q-17 -1 -74 -1q-74 0 -122 14l-140 -179q4 0 20 4t18 4q57 12 116 12q93 0 138 -5q2 0 17 -4.5t18 -4.5q9 0 9 14zM320 687q-31 0 -52 21t-21 52t21 52t53 21q30 0 51 -21.5t21 -51.5t-21.5 -51.5t-51.5 -21.5zM319 806
q-19 0 -32 -13.5t-13 -32.5t13.5 -32.5t32.5 -13.5q20 0 33 13.5t13 32.5t-13.5 32.5t-33.5 13.5z" />
    <glyph glyph-name="AE" unicode="&#xc6;" horiz-adv-x="887" 
d="M860 604q-1 -14 -104 -90t-104 -85l8 -7q65 0 120 5q-7 -91 -7 -163l-12 -2q-6 8 -8 20q-1 8 0 22q2 21 2 22q0 24 -150 19l-63 -2v-201q0 -76 89 -76q72 0 219 52l9 -9q-125 -131 -181 -131q-53 0 -117 27q-38 16 -108 56q-43 -23 -118 -67q-145 42 -211 42
q-42 0 -68 -17q-18 -12 -49 -52l-12 15q109 131 220 274q-84 28 -139 75q-71 60 -71 134q0 103 97 158q79 45 192 45q132 0 235 -63l58 68q6 -1 112 -38q84 -29 122 -29q19 0 31 6zM731 524q0 16 -86 39q-77 21 -108 21q0 -3 1 -19.5t1 -20.5q0 7 -2 -48q-1 -27 0 -64t3 -44
q1 0 16 8q41 25 93 61q82 57 82 67zM474 529q0 3 -4 9.5t-6 6.5q-83 -110 -211 -274q47 -9 94 -9q63 0 88 4v67v39q-1 22 -1 28q0 65 25 103q15 30 15 26zM409 519q0 5 -19 14q-76 57 -167 57q-67 0 -121 -31q-65 -37 -65 -99q0 -67 65 -120q50 -41 127 -65q30 37 98 126
q82 108 82 118zM431 91v146q-17 -1 -74 -1q-74 0 -122 14q-149 -191 -151 -189q5 0 24.5 9t24.5 9q86 18 127 18q33 0 127 -11q2 0 17 -4.5t18 -4.5q9 0 9 14z" />
    <glyph glyph-name="Ccedilla" unicode="&#xc7;" horiz-adv-x="646" 
d="M148 556q-21 -2 -38 -90q-14 -75 -14 -114q0 -131 54 -189q14 -15 20 -15q11 0 32 13q61 38 61 142q0 41 -12.5 73.5t-48.5 89.5q-42 65 -54 90zM293 -6l-14 -36q93 0 93 -65q0 -40 -38 -62q-32 -19 -74 -19q-55 0 -105 29l18 31q49 -26 84 -26q47 0 47 39q0 33 -39 33
q-13 0 -37 -6l33 84q-120 11 -193 89t-73 199q0 58 16 125q20 82 51 111q14 13 42 29q34 19 43 26q0 25 6 53q9 41 24 41q5 0 5 -4t-4.5 -19.5t-4.5 -21.5q0 -17 12 -17q8 0 51.5 26.5t60.5 26.5q14 0 68 -15q97 -27 147 -27q15 0 39 10t26 10q8 0 8 -9t-56 -56t-67 -47
q-39 0 -124.5 34.5t-124.5 34.5q-27 0 -27 -15q0 -19 46 -55q22 -16 65 -50q40 -34 52 -54q15 -25 15 -73q0 -70 -22 -108q-18 -32 -63 -57l-94 -53q68 -41 160 -41q117 0 196 41q47 31 54 31q4 0 4 -5q0 -10 -45.5 -55.5t-61.5 -57.5q-31 -23 -95 -37q-55 -12 -104 -12z
" />
    <glyph glyph-name="Egrave" unicode="&#xc8;" horiz-adv-x="694" 
d="M342 598l107 62q13 -3 98 -29q69 -21 91 -21q13 0 27 11q9 -3 9 -8q0 -13 -104.5 -90.5t-104.5 -85.5q0 -6 8 -6q73 0 120 4q-1 -13 -5 -56q-3 -31 -3 -56q0 -14 1 -25v-25q0 -4 -8 -4q-9 0 -11 21q-1 11 0 26q1 13 1 19q0 12 -4 15t-20 3h-174q-10 0 -16 3v-132
q-1 -5 -35 -31q-27 -16 -41 -27q-23 -18 -34 -36q221 -46 312 -46q24 0 69 21.5t38 21.5q9 0 9 -9q0 -7 -51 -53.5t-62 -50.5q-34 -28 -68 -28q-53 0 -134 20l-325 80q-13 3 -29 12q5 9 173 141q-1 117 -107 117q-9 0 -26.5 -6t-18.5 -6q-6 0 -6 6q0 8 113 87t113 97
q0 36 -64 63q-52 22 -96 22q-8 0 -35.5 -4t-34.5 -4q-2 1 -2 7q0 15 61 28q46 10 77 10q101 0 192 -58zM544 533q0 16 -85 36q-72 17 -107 19v-193q0 -1 -2 -6q-1 -4 1 -4q15 0 104 68.5t89 79.5zM244 500q-14 -9 -151 -114q42 -2 36 -2q60 0 113 -65h2v181zM244 215v52
q-25 -15 -71 -50q-57 -43 -57 -51t51 -21q35 -9 64 -13q13 48 13 83zM322 725q27 -14 84 -45l45 9l-103 99q-53 51 -79 45q-15 -3 -23.5 -15t-5.5 -26q5 -25 82 -67z" />
    <glyph glyph-name="Eacute" unicode="&#xc9;" horiz-adv-x="715" 
d="M342 598l107 62q13 -3 98 -29q69 -21 91 -21q13 0 27 11q9 -3 9 -8q0 -13 -104.5 -90.5t-104.5 -85.5q0 -6 8 -6q73 0 120 4q-1 -13 -5 -56q-3 -31 -3 -56q0 -14 1 -25v-25q0 -4 -8 -4q-9 0 -11 21q-1 11 0 26q1 13 1 19q0 12 -4 15t-20 3h-174q-10 0 -16 3v-132
q-1 -5 -35 -31q-27 -16 -41 -27q-23 -18 -34 -36q221 -46 312 -46q24 0 69 21.5t38 21.5q9 0 9 -9q0 -7 -51 -53.5t-62 -50.5q-34 -28 -68 -28q-53 0 -134 20l-325 80q-13 3 -29 12q5 9 173 141q-1 117 -107 117q-9 0 -26.5 -6t-18.5 -6q-6 0 -6 6q0 8 113 87t113 97
q0 36 -64 63q-52 22 -96 22q-8 0 -35.5 -4t-34.5 -4q-2 1 -2 7q0 15 61 28q46 10 77 10q101 0 192 -58zM544 533q0 16 -85 36q-72 17 -107 19v-193q0 -1 -2 -6q-1 -4 1 -4q15 0 104 68.5t89 79.5zM244 500q-14 -9 -151 -114q42 -2 36 -2q60 0 113 -65h2v181zM244 215v52
q-25 -15 -71 -50q-57 -43 -57 -51t51 -21q35 -9 64 -13q13 48 13 83zM374 715q-26 -14 -84 -45l-45 9l103 99q53 51 79 45q15 -3 23.5 -15t5.5 -26q-5 -24 -82 -67z" />
    <glyph glyph-name="Ecircumflex" unicode="&#xca;" horiz-adv-x="693" 
d="M342 598l107 62q13 -3 98 -29q69 -21 91 -21q13 0 27 11q9 -3 9 -8q0 -13 -104.5 -90.5t-104.5 -85.5q0 -6 8 -6q73 0 120 4q-1 -13 -5 -56q-3 -31 -3 -56q0 -14 1 -25v-25q0 -4 -8 -4q-9 0 -11 21q-1 11 0 26q1 13 1 19q0 12 -4 15t-20 3h-174q-10 0 -16 3v-132
q-1 -5 -35 -31q-27 -16 -41 -27q-23 -18 -34 -36q221 -46 312 -46q24 0 69 21.5t38 21.5q9 0 9 -9q0 -7 -51 -53.5t-62 -50.5q-34 -28 -68 -28q-53 0 -134 20l-325 80q-13 3 -29 12q5 9 173 141q-1 117 -107 117q-9 0 -26.5 -6t-18.5 -6q-6 0 -6 6q0 8 113 87t113 97
q0 36 -64 63q-52 22 -96 22q-8 0 -35.5 -4t-34.5 -4q-2 1 -2 7q0 15 61 28q46 10 77 10q101 0 192 -58zM544 533q0 16 -85 36q-72 17 -107 19v-193q0 -1 -2 -6q-1 -4 1 -4q15 0 104 68.5t89 79.5zM244 500q-14 -9 -151 -114q42 -2 36 -2q60 0 113 -65h2v181zM244 215v52
q-25 -15 -71 -50q-57 -43 -57 -51t51 -21q35 -9 64 -13q13 48 13 83zM299 803h34l137 -100l-23 -11l-134 52l-131 -48l-22 7z" />
    <glyph glyph-name="Edieresis" unicode="&#xcb;" horiz-adv-x="693" 
d="M342 598l107 62q13 -3 98 -29q69 -21 91 -21q13 0 27 11q9 -3 9 -8q0 -13 -104.5 -90.5t-104.5 -85.5q0 -6 8 -6q73 0 120 4q-1 -13 -5 -56q-3 -31 -3 -56q0 -14 1 -25v-25q0 -4 -8 -4q-9 0 -11 21q-1 11 0 26q1 13 1 19q0 12 -4 15t-20 3h-174q-10 0 -16 3v-132
q-1 -5 -35 -31q-27 -16 -41 -27q-23 -18 -34 -36q221 -46 312 -46q24 0 69 21.5t38 21.5q9 0 9 -9q0 -7 -51 -53.5t-62 -50.5q-34 -28 -68 -28q-53 0 -134 20l-325 80q-13 3 -29 12q5 9 173 141q-1 117 -107 117q-9 0 -26.5 -6t-18.5 -6q-6 0 -6 6q0 8 113 87t113 97
q0 36 -64 63q-52 22 -96 22q-8 0 -35.5 -4t-34.5 -4q-2 1 -2 7q0 15 61 28q46 10 77 10q101 0 192 -58zM544 533q0 16 -85 36q-72 17 -107 19v-193q0 -1 -2 -6q-1 -4 1 -4q15 0 104 68.5t89 79.5zM244 500q-14 -9 -151 -114q42 -2 36 -2q60 0 113 -65h2v181zM244 215v52
q-25 -15 -71 -50q-57 -43 -57 -51t51 -21q35 -9 64 -13q13 48 13 83zM415 701q-22 0 -38 14.5t-16 34.5q0 21 16 35t39 14q22 0 37.5 -14.5t15.5 -34.5t-16 -34.5t-38 -14.5zM245 701q-22 0 -38 14.5t-16 34.5q0 21 15.5 35t38.5 14q22 0 38 -14.5t16 -34.5t-16 -34.5
t-38 -14.5z" />
    <glyph glyph-name="Igrave" unicode="&#xcc;" horiz-adv-x="433" 
d="M150 -6q-16 0 -45 12t-45 12t-30 -9q-17 -10 -17 -25q0 -3 1.5 -12.5t1.5 -11.5q0 -7 -7 -7q-13 0 -13 23q0 40 53 108q27 34 80 101q-66 20 -66 78t57 122q38 43 107 98q58 46 59 56q-60 2 -128 25q-37 13 -59 13q-19 0 -34.5 -11t-15.5 -28q0 -5 5.5 -17t5.5 -15
q0 -4 -7 -4q-8 0 -14 19q-4 13 -4 26q0 28 42.5 75.5t69.5 47.5q23 0 98.5 -33t113.5 -33q6 0 23.5 4.5t21.5 4.5l5 -3q0 -4 -17 -27q-49 -67 -49 -127q0 -55 8.5 -164.5t8.5 -164.5q0 -17 -8 -28q-5 -5 -24 -17q-141 -88 -178 -88zM278 505q-10 0 -51 -42q-51 -52 -57 -60
q-36 -43 -36 -70q0 -44 69 -44q40 0 47 22q2 6 2 57q0 63 23 114q8 18 8 20q0 3 -5 3zM248 271q-17 -8 -80 -75t-63 -79q0 -6 16 -10q12 -3 63 -27.5t53 -24.5q22 0 22 36q0 30 -5.5 90t-5.5 90zM202 725q27 -14 84 -45l45 9l-103 99q-53 51 -79 45q-15 -3 -23.5 -15
t-5.5 -26q5 -25 82 -67z" />
    <glyph glyph-name="Iacute" unicode="&#xcd;" horiz-adv-x="431" 
d="M150 -6q-16 0 -45 12t-45 12t-30 -9q-17 -10 -17 -25q0 -3 1.5 -12.5t1.5 -11.5q0 -7 -7 -7q-13 0 -13 23q0 40 53 108q27 34 80 101q-66 20 -66 78t57 122q38 43 107 98q58 46 59 56q-60 2 -128 25q-37 13 -59 13q-19 0 -34.5 -11t-15.5 -28q0 -5 5.5 -17t5.5 -15
q0 -4 -7 -4q-8 0 -14 19q-4 13 -4 26q0 28 42.5 75.5t69.5 47.5q23 0 98.5 -33t113.5 -33q6 0 23.5 4.5t21.5 4.5l5 -3q0 -4 -17 -27q-49 -67 -49 -127q0 -55 8.5 -164.5t8.5 -164.5q0 -17 -8 -28q-5 -5 -24 -17q-141 -88 -178 -88zM278 505q-10 0 -51 -42q-51 -52 -57 -60
q-36 -43 -36 -70q0 -44 69 -44q40 0 47 22q2 6 2 57q0 63 23 114q8 18 8 20q0 3 -5 3zM248 271q-17 -8 -80 -75t-63 -79q0 -6 16 -10q12 -3 63 -27.5t53 -24.5q22 0 22 36q0 30 -5.5 90t-5.5 90zM254 735q-26 -14 -84 -45l-45 9l103 99q53 51 79 45q15 -3 23.5 -15t5.5 -26
q-5 -24 -82 -67z" />
    <glyph glyph-name="Icircumflex" unicode="&#xce;" horiz-adv-x="432" 
d="M150 -6q-16 0 -45 12t-45 12t-30 -9q-17 -10 -17 -25q0 -3 1.5 -12.5t1.5 -11.5q0 -7 -7 -7q-13 0 -13 23q0 40 53 108q27 34 80 101q-66 20 -66 78t57 122q38 43 107 98q58 46 59 56q-60 2 -128 25q-37 13 -59 13q-19 0 -34.5 -11t-15.5 -28q0 -5 5.5 -17t5.5 -15
q0 -4 -7 -4q-8 0 -14 19q-4 13 -4 26q0 28 42.5 75.5t69.5 47.5q23 0 98.5 -33t113.5 -33q6 0 23.5 4.5t21.5 4.5l5 -3q0 -4 -17 -27q-49 -67 -49 -127q0 -55 8.5 -164.5t8.5 -164.5q0 -17 -8 -28q-5 -5 -24 -17q-141 -88 -178 -88zM278 505q-10 0 -51 -42q-51 -52 -57 -60
q-36 -43 -36 -70q0 -44 69 -44q40 0 47 22q2 6 2 57q0 63 23 114q8 18 8 20q0 3 -5 3zM248 271q-17 -8 -80 -75t-63 -79q0 -6 16 -10q12 -3 63 -27.5t53 -24.5q22 0 22 36q0 30 -5.5 90t-5.5 90zM199 803h34l137 -100l-23 -11l-134 52l-131 -48l-22 7z" />
    <glyph glyph-name="Idieresis" unicode="&#xcf;" horiz-adv-x="428" 
d="M150 -6q-16 0 -45 12t-45 12t-30 -9q-17 -10 -17 -25q0 -3 1.5 -12.5t1.5 -11.5q0 -7 -7 -7q-13 0 -13 23q0 40 53 108q27 34 80 101q-66 20 -66 78t57 122q38 43 107 98q58 46 59 56q-60 2 -128 25q-37 13 -59 13q-19 0 -34.5 -11t-15.5 -28q0 -5 5.5 -17t5.5 -15
q0 -4 -7 -4q-8 0 -14 19q-4 13 -4 26q0 28 42.5 75.5t69.5 47.5q23 0 98.5 -33t113.5 -33q6 0 23.5 4.5t21.5 4.5l5 -3q0 -4 -17 -27q-49 -67 -49 -127q0 -55 8.5 -164.5t8.5 -164.5q0 -17 -8 -28q-5 -5 -24 -17q-141 -88 -178 -88zM278 505q-10 0 -51 -42q-51 -52 -57 -60
q-36 -43 -36 -70q0 -44 69 -44q40 0 47 22q2 6 2 57q0 63 23 114q8 18 8 20q0 3 -5 3zM248 271q-17 -8 -80 -75t-63 -79q0 -6 16 -10q12 -3 63 -27.5t53 -24.5q22 0 22 36q0 30 -5.5 90t-5.5 90zM305 701q-22 0 -38 14.5t-16 34.5q0 21 16 35t39 14q22 0 37.5 -14.5
t15.5 -34.5t-16 -34.5t-38 -14.5zM135 701q-22 0 -38 14.5t-16 34.5q0 21 15.5 35t38.5 14q22 0 38 -14.5t16 -34.5t-16 -34.5t-38 -14.5z" />
    <glyph glyph-name="Eth" unicode="&#xd0;" horiz-adv-x="811" 
d="M339 257h-49v-18q0 -9 -47 -50t-47 -45q0 -3 32 -3q57 0 111 -15v131zM357 308h201v-51h-201v-135q152 -49 181 -49q12 0 23 10q78 74 78 243q0 -10 -7 69q-7 74 -89 121q-70 40 -154 40h-32v-248zM290 308h49v248h-50zM91 308h72q-22 42 -72 42q-36 0 -36 -27
q0 -2 1.5 -9.5t1.5 -10.5q0 -7 -5 -7q-18 0 -18 43q0 31 23.5 54.5t54.5 23.5q25 0 44 -14t25 -16l1 3v83q0 19 43 47.5t43 35.5q0 5 -5 3q-6 -4 -9 -4q-25 0 -75 -4.5t-75 -4.5q-23 0 -69 48.5t-46 71.5q0 6 6 6q4 0 15 -11q21 -25 85 -25q49 0 145.5 10.5t145.5 10.5
q152 0 248 -55q120 -69 120 -211q0 -46 -17 -121q-19 -83 -42 -111q-35 -42 -136.5 -99.5t-153.5 -62.5q-193 57 -272 57q-33 0 -67.5 -28.5t-37.5 -28.5l-4 3q0 6 111 110q29 27 37 51q7 20 7 63q0 11 -2 33h-87v51z" />
    <glyph glyph-name="Ntilde" unicode="&#xd1;" horiz-adv-x="840" 
d="M368 568v-218h238v102q0 43 -81 90q-76 44 -122 44q-35 0 -35 -18zM605 334h-237v-39h237v39zM605 279h-222q-5 0 -15 -7v-69q0 -98 -24 -145q-34 -64 -123 -64q-26 0 -76 15t-76 15q-33 0 -39 -22q-8 -30 -13 -34q-19 20 -19 48q0 45 30 77.5t75 32.5q34 0 70 -18
q19 19 19 69v315q0 32 -34.5 69t-66.5 39l-33 -19l-8 16q43 22 149 68q28 -17 103 -95q101 37 209 95q93 -49 129 -79q74 -60 74 -122v-333q0 -19 46 -44q10 3 35 27l12 -9q-64 -91 -105 -108q-62 38 -81 77q-16 32 -16 110v95zM350 561l-6 9l-41 -18v-361q0 -29 -72 -68
q-12 -6 -44 -25q2 -8 47 -21q41 -12 56 -12q60 0 60 120v376zM552 800l11 -11q-47 -87 -110 -87q-20 0 -72 27t-76 27q-29 0 -70 -51l-11 11q48 89 108 89q24 0 74 -26t74 -26q36 0 72 47z" />
    <glyph glyph-name="Ograve" unicode="&#xd2;" horiz-adv-x="818" 
d="M230 82v527q-121 -57 -121 -232q0 -70 33 -161q38 -105 88 -134zM775 335q0 -159 -111 -255q-105 -92 -266 -92q-171 0 -276 75q-120 86 -120 251q0 129 77 216q71 81 200 115q67 18 128 18q164 0 262 -81q106 -87 106 -247zM646 402q-12 104 -121 167q-95 55 -208 55
q-31 0 -69 -7v-369l96 64q11 7 59 42.5t50 35.5q4 0 35 -31l38 -38q14 6 120 81zM657 291q0 40 -8 91q-91 -56 -147 -104q-12 -10 -43 -36q-12 -10 -21 -10q-58 70 -73 70l-53.5 -38.5t-63.5 -43.5v-152q68 -59 184 -59q93 0 141 45q84 79 84 237zM352 725q27 -14 84 -45
l45 9l-103 99q-53 51 -79 45q-15 -3 -23.5 -15t-5.5 -26q5 -25 82 -67z" />
    <glyph glyph-name="Oacute" unicode="&#xd3;" horiz-adv-x="817" 
d="M230 82v527q-121 -57 -121 -232q0 -70 33 -161q38 -105 88 -134zM775 335q0 -159 -111 -255q-105 -92 -266 -92q-171 0 -276 75q-120 86 -120 251q0 129 77 216q71 81 200 115q67 18 128 18q164 0 262 -81q106 -87 106 -247zM646 402q-12 104 -121 167q-95 55 -208 55
q-31 0 -69 -7v-369l96 64q11 7 59 42.5t50 35.5q4 0 35 -31l38 -38q14 6 120 81zM657 291q0 40 -8 91q-91 -56 -147 -104q-12 -10 -43 -36q-12 -10 -21 -10q-58 70 -73 70l-53.5 -38.5t-63.5 -43.5v-152q68 -59 184 -59q93 0 141 45q84 79 84 237zM444 725q-26 -14 -84 -45
l-45 9l103 99q53 51 79 45q15 -3 23.5 -15t5.5 -26q-5 -24 -82 -67z" />
    <glyph glyph-name="Ocircumflex" unicode="&#xd4;" horiz-adv-x="816" 
d="M230 82v527q-121 -57 -121 -232q0 -70 33 -161q38 -105 88 -134zM775 335q0 -159 -111 -255q-105 -92 -266 -92q-171 0 -276 75q-120 86 -120 251q0 129 77 216q71 81 200 115q67 18 128 18q164 0 262 -81q106 -87 106 -247zM646 402q-12 104 -121 167q-95 55 -208 55
q-31 0 -69 -7v-369l96 64q11 7 59 42.5t50 35.5q4 0 35 -31l38 -38q14 6 120 81zM657 291q0 40 -8 91q-91 -56 -147 -104q-12 -10 -43 -36q-12 -10 -21 -10q-58 70 -73 70l-53.5 -38.5t-63.5 -43.5v-152q68 -59 184 -59q93 0 141 45q84 79 84 237zM389 803h34l137 -100
l-23 -11l-134 52l-131 -48l-22 7z" />
    <glyph glyph-name="Otilde" unicode="&#xd5;" horiz-adv-x="845" 
d="M230 82v527q-121 -57 -121 -232q0 -70 33 -161q38 -105 88 -134zM775 335q0 -159 -111 -255q-105 -92 -266 -92q-171 0 -276 75q-120 86 -120 251q0 129 77 216q71 81 200 115q67 18 128 18q164 0 262 -81q106 -87 106 -247zM646 402q-12 104 -121 167q-95 55 -208 55
q-31 0 -69 -7v-369l96 64q11 7 59 42.5t50 35.5q4 0 35 -31l38 -38q14 6 120 81zM657 291q0 40 -8 91q-91 -56 -147 -104q-12 -10 -43 -36q-12 -10 -21 -10q-58 70 -73 70l-53.5 -38.5t-63.5 -43.5v-152q68 -59 184 -59q93 0 141 45q84 79 84 237zM591 800l14 -11
q-58 -87 -137 -87q-27 0 -90.5 27t-94.5 27q-40 0 -87 -51l-15 11q62 89 136 89q31 0 92 -26t92 -26q46 0 90 47z" />
    <glyph glyph-name="Odieresis" unicode="&#xd6;" horiz-adv-x="835" 
d="M230 82v527q-121 -57 -121 -232q0 -70 33 -161q38 -105 88 -134zM775 335q0 -159 -111 -255q-105 -92 -266 -92q-171 0 -276 75q-120 86 -120 251q0 129 77 216q71 81 200 115q67 18 128 18q164 0 262 -81q106 -87 106 -247zM646 402q-12 104 -121 167q-95 55 -208 55
q-31 0 -69 -7v-369l96 64q11 7 59 42.5t50 35.5q4 0 35 -31l38 -38q14 6 120 81zM657 291q0 40 -8 91q-91 -56 -147 -104q-12 -10 -43 -36q-12 -10 -21 -10q-58 70 -73 70l-53.5 -38.5t-63.5 -43.5v-152q68 -59 184 -59q93 0 141 45q84 79 84 237zM485 701q-22 0 -38 14.5
t-16 34.5q0 21 16 35t39 14q22 0 37.5 -14.5t15.5 -34.5t-16 -34.5t-38 -14.5zM315 701q-22 0 -38 14.5t-16 34.5q0 21 15.5 35t38.5 14q22 0 38 -14.5t16 -34.5t-16 -34.5t-38 -14.5z" />
    <glyph glyph-name="multiply" unicode="&#xd7;" horiz-adv-x="667" 
d="M394 327l186 -187l-59 -59l-187 186l-188 -186l-59 59l188 187l-189 189l59 59l189 -189l188 189l60 -59z" />
    <glyph glyph-name="Oslash" unicode="&#xd8;" horiz-adv-x="828" 
d="M230 140l-31 -31q18 -18 31 -27v58zM605 501l-357 -344v-89q68 -59 184 -59q93 0 141 45q84 79 84 237q0 27 -11 111q-7 57 -41 99zM248 212l329 318q-51 46 -124 71q-68 23 -136 23q-31 0 -69 -7v-405zM175 142l55 53v414q-121 -57 -121 -232q0 -53 19 -121t47 -114z
M44 15l62 60q-104 86 -104 239q0 129 77 216q71 81 200 115q67 18 128 18q145 0 240 -65l76 73l28 -29l-72 -69q96 -88 96 -238q0 -159 -111 -255q-105 -92 -266 -92q-159 0 -259 64l-68 -66z" />
    <glyph glyph-name="Ugrave" unicode="&#xd9;" horiz-adv-x="820" 
d="M376 657v-264h218v95q0 17 -36.5 50t-53.5 33q-2 0 -21 -8t-20 -9l-8 8l127 94q38 -17 78 -62q43 -50 43 -87v-361q0 -46 33 -60q40 -11 67 -19q-35 -29 -55 -42q-43 -30 -58 -32q-30 21 -89 70q-22 -3 -87 -36.5t-67 -33.5q-51 0 -150.5 27t-150.5 27q-18 0 -27 -1l-6 4
q9 16 35.5 47t35.5 50q13 27 13 72q0 24 2.5 71t2.5 71q0 208 -125 208q-30 0 -49 -40q-16 -33 -16 -67q0 -35 20 -61t52 -26q49 0 49 35l-15 15l-22 -6l-6 8q0 25 28 25q31 0 31 -35q0 -56 -66 -56q-39 0 -64 34q-23 31 -23 72q0 60 42 117q37 50 95 82l84 -40
q54 -29 68 -57q16 -32 16 -102v-222q0 -14 -37 -53q-44 -46 -50 -57q12 -2 60 -9t84 -13v543l9 12zM376 373v-34h212q5 0 5 4v34h-206q-11 0 -11 -4zM376 323v-213q11 -2 89 -24q53 -15 89 -15q16 0 40 11v230q0 -4 1 -1q0 3 1 12q-5 0 -7 1zM352 725q27 -14 84 -45l45 9
l-103 99q-53 51 -79 45q-15 -3 -23.5 -15t-5.5 -26q5 -25 82 -67z" />
    <glyph glyph-name="Uacute" unicode="&#xda;" horiz-adv-x="818" 
d="M376 657v-264h218v95q0 17 -36.5 50t-53.5 33q-2 0 -21 -8t-20 -9l-8 8l127 94q38 -17 78 -62q43 -50 43 -87v-361q0 -46 33 -60q40 -11 67 -19q-35 -29 -55 -42q-43 -30 -58 -32q-30 21 -89 70q-22 -3 -87 -36.5t-67 -33.5q-51 0 -150.5 27t-150.5 27q-18 0 -27 -1l-6 4
q9 16 35.5 47t35.5 50q13 27 13 72q0 24 2.5 71t2.5 71q0 208 -125 208q-30 0 -49 -40q-16 -33 -16 -67q0 -35 20 -61t52 -26q49 0 49 35l-15 15l-22 -6l-6 8q0 25 28 25q31 0 31 -35q0 -56 -66 -56q-39 0 -64 34q-23 31 -23 72q0 60 42 117q37 50 95 82l84 -40
q54 -29 68 -57q16 -32 16 -102v-222q0 -14 -37 -53q-44 -46 -50 -57q12 -2 60 -9t84 -13v543l9 12zM376 373v-34h212q5 0 5 4v34h-206q-11 0 -11 -4zM376 323v-213q11 -2 89 -24q53 -15 89 -15q16 0 40 11v230q0 -4 1 -1q0 3 1 12q-5 0 -7 1zM434 725q-26 -14 -84 -45l-45 9
l103 99q53 51 79 45q15 -3 23.5 -15t5.5 -26q-5 -24 -82 -67z" />
    <glyph glyph-name="Ucircumflex" unicode="&#xdb;" horiz-adv-x="812" 
d="M376 657v-264h218v95q0 17 -36.5 50t-53.5 33q-2 0 -21 -8t-20 -9l-8 8l127 94q38 -17 78 -62q43 -50 43 -87v-361q0 -46 33 -60q40 -11 67 -19q-35 -29 -55 -42q-43 -30 -58 -32q-30 21 -89 70q-22 -3 -87 -36.5t-67 -33.5q-51 0 -150.5 27t-150.5 27q-18 0 -27 -1l-6 4
q9 16 35.5 47t35.5 50q13 27 13 72q0 24 2.5 71t2.5 71q0 208 -125 208q-30 0 -49 -40q-16 -33 -16 -67q0 -35 20 -61t52 -26q49 0 49 35l-15 15l-22 -6l-6 8q0 25 28 25q31 0 31 -35q0 -56 -66 -56q-39 0 -64 34q-23 31 -23 72q0 60 42 117q37 50 95 82l84 -40
q54 -29 68 -57q16 -32 16 -102v-222q0 -14 -37 -53q-44 -46 -50 -57q12 -2 60 -9t84 -13v543l9 12zM376 373v-34h212q5 0 5 4v34h-206q-11 0 -11 -4zM376 323v-213q11 -2 89 -24q53 -15 89 -15q16 0 40 11v230q0 -4 1 -1q0 3 1 12q-5 0 -7 1zM379 803h34l137 -100l-23 -11
l-134 52l-131 -48l-22 7z" />
    <glyph glyph-name="Udieresis" unicode="&#xdc;" horiz-adv-x="826" 
d="M376 657v-264h218v95q0 17 -36.5 50t-53.5 33q-2 0 -21 -8t-20 -9l-8 8l127 94q38 -17 78 -62q43 -50 43 -87v-361q0 -46 33 -60q40 -11 67 -19q-35 -29 -55 -42q-43 -30 -58 -32q-30 21 -89 70q-22 -3 -87 -36.5t-67 -33.5q-51 0 -150.5 27t-150.5 27q-18 0 -27 -1l-6 4
q9 16 35.5 47t35.5 50q13 27 13 72q0 24 2.5 71t2.5 71q0 208 -125 208q-30 0 -49 -40q-16 -33 -16 -67q0 -35 20 -61t52 -26q49 0 49 35l-15 15l-22 -6l-6 8q0 25 28 25q31 0 31 -35q0 -56 -66 -56q-39 0 -64 34q-23 31 -23 72q0 60 42 117q37 50 95 82l84 -40
q54 -29 68 -57q16 -32 16 -102v-222q0 -14 -37 -53q-44 -46 -50 -57q12 -2 60 -9t84 -13v543l9 12zM376 373v-34h212q5 0 5 4v34h-206q-11 0 -11 -4zM376 323v-213q11 -2 89 -24q53 -15 89 -15q16 0 40 11v230q0 -4 1 -1q0 3 1 12q-5 0 -7 1zM465 701q-22 0 -38 14.5
t-16 34.5q0 21 16 35t39 14q22 0 37.5 -14.5t15.5 -34.5t-16 -34.5t-38 -14.5zM295 701q-22 0 -38 14.5t-16 34.5q0 21 15.5 35t38.5 14q22 0 38 -14.5t16 -34.5t-16 -34.5t-38 -14.5z" />
    <glyph glyph-name="Yacute" unicode="&#xdd;" horiz-adv-x="791" 
d="M193 85v126q0 65 -27 112q-33 57 -95 57q-40 0 -40 -33q0 -11 6 -25l-8 -3q-8 0 -14 17q-5 14 -5 24q0 35 33 58q29 20 67 20q46 0 83 -30v54q0 59 -30 97.5t-88 38.5q-22 0 -39 -13.5t-17 -33.5q0 -25 23 -51l-7 -8q-15 2 -29 31t-14 47q0 43 42 69q35 22 81 22
q62 0 117 -31q64 -35 70 -91q35 13 55 24l1 98l17 3v-92l168 89q18 9 178 -112v-196q0 -179 -106 -246q-77 -49 -244 -49q-11 0 -94 2l-91 2q-157 0 -157 -78q0 -72 136 -72q73 0 213 44.5t213 44.5q46 0 85 -19q50 -24 50 -64q0 -21 -16 -48q-17 -30 -37 -30l-9 4q1 1 9 17
q8 12 9 16q0 39 -69 39q-65 0 -190 -38t-190 -38q-89 0 -150 25q-86 35 -86 110q0 110 196 110zM357 545l-56 -24q0 -65 -1 -200q-1 -188 0 -237l-1 -1l58 -5v467zM375 553v-211q33 24 104 97l69 -69l65 58l1 74q-131 79 -163 79q-27 0 -76 -28zM375 80h35q133 0 176 85
q28 55 28 202v34q-44 -37 -125 -120l-76 72q-38 -20 -38 -28v-245zM390 725q-27 -14 -85 -45l-44 9l103 99q52 50 78 45q15 -3 24 -15t6 -26q-5 -25 -82 -67z" />
    <glyph glyph-name="Thorn" unicode="&#xde;" horiz-adv-x="808" 
d="M741 370q0 -122 -29 -170q-25 -42 -131 -112q-20 -14 -62 -41.5t-66 -27.5q-26 0 -70 16q-47 18 -67 19v-148q9 -9 63 -17q59 -8 74 -14l-12 -6h-328l-16 7l12 7q27 -2 27 24v171q-24 9 -49 9q-28 0 -48.5 -17.5t-20.5 -44.5q0 -15 7 -29l-7 -4q-21 20 -21 53
q0 67 37.5 113.5t103.5 42.5q0 30 -3 89t-3 89q0 68 41 97q18 9 53.5 26.5t52.5 25.5v5l-34 7q-31 6 -89 45q-51 34 -85 34q-48 0 -48 -27q3 -6 16 -31l-10 -9q-29 20 -29 47q0 44 27.5 69.5t72.5 25.5q44 0 142 -70t131 -70q24 0 80.5 27t83.5 27q33 0 129 -68
q59 -42 69 -71q6 -17 6 -99zM628 326q1 11 2 40q0 18 -4 40q-11 52 -106 91q-81 33 -145 33q-44 0 -58 -12v-353q185 -63 242 -63q39 0 57 94q12 62 12 130zM300 167v346q-36 -26 -39 -32q-12 -15 -12 -47l-1 -247q0 -11 52 -20zM298 -82v142l-50 12v-110q0 -19 8 -38
q10 -24 26 -24t16 18z" />
    <glyph glyph-name="germandbls" unicode="&#xdf;" horiz-adv-x="427" 
d="M245 344l11 -10q26 -21 76 -65q26 -23 26 -108q0 -185 -55 -235q-26 -24 -73 -60q-60 -45 -75 -45q-7 0 -7 4t21 23l27 24q42 45 57 80q17 39 17 98q0 100 -9 135q-15 61 -68 75q-30 8 -30 19q0 12 57.5 87t57.5 84q0 2 -10 2q-9 0 -29 -2q-45 0 -113 -3q-2 -34 -2 -446
q-17 -5 -44 -18q-30 -15 -44 -20v487h-37v42q18 13 36 34v82q0 7 71.5 40.5t88.5 33.5q26 0 97 -21q11 -3 11 -10q0 -11 -16 -38.5t-25 -27.5q-3 0 -51 21t-61 21q-26 0 -26 -17l2 -106h167q9 0 72 14q5 0 5 -6q0 -3 -30 -36q-35 -39 -68 -90z" />
    <glyph glyph-name="agrave" unicode="&#xe0;" horiz-adv-x="363" 
d="M205 246v111q0 83 -126 83q-23 0 -39 -48q-13 -39 -13 -69q0 -55 36 -77q28 -18 86 -18h33q23 3 23 18zM205 88v111q0 16 -14 16h-56q-34 0 -34 -20v-79q0 -22 23.5 -40t46.5 -18q34 0 34 30zM294 420v-348l11 -19q9 2 33 16l1 -19q1 -3 -23 -14q-14 -4 -29 -11
q-70 -32 -79 -32q-8 0 -11 9q-1 6 0 20q1 13 1 18q-9 1 -47.5 -25.5t-44.5 -26.5l-100 68q5 26 5 59q0 32 -5 71q14 7 73 34q-73 28 -73 105q0 31 29 108q32 84 57 84q27 0 105 -26q68 -23 106 -41q-1 -10 -9 -30zM204 551h31l-68 99q-36 52 -57 52q-29 0 -29 -25
q0 -20 59 -72q22 -18 64 -54z" />
    <glyph glyph-name="aacute" unicode="&#xe1;" horiz-adv-x="363" 
d="M205 246v111q0 83 -126 83q-23 0 -39 -48q-13 -39 -13 -69q0 -55 36 -77q28 -18 86 -18h33q23 3 23 18zM205 88v111q0 16 -14 16h-56q-34 0 -34 -20v-79q0 -22 23.5 -40t46.5 -18q34 0 34 30zM294 420v-348l11 -19q9 2 33 16l1 -19q1 -3 -23 -14q-14 -4 -29 -11
q-70 -32 -79 -32q-8 0 -11 9q-1 6 0 20q1 13 1 18q-9 1 -47.5 -25.5t-44.5 -26.5l-100 68q5 26 5 59q0 32 -5 71q14 7 73 34q-73 28 -73 105q0 31 29 108q32 84 57 84q27 0 105 -26q68 -23 106 -41q-1 -10 -9 -30zM131 551h-31l67 99q35 52 57 52q29 0 29 -25q0 -21 -58 -72
q-21 -18 -64 -54z" />
    <glyph glyph-name="acircumflex" unicode="&#xe2;" horiz-adv-x="362" 
d="M205 246v111q0 83 -126 83q-23 0 -39 -48q-13 -39 -13 -69q0 -55 36 -77q28 -18 86 -18h33q23 3 23 18zM205 88v111q0 16 -14 16h-56q-34 0 -34 -20v-79q0 -22 23.5 -40t46.5 -18q34 0 34 30zM294 420v-348l11 -19q9 2 33 16l1 -19q1 -3 -23 -14q-14 -4 -29 -11
q-70 -32 -79 -32q-8 0 -11 9q-1 6 0 20q1 13 1 18q-9 1 -47.5 -25.5t-44.5 -26.5l-100 68q5 26 5 59q0 32 -5 71q14 7 73 34q-73 28 -73 105q0 31 29 108q32 84 57 84q27 0 105 -26q68 -23 106 -41q-1 -10 -9 -30zM151 650h30l101 -95l-20 -10l-99 49l-97 -46l-19 7z" />
    <glyph glyph-name="atilde" unicode="&#xe3;" horiz-adv-x="362" 
d="M205 246v111q0 83 -126 83q-23 0 -39 -48q-13 -39 -13 -69q0 -55 36 -77q28 -18 86 -18h33q23 3 23 18zM205 88v111q0 16 -14 16h-56q-34 0 -34 -20v-79q0 -22 23.5 -40t46.5 -18q34 0 34 30zM294 420v-348l11 -19q9 2 33 16l1 -19q1 -3 -23 -14q-14 -4 -29 -11
q-70 -32 -79 -32q-8 0 -11 9q-1 6 0 20q1 13 1 18q-9 1 -47.5 -25.5t-44.5 -26.5l-100 68q5 26 5 59q0 32 -5 71q14 7 73 34q-73 28 -73 105q0 31 29 108q32 84 57 84q27 0 105 -26q68 -23 106 -41q-1 -10 -9 -30zM300 640l9 -11q-37 -87 -88 -87q-15 0 -57.5 27t-60.5 27
q-26 0 -56 -51l-9 11q39 89 86 89q18 0 59 -26t60 -26q28 0 57 47z" />
    <glyph glyph-name="adieresis" unicode="&#xe4;" horiz-adv-x="369" 
d="M339 50q1 -3 -23 -14q-14 -4 -29 -11q-70 -32 -79 -32q-8 0 -11 9q-1 6 0 20q1 13 1 18q-9 1 -47.5 -25.5t-44.5 -26.5l-100 68q5 26 5 59q0 32 -5 71q14 7 73 34q-73 28 -73 105q0 31 29 108q32 84 57 84q27 0 105 -26q68 -23 106 -41q-1 -10 -9 -30v-348l11 -19
q9 2 33 16zM205 246v111q0 83 -126 83q-23 0 -39 -48q-13 -39 -13 -69q0 -55 36 -77q28 -18 86 -18h33q23 3 23 18zM205 88v111q0 16 -14 16h-56q-34 0 -34 -20v-79q0 -22 23.5 -40t46.5 -18q34 0 34 30zM244 553q-19 0 -33 14t-14 33q0 20 14 33.5t34 13.5q19 0 32.5 -14
t13.5 -33t-13.5 -33t-33.5 -14zM96 553q-19 0 -33 14t-14 33q0 20 14 33.5t34 13.5q19 0 32.5 -14t13.5 -33t-13.5 -33t-33.5 -14z" />
    <glyph glyph-name="aring" unicode="&#xe5;" horiz-adv-x="361" 
d="M205 246v111q0 83 -126 83q-23 0 -39 -48q-13 -39 -13 -69q0 -55 36 -77q28 -18 86 -18h33q23 3 23 18zM205 88v111q0 16 -14 16h-56q-34 0 -34 -20v-79q0 -22 23.5 -40t46.5 -18q34 0 34 30zM294 420v-348l11 -19q9 2 33 16l1 -19q1 -3 -23 -14q-14 -4 -29 -11
q-70 -32 -79 -32q-8 0 -11 9q-1 6 0 20q1 13 1 18q-9 1 -47.5 -25.5t-44.5 -26.5l-100 68q5 26 5 59q0 32 -5 71q14 7 73 34q-73 28 -73 105q0 31 29 108q32 84 57 84q27 0 105 -26q68 -23 106 -41q-1 -10 -9 -30zM170 537q-31 0 -52 21t-21 52t21 52t53 21q30 0 51 -21.5
t21 -51.5t-21.5 -51.5t-51.5 -21.5zM169 656q-19 0 -32 -13.5t-13 -32.5t13.5 -32.5t32.5 -13.5q20 0 33 13.5t13 32.5t-13.5 32.5t-33.5 13.5z" />
    <glyph glyph-name="ae" unicode="&#xe6;" horiz-adv-x="523" 
d="M201 380q-16 60 -122 60q-23 0 -39 -48q-13 -39 -13 -69q0 -55 36 -77q28 -18 86 -18q45 0 52 9v143zM201 209q-3 6 -10 6h-56q-34 0 -34 -20v-79q0 -22 23.5 -40t46.5 -18q30 0 30 46v105zM294 230v-117q95 -51 115 -51q12 0 32 10t26 10l7 -14q-6 -6 -135 -70
q-32 15 -96 44q-14 -4 -75 -30q-56 -24 -62 -24l-100 68q5 26 5 59q0 32 -5 71q14 7 73 34q-73 28 -73 105q0 31 29 108q32 84 57 84q38 0 156 -45l93 49q5 3 51 -29t51 -32q6 0 14 9.5t9 9.5l8 -6q-3 -8 -80 -111q-16 -22 -49.5 -66t-50.5 -66zM294 253q92 119 92 129
q0 9 -92 86v-215z" />
    <glyph glyph-name="ccedilla" unicode="&#xe7;" horiz-adv-x="314" 
d="M148 0l-12 -30q79 0 79 -55q0 -34 -32 -53q-26 -16 -62 -16q-49 0 -90 25l16 26q40 -22 71 -22q40 0 40 33q0 28 -34 28q-13 0 -31 -5l25 61l-112 69l7 11t7 22v324q0 19 -9 20q19 9 136 74l96 -18q2 0 16.5 5t15.5 5h5q2 -1 4 -1q-43 -79 -53 -79q-18 0 -52.5 9t-52.5 9
q-5 0 -11 -5.5t-6 -9.5v-312q0 -26 36 -43q30 -14 58 -14q7 0 29.5 3t27.5 3l7 -9q-3 -11 -119 -55z" />
    <glyph glyph-name="egrave" unicode="&#xe8;" horiz-adv-x="340" 
d="M111 226q0 -97 -1 -109q100 -55 119 -55q12 0 32 10t26 10l5 -10q0 -7 -133 -74l-76 34q-63 31 -73 42q11 14 11 30v325l-9 14l149 78q5 3 51 -29t51 -32q6 0 14 9.5t9 9.5l8 -6q-3 -11 -84 -117zM111 252h2q93 119 93 130q0 15 -96 84zM194 551h31l-68 99q-36 52 -57 52
q-29 0 -29 -25q0 -20 59 -72q22 -18 64 -54z" />
    <glyph glyph-name="eacute" unicode="&#xe9;" horiz-adv-x="340" 
d="M111 226q0 -97 -1 -109q100 -55 119 -55q12 0 32 10t26 10l5 -10q0 -7 -133 -74l-76 34q-63 31 -73 42q11 14 11 30v325l-9 14l149 78q5 3 51 -29t51 -32q6 0 14 9.5t9 9.5l8 -6q-3 -11 -84 -117zM111 252h2q93 119 93 130q0 15 -96 84zM131 551h-31l67 99q35 52 57 52
q29 0 29 -25q0 -21 -58 -72q-21 -18 -64 -54z" />
    <glyph glyph-name="ecircumflex" unicode="&#xea;" horiz-adv-x="342" 
d="M111 226q0 -97 -1 -109q100 -55 119 -55q12 0 32 10t26 10l5 -10q0 -7 -133 -74l-76 34q-63 31 -73 42q11 14 11 30v325l-9 14l149 78q5 3 51 -29t51 -32q6 0 14 9.5t9 9.5l8 -6q-3 -11 -84 -117zM111 252h2q93 119 93 130q0 15 -96 84zM131 650h30l101 -95l-20 -10
l-99 49l-97 -46l-19 7z" />
    <glyph glyph-name="edieresis" unicode="&#xeb;" horiz-adv-x="340" 
d="M111 226q0 -97 -1 -109q100 -55 119 -55q12 0 32 10t26 10l5 -10q0 -7 -133 -74l-76 34q-63 31 -73 42q11 14 11 30v325l-9 14l149 78q5 3 51 -29t51 -32q6 0 14 9.5t9 9.5l8 -6q-3 -11 -84 -117zM111 252h2q93 119 93 130q0 15 -96 84zM224 553q-19 0 -33 14t-14 33
q0 20 14 33.5t34 13.5q19 0 32.5 -14t13.5 -33t-13.5 -33t-33.5 -14zM76 553q-19 0 -33 14t-14 33q0 20 14 33.5t34 13.5q19 0 32.5 -14t13.5 -33t-13.5 -33t-33.5 -14z" />
    <glyph glyph-name="igrave" unicode="&#xec;" horiz-adv-x="233" 
d="M53 91v311q0 11 -19 27q-26 17 -26 20q0 6 60 72l92 -75q-8 2 -9 -1q-8 -13 -8 -28v-316q0 -29 26 -46q9 -3 9 -7q0 -11 -67 -57l-74 63q16 22 16 37zM134 551h31l-68 99q-36 52 -57 52q-29 0 -29 -25q0 -20 59 -72q22 -18 64 -54z" />
    <glyph glyph-name="iacute" unicode="&#xed;" horiz-adv-x="233" 
d="M53 91v311q0 11 -19 27q-26 17 -26 20q0 6 60 72l92 -75q-1 -1 -11 -9q-6 -5 -6 -20v-316q0 -29 26 -46q9 -3 9 -7q0 -11 -67 -57l-74 63q16 22 16 37zM41 551h-31l67 99q35 52 57 52q29 0 29 -25q0 -21 -58 -72q-21 -18 -64 -54z" />
    <glyph glyph-name="icircumflex" unicode="&#xee;" horiz-adv-x="234" 
d="M53 91v311q0 11 -19 27q-26 17 -26 20q0 6 60 72l92 -75q-8 2 -9 -1q-8 -13 -8 -28v-316q0 -29 26 -46q9 -3 9 -7q0 -11 -67 -57l-74 63q16 22 16 37zM53 91v311q0 11 -19 27q-26 17 -26 20q0 6 60 72l92 -75q-8 2 -9 -1q-8 -13 -8 -28v-316q0 -29 26 -46q9 -3 9 -7
q0 -11 -67 -57l-74 63q16 22 16 37zM63 650h26l92 -95l-18 -10l-90 49l-87 -46l-17 7z" />
    <glyph glyph-name="idieresis" unicode="&#xef;" horiz-adv-x="243" 
d="M8 449l60 72l92 -75l-21 -46v-301q6 -14 30 -44q9 -4 9 -7q0 -14 -67 -57l-74 63q16 16 16 29v319q0 11 -45 47zM144 553q-19 0 -33 14t-14 33q0 20 14 33.5t34 13.5q19 0 32.5 -14t13.5 -33t-13.5 -33t-33.5 -14zM26 553q-19 0 -33 14t-14 33q0 20 14 33.5t34 13.5
q19 0 32.5 -14t13.5 -33t-13.5 -33t-33.5 -14z" />
    <glyph glyph-name="eth" unicode="&#xf0;" horiz-adv-x="392" 
d="M247 735l-12 24l-80 -44l-138 95v-95l61 -43l-61 -34l10 -24l75 41l114 -72v-66q-9 2 -27 13q-70 -27 -171 -75q-10 -5 -11 -8l14 -14v-328q0 -5 -18 -26q0 -6 48.5 -39t59.5 -33q10 0 52 25t50 25q1 -1 1 -5q0 -5 -2 -24t-2 -25t3 -10q16 0 78 36t62 46q0 2 1 7v6
q0 2 -1 4q-4 -1 -17.5 -10.5t-17.5 -9.5q-10 0 -10 23v528l-133 76zM218 103q0 -30 -22 -30q-16 0 -50.5 27t-34.5 42v305q0 23 19 23q13 0 50.5 -23t37.5 -33v-311z" />
    <glyph glyph-name="ntilde" unicode="&#xf1;" horiz-adv-x="433" 
d="M139 2h-90q-1 -23 -1 214v201l-37 33l63 58l67 -45l100 50q7 2 60.5 -30t53.5 -37q0 -4 -6 -8q-16 -11 -16 -33q-2 -85 -2 -223q0 -44 2 -132q2 0 18 7t20 7q3 0 3 -7q-2 -9 -3 -10q-47 -24 -61 -31q-40 -19 -65 -24l1 377q0 33 -22.5 56.5t-54.5 23.5q-22 0 -28 -15
q-2 -10 -2 -34v-398zM300 640l9 -11q-37 -87 -88 -87q-15 0 -57.5 27t-60.5 27q-26 0 -56 -51l-9 11q39 89 86 89q18 0 59 -26t60 -26q28 0 57 47z" />
    <glyph glyph-name="ograve" unicode="&#xf2;" horiz-adv-x="377" 
d="M19 103v324q0 4 -9 11.5t-9 9.5q1 1 9 5l150 69q16 0 87 -34t71 -41q0 -3 -6 -9.5t-6 -11.5v-351q0 -3 -10 -10t-14 -8q-76 -36 -119 -59l-162 79q18 8 18 26zM212 76q4 8 4 24l-1 281q0 21 -42 45q-38 22 -62 22q-4 0 -4 -12q0 -49 1 -147t1 -147q0 -29 39 -44
q13 -5 64 -22zM204 551h31l-68 99q-36 52 -57 52q-29 0 -29 -25q0 -20 59 -72q22 -18 64 -54z" />
    <glyph glyph-name="oacute" unicode="&#xf3;" horiz-adv-x="377" 
d="M19 103v324q0 4 -9 11.5t-9 9.5q1 1 9 5l150 69q16 0 87 -34t71 -41q0 -3 -6 -9.5t-6 -11.5v-351q0 -3 -10 -10t-14 -8q-76 -36 -119 -59l-162 79q18 8 18 26zM212 76q4 8 4 24l-1 281q0 21 -42 45q-38 22 -62 22q-4 0 -4 -12q0 -49 1 -147t1 -147q0 -29 39 -44
q13 -5 64 -22zM131 551h-31l67 99q35 52 57 52q29 0 29 -25q0 -21 -58 -72q-21 -18 -64 -54z" />
    <glyph glyph-name="ocircumflex" unicode="&#xf4;" horiz-adv-x="380" 
d="M19 103v324q0 4 -9 11.5t-9 9.5q1 1 9 5l150 69q16 0 87 -34t71 -41q0 -3 -6 -9.5t-6 -11.5v-351q0 -3 -10 -10t-14 -8q-76 -36 -119 -59l-162 79q18 8 18 26zM212 76q4 8 4 24l-1 281q0 21 -42 45q-38 22 -62 22q-4 0 -4 -12q0 -49 1 -147t1 -147q0 -29 39 -44
q13 -5 64 -22zM141 650h30l101 -95l-20 -10l-99 49l-97 -46l-19 7z" />
    <glyph glyph-name="otilde" unicode="&#xf5;" horiz-adv-x="377" 
d="M19 103v324q0 4 -9 11.5t-9 9.5q1 1 9 5l150 69q16 0 87 -34t71 -41q0 -3 -6 -9.5t-6 -11.5v-351q0 -3 -10 -10t-14 -8q-76 -36 -119 -59l-162 79q18 8 18 26zM212 76q4 8 4 24l-1 281q0 21 -42 45q-38 22 -62 22q-4 0 -4 -12q0 -49 1 -147t1 -147q0 -29 39 -44
q13 -5 64 -22zM290 640l9 -11q-37 -87 -88 -87q-15 0 -57.5 27t-60.5 27q-26 0 -56 -51l-9 11q39 89 86 89q18 0 59 -26t60 -26q28 0 57 47z" />
    <glyph glyph-name="odieresis" unicode="&#xf6;" horiz-adv-x="380" 
d="M19 103v324q0 4 -9 11.5t-9 9.5q1 1 9 5l150 69q16 0 87 -34t71 -41q0 -3 -6 -9.5t-6 -11.5v-351q0 -3 -10 -10t-14 -8q-76 -36 -119 -59l-162 79q18 8 18 26zM212 76q4 8 4 24l-1 281q0 21 -42 45q-38 22 -62 22q-4 0 -4 -12q0 -49 1 -147t1 -147q0 -29 39 -44
q13 -5 64 -22zM234 553q-19 0 -33 14t-14 33q0 20 14 33.5t34 13.5q19 0 32.5 -14t13.5 -33t-13.5 -33t-33.5 -14zM86 553q-19 0 -33 14t-14 33q0 20 14 33.5t34 13.5q19 0 32.5 -14t13.5 -33t-13.5 -33t-33.5 -14z" />
    <glyph glyph-name="divide" unicode="&#xf7;" horiz-adv-x="667" 
d="M332 481q-22 0 -37 15t-15 36q0 22 15 37t37 15q21 0 36 -15t15 -37q0 -21 -15 -36t-36 -15zM66 288v80h534v-80h-534zM332 75q-22 0 -37 15t-15 37t15 37t37 15t37.5 -15t15.5 -37t-15.5 -37t-37.5 -15z" />
    <glyph glyph-name="oslash" unicode="&#xf8;" horiz-adv-x="380" 
d="M215 323l-108 -185q4 -28 42 -41l63 -21q2 6 2 26zM107 197l108 186q-1 21 -43 44q-38 21 -61 21q-4 0 -4 -12v-239zM-2 11l30 52l-27 14q18 8 18 26v324q0 4 -9 11.5t-9 9.5q1 1 9 5l150 69q20 0 110 -45l23 40l26 -15l-23 -39q22 -10 22 -16q0 -3 -6 -9.5t-6 -11.5
v-351q0 -3 -10 -10t-14 -8q-76 -36 -119 -59l-108 52l-31 -54z" />
    <glyph glyph-name="ugrave" unicode="&#xf9;" horiz-adv-x="404" 
d="M226 82v325q0 25 -22 37q-1 0 -41 19q2 8 63 59q103 -55 103 -67q0 -3 -6.5 -24.5t-6.5 -29.5v-303q0 -19 18 -19q4 0 10 1l6 -7q-10 -10 -58 -42.5t-61 -38.5q-5 22 -5 59q-19 -4 -51.5 -25t-47.5 -25q-11 2 -60.5 31.5t-54.5 38.5q18 11 18 32v298q0 24 -15 32
q-10 6 -21 14q45 75 51 75t85 -65q-5 -13 -10 -25v-246q0 -52 12 -77q17 -37 63 -37q21 0 31 10zM199 551h30l-67 99q-35 52 -57 52q-29 0 -29 -25q0 -30 123 -126z" />
    <glyph glyph-name="uacute" unicode="&#xfa;" horiz-adv-x="404" 
d="M226 82v325q0 25 -22 37q-1 0 -41 19q2 8 63 59q103 -55 103 -67q0 -3 -6.5 -24.5t-6.5 -29.5v-303q0 -19 18 -19q4 0 10 1l6 -7q-10 -10 -58 -42.5t-61 -38.5q-5 22 -5 59q-19 -4 -51.5 -25t-47.5 -25q-11 2 -60.5 31.5t-54.5 38.5q18 11 18 32v298q0 24 -15 32
q-10 6 -21 14q45 75 51 75t85 -65q-5 -13 -10 -25v-246q0 -52 12 -77q17 -37 63 -37q21 0 31 10zM131 551h-31l67 99q35 52 57 52q29 0 29 -25q0 -21 -58 -72q-21 -18 -64 -54z" />
    <glyph glyph-name="ucircumflex" unicode="&#xfb;" horiz-adv-x="407" 
d="M226 82v325q0 25 -22 37q-1 0 -41 19q2 8 63 59q103 -55 103 -67q0 -3 -6.5 -24.5t-6.5 -29.5v-303q0 -19 18 -19q4 0 10 1l6 -7q-10 -10 -58 -42.5t-61 -38.5q-5 22 -5 59q-19 -4 -51.5 -25t-47.5 -25q-11 2 -60.5 31.5t-54.5 38.5q18 11 18 32v298q0 24 -15 32
q-10 6 -21 14q45 75 51 75t85 -65q-5 -13 -10 -25v-246q0 -52 12 -77q17 -37 63 -37q21 0 31 10zM151 650h30l101 -95l-20 -10l-99 49l-97 -46l-19 7z" />
    <glyph glyph-name="udieresis" unicode="&#xfc;" horiz-adv-x="405" 
d="M226 82v325q0 25 -22 37q-1 0 -41 19q2 8 63 59q103 -55 103 -67q0 -3 -6.5 -24.5t-6.5 -29.5v-303q0 -19 18 -19q4 0 10 1l6 -7q-10 -10 -58 -42.5t-61 -38.5q-5 22 -5 59q-19 -4 -51.5 -25t-47.5 -25q-11 2 -60.5 31.5t-54.5 38.5q18 11 18 32v298q0 24 -15 32
q-10 6 -21 14q45 75 51 75t85 -65q-5 -13 -10 -25v-246q0 -52 12 -77q17 -37 63 -37q21 0 31 10zM244 553q-19 0 -33 14t-14 33q0 20 14 33.5t34 13.5q19 0 32.5 -14t13.5 -33t-13.5 -33t-33.5 -14zM96 553q-19 0 -33 14t-14 33q0 20 14 33.5t34 13.5q19 0 32.5 -14
t13.5 -33t-13.5 -33t-33.5 -14z" />
    <glyph glyph-name="yacute" unicode="&#xfd;" horiz-adv-x="399" 
d="M36 86v310q0 20 -13 35q-3 4 -27 24q6 11 62 59l82 -69l-14 -16v-271q0 -44 26.5 -75.5t67.5 -31.5q12 0 14 11v300q0 40 -16 57q-5 7 -49 34q53 60 65 61l118 -63q-19 -11 -24 -32q-3 -9 -4 -37q-3 0 -2 -132l2 -193q0 -14 -80 -32q-112 -25 -148 -39q-80 -31 -80 -79
q0 -22 21 -36q18 -12 41 -12q44 0 121.5 48t105.5 48t47.5 -17t19.5 -43q0 -15 -6 -29q-7 -18 -20 -18l-8 5q11 14 11 27q0 26 -37 26q-26 0 -101.5 -31.5t-118.5 -31.5q-90 0 -90 68q0 35 36 61q19 14 67 34q-42 24 -88 54q19 22 19 26zM131 551h-31l67 99q35 52 57 52
q29 0 29 -25q0 -21 -58 -72q-21 -18 -64 -54z" />
    <glyph glyph-name="thorn" unicode="&#xfe;" horiz-adv-x="442" 
d="M45 -159v151q-27 0 -33 2t-6 11q0 15 23 49q16 24 16 29v448l-35 44q0 6 29 31t37 25q7 0 25 -21q13 -15 29 -32q6 -6 4 -63q-2 -60 -1 -56q7 0 66 26.5t68 26.5q12 0 66 -31.5t54 -38.5q0 -5 -7.5 -10t-7.5 -13v-328q0 -31 -2 -37.5t-14 -14.5q-90 -57 -95 -57
q-54 3 -126 10v-78q0 -36 51 -54q18 -6 18 -10q0 -9 -25 -9q-39 0 -85 29q-7 6 -12 6q-3 -2 -11 -14q-14 -21 -26 -21zM135 423v-346q0 -9 64 -19q52 -8 67 -8q16 0 16 32v301q0 26 -32.5 45t-59.5 19q-9 0 -18 -2q-37 -8 -37 -22z" />
    <glyph glyph-name="ydieresis" unicode="&#xff;" horiz-adv-x="396" 
d="M36 86v310q0 20 -13 35q-3 4 -27 24q6 11 62 59l82 -69l-14 -16v-271q0 -44 26.5 -75.5t67.5 -31.5q12 0 14 11v300q0 40 -16 57q-5 7 -49 34q53 60 65 61l118 -63q-19 -11 -24 -32q-3 -9 -4 -37q-3 0 -2 -132l2 -193q0 -14 -80 -32q-112 -25 -148 -39q-80 -31 -80 -79
q0 -22 21 -36q18 -12 41 -12q44 0 121.5 48t105.5 48t47.5 -17t19.5 -43q0 -15 -6 -29q-7 -18 -20 -18l-8 5q11 14 11 27q0 26 -37 26q-26 0 -101.5 -31.5t-118.5 -31.5q-90 0 -90 68q0 35 36 61q19 14 67 34q-42 24 -88 54q19 22 19 26zM97 652q21 0 36 -15.5t15 -36.5
q0 -22 -15 -37t-37 -15t-37 15t-15 37t15.5 37t37.5 15zM265 652q21 0 36 -15.5t15 -36.5q0 -22 -15 -37t-37 -15t-37 15t-15 37t15.5 37t37.5 15z" />
    <glyph glyph-name="dotlessi" unicode="&#x131;" horiz-adv-x="232" 
d="M53 91v311q0 11 -19 27q-26 17 -26 20q0 6 60 72l92 -75q-8 2 -9 -1q-8 -13 -8 -28v-316q0 -29 26 -46q9 -3 9 -7q0 -11 -67 -57l-74 63q16 22 16 37z" />
    <glyph glyph-name="Lslash" unicode="&#x141;" horiz-adv-x="610" 
d="M276 346l-52 -35v-99q0 -79 -120 -152q-11 -7 -11 -12q62 17 183 39v259zM224 355l52 35v217l-6 -9q-11 -1 -46 -12v-231zM24 220l101 68v242q-1 7 -29 18t-28 13q123 39 307 102q66 -45 104 -45q18 0 36 8l10 -9l-12 -10q-24 -19 -85 -70q-31 7 -77 33l-46 26
q-11 0 -11 -15v-179l96 66v-44l-96 -66v-270h181q63 0 101 24q4 3 6 6.5t3 3.5q15 0 15 -7q0 -22 -108 -121q-14 -13 -25 -13q-18 0 -51 6q-169 31 -289 31q-66 0 -125 -18q-6 9 -6 10q0 3 3 3q35 13 71 49.5t49 72.5t6 105l-101 -64v44z" />
    <glyph glyph-name="lslash" unicode="&#x142;" horiz-adv-x="277" 
d="M5 303l59 45v63q0 1 -10 11t-10 11t9.5 9t10.5 13v175q0 3 -2 13q27 -21 32 -21q10 0 60 56v-267l63 44v-44l-63 -49v-261q0 -20 37 -43q0 -7 -34.5 -35.5t-44.5 -28.5q-5 0 -40.5 28.5t-35.5 32.5q0 3 14 15.5t14 21.5v207l-60 -42z" />
    <glyph glyph-name="OE" unicode="&#x152;" horiz-adv-x="1154" 
d="M240 80v526q-62 -29 -94 -97q-28 -59 -28 -134q0 -73 33 -162q38 -102 89 -133zM778 383q24 11 107.5 74t83.5 75q0 16 -87 32q-71 13 -107 15q-2 -41 0 -96zM782 323q0 -119 -70 -205q175 -35 268 -35q24 0 69 21.5t38 21.5q9 0 9 -9q0 -8 -55 -56q-42 -37 -58 -48
q-38 -27 -67 -27q-78 0 -134 19l-141 48q-100 -68 -234 -68q-169 0 -275 77q-120 87 -120 250q0 162 124 260q114 89 280 89q157 0 255 -77q0 31 -3.5 43.5t-18.5 30.5q51 -6 67.5 -19.5l49.5 -40.5l108 61q17 -5 98 -29q71 -21 91 -21q12 0 26 11q9 0 9 -8
q0 -12 -101.5 -88.5t-101.5 -84.5q0 -1 -17 -13q50 0 140 9l-8 -113q0 -14 1 -25v-25q0 -2 -5 -4q-12 0 -15 21q-1 10 0 26q1 13 1 19q0 13 -3.5 15.5t-19.5 2.5q-48 -1 -187 1v-30zM655 399q-12 104 -121 167q-95 55 -208 55q-40 0 -69 -7v-369q118 81 205 142
q13 -3 73 -68q28 12 62 37q20 15 58 43zM667 291q0 11 -1 14zM667 288v3l-1 14q-3 40 -7 74q-20 -13 -110 -81q-76 -58 -102 -69q-46 67 -72 70q-31 -23 -118 -81v-153q67 -58 184 -58q118 0 176 85q50 73 50 196z" />
    <glyph glyph-name="oe" unicode="&#x153;" horiz-adv-x="542" 
d="M307 249q0 4 49.5 66t49.5 67q0 8 -99 84q-2 -74 -2 -128t2 -89zM19 103v324q0 4 -9 11.5t-9 9.5q1 1 9 5l150 69q23 0 114 -47l87 46q5 3 51 -29t51 -32q6 0 14 9.5t9 9.5l8 -6q-3 -10 -85 -118l-100 -132v-23q0 -23 1 -41q1 -25 0 -42q100 -55 119 -55q12 0 32 10
t26 10l7 -12q-45 -27 -135 -72q-19 8 -102 47q-32 -15 -94 -47l-162 79q18 8 18 26zM212 76q2 6 2 26l1 279q0 22 -42 45q-38 22 -62 22q-4 0 -4 -12v-293q0 -27 40 -45q22 -7 65 -22z" />
    <glyph glyph-name="Scaron" unicode="&#x160;" horiz-adv-x="745" 
d="M220 171q13 14 75 116l-43 -1q-74 -2 -126 36q-57 42 -57 114q0 92 76 162t168 70q47 0 127 -31q86 -34 125 -38q57 45 97 69l7 -8q-24 -41 -116 -115t-119 -116l71 2q77 2 133 -40q62 -45 62 -120q0 -88 -91 -184.5t-178 -96.5q-32 0 -124 34q-115 42 -131 46
q-72 -175 -137 -175q-48 0 -48 79q0 68 31 136q39 85 97 85q22 0 101 -24zM183 344q-39 8 -77 56l-8 -6q26 -86 196 -86q16 0 51 1.5t54 1.5q77 -1 124 -21q53 -22 96 -79l2 3q-2 37 -39 70q-64 57 -147 57q-20 0 -59 -3t-59 -3q-8 0 -134 9zM472 508q-185 104 -264 104
q-29 0 -50 -26.5t-21 -56.5q0 -59 66 -87q47 -20 116 -20q37 0 90 4q25 31 63 82zM239 163l155 -58q111 -41 150 -41q29 0 47 36q15 29 15 61q0 84 -110 111q-57 14 -178 14q-26 -35 -79 -123zM158 73q-34 10 -55 10q-42 0 -68 -40q-23 -35 -23 -79q0 -53 33 -53q28 0 68 67
q28 48 45 95zM371 692h-34l-137 100l23 11l134 -51l131 48l22 -8z" />
    <glyph glyph-name="scaron" unicode="&#x161;" horiz-adv-x="393" 
d="M319 206v-95q0 -32 -6 -42t-33 -21q-8 -3 -52.5 -28t-48.5 -25q-19 0 -85 26l-69 27q-15 0 -15 -57q0 -8 -9 -8q-11 0 -11 30q0 66 81 162q17 20 17 25q0 9 -33 30.5t-33 29.5q0 2 4.5 16.5t4.5 18.5l1 157q33 15 146 66q88 -82 101 -82q6 0 22 27t18 27q4 0 22 -9
q-110 -146 -110 -166q0 -7 51 -34t51 -34q-1 -4 -4 -7q-10 -13 -10 -34zM138 458q-24 0 -24 -15v-141q0 -9 14.5 -19t25.5 -10t66 82q-73 103 -82 103zM229 114v70q0 29 -14 43q-10 9 -39 19q-8 3 -54 -44.5t-46 -61.5q0 -11 68 -46q55 -28 71 -28q14 0 14 48zM188 561h-28
l-117 85l20 9l113 -44l112 41l19 -6z" />
    <glyph glyph-name="Ydieresis" unicode="&#x178;" horiz-adv-x="789" 
d="M193 85v126q0 65 -27 112q-33 57 -95 57q-40 0 -40 -33q0 -11 6 -25l-8 -3q-8 0 -14 17q-5 14 -5 24q0 35 33 58q29 20 67 20q46 0 83 -30v54q0 59 -30 97.5t-88 38.5q-22 0 -39 -13.5t-17 -33.5q0 -25 23 -51l-7 -8q-15 2 -29 31t-14 47q0 43 42 69q35 22 81 22
q62 0 117 -31q64 -35 70 -91q35 13 55 24l1 98l17 3v-92l168 89q18 9 178 -112v-196q0 -179 -106 -246q-77 -49 -244 -49q-11 0 -94 2l-91 2q-157 0 -157 -78q0 -72 136 -72q73 0 213 44.5t213 44.5q46 0 85 -19q50 -24 50 -64q0 -21 -16 -48q-17 -30 -37 -30l-9 4q1 1 9 17
q8 12 9 16q0 39 -69 39q-65 0 -190 -38t-190 -38q-89 0 -150 25q-86 35 -86 110q0 110 196 110zM357 545l-56 -24q0 -65 -1 -200q-1 -188 0 -237l-1 -1l58 -5v467zM375 553v-211q33 24 104 97l69 -69l65 58l1 74q-131 79 -163 79q-27 0 -76 -28zM375 80h35q133 0 176 85
q28 55 28 202v34q-44 -37 -125 -120l-76 72q-38 -20 -38 -28v-245zM465 701q-22 0 -38 14.5t-16 34.5q0 21 16 35t39 14q22 0 37.5 -14.5t15.5 -34.5t-16 -34.5t-38 -14.5zM285 701q-22 0 -38 14.5t-16 34.5q0 21 15.5 35t38.5 14q22 0 38 -14.5t16 -34.5t-16 -34.5
t-38 -14.5z" />
    <glyph glyph-name="Zcaron" unicode="&#x17d;" horiz-adv-x="788" 
d="M368 337h-96l80 82l113 -1q20 19 112 115l-32 -2q-58 -4 -162 24q-110 30 -162 30q-78 0 -134 -46q-60 -48 -60 -125q0 -40 25.5 -68.5t63.5 -28.5q31 0 54 23.5t23 55.5q0 39 -27 45l1 22q20 0 34 -23.5t14 -44.5q0 -45 -27.5 -73.5t-71.5 -28.5q-54 0 -83.5 33.5
t-29.5 89.5q0 106 84 182t191 76q55 0 163 -25t163 -25q82 0 136 67l12 -14l-254 -258l99 1l-74 -83l-118 -1q-125 -118 -297 -287l3 -6q29 0 145 35t175 35q22 0 76 -4q40 -3 76 -3q60 0 94 23q25 17 60 73l13 -9q-8 -51 -67 -123q-64 -78 -110 -78q-62 0 -185 15t-185 15
q-80 0 -170 -34l-8 7q5 18 156 162q176 167 187 180zM401 692h-34l-137 100l23 11l134 -51l131 48l22 -8z" />
    <glyph glyph-name="zcaron" unicode="&#x17e;" horiz-adv-x="425" 
d="M290 285l-57 -72l-62 16l-84 -126q10 -10 256 -10q2 1 22 4q13 2 18 -4q-5 -13 -62 -92q-154 21 -223 21q-58 0 -70 -4q-4 -1 -16 -18q-15 -19 -23 -25l-10 7q2 40 167 252l-66 15l57 70l53 -14l70 91q-11 20 -265 66l71 71q162 -44 231 -44q7 0 24.5 1.5t20.5 1.5l4 -4
q0 -16 -128 -185zM188 561h-28l-117 85l20 9l113 -44l112 41l19 -6z" />
    <glyph glyph-name="longs" unicode="&#x17f;" horiz-adv-x="238" 
d="M124 1q-26 -14 -74 -34l-14 -10v493h-37v42q18 13 36 34v82q0 7 71.5 40.5t88.5 33.5q26 0 97 -21q11 -3 11 -10q0 -11 -16 -38.5t-25 -27.5q-3 0 -51 21t-61 21q-26 0 -26 -17v-609z" />
    <glyph glyph-name="florin" unicode="&#x192;" horiz-adv-x="488" 
d="M446 599l-84 21l-29 -124h76l-11 -49h-76l-99 -427q-3 -13 -3 -25q0 -32 22 -48l-4 -8q-66 -19 -139 -74l-88 88l10 9l31 -30l68 44l109 471h-46l11 49h46l27 118q81 47 128 82l83 -21z" />
    <glyph glyph-name="circumflex" unicode="&#x2c6;" horiz-adv-x="327" 
d="M149 658h34l137 -100l-23 -11l-134 52l-131 -48l-22 7z" />
    <glyph glyph-name="caron" unicode="&#x2c7;" horiz-adv-x="339" 
d="M181 547h-34l-137 100l23 11l134 -51l131 48l22 -8z" />
    <glyph glyph-name="breve" unicode="&#x2d8;" horiz-adv-x="255" 
d="M206 656h30q-22 -102 -109 -102q-42 0 -72 29.5t-32 72.5h29q3 -23 29 -38q23 -13 48 -13q58 0 77 51z" />
    <glyph glyph-name="dotaccent" unicode="&#x2d9;" horiz-adv-x="206" 
d="M110 667q22 0 37 -15.5t15 -36.5q0 -22 -15 -37t-37 -15t-37 15t-15 37t15 37t37 15z" />
    <glyph glyph-name="ring" unicode="&#x2da;" horiz-adv-x="249" 
d="M131 703q32 0 54.5 -23t22.5 -55t-23 -55t-55 -23t-55 23t-23 55q0 33 23 55.5t56 22.5zM129 666q-16 0 -28 -12t-12 -29t12 -29t29 -12t29 12t12 29q0 41 -42 41z" />
    <glyph glyph-name="ogonek" unicode="&#x2db;" horiz-adv-x="356" 
d="M196 0h36q-42 -35 -42 -79q0 -49 47 -49q32 0 73 28l15 -23q-55 -48 -112 -48q-36 0 -60 17q-27 19 -27 54q0 54 70 100z" />
    <glyph glyph-name="tilde" unicode="&#x2dc;" horiz-adv-x="362" 
d="M342 655l11 -11q-47 -87 -110 -87q-20 0 -72 27t-76 27q-29 0 -70 -51l-11 11q48 89 108 89q24 0 74 -26t74 -26q36 0 72 47z" />
    <glyph glyph-name="hungarumlaut" unicode="&#x2dd;" horiz-adv-x="358" 
d="M62 535h-29q188 141 229 141q14 0 14 -11q0 -22 -117 -81zM170 533h-30q34 24 104 72q102 69 126 69q14 0 14 -10q0 -23 -117 -82z" />
    <glyph glyph-name="increment" unicode="&#x394;" horiz-adv-x="612" 
d="M599 0h-586l306 677zM483 40l-194 472l-215 -472h409z" />
    <glyph glyph-name="increment" unicode="&#x2206;" horiz-adv-x="612" 
d="M599 0h-586l306 677zM483 40l-194 472l-215 -472h409z" />
    <glyph glyph-name="Omega" unicode="&#x3a9;" horiz-adv-x="740" 
d="M28 153h17q3 -35 25 -51q15 -11 55 -11h132v33q-70 13 -131 70q-81 75 -81 195q0 131 100 212q93 76 227 76t225 -75q98 -80 98 -211q0 -100 -56 -170t-157 -97v-33h135q38 0 56 13.5t21 48.5h17v-153h-273l11 147q126 41 126 233q0 106 -49 178q-56 83 -157 83
q-118 0 -175 -117q-29 -60 -29 -137q0 -193 125 -240l11 -147h-273v153z" />
    <glyph glyph-name="pi" unicode="&#x3c0;" horiz-adv-x="531" 
d="M491 447v-71h-113q-19 -114 -19 -224q0 -84 61 -84q48 0 54 54h17q-16 -136 -100 -136q-86 0 -86 169q0 34 6 100q8 91 13 121h-115l-11 -149q-7 -93 -31 -180q-17 -61 -53 -61q-18 0 -31 11.5t-13 29.5q0 12 5 25q43 72 45 77q15 31 23 93q1 11 12 154h-14
q-38 0 -62 -18q-17 -13 -40 -51h-18q29 108 86 131q23 9 73 9h311z" />
    <glyph glyph-name="endash" unicode="&#x2013;" horiz-adv-x="471" 
d="M73 200v67h340v-67h-340z" />
    <glyph glyph-name="emdash" unicode="&#x2014;" horiz-adv-x="661" 
d="M0 200v67h604v-67h-604z" />
    <glyph glyph-name="quoteleft" unicode="&#x2018;" horiz-adv-x="153" 
d="M164 608q-9 -10 -34 -33q-30 -26 -35 -23l-33 24q-18 13 -18 50q0 68 49 129q41 51 60 51q2 0 2 -2q0 -3 -10 -19q-30 -47 -30 -87q0 -49 42 -78q10 -7 7 -12z" />
    <glyph glyph-name="quoteright" unicode="&#x2019;" horiz-adv-x="153" 
d="M44 750q8 9 36.5 33.5t32.5 22.5l33 -24q18 -13 18 -50q0 -68 -49 -129q-41 -51 -60 -51q-2 0 -2 2q0 3 10 19q30 47 30 87q0 49 -42 78q-10 7 -7 12z" />
    <glyph glyph-name="quotesinglbase" unicode="&#x201a;" horiz-adv-x="228" 
d="M44 60q8 9 36.5 33.5t32.5 22.5l33 -24q18 -13 18 -50q0 -68 -49 -129q-41 -51 -60 -51q-2 0 -2 2q0 3 10 19q30 47 30 87q0 49 -42 78q-10 7 -7 12z" />
    <glyph glyph-name="quotedblleft" unicode="&#x201c;" horiz-adv-x="351" 
d="M144 608q-9 -10 -34 -33q-30 -26 -35 -23l-33 24q-18 13 -18 50q0 68 49 129q41 51 60 51q2 0 2 -2q0 -3 -10 -19q-30 -47 -30 -87q0 -49 42 -78q10 -7 7 -12zM304 608q-9 -10 -34 -33q-30 -26 -35 -23l-33 24q-18 13 -18 50q0 68 49 129q41 51 60 51q2 0 2 -2
q0 -3 -10 -19q-30 -47 -30 -87q0 -49 42 -78q10 -7 7 -12z" />
    <glyph glyph-name="quotedblright" unicode="&#x201d;" horiz-adv-x="334" 
d="M184 750q8 9 36.5 33.5t32.5 22.5l33 -24q18 -13 18 -50q0 -68 -49 -129q-41 -51 -60 -51q-2 0 -2 2q0 3 10 19q30 47 30 87q0 49 -42 78q-10 7 -7 12zM24 750q8 9 36.5 33.5t32.5 22.5l33 -24q18 -13 18 -50q0 -68 -49 -129q-41 -51 -60 -51q-2 0 -2 2q0 3 10 19
q30 47 30 87q0 49 -42 78q-10 7 -7 12z" />
    <glyph glyph-name="quotedblbase" unicode="&#x201e;" horiz-adv-x="368" 
d="M184 60q8 9 36.5 33.5t32.5 22.5l33 -24q18 -13 18 -50q0 -68 -49 -129q-41 -51 -60 -51q-2 0 -2 2q0 3 10 19q30 47 30 87q0 49 -42 78q-10 7 -7 12zM24 60q8 9 36.5 33.5t32.5 22.5l33 -24q18 -13 18 -50q0 -68 -49 -129q-41 -51 -60 -51q-2 0 -2 2q0 3 10 19
q30 47 30 87q0 49 -42 78q-10 7 -7 12z" />
    <glyph glyph-name="dagger" unicode="&#x2020;" horiz-adv-x="469" 
d="M257 -120h-27v41q0 215 -19 298q-7 30 -20 71q2 3 7 11q10 16 25 55q7 27 7 63v36q-20 -1 -42 -6q-8 -2 -48 -18q-19 -8 -31 -8q-50 0 -50 45q0 19 13.5 32t32.5 13q18 0 48.5 -14t43.5 -16q9 -1 33 -4q-2 40 -3 54.5t-16.5 48.5t-15.5 52q0 49 46 49q47 0 47 -50
q0 -13 -19 -67q-9 -26 -12 -87q44 4 93 25q19 8 35 8q42 0 42 -43q0 -17 -11 -31q-14 -14 -33 -14q-14 0 -36 10q-49 22 -78 22h-5q-3 -1 -7 -1v-20q0 -64 13 -98q8 -20 26 -47q-37 -84 -38 -263z" />
    <glyph glyph-name="daggerdbl" unicode="&#x2021;" horiz-adv-x="470" 
d="M256 115q28 1 43 6q8 4 39 16q28 11 39 11q50 0 50 -46q0 -19 -13.5 -32t-32.5 -13q-18 0 -47.5 14t-44.5 16q-10 2 -33 4q0 -40 4 -67q2 -14 17 -49.5t15 -52.5q0 -49 -46 -49q-47 0 -47 50q0 15 19 68q10 27 11 100q-26 -1 -69 -18q-39 -15 -58 -15q-43 0 -43 43
q0 19 12.5 32t31.5 13q17 0 56 -15.5t61 -15.5h10q1 11 1 50q0 44 -6.5 63t-30.5 57q24 34 30.5 56t6.5 66q0 30 -1 38q-24 -1 -42 -6q-7 -2 -40 -15q-27 -11 -39 -11q-50 0 -50 45q0 19 13.5 32t32.5 13q18 0 48.5 -14t43.5 -16q9 -1 33 -4q0 29 -3 54q-2 14 -17 51
q-15 33 -15 50q0 49 46 49q47 0 47 -50q0 -12 -19 -67q-11 -30 -12 -87q25 1 69 17t59 16q42 0 42 -43q0 -19 -12.5 -32t-31.5 -13q-15 0 -53.5 17t-60.5 15l-13 -1v-17q-1 -7 -1 -17q0 -44 6 -65q7 -25 31 -61q-25 -39 -32 -69q-4 -18 -4 -77v-24z" />
    <glyph glyph-name="bullet" unicode="&#x2022;" horiz-adv-x="523" 
d="M254 215q-52 0 -87.5 36t-35.5 88q0 53 36 88.5t89 35.5q50 0 86 -37t36 -87q0 -52 -36 -88t-88 -36z" />
    <glyph glyph-name="ellipsis" unicode="&#x2026;" horiz-adv-x="706" 
d="M576 -14q-8 0 -37 29t-29 37q47 59 58 59q7 0 33.5 -24t33.5 -34q-2 -6 -29 -36.5t-30 -30.5zM356 -14q-8 0 -37 29t-29 37q47 59 58 59q7 0 33.5 -24t33.5 -34q-2 -6 -29 -36.5t-30 -30.5zM136 -14q-8 0 -37 29t-29 37q47 59 58 59q7 0 33.5 -24t33.5 -34
q-2 -6 -29 -36.5t-30 -30.5z" />
    <glyph glyph-name="perthousand" unicode="&#x2030;" horiz-adv-x="945" 
d="M616 224v-122q0 -28 -5.5 -38t-27.5 -29q-72 -60 -84 -60q-17 0 -72 36q-30 19 -30 55v124q0 59 21 82q11 12 54 39.5t55 27.5q5 0 28 -14q61 -37 61 -101zM558 56v157q0 35 -23.5 58t-58.5 23q-16 0 -16 -34v-161q0 -30 28 -52t59 -22q11 0 11 31zM269 440v-122
q0 -28 -5.5 -38t-27.5 -29q-72 -60 -84 -60q-17 0 -72 36q-30 19 -30 55v124q0 59 21 82q11 12 54 39.5t55 27.5q5 0 28 -14q61 -37 61 -101zM211 272v157q0 35 -23.5 58t-58.5 23q-16 0 -16 -34v-161q0 -30 28 -52t59 -22q11 0 11 31zM487 523l-271 -536q-6 -12 -22 -12
q-20 0 -20 9q0 3 10 23l267 536q6 12 30 12q16 0 16 -9q0 -3 -10 -23zM890 224v-122q0 -28 -5.5 -38t-27.5 -29q-72 -60 -84 -60q-17 0 -72 36q-30 19 -30 55v124q0 59 21 82q11 12 54 39.5t55 27.5q5 0 28 -14q61 -37 61 -101zM832 56v157q0 35 -23.5 58t-58.5 23
q-16 0 -16 -34v-161q0 -30 28 -52t59 -22q11 0 11 31z" />
    <glyph glyph-name="guilsinglleft" unicode="&#x2039;" horiz-adv-x="260" 
d="M193 381l19 -14q-42 -65 -96 -134q59 -74 96 -134l-19 -13q-54 56 -156 147q89 79 156 148z" />
    <glyph glyph-name="guilsinglright" unicode="&#x203a;" horiz-adv-x="265" 
d="M66 86l-19 13q47 73 96 134q-54 69 -96 134l19 14q85 -83 157 -148q-87 -75 -157 -147z" />
    <glyph glyph-name="fraction" unicode="&#x2044;" horiz-adv-x="125" 
d="M-133 -30h-56l440 706h57z" />
    <glyph glyph-name="trademark" unicode="&#x2122;" horiz-adv-x="541" 
d="M13 652h182l4 -83h-13q-12 70 -64 68v-153q0 -19 9 -24q6 -2 29 -2v-15h-111v15q24 0 31.5 3.5t7.5 22.5v153q-34 0 -48 -17q-10 -12 -16 -51h-13zM317 443h-84v14q35 11 35 37v117q0 18 -8 23q-6 2 -27 2v16h82l41 -143l45 143h79v-16q-20 0 -26 -2q-8 -5 -8 -24v-126
q0 -18 8 -23q5 -3 26 -3v-15h-102v15q21 0 27.5 3.5t6.5 22.5v148l-60 -196h-9l-59 196v-138q0 -32 33 -37v-14z" />
    <glyph glyph-name="Ohm" unicode="&#x2126;" horiz-adv-x="740" 
d="M28 153h17q3 -35 25 -51q15 -11 55 -11h132v33q-70 13 -131 70q-81 75 -81 195q0 131 100 212q93 76 227 76t225 -75q98 -80 98 -211q0 -100 -56 -170t-157 -97v-33h135q38 0 56 13.5t21 48.5h17v-153h-273l11 147q126 41 126 233q0 106 -49 178q-56 83 -157 83
q-118 0 -175 -117q-29 -60 -29 -137q0 -193 125 -240l11 -147h-273v153z" />
    <glyph glyph-name="partialdiff" unicode="&#x2202;" horiz-adv-x="490" 
d="M452 350q6 56 6 91q0 84 -44.5 134t-124.5 50q-93 0 -147 -78h-23q35 71 71 104q47 43 115 43q104 0 153 -101q26 -54 26 -144q0 -174 -75 -310q-85 -154 -214 -154q-76 0 -121 44t-45 119q0 114 77 203q81 92 193 92q75 0 126 -52q13 -14 27 -41zM443 307
q-38 110 -140 110q-104 0 -160 -137q-31 -76 -31 -152q0 -50 22 -80q25 -35 73 -35q61 0 123 63q78 79 113 231z" />
    <glyph glyph-name="product" unicode="&#x220f;" horiz-adv-x="823" 
d="M605 702h-388v-707q0 -48 26 -64q19 -12 71 -12v-19h-292v19h18q42 0 60.5 17t18.5 59v651q0 42 -18.5 59t-60.5 17h-18v18h779v-18h-17q-42 0 -60.5 -17t-18.5 -59v-651q0 -48 25 -64q19 -12 71 -12v-19h-292v19h17q42 0 60.5 17t18.5 59v707z" />
    <glyph glyph-name="summation" unicode="&#x2211;" horiz-adv-x="708" 
d="M660 -100h-641v18l326 406l-326 399v18h624l13 -165h-20q-14 125 -121 125h-362l275 -335l-307 -380h399q86 0 121 46q18 23 30 74l20 -3z" />
    <glyph glyph-name="radical" unicode="&#x221a;" horiz-adv-x="552" 
d="M514 913h36l-152 -951l-242 498l-97 -44l-17 31l147 74l198 -402z" />
    <glyph glyph-name="infinity" unicode="&#x221e;" horiz-adv-x="708" 
d="M317 326q31 70 67 100q43 35 114 35q83 0 135 -59.5t52 -144.5q0 -76 -46 -138q-50 -67 -125 -67q-56 0 -99 46q-28 30 -65 94q-58 -114 -159 -114q-75 0 -121 52t-46 128q0 71 39 123q42 57 111 57q51 0 87 -33q27 -25 56 -79zM364 227q28 -61 57 -89q39 -40 95 -40
q66 0 105 47q36 45 36 112q0 63 -37 112q-40 54 -101 54q-66 0 -104 -72q-15 -28 -51 -124zM303 288q-46 105 -131 105q-55 0 -88 -38t-33 -96q0 -55 28 -96q32 -47 84 -47q47 0 82 42q24 29 58 130z" />
    <glyph glyph-name="integral" unicode="&#x222b;" horiz-adv-x="271" 
d="M96 437l9 284q3 101 38 151q26 38 68 38q23 0 42 -16t19 -37q0 -50 -45 -50q-18 0 -37 17q-11 10 -20 10q-19 0 -19 -31q0 -26 4 -71q18 -202 18 -324q0 -37 -6 -256q-3 -106 -15 -156q-26 -103 -96 -103q-57 0 -57 59q0 48 43 48q17 0 34.5 -15.5t23.5 -15.5q19 0 19 30
q0 41 -7 111q-9 83 -10 112q-8 163 -6 215z" />
    <glyph glyph-name="approxequal" unicode="&#x2248;" horiz-adv-x="667" 
d="M571 535h31q-2 -70 -34 -115q-37 -52 -103 -52q-38 0 -95 20q-19 8 -88.5 37.5t-101.5 29.5q-67 0 -84 -87h-31q11 168 133 168q30 0 53 -7q51 -15 134 -51q70 -30 102 -30q74 0 84 87zM571 287h31q-2 -69 -34 -115q-37 -53 -103 -53q-46 0 -184 58q-69 29 -101 29
q-69 0 -84 -86h-31q11 167 132 167q28 0 54 -7q46 -13 134 -51q46 -20 71 -26q12 -4 31 -4q74 0 84 88z" />
    <glyph glyph-name="approxequal" unicode="&#x22f2;" horiz-adv-x="667" 
d="M571 535h31q-2 -70 -34 -115q-37 -52 -103 -52q-38 0 -95 20q-19 8 -88.5 37.5t-101.5 29.5q-67 0 -84 -87h-31q11 168 133 168q30 0 53 -7q51 -15 134 -51q70 -30 102 -30q74 0 84 87zM571 287h31q-2 -69 -34 -115q-37 -53 -103 -53q-46 0 -184 58q-69 29 -101 29
q-69 0 -84 -86h-31q11 167 132 167q28 0 54 -7q46 -13 134 -51q46 -20 71 -26q12 -4 31 -4q74 0 84 88z" />
    <glyph glyph-name="notequal" unicode="&#x2260;" horiz-adv-x="667" 
d="M63 490h293l101 257h77l-99 -257h167v-91h-203l-55 -141h258v-90h-293l-102 -257h-77l101 257h-168v90h203l55 141h-258v91z" />
    <glyph glyph-name="lessequal" unicode="&#x2264;" horiz-adv-x="667" 
d="M603 161l-539 225v82l539 225v-97l-416 -169l416 -168v-98zM63 54h540v-91h-540v91z" />
    <glyph glyph-name="greaterequal" unicode="&#x2265;" horiz-adv-x="667" 
d="M64 693l539 -225v-82l-539 -225v97l415 169l-415 168v98zM63 54h540v-91h-540v91z" />
    <glyph glyph-name="lozenge" unicode="&#x25ca;" horiz-adv-x="494" 
d="M246 737l217 -374l-217 -384l-217 384zM246 607l-142 -244l142 -255l142 255z" />
    <glyph glyph-name="diamond" unicode="&#x2666;" horiz-adv-x="339" 
d="M175 441l-122 -166l121 -169l118 171z" />
    <glyph glyph-name="fi" unicode="&#xf001;" horiz-adv-x="463" 
d="M281 91v311q0 11 -19 27q-26 17 -26 20q0 6 60 72l92 -75q-8 2 -9 -1q-8 -13 -8 -28v-316q0 -29 26 -46q9 -3 9 -7q0 -11 -67 -57l-74 63q16 22 16 37zM271 591l-10 -6q-10 4 -53 22q-48 20 -58 20q-26 0 -26 -17l2 -106h60v-57h-60q-2 -34 -2 -446q-26 -14 -74 -34
l-14 -10v493h-37v42q18 13 36 34v82q0 7 71.5 40.5t88.5 33.5q26 0 97 -21q11 -3 11 -10q0 -28 -32 -60zM375 651q7 -17 26 -55q-2 1 -69 -19q-24 -7 -73 -21q-11 -3 -14 20l16 9h1q3 0 9 6z" />
    <glyph glyph-name="fl" unicode="&#xf002;" horiz-adv-x="430" 
d="M307 -6q-5 0 -40.5 28.5t-35.5 32.5q0 3 14 15.5t14 21.5v319q0 1 -10 11t-10 11t9.5 9t10.5 13v131q-27 10 -54 22q-45 19 -55 19q-26 0 -26 -17l2 -106h60v-57h-60q-2 -34 -2 -446q-26 -14 -74 -34l-14 -10v493h-37v42q18 13 36 34v82q0 7 71.5 40.5t88.5 33.5
q26 0 97 -21q11 -3 11 -10q0 -10 -9 -27q14 8 55 54v-577q0 -20 37 -43q0 -7 -34.5 -35.5t-44.5 -28.5z" />
    <glyph glyph-name="glyph247" horiz-adv-x="500" 
d="M63 0v800h375v-800h-375zM125 63h250v675h-250v-675z" />
    <glyph glyph-name="DST" horiz-adv-x="1448" 
d="M1426 -39h-1404v839h1404v-839zM1401 562q0 30 -19 51t-46 21h-148q-37 0 -37 35v131h-57v-131q0 -88 116 -88q16 0 47.5 2t47.5 2q41 0 41 -19q0 -21 -40 -21q-16 0 -48.5 2.5t-48.5 2.5q-115 0 -115 -96v-322q0 -69 72 -86v56q-19 12 -19 42v302q0 45 35 45h146
q29 0 51 21t22 50zM1014 136v94q0 41 -26 64.5t-70 23.5h-246q-41 0 -41 37v95q0 43 41 43h244q24 0 43 -21h50q-13 76 -89 76h-246q-45 0 -71.5 -28.5t-26.5 -73.5v-89q0 -41 25.5 -66.5t66.5 -25.5h250q45 0 45 -45v-76q0 -45 -61 -45h-250q-22 0 -22 21q0 18 20 18h270
v53h-279q-29 0 -47 -21t-18 -52q0 -30 20 -50t50 -20h282q39 0 62.5 24.5t23.5 63.5zM507 800h-56l2 -682q0 -6 -6 -13.5t-12 -7.5q-19 0 -19 21v151q0 44 -31 75l-179 177q-19 19 -52 19t-56 -17q-26 -19 -26 -51v-330q0 -96 88 -96h82q64 0 77 72h-53q-12 -15 -25 -21h-81
q-35 0 -35 43v310q0 6 8 32q8 6 17 6q13 0 27 -14l95 -93q85 -84 87 -93q2 -46 2 -169q0 -33 20 -55t52 -22q30 0 51.5 22t21.5 52z" />
  </font>
</defs>
</svg>
