<?xml version="1.0" standalone="no"?>
<!DOCTYPE svg PUBLIC "-//W3C//DTD SVG 1.1//EN" "http://www.w3.org/Graphics/SVG/1.1/DTD/svg11.dtd" >
<svg xmlns="http://www.w3.org/2000/svg" xmlns:xlink="http://www.w3.org/1999/xlink" version="1.1">
<metadata>
Created by FontForge 20201107 at Fri Dec 13 15:06:18 2024
 By 
(c) 2002-2024 Typodermic Fonts Inc.
</metadata>
<defs>
<font id="vinque-regular" horiz-adv-x="1058" >
  <font-face 
    font-family="Vinque"
    font-weight="400"
    font-stretch="normal"
    units-per-em="2048"
    panose-1="2 14 6 3 0 0 0 2 0 3"
    ascent="1638"
    descent="-410"
    x-height="1034"
    cap-height="1638"
    bbox="-950 -397 2611 2214"
    underline-thickness="102"
    underline-position="-255"
    unicode-range="U+0020-FB04"
  />
<missing-glyph horiz-adv-x="970" 
d="M909 1571v-1731q0 -172 -200 -172h-451q-199 0 -199 172v1731q0 174 199 174h451q200 0 200 -174zM709 1581h-451q-35 0 -35 -31v-1689q0 -29 35 -29h451q36 0 36 29v1689q0 31 -36 31z" />
    <glyph glyph-name="f_f" unicode="ff" horiz-adv-x="1269" 
d="M1305 1401l-7 -23l-178 -143l-16 8q-15 51 -72 51q-35 0 -102 -28q41 -77 41 -179v-53h237l-65 -182h-172v-852h-269v852h-296v-852h-269v852h-129l8 45q109 62 109 133q0 43 -31 67t-86 27l8 37q350 335 613 420q46 -105 168 -133l-6 -23l-179 -143l-16 8
q-7 25 -26.5 38t-39.5 13q-27 0 -75 -21.5t-90 -53.5q41 -77 41 -179v-53h237q47 0 47 35q0 59 -117 55l9 37q304 292 555 373q46 -105 168 -133z" />
    <glyph glyph-name="fi" unicode="fi" horiz-adv-x="1144" 
d="M956 1331l-6 -22l-178 -144l-16 9q-20 120 -221 120q-99 0 -170 -28q41 -77 41 -179v-53h366q81 0 135 -63t54 -144v-548q0 -66 34 -100t97 -34l-9 -49l-182 -114l-209 155v586q0 75 -27 102t-98 27h-161v-852h-269v852h-129l8 45q109 62 109 133q0 43 -31 67t-86 27
l8 37q101 99 198.5 168.5t191 109.5t165.5 60t164 35q23 -63 92.5 -126t128.5 -77z" />
    <glyph glyph-name="fl" unicode="fl" horiz-adv-x="1155" 
d="M971 1542v-1263q0 -66 34 -100t97 -34l-8 -49l-183 -114l-209 155v1045q0 68 -28.5 98.5t-91.5 30.5q-44 0 -107.5 -11.5t-109.5 -33.5q41 -77 41 -179v-53h219l-66 -182h-153v-852h-269v852h-129l8 45q109 62 109 133q0 43 -31 67t-86 27l8 37q188 172 324.5 251.5
t282.5 121.5q13 -30 52 -51t91 -21q98 0 205 80z" />
    <glyph glyph-name="f_f_i" unicode="ffi" horiz-adv-x="1710" 
d="M1522 1331l-6 -22l-179 -144l-16 9q-20 120 -221 120q-99 0 -170 -28q41 -77 41 -179v-53h366q81 0 135 -63t54 -144v-548q0 -66 34 -100t97 -34l-8 -49l-183 -114l-209 155v586q0 76 -26.5 102.5t-97.5 26.5h-162v-852h-269v852h-296v-852h-269v852h-129l8 45
q109 62 109 133q0 43 -31 67t-86 27l8 37q350 335 613 420q46 -105 168 -133l-6 -23l-179 -143l-16 8q-7 25 -26.5 38t-39.5 13q-27 0 -75 -21.5t-90 -53.5q41 -77 41 -179v-53h237q47 0 47 35q0 33 -26.5 44t-90.5 11l9 37q101 99 198.5 168.5t190.5 109.5t165 60t164 35
q23 -62 93 -125.5t129 -77.5z" />
    <glyph glyph-name="f_f_l" unicode="ffl" horiz-adv-x="1720" 
d="M1536 1542v-1263q0 -66 34 -100t97 -34l-8 -49l-182 -114l-209 155v1045q0 67 -29 98t-92 31q-44 0 -107.5 -11.5t-109.5 -33.5q41 -77 41 -179v-53h219l-66 -182h-153v-852h-269v852h-296v-852h-269v852h-129l8 45q109 62 109 133q0 43 -31 67t-86 27l8 37
q350 335 613 420q46 -105 168 -133l-6 -23l-179 -143l-16 8q-7 25 -26.5 38t-39.5 13q-27 0 -75 -21.5t-90 -53.5q41 -77 41 -179v-53h237q47 0 47 35q0 59 -117 55l9 37q188 173 324.5 252t281.5 121q13 -30 52 -51t91 -21q98 0 205 80z" />
    <glyph glyph-name=".notdef" horiz-adv-x="970" 
d="M909 1571v-1731q0 -172 -200 -172h-451q-199 0 -199 172v1731q0 174 199 174h451q200 0 200 -174zM709 1581h-451q-35 0 -35 -31v-1689q0 -29 35 -29h451q36 0 36 29v1689q0 31 -36 31z" />
    <glyph glyph-name="uni0000" horiz-adv-x="0" 
 />
    <glyph glyph-name="uni0000" horiz-adv-x="0" 
 />
    <glyph glyph-name="nonmarkingreturn" horiz-adv-x="682" 
 />
    <glyph glyph-name="space" unicode=" " horiz-adv-x="614" 
 />
    <glyph glyph-name="exclam" unicode="!" horiz-adv-x="550" 
d="M106 1528h338q-87 -641 -122 -1108h-95q-27 489 -121 1108zM281 367l157 -172l-178 -211l-158 186z" />
    <glyph glyph-name="quotedbl" unicode="&#x22;" horiz-adv-x="681" 
d="M627 1452l-119 -440l-68 22l-10 301q-3 79 -72 82v23l144 125zM324 1452l-119 -440l-68 22l-10 301q-3 79 -72 82v23l144 125z" />
    <glyph glyph-name="numbersign" unicode="#" horiz-adv-x="1015" 
d="M864 1528l-49 -465h229l-45 -178h-204l-25 -232h213l-45 -178h-186l-52 -475h-178l51 475h-194l-51 -475h-178l51 475h-228l45 178h201l25 232h-209l45 178h184l49 465h179l-50 -465h195l49 465h178zM422 885l-25 -232h195l24 232h-194z" />
    <glyph glyph-name="dollar" unicode="$" horiz-adv-x="1036" 
d="M668 1528v-197q170 -93 272 -198q-96 -29 -219 -152q-14 44 -53 86v-299q142 15 231 94q32 -73 53 -166.5t21 -150.5q0 -111 -84.5 -197.5t-220.5 -142.5v-205h-84v176l-109 -20v-156h-84v186q-247 98 -334 203q128 47 236 146q46 -85 98 -134v277q-135 -12 -219 -57
q-104 168 -104 297q0 108 82.5 192.5t240.5 167.5v250h84v-207l109 51v156h84zM475 776q49 -12 109 -12v364q-59 27 -109 35v-387zM584 659q-61 19 -109 21v-340q49 -25 109 -35v354zM281 1010q0 -135 110 -199v360q-29 -2 -74 -10q-36 -79 -36 -151zM768 367
q0 160 -100 243v-309q78 0 94 12q6 24 6 54z" />
    <glyph glyph-name="percent" unicode="%" horiz-adv-x="1617" 
d="M438 1540q148 -85 223.5 -205.5t75.5 -261.5q0 -163 -94 -271t-233 -143q-65 30 -118.5 69t-99.5 91t-72 121t-26 147q0 73 22.5 134.5t71.5 116.5t106 100t144 102zM248 1309q-31 -51 -31 -113q0 -84 42.5 -173.5t115 -150.5t149.5 -61q41 0 80 20q21 53 21 119
q0 89 -32.5 177t-96.5 149t-142 61q-48 0 -106 -28zM1405 1559l-983 -1573l-141 30l997 1573zM1225 868q148 -85 223.5 -205.5t75.5 -261.5q0 -162 -94.5 -270t-233.5 -143q-138 65 -226.5 171.5t-88.5 256.5q0 59 16 111t43.5 94.5t73 86t94 79.5t117.5 81zM1034 637
q-30 -50 -30 -113q0 -84 42.5 -173.5t115 -150.5t149.5 -61q39 0 80 21q20 50 20 119q0 89 -32.5 177t-96 149t-141.5 61q-47 0 -107 -29z" />
    <glyph glyph-name="ampersand" unicode="&#x26;" horiz-adv-x="1519" 
d="M1319 604v-170q0 -215 160 -330l-68 -94q-121 62 -270 62q-189 0 -432 -99q-150 9 -286 92t-231.5 222t-130.5 307q107 206 445 313q-49 25 -92 54t-86.5 69t-69 89.5t-25.5 101.5q0 84 64.5 161.5t177.5 125.5t244 48q262 -188 604 -188q45 0 68 2q-150 -117 -226 -231
q-170 44 -331.5 139t-262.5 203q-53 -31 -74.5 -72.5t-21.5 -99.5q0 -112 88.5 -211t325.5 -230l-23 -77q-127 61 -237 61q-116 0 -178 -68.5t-62 -154.5q0 -70 43 -158t109.5 -164t156 -128t172.5 -52q53 0 83.5 23.5t47.5 88.5t17 181v184h301z" />
    <glyph glyph-name="quotesingle" unicode="'" horiz-adv-x="382" 
d="M324 1452l-119 -440l-68 22l-10 301q-3 79 -72 82v23l144 125z" />
    <glyph glyph-name="parenleft" unicode="(" horiz-adv-x="876" 
d="M803 1706l-19 -123q-117 -42 -208.5 -174.5t-139 -310t-47.5 -365.5q0 -141 28.5 -282.5t80 -263.5t131 -210t174.5 -116l-17 -115q-139 33 -253 132.5t-185.5 236t-110 293t-38.5 313.5q0 133 27 266t80 253t125 217.5t168 163t204 85.5z" />
    <glyph glyph-name="parenright" unicode=")" horiz-adv-x="876" 
d="M74 1591l16 115q112 -27 208.5 -97t165 -167.5t118 -216t73 -244t23.5 -250.5q0 -133 -27 -266t-80 -253t-125 -217.5t-168 -163t-204 -85.5l18 123q117 42 208.5 174.5t139 310t47.5 365.5q0 141 -28.5 282.5t-79.5 263.5t-130.5 210t-174.5 116z" />
    <glyph glyph-name="asterisk" unicode="*" horiz-adv-x="1013" 
d="M844 1348l-230 -228l314 -22l-84 -248l-273 154l66 -306h-260l61 310l-272 -158l-82 248l315 37l-233 213l211 151l135 -293l125 293z" />
    <glyph glyph-name="plus" unicode="+" horiz-adv-x="1015" 
d="M1001 858l-45 -178h-358v-381h-178v381h-408l45 178h363v381h178v-381h403z" />
    <glyph glyph-name="comma" unicode="," horiz-adv-x="479" 
d="M252 373l156 -176l-285 -355l-51 35l108 174l-108 123z" />
    <glyph glyph-name="hyphen" unicode="-" horiz-adv-x="745" 
d="M688 702l-76 -206q-51 26 -112 26h-262q-90 0 -138 -28l-43 20l76 207q52 -27 113 -27h262q87 0 137 29z" />
    <glyph glyph-name="period" unicode="." horiz-adv-x="479" 
d="M250 367l158 -172l-179 -211l-157 186z" />
    <glyph glyph-name="slash" unicode="/" horiz-adv-x="868" 
d="M868 1671l-688 -1939l-180 22l702 1940z" />
    <glyph glyph-name="zero" unicode="0" horiz-adv-x="1329" 
d="M324 1180q-60 -111 -60 -236q0 -85 25.5 -174.5t69 -170.5t104.5 -153.5t128.5 -124.5t143.5 -83t148 -31q81 0 149 39q39 83 39 219q0 135 -38 272.5t-104 250.5t-166.5 184t-215.5 71q-112 0 -223 -63zM709 1565q258 -156 392 -376t134 -472q0 -149 -47 -277
t-128.5 -219t-185.5 -153t-223 -91q-90 42 -168 93.5t-151 122t-124.5 151t-82.5 183.5t-31 216q0 106 28.5 199.5t76.5 171t129 157t169 146t212 148.5z" />
    <glyph glyph-name="one" unicode="1" horiz-adv-x="563" 
d="M428 1542v-1542h-268v1161q0 57 -34.5 89.5t-88.5 37.5l6 58z" />
    <glyph glyph-name="one" unicode="&#x4cf;" horiz-adv-x="563" 
d="M428 1542v-1542h-268v1161q0 57 -34.5 89.5t-88.5 37.5l6 58z" />
    <glyph glyph-name="one" unicode="&#x4c0;" horiz-adv-x="563" 
d="M428 1542v-1542h-268v1161q0 57 -34.5 89.5t-88.5 37.5l6 58z" />
    <glyph glyph-name="two" unicode="2" horiz-adv-x="1413" 
d="M1292 524l66 -14q-21 -149 -64.5 -254.5t-106.5 -164.5t-136 -85t-164 -26q-83 0 -292.5 30.5t-289.5 30.5q-61 0 -108 -15t-109 -53l-70 66q181 476 451 862q58 -65 156 -100t192 -35q100 0 139 39.5t39 109.5q0 83 -43.5 171t-106 152t-132.5 105t-123 41
q-74 0 -117 -78.5t-49 -195.5q-104 79 -272 137q222 200 505 324q200 -83 323.5 -170t190 -204t66.5 -267q0 -104 -32.5 -173.5t-112.5 -150.5q-60 41 -146 63.5t-174 22.5q-89 0 -162.5 -25.5t-148 -87t-145.5 -170.5t-144 -272q183 178 442 178q96 0 224.5 -33.5
t165.5 -33.5q57 0 110 31.5t88.5 78t58.5 90t31 76.5z" />
    <glyph glyph-name="three" unicode="3" horiz-adv-x="1323" 
d="M55 1255l4 78q25 7 53 19t44.5 21t50 27.5t47.5 26.5q216 117 444 117q203 0 309.5 -76.5t106.5 -210.5q0 -101 -65.5 -182.5t-208.5 -154.5q417 -46 417 -375q0 -83 -28.5 -157.5t-92 -150t-174 -148.5t-266.5 -142q-511 53 -651 344q155 26 297 67q30 -216 399 -292
q88 53 145.5 142.5t57.5 197.5q0 130 -95 218t-294 109l6 137q164 51 223.5 126t59.5 198q0 133 -55 190.5t-171 57.5q-100 0 -161 -47.5t-105 -173.5q-35 -7 -65 -7q-120 0 -232 41z" />
    <glyph glyph-name="three" unicode="&#x417;" horiz-adv-x="1323" 
d="M55 1255l4 78q25 7 53 19t44.5 21t50 27.5t47.5 26.5q216 117 444 117q203 0 309.5 -76.5t106.5 -210.5q0 -101 -65.5 -182.5t-208.5 -154.5q417 -46 417 -375q0 -83 -28.5 -157.5t-92 -150t-174 -148.5t-266.5 -142q-511 53 -651 344q155 26 297 67q30 -216 399 -292
q88 53 145.5 142.5t57.5 197.5q0 130 -95 218t-294 109l6 137q164 51 223.5 126t59.5 198q0 133 -55 190.5t-171 57.5q-100 0 -161 -47.5t-105 -173.5q-35 -7 -65 -7q-120 0 -232 41z" />
    <glyph glyph-name="four" unicode="4" horiz-adv-x="1323" 
d="M1135 1542l12 -14q-123 -252 -123 -373v-647l287 14l-2 -28q-76 -104 -146 -265h-37q-9 109 -102 109q0 -500 -379 -715l4 58q82 101 82 407v246h-690l-29 112q336 265 418 740q3 0 19 -11.5t42.5 -41t52 -70t48 -108t31.5 -146.5q-222 -59 -316 -330l424 15v452
q0 188 -86 287q239 111 490 309z" />
    <glyph glyph-name="five" unicode="5" horiz-adv-x="1363" 
d="M973 1157q-76 116 -216.5 168.5t-365.5 52.5q-55 -102 -55 -209q0 -142 93 -220.5t286 -78.5q228 0 444 88q80 -179 141 -526q-34 -124 -140.5 -228.5t-247.5 -169t-296 -89.5q-163 48 -331 141t-242 172q168 59 313 156q94 -162 195.5 -231.5t228.5 -69.5q100 0 219 49
q37 98 37 200q0 186 -125 292t-381 106q-88 0 -199 -10.5t-179 -36.5q-54 170 -54 342q0 251 111 469q190 -13 354 -13q250 0 631 31q-74 -299 -221 -385z" />
    <glyph glyph-name="six" unicode="6" horiz-adv-x="1269" 
d="M385 750q-14 -86 -14 -150q0 -172 100 -272q58 -59 144.5 -91t183.5 -32q91 0 186 31q4 54 4 94q0 102 -21 185.5t-63.5 146.5t-112.5 98t-161 35q-133 0 -246 -45zM858 1554l37 -61q-221 -138 -336 -291t-158 -360q185 39 287 194q123 0 220.5 -40t158 -108t92 -153.5
t31.5 -181.5q0 -101 -35.5 -199.5t-101 -182t-169 -141t-229.5 -71.5q-194 259 -505 270q-37 179 -37 344q0 733 745 981z" />
    <glyph glyph-name="seven" unicode="7" horiz-adv-x="1193" 
d="M1094 1552l84 -73q-364 -368 -508 -719q-99 -243 -99 -492q0 -113 23 -170t78 -57v-41h-389q-9 88 -9 170q0 230 50.5 386.5t169.5 305.5q77 97 195.5 224t135.5 135q-102 -31 -172 -31q-53 0 -137.5 28.5t-153.5 28.5q-73 0 -130 -38t-154 -162l-62 43q6 13 23.5 57.5
t29 71t35.5 72t46.5 75t58 65t74 56t91 35t111.5 14.5q82 0 227.5 -36t205.5 -36q55 0 95 19.5t81 68.5z" />
    <glyph glyph-name="eight" unicode="8" horiz-adv-x="1243" 
d="M350 1319q-26 -51 -26 -100q0 -38 14.5 -71.5t37 -60t63 -53.5t78 -46t97.5 -43t105.5 -40t118.5 -41q8 -3 12 -4q53 26 75.5 58t22.5 81q0 65 -37 120.5t-95.5 92t-131 62.5t-142.5 37.5t-132 11.5q-32 0 -60 -4zM424 739q-62 -15 -91.5 -50.5t-29.5 -96.5
q0 -85 52.5 -165t132 -135t173.5 -88.5t177 -33.5q44 0 106 16q33 56 33 121q0 132 -131 233t-422 199zM662 1542q128 -50 219 -107t143 -117.5t75 -122t23 -130.5q0 -75 -37 -132.5t-139 -115.5q100 -44 155.5 -139t55.5 -219q0 -111 -45 -199t-124 -144.5t-174 -91.5
t-208 -51q-148 37 -265 107t-187 169t-70 210q0 104 63.5 189.5t186.5 129.5q-90 42 -148.5 117.5t-58.5 177.5q0 63 25.5 119.5t69.5 102t113.5 90t146.5 80.5t180 77z" />
    <glyph glyph-name="nine" unicode="9" horiz-adv-x="1269" 
d="M285 1280q-4 -54 -4 -90q0 -97 21 -177t63.5 -140.5t112.5 -94t161 -33.5q130 0 246 43q24 73 24 142q0 185 -161 299q-124 84 -281 84q-97 0 -182 -33zM412 -41l-37 61q216 134 332 298.5t161 373.5q-183 -39 -286 -190q-123 0 -220.5 39t-158 105.5t-92 150.5
t-31.5 178q0 99 35.5 195t100.5 177t168.5 137t229.5 70q199 -259 506 -270q37 -179 37 -344q0 -733 -745 -981z" />
    <glyph glyph-name="colon" unicode=":" horiz-adv-x="481" 
d="M250 1092l158 -172l-179 -211l-157 186zM250 408l158 -172l-179 -211l-157 186z" />
    <glyph glyph-name="semicolon" unicode=";" horiz-adv-x="481" 
d="M250 1092l158 -172l-179 -211l-157 186zM252 414l156 -176l-285 -355l-51 35l108 174l-108 123z" />
    <glyph glyph-name="less" unicode="&#x3c;" horiz-adv-x="1015" 
d="M807 1249l100 -149l-530 -344l561 -367l-152 -102l-708 475z" />
    <glyph glyph-name="equal" unicode="=" horiz-adv-x="1015" 
d="M1001 1063l-45 -178h-944l45 178h944zM1001 653l-45 -178h-944l45 178h944z" />
    <glyph glyph-name="greater" unicode="&#x3e;" horiz-adv-x="1015" 
d="M938 770l-729 -487l-100 149l530 344l-561 367l151 102z" />
    <glyph glyph-name="question" unicode="?" horiz-adv-x="1185" 
d="M565 440h-207q-102 120 -102 230q0 100 90 204q56 -55 130 -87.5t151 -32.5q109 0 169 69t60 197q0 138 -99 246t-231 108q-90 0 -141 -65t-74 -215q-134 111 -284 153q222 200 505 324q309 -133 444.5 -271t135.5 -323q0 -181 -139 -371q-23 9 -70 28t-66 26.5t-50 18
t-52.5 14t-42.5 3.5q-68 0 -112.5 -41t-44.5 -98q0 -49 30 -117zM479 367l156 -172l-178 -211l-158 186z" />
    <glyph glyph-name="at" unicode="@" horiz-adv-x="1613" 
d="M963 295v229q-7 80 -57 139.5t-136 59.5q-13 0 -45 -4q-23 -77 -23 -144q0 -51 11 -94t25.5 -71.5t39.5 -55t43.5 -41t46.5 -32.5q52 14 95 14zM1151 856v-584q112 19 166.5 124.5t54.5 250.5q0 128 -43 230.5t-115.5 166t-164 97t-193.5 33.5q-188 0 -369 -101
q-89 -93 -140.5 -248t-51.5 -313q0 -147 48.5 -270.5t131 -205t191 -126.5t229.5 -45q122 0 223.5 41.5t169.5 97.5l29 -92q-200 -164 -500 -164q-213 0 -378 85.5t-259 249t-94 382.5q0 329 212.5 544t612.5 281q302 -51 469.5 -211t167.5 -432q0 -110 -28 -192.5
t-87.5 -142t-136.5 -100t-190 -77.5l-115 84q-109 -12 -203 -88q-247 94 -247 354q0 63 15.5 116t38 90t63.5 74t75 60t90 56q40 -13 80 -49t60 -87z" />
    <glyph glyph-name="uni0410" unicode="A" horiz-adv-x="1564" 
d="M831 1423h-163q0 -196 -39 -540h409l-43 391q-9 86 -43.5 117.5t-120.5 31.5zM1364 1528l-8 -90q-44 0 -67.5 -43.5t-14.5 -124.5l102 -951q24 -231 148 -231l-8 -88h-791l8 84q367 0 367 207q0 52 -15 170l-22 168h-488q-106 -385 -331 -654q-60 57 -252 228l41 43
q23 -13 43 -13q33 0 76 31t94 91t100.5 160.5t92.5 226.5t74.5 303.5t41.5 377.5h-401l20 105h1190z" />
    <glyph glyph-name="uni0410" unicode="&#x410;" horiz-adv-x="1564" 
d="M831 1423h-163q0 -196 -39 -540h409l-43 391q-9 86 -43.5 117.5t-120.5 31.5zM1364 1528l-8 -90q-44 0 -67.5 -43.5t-14.5 -124.5l102 -951q24 -231 148 -231l-8 -88h-791l8 84q367 0 367 207q0 52 -15 170l-22 168h-488q-106 -385 -331 -654q-60 57 -252 228l41 43
q23 -13 43 -13q33 0 76 31t94 91t100.5 160.5t92.5 226.5t74.5 303.5t41.5 377.5h-401l20 105h1190z" />
    <glyph glyph-name="uni0410" unicode="&#x391;" horiz-adv-x="1564" 
d="M831 1423h-163q0 -196 -39 -540h409l-43 391q-9 86 -43.5 117.5t-120.5 31.5zM1364 1528l-8 -90q-44 0 -67.5 -43.5t-14.5 -124.5l102 -951q24 -231 148 -231l-8 -88h-791l8 84q367 0 367 207q0 52 -15 170l-22 168h-488q-106 -385 -331 -654q-60 57 -252 228l41 43
q23 -13 43 -13q33 0 76 31t94 91t100.5 160.5t92.5 226.5t74.5 303.5t41.5 377.5h-401l20 105h1190z" />
    <glyph glyph-name="B" unicode="B" horiz-adv-x="1466" 
d="M487 1141v-426l301 209q109 75 155 150.5t46 162.5q0 105 -54.5 158t-141.5 53q-34 0 -70 -7t-79.5 -27.5t-77 -52.5t-56.5 -89.5t-23 -130.5zM741 754l-252 -179v-167q0 -262 402 -342q86 51 144.5 141.5t58.5 198.5q0 126 -88 221t-265 127zM49 1255l8 78q69 2 146 24
t148 53t146.5 61.5t169 51.5t187.5 21q186 0 298 -77.5t112 -213.5q0 -98 -67 -179.5t-208 -153.5q418 -49 418 -377q0 -175 -131.5 -317.5t-427.5 -278.5q-120 52 -243.5 83t-219.5 31q-166 0 -289 -88l-55 84q139 92 139 213v813q0 166 -131 172z" />
    <glyph glyph-name="B" unicode="&#x412;" horiz-adv-x="1466" 
d="M487 1141v-426l301 209q109 75 155 150.5t46 162.5q0 105 -54.5 158t-141.5 53q-34 0 -70 -7t-79.5 -27.5t-77 -52.5t-56.5 -89.5t-23 -130.5zM741 754l-252 -179v-167q0 -262 402 -342q86 51 144.5 141.5t58.5 198.5q0 126 -88 221t-265 127zM49 1255l8 78q69 2 146 24
t148 53t146.5 61.5t169 51.5t187.5 21q186 0 298 -77.5t112 -213.5q0 -98 -67 -179.5t-208 -153.5q418 -49 418 -377q0 -175 -131.5 -317.5t-427.5 -278.5q-120 52 -243.5 83t-219.5 31q-166 0 -289 -88l-55 84q139 92 139 213v813q0 166 -131 172z" />
    <glyph glyph-name="B" unicode="&#x392;" horiz-adv-x="1466" 
d="M487 1141v-426l301 209q109 75 155 150.5t46 162.5q0 105 -54.5 158t-141.5 53q-34 0 -70 -7t-79.5 -27.5t-77 -52.5t-56.5 -89.5t-23 -130.5zM741 754l-252 -179v-167q0 -262 402 -342q86 51 144.5 141.5t58.5 198.5q0 126 -88 221t-265 127zM49 1255l8 78q69 2 146 24
t148 53t146.5 61.5t169 51.5t187.5 21q186 0 298 -77.5t112 -213.5q0 -98 -67 -179.5t-208 -153.5q418 -49 418 -377q0 -175 -131.5 -317.5t-427.5 -278.5q-120 52 -243.5 83t-219.5 31q-166 0 -289 -88l-55 84q139 92 139 213v813q0 166 -131 172z" />
    <glyph glyph-name="C" unicode="C" horiz-adv-x="1583" 
d="M1165 1098l-49 61q4 20 4 31q0 69 -74.5 124.5t-197.5 55.5q-195 0 -325 -145.5t-130 -390.5q0 -171 63.5 -316.5t188 -236.5t285.5 -91q297 0 524 318l68 -72q-59 -80 -110.5 -140.5t-122 -125t-140 -105.5t-158.5 -67.5t-184 -26.5q-148 0 -280.5 60.5t-227 163.5
t-150 246t-55.5 302q0 170 63 319t171 254.5t258 166.5t319 61q159 0 285 -54.5t242 -166.5q-152 -110 -267 -225z" />
    <glyph glyph-name="C" unicode="&#x421;" horiz-adv-x="1583" 
d="M1165 1098l-49 61q4 20 4 31q0 69 -74.5 124.5t-197.5 55.5q-195 0 -325 -145.5t-130 -390.5q0 -171 63.5 -316.5t188 -236.5t285.5 -91q297 0 524 318l68 -72q-59 -80 -110.5 -140.5t-122 -125t-140 -105.5t-158.5 -67.5t-184 -26.5q-148 0 -280.5 60.5t-227 163.5
t-150 246t-55.5 302q0 170 63 319t171 254.5t258 166.5t319 61q159 0 285 -54.5t242 -166.5q-152 -110 -267 -225z" />
    <glyph glyph-name="D" unicode="D" horiz-adv-x="1558" 
d="M494 1196l-2 -788q0 -252 186 -252q79 0 156 45.5t139.5 127t101.5 209t39 277.5q0 126 -28 230.5t-72 172t-100 114.5t-109.5 67t-102.5 20q-83 0 -144 -58.5t-64 -164.5zM41 1321l37 70q276 0 637 186q119 -27 236 -94t208.5 -154.5t165.5 -185.5t117.5 -193t54.5 -172
q-195 -609 -807 -809q-88 27 -199.5 47.5t-183.5 20.5q-107 0 -201 -70l-59 78q148 136 148 315v687q0 135 -154 274z" />
    <glyph glyph-name="E" unicode="E" horiz-adv-x="1581" 
d="M1165 1098l-49 61q4 20 4 31q0 69 -74.5 124.5t-197.5 55.5q-95 0 -179.5 -37.5t-149 -106t-102.5 -174t-38 -233.5l1028 127q-101 -149 -195 -371h-36q-9 97 -129 103l-658 31q23 -144 94 -260.5t188 -187.5t259 -71q297 0 524 318l68 -72q-59 -80 -110.5 -140.5
t-122 -125t-140 -105.5t-158.5 -67.5t-184 -26.5q-148 0 -280.5 60.5t-227 163.5t-150 246t-55.5 302q0 170 63 319t171 254.5t258 166.5t319 61q159 0 285 -54.5t242 -166.5q-152 -110 -267 -225z" />
    <glyph glyph-name="E" unicode="&#x404;" horiz-adv-x="1581" 
d="M1165 1098l-49 61q4 20 4 31q0 69 -74.5 124.5t-197.5 55.5q-95 0 -179.5 -37.5t-149 -106t-102.5 -174t-38 -233.5l1028 127q-101 -149 -195 -371h-36q-9 97 -129 103l-658 31q23 -144 94 -260.5t188 -187.5t259 -71q297 0 524 318l68 -72q-59 -80 -110.5 -140.5
t-122 -125t-140 -105.5t-158.5 -67.5t-184 -26.5q-148 0 -280.5 60.5t-227 163.5t-150 246t-55.5 302q0 170 63 319t171 254.5t258 166.5t319 61q159 0 285 -54.5t242 -166.5q-152 -110 -267 -225z" />
    <glyph glyph-name="F" unicode="F" horiz-adv-x="1150" 
d="M1128 1206l-4 -22l-245 -168q-152 82 -211 321q-144 -122 -144 -258v-211l512 45q-99 -169 -172 -338h-37q-5 43 -38 71.5t-91 31.5l-174 6v-362q0 -485 -377 -699v58q84 104 84 407v606l-178 8l8 125l170 15v30q0 187 -86 287l646 402q103 -242 337 -355z" />
    <glyph glyph-name="G" unicode="G" horiz-adv-x="1687" 
d="M1393 651h-574q-140 0 -211 -71l-37 49l537 526q10 10 10 33q0 68 -73.5 125t-198.5 57q-95 0 -177 -37t-143 -105t-96 -171t-35 -228q0 -141 44 -262.5t116.5 -203t167.5 -127.5t197 -46q84 0 167 31.5t152 88t111.5 146t42.5 195.5zM1432 1323l-459 -432h487
q85 0 146 61l43 -51q-27 -71 -74 -92q-19 -165 -75 -304.5t-134 -236t-174 -165t-196.5 -100.5t-200.5 -32q-149 0 -281 65.5t-223 173.5t-144 250.5t-53 293.5q0 163 62.5 309.5t170 252t258.5 167t322 61.5q158 0 285.5 -54.5t239.5 -166.5z" />
    <glyph glyph-name="H" unicode="H" horiz-adv-x="1396" 
d="M1153 1528l-14 -105h-320q-187 0 -275.5 -37.5t-88.5 -123.5v-115q242 38 391 164q141 -20 246.5 -104.5t158 -204t52.5 -254.5q0 -133 -54 -261.5t-147 -233t-206.5 -189t-242.5 -146.5l-53 49q86 52 159 119t133 150t94 185t34 210q0 184 -89 306t-220 122
q-111 0 -256 -92v-631q0 -104 22.5 -175.5t59.5 -92.5l-9 -68h-491l8 68q115 70 115 198v996q0 45 -94 112l32 43q24 -6 58 -6q154 0 280 117h717z" />
    <glyph glyph-name="I" unicode="I" horiz-adv-x="1091" 
d="M901 1528l-8 -86q-219 0 -219 -137v-1057q0 -152 268 -187q129 0 129 -90q0 -82 -117 -82q-62 0 -98 26.5t-55 84.5h-649l8 84q219 0 219 141v1055q0 148 -270 186q-129 0 -129 90q0 82 116 82q63 0 100 -26t54 -84h651z" />
    <glyph glyph-name="I" unicode="&#x406;" horiz-adv-x="1091" 
d="M901 1528l-8 -86q-219 0 -219 -137v-1057q0 -152 268 -187q129 0 129 -90q0 -82 -117 -82q-62 0 -98 26.5t-55 84.5h-649l8 84q219 0 219 141v1055q0 148 -270 186q-129 0 -129 90q0 82 116 82q63 0 100 -26t54 -84h651z" />
    <glyph glyph-name="I" unicode="&#x399;" horiz-adv-x="1091" 
d="M901 1528l-8 -86q-219 0 -219 -137v-1057q0 -152 268 -187q129 0 129 -90q0 -82 -117 -82q-62 0 -98 26.5t-55 84.5h-649l8 84q219 0 219 141v1055q0 148 -270 186q-129 0 -129 90q0 82 116 82q63 0 100 -26t54 -84h651z" />
    <glyph glyph-name="uni0408" unicode="J" horiz-adv-x="1071" 
d="M987 1528l43 -37q-80 -139 -80 -313v-838q-88 -505 -633 -717v82q60 24 121.5 85t113 145.5t84 197t32.5 227.5q0 175 -67 356.5t-152 291.5l10 41q215 50 344 262q-89 -46 -157.5 -66t-141.5 -20q-56 0 -143.5 17.5t-145.5 17.5q-141 0 -229 -66l-49 35
q95 153 178 223.5t188 101.5q153 -118 389 -118q192 0 295 92z" />
    <glyph glyph-name="uni0408" unicode="&#x408;" horiz-adv-x="1071" 
d="M987 1528l43 -37q-80 -139 -80 -313v-838q-88 -505 -633 -717v82q60 24 121.5 85t113 145.5t84 197t32.5 227.5q0 175 -67 356.5t-152 291.5l10 41q215 50 344 262q-89 -46 -157.5 -66t-141.5 -20q-56 0 -143.5 17.5t-145.5 17.5q-141 0 -229 -66l-49 35
q95 153 178 223.5t188 101.5q153 -118 389 -118q192 0 295 92z" />
    <glyph glyph-name="uni041A" unicode="K" horiz-adv-x="1437" 
d="M1331 1368l-172 -182q-47 53 -100 53q-104 0 -248 -199q525 -485 565 -1040h-446l8 66q49 41 49 124q0 104 -58.5 234.5t-152.5 232.5q-52 56 -106.5 91.5t-83.5 45t-45 9.5q-18 0 -44 -13.5t-42 -37.5v-523q0 -66 31.5 -107.5t86.5 -55.5l-8 -66h-524l8 66
q107 29 107 167v1078q0 132 -99 135l9 82h501l-8 -82q-55 -10 -78.5 -51.5t-23.5 -116.5v-385q251 137 639 661z" />
    <glyph glyph-name="uni041A" unicode="&#x41a;" horiz-adv-x="1437" 
d="M1331 1368l-172 -182q-47 53 -100 53q-104 0 -248 -199q525 -485 565 -1040h-446l8 66q49 41 49 124q0 104 -58.5 234.5t-152.5 232.5q-52 56 -106.5 91.5t-83.5 45t-45 9.5q-18 0 -44 -13.5t-42 -37.5v-523q0 -66 31.5 -107.5t86.5 -55.5l-8 -66h-524l8 66
q107 29 107 167v1078q0 132 -99 135l9 82h501l-8 -82q-55 -10 -78.5 -51.5t-23.5 -116.5v-385q251 137 639 661z" />
    <glyph glyph-name="uni041A" unicode="&#x39a;" horiz-adv-x="1437" 
d="M1331 1368l-172 -182q-47 53 -100 53q-104 0 -248 -199q525 -485 565 -1040h-446l8 66q49 41 49 124q0 104 -58.5 234.5t-152.5 232.5q-52 56 -106.5 91.5t-83.5 45t-45 9.5q-18 0 -44 -13.5t-42 -37.5v-523q0 -66 31.5 -107.5t86.5 -55.5l-8 -66h-524l8 66
q107 29 107 167v1078q0 132 -99 135l9 82h501l-8 -82q-55 -10 -78.5 -51.5t-23.5 -116.5v-385q251 137 639 661z" />
    <glyph glyph-name="L" unicode="L" horiz-adv-x="1280" 
d="M1194 424l59 -45q-27 -58 -45 -94.5t-45.5 -83t-51.5 -75t-58 -58.5t-70.5 -46.5t-84 -27t-103.5 -10.5q-43 0 -180.5 12t-225.5 12q-142 0 -301 -35l-47 78q131 122 131 301v617q0 161 -102 213l8 57q71 18 152.5 57t151.5 80t138 80.5t134 64.5t118 25
q119 0 237.5 -113.5t153.5 -236.5q-140 -25 -293 -113q0 74 -34 128t-91 82.5t-119.5 41.5t-131.5 13q-23 -145 -23 -275v-563q0 -78 -26.5 -144.5t-86.5 -140.5q129 72 232 72q46 0 151 -25.5t148 -25.5q135 0 305 178z" />
    <glyph glyph-name="uni041C" unicode="M" horiz-adv-x="1753" 
d="M1681 1528l-8 -90q-56 -1 -82 -35.5t-26 -104.5v-981q0 -234 147 -237l-8 -80h-567l8 94q119 0 119 205v864q-178 -466 -451 -987q-254 455 -463 940v-870q0 -363 -258 -627l-43 27q131 216 131 573v1022q0 170 -92 195l8 92h424q221 -528 373 -793q90 149 193.5 368.5
t103.5 270.5q0 25 -32 39t-81 14l8 101h596z" />
    <glyph glyph-name="uni041C" unicode="&#x41c;" horiz-adv-x="1753" 
d="M1681 1528l-8 -90q-56 -1 -82 -35.5t-26 -104.5v-981q0 -234 147 -237l-8 -80h-567l8 94q119 0 119 205v864q-178 -466 -451 -987q-254 455 -463 940v-870q0 -363 -258 -627l-43 27q131 216 131 573v1022q0 170 -92 195l8 92h424q221 -528 373 -793q90 149 193.5 368.5
t103.5 270.5q0 25 -32 39t-81 14l8 101h596z" />
    <glyph glyph-name="uni041C" unicode="&#x39c;" horiz-adv-x="1753" 
d="M1681 1528l-8 -90q-56 -1 -82 -35.5t-26 -104.5v-981q0 -234 147 -237l-8 -80h-567l8 94q119 0 119 205v864q-178 -466 -451 -987q-254 455 -463 940v-870q0 -363 -258 -627l-43 27q131 216 131 573v1022q0 170 -92 195l8 92h424q221 -528 373 -793q90 149 193.5 368.5
t103.5 270.5q0 25 -32 39t-81 14l8 101h596z" />
    <glyph glyph-name="Nu" unicode="N" horiz-adv-x="1525" 
d="M1497 1528l-8 -82q-70 -1 -98.5 -20.5t-28.5 -59.5v-1366h-158v100l-850 1065v-923q0 -296 -254 -623l-43 27q131 287 131 573v1049q0 129 -139 153l6 62l357 78l792 -979v761q0 51 -37.5 77t-107.5 26l8 82h430z" />
    <glyph glyph-name="Nu" unicode="&#x39d;" horiz-adv-x="1525" 
d="M1497 1528l-8 -82q-70 -1 -98.5 -20.5t-28.5 -59.5v-1366h-158v100l-850 1065v-923q0 -296 -254 -623l-43 27q131 287 131 573v1049q0 129 -139 153l6 62l357 78l792 -979v761q0 51 -37.5 77t-107.5 26l8 82h430z" />
    <glyph glyph-name="uni041E" unicode="O" horiz-adv-x="1542" 
d="M373 1165q-82 -131 -82 -264q0 -224 184 -422q114 -121 266 -194.5t281 -73.5q102 0 178 49q68 133 68 299q0 119 -43 239t-115 214q-85 112 -202 177.5t-249 65.5q-73 0 -139 -21.5t-147 -68.5zM821 1565q290 -150 445 -348q182 -231 182 -504q0 -145 -55.5 -272
t-151.5 -218.5t-220 -154.5t-267 -91q-284 107 -457 285q-203 209 -203 479q0 103 31 194.5t87.5 170.5t148.5 157.5t201.5 149.5t258.5 152z" />
    <glyph glyph-name="uni041E" unicode="&#x41e;" horiz-adv-x="1542" 
d="M373 1165q-82 -131 -82 -264q0 -224 184 -422q114 -121 266 -194.5t281 -73.5q102 0 178 49q68 133 68 299q0 119 -43 239t-115 214q-85 112 -202 177.5t-249 65.5q-73 0 -139 -21.5t-147 -68.5zM821 1565q290 -150 445 -348q182 -231 182 -504q0 -145 -55.5 -272
t-151.5 -218.5t-220 -154.5t-267 -91q-284 107 -457 285q-203 209 -203 479q0 103 31 194.5t87.5 170.5t148.5 157.5t201.5 149.5t258.5 152z" />
    <glyph glyph-name="uni041E" unicode="&#x39f;" horiz-adv-x="1542" 
d="M373 1165q-82 -131 -82 -264q0 -224 184 -422q114 -121 266 -194.5t281 -73.5q102 0 178 49q68 133 68 299q0 119 -43 239t-115 214q-85 112 -202 177.5t-249 65.5q-73 0 -139 -21.5t-147 -68.5zM821 1565q290 -150 445 -348q182 -231 182 -504q0 -145 -55.5 -272
t-151.5 -218.5t-220 -154.5t-267 -91q-284 107 -457 285q-203 209 -203 479q0 103 31 194.5t87.5 170.5t148.5 157.5t201.5 149.5t258.5 152z" />
    <glyph glyph-name="P" unicode="P" horiz-adv-x="1558" 
d="M494 1200l-2 -766q0 -248 186 -248q79 0 156 44t139.5 123.5t101.5 203.5t39 270q0 123 -27.5 225.5t-71 168.5t-98 112t-107 66t-99.5 20q-81 0 -147.5 -57t-69.5 -162zM41 1321l37 70q271 0 637 186q119 -27 236 -92.5t208.5 -150.5t165.5 -181.5t117.5 -189.5
t54.5 -170q-193 -596 -807 -793q-15 3 -49 11.5t-73 17.5t-81 16v-240q0 -34 12 -61t31.5 -42t36.5 -23t35 -13l-8 -51h-399v1432q0 135 -154 274z" />
    <glyph glyph-name="P" unicode="&#x420;" horiz-adv-x="1558" 
d="M494 1200l-2 -766q0 -248 186 -248q79 0 156 44t139.5 123.5t101.5 203.5t39 270q0 123 -27.5 225.5t-71 168.5t-98 112t-107 66t-99.5 20q-81 0 -147.5 -57t-69.5 -162zM41 1321l37 70q271 0 637 186q119 -27 236 -92.5t208.5 -150.5t165.5 -181.5t117.5 -189.5
t54.5 -170q-193 -596 -807 -793q-15 3 -49 11.5t-73 17.5t-81 16v-240q0 -34 12 -61t31.5 -42t36.5 -23t35 -13l-8 -51h-399v1432q0 135 -154 274z" />
    <glyph glyph-name="P" unicode="&#x3a1;" horiz-adv-x="1558" 
d="M494 1200l-2 -766q0 -248 186 -248q79 0 156 44t139.5 123.5t101.5 203.5t39 270q0 123 -27.5 225.5t-71 168.5t-98 112t-107 66t-99.5 20q-81 0 -147.5 -57t-69.5 -162zM41 1321l37 70q271 0 637 186q119 -27 236 -92.5t208.5 -150.5t165.5 -181.5t117.5 -189.5
t54.5 -170q-193 -596 -807 -793q-15 3 -49 11.5t-73 17.5t-81 16v-240q0 -34 12 -61t31.5 -42t36.5 -23t35 -13l-8 -51h-399v1432q0 135 -154 274z" />
    <glyph glyph-name="Q" unicode="Q" horiz-adv-x="1564" 
d="M367 1180q-44 -78 -64 -141.5t-20 -135.5q0 -133 65.5 -257.5t175.5 -225.5q114 -103 249.5 -164t252.5 -61q106 0 180 51q70 137 70 317q0 246 -143 434q-85 112 -211 193.5t-269 81.5q-130 0 -286 -92zM1552 -313l-26 -64q-30 -6 -62 -6q-149 0 -297.5 118t-212.5 302
q-90 -39 -200 -60q-107 40 -200.5 91.5t-179 122t-147 151.5t-97.5 184.5t-36 216.5q0 130 46.5 240t144.5 209.5t224 185t312 185.5q320 -158 473 -330q176 -200 176 -490q0 -353 -245 -534q-8 -47 -8 -96q0 -162 100 -278t235 -148z" />
    <glyph glyph-name="R" unicode="R" horiz-adv-x="1480" 
d="M489 1141v-426l302 209q107 73 146.5 148.5t39.5 162.5q0 213 -184 213q-34 0 -68.5 -7t-74.5 -28t-72 -53.5t-56.5 -89t-32.5 -129.5zM991 920l-176 -121q58 -119 144.5 -239t182.5 -205t163 -85q64 0 147 68l43 -49q-101 -82 -358 -342q-262 385 -539 702l-106 -74
v-167q0 -181 178 -271v-125q-174 49 -289 49q-89 0 -163 -26.5t-120 -61.5l-57 84q141 85 141 213v813q0 166 -133 172l8 78q113 0 267 64q34 14 92.5 41t94 41.5t88.5 32t111 25t126 7.5q210 0 320 -75t110 -205q0 -95 -63 -168.5t-212 -175.5z" />
    <glyph glyph-name="S" unicode="S" horiz-adv-x="1449" 
d="M1038 1094q-40 90 -148 161.5t-235 71.5q-89 0 -198 -41q-56 -115 -56 -217q0 -148 102.5 -225.5t309.5 -77.5q257 0 453 88q46 -100 74 -212t28 -185q0 -74 -31 -141t-86 -118.5t-123.5 -94.5t-149.5 -75t-157 -54t-153 -37q-162 44 -331.5 130.5t-254.5 182.5
q174 61 319 156q95 -161 202 -230.5t237 -69.5q103 0 227 48q20 73 20 145q0 93 -41.5 162.5t-115.5 110t-168 60t-209 19.5q-198 0 -317 -45q-144 199 -144 363q0 38 8 73t26.5 68.5t39.5 62.5t57 60t68 56.5t84 56t93 54t107.5 56t115 55.5t126.5 60q285 -125 506 -324
q-151 -43 -285 -153z" />
    <glyph glyph-name="S" unicode="&#x405;" horiz-adv-x="1449" 
d="M1038 1094q-40 90 -148 161.5t-235 71.5q-89 0 -198 -41q-56 -115 -56 -217q0 -148 102.5 -225.5t309.5 -77.5q257 0 453 88q46 -100 74 -212t28 -185q0 -74 -31 -141t-86 -118.5t-123.5 -94.5t-149.5 -75t-157 -54t-153 -37q-162 44 -331.5 130.5t-254.5 182.5
q174 61 319 156q95 -161 202 -230.5t237 -69.5q103 0 227 48q20 73 20 145q0 93 -41.5 162.5t-115.5 110t-168 60t-209 19.5q-198 0 -317 -45q-144 199 -144 363q0 38 8 73t26.5 68.5t39.5 62.5t57 60t68 56.5t84 56t93 54t107.5 56t115 55.5t126.5 60q285 -125 506 -324
q-151 -43 -285 -153z" />
    <glyph glyph-name="T" unicode="T" horiz-adv-x="1519" 
d="M1411 432l68 -45q-32 -50 -55.5 -84.5t-61.5 -81.5t-72.5 -79.5t-83 -67t-99 -55.5t-115.5 -34.5t-136 -13.5q-134 0 -249 45.5t-202 132t-136.5 221.5t-49.5 304q0 184 59 347t173 277q-67 0 -97 -0.5t-74 -4.5t-65 -12t-51 -24t-54 -39.5t-53 -58.5l-57 37
q103 189 277.5 263.5t472.5 74.5q238 0 577 -37q-106 -153 -156 -319q-299 98 -550 114q-85 -68 -126.5 -197.5t-41.5 -256.5q0 -139 52.5 -262t136 -205t186 -129t204.5 -47q232 0 379 237z" />
    <glyph glyph-name="U" unicode="U" horiz-adv-x="1533" 
d="M1487 1528l-8 -74q-125 -6 -125 -151v-951q0 -129 135 -159l-2 -58l-225 -166q-72 29 -129.5 91.5t-65.5 142.5q-42 -99 -139 -156t-219 -57q-80 0 -161 24.5t-159 79t-137.5 132t-96 193t-36.5 253.5q0 199 73.5 391.5t206.5 363.5h-270l8 101h654l-9 -84
q-82 -21 -147 -70.5t-105 -111.5t-66 -140t-36 -152t-10 -151q0 -261 113 -422t288 -161q117 0 180.5 73t63.5 187v829q0 64 -41.5 96.5t-103.5 32.5l8 74h561z" />
    <glyph glyph-name="V" unicode="V" horiz-adv-x="1492" 
d="M668 1243l-9 41q173 100 242 242q33 8 78 8q88 0 164.5 -30.5t140 -93t100.5 -169t37 -246.5q0 -273 -157 -515.5t-519 -514.5h-28q-138 140 -228.5 257.5t-140.5 225.5t-71.5 200.5t-28.5 209.5q-5 76 -8 116.5t-10.5 99t-17.5 92.5t-26.5 79t-40 78t-56.5 70t-77 73
l8 62h324q40 -40 68.5 -78t49 -85t33 -82.5t23 -101.5t15.5 -109t14 -136q12 -116 30.5 -200t56.5 -170.5t100 -167.5t157 -173q311 261 311 570q0 92 -27 176t-76 149.5t-125.5 104.5t-168.5 39q-67 0 -137 -21z" />
    <glyph glyph-name="W" unicode="W" horiz-adv-x="2263" 
d="M1382 1243l-8 41q173 101 244 242q32 8 74 8q219 0 359 -177t140 -468q0 -176 -63.5 -320.5t-195.5 -283.5t-369 -320h-29q-240 243 -320 432q-148 -194 -454 -432h-29q-140 141 -230.5 259.5t-140 227t-70 198.5t-28.5 208q-4 62 -7 94.5t-9 84t-13.5 81.5t-20 73
t-30 73t-41.5 66.5t-56 69.5t-73 66l8 62h324q42 -41 73.5 -82.5t53.5 -91.5t35.5 -88.5t24.5 -103.5t16 -104.5t14 -121.5q11 -108 28 -185t53 -167t101 -178t162 -181q143 121 206 242t63 264t-52.5 263.5t-156 195t-238.5 74.5q-73 0 -147 -21l-9 41q173 101 244 242
q36 8 78 8q189 0 311 -123t164 -338q18 -97 18 -199q0 -62 -4 -90q64 -315 326 -559q142 121 205 242t63 264q0 106 -31 202.5t-87 170t-141 117t-187 43.5q-74 0 -148 -21z" />
    <glyph glyph-name="X" unicode="X" horiz-adv-x="1468" 
d="M569 1335l168 -305q211 360 502 504q41 -111 111 -225q-269 -108 -498 -473l328 -582q53 -91 219 -94l28 -58l-217 -131l-329 179l-217 395q-51 -85 -94.5 -148.5t-99.5 -129.5t-113.5 -114t-131.5 -88t-157 -65l-27 49q55 22 106.5 58t91.5 74t82 94.5t70.5 101.5
t63.5 113t55.5 111t52.5 114l-219 399q-78 142 -262 150l-23 41l185 225z" />
    <glyph glyph-name="X" unicode="&#x425;" horiz-adv-x="1468" 
d="M569 1335l168 -305q211 360 502 504q41 -111 111 -225q-269 -108 -498 -473l328 -582q53 -91 219 -94l28 -58l-217 -131l-329 179l-217 395q-51 -85 -94.5 -148.5t-99.5 -129.5t-113.5 -114t-131.5 -88t-157 -65l-27 49q55 22 106.5 58t91.5 74t82 94.5t70.5 101.5
t63.5 113t55.5 111t52.5 114l-219 399q-78 142 -262 150l-23 41l185 225z" />
    <glyph glyph-name="X" unicode="&#x3a7;" horiz-adv-x="1468" 
d="M569 1335l168 -305q211 360 502 504q41 -111 111 -225q-269 -108 -498 -473l328 -582q53 -91 219 -94l28 -58l-217 -131l-329 179l-217 395q-51 -85 -94.5 -148.5t-99.5 -129.5t-113.5 -114t-131.5 -88t-157 -65l-27 49q55 22 106.5 58t91.5 74t82 94.5t70.5 101.5
t63.5 113t55.5 111t52.5 114l-219 399q-78 142 -262 150l-23 41l185 225z" />
    <glyph glyph-name="Y" unicode="Y" horiz-adv-x="1488" 
d="M664 1243l-9 41q171 99 242 242q27 8 76 8q92 0 171.5 -33t141 -96t96.5 -164t35 -229q0 -255 -143.5 -478.5t-442.5 -467.5q-20 -36 -20 -89q0 -58 31.5 -92.5t93.5 -34.5q54 0 117.5 31.5t156.5 106.5l58 -35q-86 -156 -208.5 -243t-242.5 -87q-61 0 -108 23
t-73.5 59.5t-40 77.5t-13.5 82q0 100 84 178q-164 174 -254 311t-124.5 248.5t-43.5 255.5q-4 65 -6.5 99t-8 87.5t-12 83.5t-18.5 73.5t-28 72.5t-38.5 64.5t-52.5 66t-68 61.5v62h328q39 -39 67.5 -76.5t49 -84t33 -83.5t23 -102.5t16 -110.5t14.5 -135
q22 -216 94.5 -360.5t249.5 -321.5q163 148 237 269.5t74 271.5q0 92 -27 176t-76 149.5t-125.5 104.5t-168.5 39q-69 0 -137 -21z" />
    <glyph glyph-name="Zeta" unicode="Z" horiz-adv-x="1427" 
d="M1219 1532l84 -74q-588 -600 -832 -1106q10 5 42 10t60 5q56 0 224.5 -39t238.5 -39q66 0 122 24.5t91 62.5t56.5 75.5t29.5 72.5l64 -14q-72 -530 -461 -530q-72 0 -276.5 29.5t-294.5 29.5q-76 0 -130 -16t-106 -50l-72 66q91 149 146 238t121 192.5t106.5 163
t93 131.5t92 117.5t91.5 100.5t103 102t116 102q-74 -21 -150 -21q-65 0 -176.5 30t-195.5 30q-49 0 -82.5 -11t-82.5 -55.5t-112 -132.5l-63 43q31 78 56.5 132t67.5 117.5t86.5 102t110 64.5t143.5 26q75 0 227.5 -34.5t225.5 -34.5q130 0 236 90z" />
    <glyph glyph-name="Zeta" unicode="&#x396;" horiz-adv-x="1427" 
d="M1219 1532l84 -74q-588 -600 -832 -1106q10 5 42 10t60 5q56 0 224.5 -39t238.5 -39q66 0 122 24.5t91 62.5t56.5 75.5t29.5 72.5l64 -14q-72 -530 -461 -530q-72 0 -276.5 29.5t-294.5 29.5q-76 0 -130 -16t-106 -50l-72 66q91 149 146 238t121 192.5t106.5 163
t93 131.5t92 117.5t91.5 100.5t103 102t116 102q-74 -21 -150 -21q-65 0 -176.5 30t-195.5 30q-49 0 -82.5 -11t-82.5 -55.5t-112 -132.5l-63 43q31 78 56.5 132t67.5 117.5t86.5 102t110 64.5t143.5 26q75 0 227.5 -34.5t225.5 -34.5q130 0 236 90z" />
    <glyph glyph-name="bracketleft" unicode="[" horiz-adv-x="876" 
d="M803 1706l-19 -123q-144 -39 -270 -39q-72 0 -139 12v-1667q73 13 139 13q125 0 289 -41l-17 -115q-89 25 -217 25q-189 0 -372 -58v2020q183 -58 368 -58q129 0 238 31z" />
    <glyph glyph-name="backslash" unicode="\" horiz-adv-x="864" 
d="M166 1694l702 -1940l-180 -22l-688 1939z" />
    <glyph glyph-name="bracketright" unicode="]" horiz-adv-x="876" 
d="M680 1733v-2020q-183 58 -369 58q-129 0 -237 -31l18 123q144 39 270 39q67 0 140 -13v1667q-67 -12 -140 -12q-124 0 -288 41l16 115q89 -25 217 -25q190 0 373 58z" />
    <glyph glyph-name="asciicircum" unicode="^" horiz-adv-x="1015" 
d="M504 1595l467 -684l-150 -100l-319 487l-359 -516l-100 150z" />
    <glyph glyph-name="underscore" unicode="_" horiz-adv-x="890" 
d="M940 -158l-45 -178h-944l45 178h944z" />
    <glyph glyph-name="grave" unicode="`" horiz-adv-x="651" 
d="M268 1569l312 -389l-115 -78l-393 321z" />
    <glyph glyph-name="uni0430" unicode="a" horiz-adv-x="1060" 
d="M612 543l-123 -56q-65 -29 -98 -83.5t-33 -112.5q0 -112 127 -127q67 16 127 53v326zM883 809v-530q0 -134 129 -134l-8 -49l-183 -114l-207 153q-138 -106 -282 -178q-111 23 -173.5 91t-62.5 181q0 97 47.5 167.5t163.5 115.5l305 117v43q0 106 -100 151
q-135 -85 -338 -123q-11 34 -51 74q258 103 387 281q201 -163 373 -246z" />
    <glyph glyph-name="uni0430" unicode="&#x430;" horiz-adv-x="1060" 
d="M612 543l-123 -56q-65 -29 -98 -83.5t-33 -112.5q0 -112 127 -127q67 16 127 53v326zM883 809v-530q0 -134 129 -134l-8 -49l-183 -114l-207 153q-138 -106 -282 -178q-111 23 -173.5 91t-62.5 181q0 97 47.5 167.5t163.5 115.5l305 117v43q0 106 -100 151
q-135 -85 -338 -123q-11 34 -51 74q258 103 387 281q201 -163 373 -246z" />
    <glyph glyph-name="b" unicode="b" horiz-adv-x="1124" 
d="M420 750v-160q0 -54 5.5 -96t26.5 -91t56.5 -81t101.5 -54t156 -22q26 0 80 4q35 84 35 158q0 144 -104.5 252t-250.5 108q-48 0 -106 -18zM420 1542v-700q86 36 133 74t119 120q95 0 168.5 -31.5t119 -87t68.5 -128.5t23 -160q0 -147 -59.5 -290.5t-175.5 -251
t-261 -130.5q-55 79 -106 129t-126 88.5t-171 54.5v953q0 120 -105 129l8 37z" />
    <glyph glyph-name="uni0441" unicode="c" horiz-adv-x="843" 
d="M750 838l-175 -158q-105 97 -292 143q-21 -111 -21 -192q0 -103 30 -183t78.5 -125.5t102.5 -68.5t109 -23q100 0 192 50l39 -39q-45 -89 -138 -158.5t-226 -110.5q-75 35 -139 82t-119 110.5t-86 146.5t-31 177q0 70 19 133t50 114.5t86.5 108t112 103t143.5 111.5
q203 -120 265 -221z" />
    <glyph glyph-name="uni0441" unicode="&#x441;" horiz-adv-x="843" 
d="M750 838l-175 -158q-105 97 -292 143q-21 -111 -21 -192q0 -103 30 -183t78.5 -125.5t102.5 -68.5t109 -23q100 0 192 50l39 -39q-45 -89 -138 -158.5t-226 -110.5q-75 35 -139 82t-119 110.5t-86 146.5t-31 177q0 70 19 133t50 114.5t86.5 108t112 103t143.5 111.5
q203 -120 265 -221z" />
    <glyph glyph-name="d" unicode="d" horiz-adv-x="1128" 
d="M682 195v350q-4 51 -22.5 100.5t-51 93t-85.5 70.5t-117 27q-26 0 -66 -7q-35 -122 -35 -219q0 -72 17 -135.5t39 -105.5t60.5 -84.5t63.5 -63.5t66 -51q65 22 131 25zM950 1542v-1263q0 -66 32.5 -100t92.5 -34v-49l-184 -114l-168 122q-160 -26 -289 -131
q-360 145 -360 514q0 45 5 86t17 78t23.5 67.5t34 61.5t39.5 53.5t49 50.5t51.5 45t59 44.5t61 42t65.5 43.5q63 -23 119.5 -74t83.5 -125v322q0 120 -102 129v37z" />
    <glyph glyph-name="e" unicode="e" horiz-adv-x="872" 
d="M782 782l-446 -446q116 -127 266 -127q93 0 182 47l33 -20q-134 -227 -350 -263q-173 52 -283 190t-110 320q0 53 11.5 101.5t27.5 87t49.5 82.5t61.5 74.5t82 75.5t91 74t107 81q165 -103 278 -277zM289 403l237 236q-43 163 -217 178q-55 -137 -55 -248q0 -82 35 -166z
" />
    <glyph glyph-name="e" unicode="&#x435;" horiz-adv-x="872" 
d="M782 782l-446 -446q116 -127 266 -127q93 0 182 47l33 -20q-134 -227 -350 -263q-173 52 -283 190t-110 320q0 53 11.5 101.5t27.5 87t49.5 82.5t61.5 74.5t82 75.5t91 74t107 81q165 -103 278 -277zM289 403l237 236q-43 163 -217 178q-55 -137 -55 -248q0 -82 35 -166z
" />
    <glyph glyph-name="f" unicode="f" horiz-adv-x="704" 
d="M739 1401l-6 -23l-178 -143l-16 8q-15 51 -72 51q-35 0 -102 -28q41 -77 41 -179v-53h237l-65 -182h-172v-852h-269v852h-129l8 45q109 62 109 133q0 43 -31 67t-86 27l8 37q304 292 555 373q46 -105 168 -133z" />
    <glyph glyph-name="g" unicode="g" horiz-adv-x="1069" 
d="M707 276v154q0 53 -6 93.5t-28 88t-59.5 78t-107 51.5t-164.5 21q-38 0 -61 -2q-35 -78 -35 -154q0 -139 103 -242.5t249 -103.5q43 0 109 16zM975 782v-604q0 -228 -122.5 -369t-371.5 -204q-66 123 -172 123q-88 0 -215 -109l-26 39q157 201 303 201q100 0 209 -103
q127 155 127 365v63q-46 -18 -78.5 -35.5t-64 -44.5t-50 -46.5t-59.5 -65.5q-187 0 -284 112t-97 287q0 106 35.5 215.5t98 203t158 160.5t205.5 85q86 -120 175 -185t229 -88z" />
    <glyph glyph-name="uni04BB" unicode="h" horiz-adv-x="1114" 
d="M420 1542v-633q94 43 170 138q229 -21 339.5 -144.5t110.5 -310.5q0 -110 -38 -214.5t-103.5 -188.5t-146.5 -150.5t-174 -114.5l-37 39q135 98 204.5 214t69.5 274q0 157 -66 252.5t-180 95.5q-72 0 -149 -47v-752h-268v1182q0 120 -105 129l8 37z" />
    <glyph glyph-name="uni04BB" unicode="&#x4bb;" horiz-adv-x="1114" 
d="M420 1542v-633q94 43 170 138q229 -21 339.5 -144.5t110.5 -310.5q0 -110 -38 -214.5t-103.5 -188.5t-146.5 -150.5t-174 -114.5l-37 39q135 98 204.5 214t69.5 274q0 157 -66 252.5t-180 95.5q-72 0 -149 -47v-752h-268v1182q0 120 -105 129l8 37z" />
    <glyph glyph-name="uni0456" unicode="i" horiz-adv-x="604" 
d="M420 848v-569q0 -66 34 -100t97 -34l-8 -49l-183 -114l-208 155v557q0 120 -105 129l8 37l193 195q76 -15 124 -72.5t48 -134.5zM424 1520v-250l-268 -121v254z" />
    <glyph glyph-name="uni0456" unicode="&#x456;" horiz-adv-x="604" 
d="M420 848v-569q0 -66 34 -100t97 -34l-8 -49l-183 -114l-208 155v557q0 120 -105 129l8 37l193 195q76 -15 124 -72.5t48 -134.5zM424 1520v-250l-268 -121v254z" />
    <glyph glyph-name="j" unicode="j" horiz-adv-x="542" 
d="M449 1055v-682q0 -356 -104.5 -544.5t-309.5 -205.5l8 58q137 63 137 364v649q0 120 -104 129l8 37zM449 1520v-250l-269 -121v254z" />
    <glyph glyph-name="j" unicode="&#x458;" horiz-adv-x="542" 
d="M449 1055v-682q0 -356 -104.5 -544.5t-309.5 -205.5l8 58q137 63 137 364v649q0 120 -104 129l8 37zM449 1520v-250l-269 -121v254z" />
    <glyph glyph-name="k" unicode="k" horiz-adv-x="1073" 
d="M420 723v-129q58 10 94 10q71 0 168 -20q6 30 6 65q0 134 -139 197q-65 -70 -129 -123zM420 1542v-717q108 108 201 238q96 18 180 -29.5t131 -133.5t47 -183q0 -39 -6 -92q-102 -47 -228 -66q131 -61 200 -195.5t79 -363.5h-279q0 112 -18.5 198t-48.5 139t-73 86.5
t-88 46.5t-97 13v-483h-268v1182q0 120 -105 129l8 37z" />
    <glyph glyph-name="l" unicode="l" horiz-adv-x="604" 
d="M420 1542v-1263q0 -66 34 -100t97 -34l-8 -49l-183 -114l-208 155v1045q0 120 -105 129l8 37z" />
    <glyph glyph-name="m" unicode="m" horiz-adv-x="1705" 
d="M1554 0h-354q166 398 166 584q0 207 -233 207q-57 0 -97 -15q21 -86 21 -203q0 -216 -70 -573h-354q166 398 166 584q0 207 -232 207q-50 0 -81.5 -9t-65.5 -30v-752h-268v686q0 120 -105 129l8 37l221 195q124 -36 144 -138q212 44 340 138q152 -40 221 -140
q226 55 346 140q162 -40 229.5 -152.5t67.5 -321.5q0 -216 -70 -573z" />
    <glyph glyph-name="n" unicode="n" horiz-adv-x="1116" 
d="M420 752v-752h-268v686q0 119 -105 129l8 37l221 195q127 -37 144 -138q191 40 321 138q157 -41 225 -154t68 -320q0 -221 -69 -573h-344q165 395 165 584q0 207 -227 207q-49 0 -75 -8t-64 -31z" />
    <glyph glyph-name="o" unicode="o" 
d="M279 764q-27 -58 -27 -125q0 -92 46 -179t115 -147t148 -96.5t146 -36.5q54 0 114 31q13 44 13 90q0 96 -39 185t-102.5 152.5t-146 101.5t-167.5 38q-54 0 -100 -14zM563 1059q422 -249 422 -588q0 -99 -37 -184.5t-101 -148t-148 -104.5t-181 -61q-201 73 -322.5 205.5
t-121.5 310.5q0 89 31.5 165t100 145.5t150 127.5t207.5 132z" />
    <glyph glyph-name="o" unicode="&#x43e;" 
d="M279 764q-27 -58 -27 -125q0 -92 46 -179t115 -147t148 -96.5t146 -36.5q54 0 114 31q13 44 13 90q0 96 -39 185t-102.5 152.5t-146 101.5t-167.5 38q-54 0 -100 -14zM563 1059q422 -249 422 -588q0 -99 -37 -184.5t-101 -148t-148 -104.5t-181 -61q-201 73 -322.5 205.5
t-121.5 310.5q0 89 31.5 165t100 145.5t150 127.5t207.5 132z" />
    <glyph glyph-name="o" unicode="&#x3bf;" 
d="M279 764q-27 -58 -27 -125q0 -92 46 -179t115 -147t148 -96.5t146 -36.5q54 0 114 31q13 44 13 90q0 96 -39 185t-102.5 152.5t-146 101.5t-167.5 38q-54 0 -100 -14zM563 1059q422 -249 422 -588q0 -99 -37 -184.5t-101 -148t-148 -104.5t-181 -61q-201 73 -322.5 205.5
t-121.5 310.5q0 89 31.5 165t100 145.5t150 127.5t207.5 132z" />
    <glyph glyph-name="p" unicode="p" horiz-adv-x="1103" 
d="M420 829v-350q0 -70 31.5 -135.5t96 -110.5t148.5 -45q26 0 66 7q33 98 33 208q0 73 -16.5 137.5t-38 107t-59.5 86.5t-62.5 65.5t-65.5 54.5q-68 -22 -133 -25zM420 1038v-112q130 33 248 125q176 -71 269 -195.5t93 -323.5q0 -65 -11.5 -121t-27.5 -99.5t-48.5 -86.5
t-60.5 -72t-77.5 -66t-84.5 -60.5t-97 -61.5q-64 23 -120 73.5t-83 125.5v-549h-268v1063q0 120 -105 129l8 37z" />
    <glyph glyph-name="p" unicode="&#x440;" horiz-adv-x="1103" 
d="M420 829v-350q0 -70 31.5 -135.5t96 -110.5t148.5 -45q26 0 66 7q33 98 33 208q0 73 -16.5 137.5t-38 107t-59.5 86.5t-62.5 65.5t-65.5 54.5q-68 -22 -133 -25zM420 1038v-112q130 33 248 125q176 -71 269 -195.5t93 -323.5q0 -65 -11.5 -121t-27.5 -99.5t-48.5 -86.5
t-60.5 -72t-77.5 -66t-84.5 -60.5t-97 -61.5q-64 23 -120 73.5t-83 125.5v-549h-268v1063q0 120 -105 129l8 37z" />
    <glyph glyph-name="q" unicode="q" horiz-adv-x="1067" 
d="M705 260v160q0 38 -3 68.5t-12 67t-24.5 65t-43.5 56t-65.5 45.5t-92.5 29t-124 11q-38 0 -61 -2q-35 -81 -35 -156q0 -144 103.5 -252t248.5 -108q43 0 109 16zM973 782v-1167h-268v555q-60 -24 -104.5 -53.5t-69.5 -55t-78 -86.5q-187 0 -283 114t-96 292q0 108 35 219
t97 206t157 163t206 86q56 -80 107.5 -130.5t126 -88.5t170.5 -54z" />
    <glyph glyph-name="r" unicode="r" horiz-adv-x="778" 
d="M778 913l-4 -22l-174 -143l-10 4q-18 57 -64 57q-43 0 -106 -57v-752h-268v686q0 120 -105 129l8 37l221 195q124 -36 144 -138q58 103 196 138q48 -108 162 -134z" />
    <glyph glyph-name="uni0455" unicode="s" horiz-adv-x="1052" 
d="M731 702q-24 71 -118.5 119.5t-200.5 48.5q-36 0 -74 -6q-39 -71 -39 -131q0 -91 78.5 -142.5t224.5 -51.5q173 0 318 59q34 -63 55.5 -146t21.5 -135q0 -67 -44.5 -126t-119 -101t-162.5 -71.5t-184 -45.5q-310 90 -424 209q127 37 248 127q39 -62 85 -104.5t94 -63
t90.5 -29t91.5 -8.5q61 0 100 17q8 13 8 43q0 254 -411 254q-87 0 -185 -33q-110 149 -110 262q0 43 16 82t50 74t76 65t105.5 62.5t125.5 59t149 61.5q229 -95 367 -213q-103 -26 -232 -136z" />
    <glyph glyph-name="uni0455" unicode="&#x455;" horiz-adv-x="1052" 
d="M731 702q-24 71 -118.5 119.5t-200.5 48.5q-36 0 -74 -6q-39 -71 -39 -131q0 -91 78.5 -142.5t224.5 -51.5q173 0 318 59q34 -63 55.5 -146t21.5 -135q0 -67 -44.5 -126t-119 -101t-162.5 -71.5t-184 -45.5q-310 90 -424 209q127 37 248 127q39 -62 85 -104.5t94 -63
t90.5 -29t91.5 -8.5q61 0 100 17q8 13 8 43q0 254 -411 254q-87 0 -185 -33q-110 149 -110 262q0 43 16 82t50 74t76 65t105.5 62.5t125.5 59t149 61.5q229 -95 367 -213q-103 -26 -232 -136z" />
    <glyph glyph-name="t" unicode="t" horiz-adv-x="645" 
d="M645 1034l-51 -182h-174v-573q0 -66 34 -100t97 -34l-8 -49l-183 -114l-208 155v592q0 114 -105 123l8 45q171 134 346 358h19v-221h225z" />
    <glyph glyph-name="u" unicode="u" horiz-adv-x="1155" 
d="M997 1034v-686q0 -120 105 -129l-8 -37l-224 -194q-122 34 -137 172q-181 -52 -350 -172q-317 75 -317 440q0 102 30.5 240t30.5 194q0 95 -41 172h287q41 -53 41 -139q0 -72 -47.5 -250t-47.5 -235q0 -87 61.5 -129.5t158.5 -42.5q109 0 188 61v735h270z" />
    <glyph glyph-name="v" unicode="v" horiz-adv-x="1069" 
d="M475 846l-16 45q120 63 170 166q24 6 57 6q59 0 111 -22t95 -65.5t68 -118t25 -171.5q0 -194 -109 -360t-356 -361h-18q-180 187 -245 319.5t-79 305.5q-6 70 -9.5 103.5t-11.5 76.5t-17 63t-26.5 45.5t-40.5 42t-57 35.5l9 78h276q74 -78 96 -152t37 -249q4 -49 7 -77
t10 -68.5t16 -67t24 -60.5t35.5 -61t49.5 -57.5t67 -59.5q81 76 121.5 168.5t40.5 186.5q0 128 -66.5 226.5t-165.5 98.5q-32 0 -98 -16z" />
    <glyph glyph-name="w" unicode="w" horiz-adv-x="1613" 
d="M1026 846l-16 45q118 64 168 166q24 6 55 6q125 0 211 -94.5t86 -282.5q0 -194 -108 -360t-353 -361h-16q-161 166 -232 297q-117 -148 -307 -297h-18q-177 187 -241.5 320t-78.5 305q-6 70 -9.5 104t-11 77t-17 63t-26.5 45t-39.5 41.5t-56.5 35.5l9 78h274
q73 -78 94.5 -152t36.5 -249q6 -69 10.5 -105.5t18 -90.5t33.5 -90t56.5 -80t88.5 -85q79 76 119.5 168.5t40.5 186.5q0 128 -66 226.5t-164 98.5q-34 0 -96 -16l-16 45q118 64 168 166q24 6 55 6q59 0 111 -22t94.5 -66t67 -118.5t24.5 -172.5q0 -56 -8 -100
q20 -127 71 -223.5t154 -178.5q79 76 119.5 168.5t40.5 186.5q0 128 -66 226.5t-164 98.5q-34 0 -96 -16z" />
    <glyph glyph-name="x" unicode="x" horiz-adv-x="1064" 
d="M473 887l74 -148q73 120 156 194.5t190 121.5q44 -113 96 -195q-105 -58 -180.5 -123t-161.5 -176l172 -332q42 -81 193 -84l22 -49l-186 -114l-289 155l-92 182q-83 -117 -134.5 -174t-116 -94.5t-163.5 -64.5l-20 43q71 36 108 60.5t79 74t75.5 110.5t95.5 185
l-115 235q-58 120 -229 129l-16 37l159 195z" />
    <glyph glyph-name="x" unicode="&#x445;" horiz-adv-x="1064" 
d="M473 887l74 -148q73 120 156 194.5t190 121.5q44 -113 96 -195q-105 -58 -180.5 -123t-161.5 -176l172 -332q42 -81 193 -84l22 -49l-186 -114l-289 155l-92 182q-83 -117 -134.5 -174t-116 -94.5t-163.5 -64.5l-20 43q71 36 108 60.5t79 74t75.5 110.5t95.5 185
l-115 235q-58 120 -229 129l-16 37l159 195z" />
    <glyph glyph-name="y" unicode="y" horiz-adv-x="1069" 
d="M475 846l-16 45q116 58 170 166q24 6 57 6q59 0 111 -21t95 -62.5t68 -113.5t25 -166q0 -44 -5 -84.5t-18 -80t-25 -72t-37.5 -70.5t-43.5 -64.5t-55 -65.5t-59 -62.5t-69 -65.5t-72.5 -64.5t-80.5 -70.5q-129 -113 -143 -385h-287q43 149 142 259t239 159
q-156 173 -217.5 297.5t-75.5 273.5q-8 77 -12.5 114t-13.5 79t-16.5 58.5t-26 38.5t-38 34.5t-55.5 32.5l9 73h276q74 -74 96 -146t37 -241q7 -77 16 -125.5t30.5 -104.5t61 -103.5t101.5 -96.5q80 72 121 163t41 179q0 118 -66.5 210.5t-165.5 92.5q-32 0 -98 -16z" />
    <glyph glyph-name="y" unicode="&#x443;" horiz-adv-x="1069" 
d="M475 846l-16 45q116 58 170 166q24 6 57 6q59 0 111 -21t95 -62.5t68 -113.5t25 -166q0 -44 -5 -84.5t-18 -80t-25 -72t-37.5 -70.5t-43.5 -64.5t-55 -65.5t-59 -62.5t-69 -65.5t-72.5 -64.5t-80.5 -70.5q-129 -113 -143 -385h-287q43 149 142 259t239 159
q-156 173 -217.5 297.5t-75.5 273.5q-8 77 -12.5 114t-13.5 79t-16.5 58.5t-26 38.5t-38 34.5t-55.5 32.5l9 73h276q74 -74 96 -146t37 -241q7 -77 16 -125.5t30.5 -104.5t61 -103.5t101.5 -96.5q80 72 121 163t41 179q0 118 -66.5 210.5t-165.5 92.5q-32 0 -98 -16z" />
    <glyph glyph-name="z" unicode="z" horiz-adv-x="1044" 
d="M950 1034l-8 -71q-337 -427 -528 -715h229q189 0 307 112l33 -41l-111 -266q-21 -53 -84 -53h-718l8 88q296 406 571 713h-235q-123 0 -289 -90l-27 26l64 297h788z" />
    <glyph glyph-name="braceleft" unicode="{" horiz-adv-x="876" 
d="M803 1704l-19 -117q-35 -4 -57 -11.5t-39.5 -26t-27 -43t-17.5 -69.5t-13.5 -98.5t-13.5 -136.5q-1 -16 -2 -24q-8 -83 -16.5 -134.5t-26 -105.5t-45 -86.5t-72 -60.5t-108.5 -46q130 -41 191 -155t77 -318q18 -233 33 -291q18 -72 64 -96q29 -15 90 -24l-15 -115
q-60 2 -106 11t-80.5 30t-58.5 41t-41 62.5t-27 74.5t-17 96t-10 108.5t-8 130.5v1q-10 189 -81 274t-207 105l24 111q59 13 96 27t69 38t50.5 62t30.5 93.5t18 137.5q19 241 39 323q32 134 117 185q73 44 209 47z" />
    <glyph glyph-name="bar" unicode="|" horiz-adv-x="452" 
d="M315 1753v-1978h-178v1978h178z" />
    <glyph glyph-name="braceright" unicode="}" horiz-adv-x="876" 
d="M76 1589l14 115q60 -2 106 -11t80.5 -30t58.5 -41t41 -62.5t27 -74.5t17 -96t10 -108.5t8 -130.5v-1q10 -189 81.5 -274t207.5 -105l-25 -111q-59 -13 -96 -27t-69 -38t-50.5 -62t-30.5 -93.5t-18 -137.5q-18 -240 -38 -322q-32 -134 -116 -186q-74 -44 -210 -47l18 117
q35 4 57 11.5t39.5 26t27 43t17.5 69.5t13.5 98.5t13.5 136.5q1 16 2 24q8 83 16.5 134.5t26 105.5t45 86.5t72 60.5t108.5 46q-130 41 -191 155t-77 318q-18 233 -32 290q-18 72 -64 97q-29 15 -90 24z" />
    <glyph glyph-name="asciitilde" unicode="~" horiz-adv-x="1015" 
d="M1006 897l-45 -178q-122 -98 -244 -98q-67 0 -144.5 31l-155 62t-145.5 31q-127 0 -264 -110l53 180q93 109 207 109q50 0 114.5 -19.5t118 -43t123.5 -43t130 -19.5q133 0 252 98z" />
    <glyph glyph-name="uni00A0" unicode="&#xa0;" horiz-adv-x="614" 
 />
    <glyph glyph-name="exclamdown" unicode="&#xa1;" horiz-adv-x="550" 
d="M225 756h94q27 -489 121 -1108h-338q89 657 123 1108zM287 1192l157 -186l-178 -197l-157 172z" />
    <glyph glyph-name="cent" unicode="&#xa2;" horiz-adv-x="903" 
d="M520 1528v-250q181 -109 236 -197l-176 -157l-60 49v-486q38 -12 84 -12q90 0 176 51l39 -41q-42 -79 -111.5 -141t-187.5 -111v-233h-104v248q-142 79 -231 204t-89 287q0 139 76.5 259t243.5 245v285h104zM287 881q0 -96 33 -186.5t96 -147.5v485q-47 22 -109 35
q-20 -103 -20 -186z" />
    <glyph glyph-name="sterling" unicode="&#xa3;" horiz-adv-x="1288" 
d="M1165 1397l-166 -183q-75 93 -231 93q-42 0 -100 -9q16 -72 16 -157q0 -106 -25 -234h236l-18 -110h-242q-38 -158 -100 -310.5t-129 -255.5q111 60 219 60q47 0 126 -17.5t119 -17.5q158 0 320 168l57 -45q-42 -98 -87 -167t-89.5 -110.5t-100.5 -65t-109 -31t-126 -7.5
q-75 0 -184 10t-170 10q-165 0 -299 -45l-45 78q178 63 311 746h-155l18 110h51q119 0 119 117q0 51 -22.5 74t-69.5 26l8 37q364 291 717 373q27 -113 151 -137z" />
    <glyph glyph-name="currency" unicode="&#xa4;" horiz-adv-x="1216" 
d="M1042 1313l101 -150l-160 -157q72 -112 72 -238q0 -130 -74 -240l190 -188l-149 -100l-168 166q-108 -68 -236 -68q-129 0 -235 70l-197 -197l-98 147l172 172q-72 109 -72 238q0 128 68 236l-188 190l149 100l162 -164q110 74 239 74q127 0 242 -74zM618 1016
q-97 0 -166 -73.5t-69 -174.5t69 -172.5t166 -71.5q99 0 169.5 71.5t70.5 172.5t-71 174.5t-169 73.5z" />
    <glyph glyph-name="yen" unicode="&#xa5;" horiz-adv-x="1073" 
d="M496 1325l-17 45q121 68 172 168q7 0 17 1t20 1q60 0 117 -21t104 -60t76 -101.5t29 -138.5q0 -134 -87.5 -277t-234.5 -276v-123h309l-18 -111h-291v-108h309l-18 -111h-291v-213h-268v213h-315l18 111h297v108h-315l18 111h297v100q-59 70 -100 131t-64 105t-37 94
t-19 82.5t-9 85.5q-5 64 -10.5 98.5t-21.5 77.5t-48 74t-84 59v78h286q40 -44 65.5 -87.5t39 -94.5t18.5 -86.5t11 -100.5q5 -57 10 -92t18 -80t33 -80t54 -75.5t83 -81.5q182 159 182 315q0 103 -66.5 190.5t-170.5 87.5q-46 0 -98 -18z" />
    <glyph glyph-name="brokenbar" unicode="&#xa6;" horiz-adv-x="354" 
d="M266 1753v-749h-178v749h178zM266 524v-749h-178v749h178z" />
    <glyph glyph-name="section" unicode="&#xa7;" horiz-adv-x="1073" 
d="M881 1040q55 -96 55 -204q0 -185 -164 -367q56 5 117 20q34 -45 57 -114.5t23 -141.5q0 -77 -29 -141.5t-77 -110t-115 -80.5t-138 -55.5t-151 -31.5q-126 35 -243.5 87t-180.5 115q132 39 248 125q143 -200 327 -200q68 0 138 24q0 192 -101.5 284.5t-269.5 92.5
q-105 0 -221 -35q-82 116 -82 244q0 89 39.5 172t113.5 149q-48 -3 -98 -12q-47 61 -66.5 137t-19.5 136q0 56 20.5 102t56 82.5t103.5 75t142 71t192 78.5q229 -92 367 -207q-106 -26 -232 -131q-31 80 -121.5 120t-195.5 40q-47 0 -70 -4q-43 -85 -43 -150
q0 -75 53 -127.5t131 -75t172 -22.5q153 0 263 55zM670 459q55 88 55 162q0 110 -111 177.5t-278 75.5q-37 -73 -37 -151q0 -113 79 -189.5t224 -76.5q39 0 68 2z" />
    <glyph glyph-name="dieresis" unicode="&#xa8;" horiz-adv-x="821" 
d="M750 1540v-250l-269 -121v254zM340 1499v-250l-268 -121v254z" />
    <glyph glyph-name="copyright" unicode="&#xa9;" horiz-adv-x="1660" 
d="M827 1458q-110 0 -213.5 -36t-186.5 -101t-145 -151t-96 -191.5t-34 -216.5q0 -139 53 -265.5t143.5 -218t215.5 -146t263 -54.5q137 0 263.5 54.5t218.5 146t147 218t55 265.5t-55 267.5t-147 222.5t-218.5 150t-263.5 56zM1624 764q0 -161 -63.5 -308.5t-170.5 -254.5
t-254.5 -170.5t-308.5 -63.5t-308 63.5t-253 170.5t-168.5 254.5t-62.5 308.5q0 215 106.5 397.5t288.5 288.5t397 106q161 0 308 -62.5t254.5 -168.5t171 -253t63.5 -308zM989 961l-26 34q2 6 2 17q0 37 -41 67.5t-107 30.5q-106 0 -177 -79.5t-71 -213.5q0 -144 80.5 -247
t212.5 -103q165 0 285 172l37 -39q-42 -56 -78 -95.5t-84.5 -78.5t-105.5 -59.5t-121 -20.5q-164 0 -276.5 122.5t-112.5 299.5q0 188 127 312t315 124q87 0 155.5 -29.5t131.5 -91.5q-87 -63 -146 -122z" />
    <glyph glyph-name="ordfeminine" unicode="&#xaa;" horiz-adv-x="825" 
d="M727 575l-76 -206q-51 26 -112 26h-263q-89 0 -137 -28l-43 20l76 207q52 -27 113 -27h262q87 0 137 29zM463 1149l-98 -45q-52 -23 -78.5 -67.5t-26.5 -90.5q0 -47 24.5 -71.5t75.5 -30.5q54 13 103 43v262zM680 1362v-426q0 -107 104 -107l-6 -38l-147 -93l-166 123
q-115 -87 -227 -143q-89 18 -139 73t-50 146q0 162 168 227l246 93v34q0 88 -80 121q-113 -69 -272 -98q-8 26 -41 59q202 81 311 226q155 -126 299 -197z" />
    <glyph glyph-name="guillemotleft" unicode="&#xab;" horiz-adv-x="1028" 
d="M459 1044l63 -94q-142 -268 -291 -444q139 -165 318 -465l-90 -49q-211 297 -434 526q253 263 434 526zM911 1044l64 -94q-142 -268 -291 -444q136 -161 317 -465l-90 -49q-211 297 -434 526q253 263 434 526z" />
    <glyph glyph-name="logicalnot" unicode="&#xac;" horiz-adv-x="1015" 
d="M971 981v-868h-178v690h-750l45 178h883z" />
    <glyph glyph-name="registered" unicode="&#xae;" horiz-adv-x="1259" 
d="M629 1485q-134 0 -248.5 -69.5t-180 -186.5t-65.5 -252q0 -207 144.5 -353.5t349.5 -146.5q134 0 249 67t182.5 182.5t67.5 250.5t-67.5 252t-183 186.5t-248.5 69.5zM1210 977q0 -157 -77.5 -291t-211.5 -212.5t-292 -78.5q-157 0 -290.5 78.5t-211.5 212.5t-78 291
q0 158 78.5 291.5t212 210.5t289.5 77q118 0 225 -45.5t185 -123t124.5 -185t46.5 -225.5zM518 1178v-174q71 48 116 84.5t62.5 59t22 33t4.5 23.5q0 99 -86 99q-17 0 -33 -4.5t-35 -16t-33 -38.5t-18 -66zM936 846l31 -37q-49 -39 -166 -152q-118 172 -236 306l-45 -33v-60
q0 -77 78 -118v-66q-90 21 -127 21q-73 0 -123 -39l-24 49q61 38 61 94v330q0 70 -59 73l4 48q52 0 116 26q15 6 50 22.5t52.5 23t51 13.5t70.5 7q93 0 140.5 -33t47.5 -94q0 -40 -33 -75t-147 -112q9 -14 28.5 -42.5t30.5 -44t28.5 -39.5t30.5 -37t29 -27.5t30.5 -20.5
t29.5 -6q22 0 51 23z" />
    <glyph glyph-name="macron" unicode="&#xaf;" horiz-adv-x="874" 
d="M803 1450l-45 -178h-686l45 178h686z" />
    <glyph glyph-name="degree" unicode="&#xb0;" horiz-adv-x="772" 
d="M690 1214q0 -127 -90.5 -217t-218.5 -90q-127 0 -217 89.5t-90 217.5t90 219t217 91t218 -91t91 -219zM381 1391q-69 0 -118.5 -52.5t-49.5 -124.5t49.5 -123t118.5 -51t119.5 51t50.5 123t-50.5 124.5t-119.5 52.5z" />
    <glyph glyph-name="plusminus" unicode="&#xb1;" horiz-adv-x="1015" 
d="M1001 858l-45 -178h-358v-381h-178v381h-408l45 178h363v381h178v-381h403zM1001 178l-45 -178h-944l45 178h944z" />
    <glyph glyph-name="twosuperior" unicode="&#xb2;" horiz-adv-x="839" 
d="M684 928l88 -25q-60 -244 -258 -244q-47 0 -161 17.5t-154 17.5q-33 0 -58 -8.5t-61 -32.5l-51 47q102 267 256 490q72 -78 157 -78q109 0 109 123q0 24 -3.5 47.5t-12.5 48t-27.5 40t-44.5 15.5q-60 0 -112 -37t-75 -94q-90 65 -182 99q131 122 299 192
q173 -81 247.5 -156.5t74.5 -177.5q0 -100 -82 -217q-80 52 -154 52t-131.5 -48.5t-116.5 -167.5q60 35 140 35q50 0 120.5 -17.5t86.5 -17.5q67 0 106 97z" />
    <glyph glyph-name="threesuperior" unicode="&#xb3;" horiz-adv-x="788" 
d="M51 1354v61q50 14 113 51q116 66 246 66q117 0 178 -44t61 -120q0 -103 -123 -180q201 -40 201 -209q0 -96 -72.5 -179t-244.5 -157q-281 27 -371 209q71 11 190 41q15 -122 203 -160q43 27 71.5 71.5t28.5 98.5q0 66 -51 111.5t-159 56.5l4 94q89 28 121 66t32 100
q0 65 -26.5 93t-83.5 28q-49 0 -79 -25t-54 -92q-9 -2 -18.5 -3t-17 -2t-18.5 0t-17.5 1t-19 2.5t-17.5 3t-19.5 4t-18.5 4t-20 4.5t-19 5z" />
    <glyph glyph-name="acute" unicode="&#xb4;" horiz-adv-x="608" 
d="M389 1569l148 -178l-375 -289l-90 88z" />
    <glyph glyph-name="paragraph" unicode="&#xb6;" horiz-adv-x="1468" 
d="M1468 1536l-75 -207q-43 21 -148 27v-1370q0 -54 27.5 -81.5t79.5 -27.5l-6 -47l-148 -92l-170 125v1388q0 96 -84 105h-149v-1503q0 -109 106 -109l-6 -47l-147 -92l-170 125v1005q-28 -23 -84 -43.5t-101 -29.5q-153 56 -237 161t-84 228q0 86 42 172.5t111 153.5
t163 109t192 42h710q87 0 135 28zM578 858v498q-187 0 -338 -56q-21 -56 -21 -110q0 -137 103.5 -227.5t255.5 -104.5z" />
    <glyph glyph-name="periodcentered" unicode="&#xb7;" horiz-adv-x="479" 
d="M250 795l158 -172l-179 -211l-157 186z" />
    <glyph glyph-name="cedilla" unicode="&#xb8;" horiz-adv-x="512" 
d="M168 0h227q0 -153 -79.5 -263.5t-188.5 -131.5l-53 37q49 49 70.5 136t23.5 222z" />
    <glyph glyph-name="onesuperior" unicode="&#xb9;" horiz-adv-x="370" 
d="M276 1536v-864h-170v620q0 25 -19 41t-48 19l4 65z" />
    <glyph glyph-name="ordmasculine" unicode="&#xba;" horiz-adv-x="825" 
d="M727 575l-76 -206q-51 26 -112 26h-263q-89 0 -137 -28l-43 20l76 207q52 -27 113 -27h262q87 0 137 29zM209 1325q-21 -47 -21 -100q0 -73 37 -143t92 -118t118.5 -77t117.5 -29q44 0 92 25q10 33 10 71q0 102 -53 191.5t-137 140.5t-174 51q-41 0 -82 -12zM438 1563
q338 -202 338 -473q0 -155 -106 -261t-269 -137q-161 59 -258.5 165t-97.5 249q0 137 93.5 237t299.5 220z" />
    <glyph glyph-name="guillemotright" unicode="&#xbb;" horiz-adv-x="1028" 
d="M25 995l90 49q211 -297 434 -526q-253 -263 -434 -526l-64 94q142 268 291 444q-136 161 -317 465zM477 995l90 49q211 -297 434 -526q-253 -263 -434 -526l-63 94q142 268 291 444q-139 165 -318 465z" />
    <glyph glyph-name="onequarter" unicode="&#xbc;" horiz-adv-x="1503" 
d="M401 1536v-864h-170v620q0 25 -19 41t-48 19l4 65zM1219 1559l-983 -1573l-142 30l998 1573zM1292 854l29 -35q-68 -142 -68 -203v-317l156 8l-2 -51q-36 -50 -64 -131h-59q-3 53 -31 59q-3 -270 -227 -395v76q43 51 43 217v100h-371l-20 78q89 70 135 158t70 223
q2 0 13 -7t28.5 -24.5t34.5 -42t31.5 -64.5t19.5 -87q-96 -20 -140 -131l199 8v231q0 103 -51 160q137 63 274 170z" />
    <glyph glyph-name="onehalf" unicode="&#xbd;" horiz-adv-x="1683" 
d="M401 1536v-864h-170v620q0 25 -19 41t-48 19l4 65zM1219 1559l-983 -1573l-142 30l998 1573zM1501 256l88 -25q-60 -243 -258 -243q-47 0 -161 17.5t-154 17.5q-33 0 -58 -8.5t-61 -32.5l-51 47q101 265 256 489q72 -78 158 -78q108 0 108 123q0 24 -3.5 47.5t-12.5 48.5
t-27.5 40.5t-44.5 15.5q-59 0 -111 -36.5t-75 -94.5q-86 62 -183 98q131 122 299 192q173 -82 247.5 -156.5t74.5 -176.5q0 -100 -82 -217q-79 51 -154 51q-74 0 -131 -48t-116 -167q60 35 139 35q50 0 120.5 -17.5t86.5 -17.5q36 0 63 28t43 68z" />
    <glyph glyph-name="threequarters" unicode="&#xbe;" horiz-adv-x="1789" 
d="M106 1354v61q50 14 113 51q116 66 246 66q117 0 178.5 -44t61.5 -120q0 -103 -123 -180q200 -39 200 -209q0 -96 -72.5 -179t-244.5 -157q-281 27 -371 209q73 11 191 41q15 -123 202 -160q43 27 72 71.5t29 98.5q0 66 -51.5 111.5t-159.5 56.5l4 94q89 28 121.5 66
t32.5 100q0 65 -27 93t-84 28q-49 0 -79 -25t-54 -92q-9 -2 -18.5 -3t-17 -2t-18.5 0t-17.5 1t-19 2.5t-17.5 3t-19.5 4t-18.5 4t-20 4.5t-19 5zM1505 1559l-983 -1573l-141 30l997 1573zM1579 854l29 -35q-68 -142 -68 -203v-317l156 8l-2 -51q-36 -50 -64 -131h-59
q-3 53 -31 59q-3 -270 -227 -395v76q43 51 43 217v100h-371l-20 78q89 70 134.5 157.5t69.5 223.5q2 0 13 -7t28.5 -24.5t34.5 -42t31.5 -64.5t19.5 -87q-95 -20 -139 -131l199 8v231q0 103 -51 160q137 63 274 170z" />
    <glyph glyph-name="questiondown" unicode="&#xbf;" horiz-adv-x="1185" 
d="M602 735h207q102 -120 102 -229q0 -101 -90 -205q-56 55 -129.5 88t-150.5 33q-109 0 -169.5 -69t-60.5 -197q0 -138 99 -246.5t231 -108.5q90 0 141 65t74 216q136 -112 285 -154q-219 -197 -506 -323q-309 133 -444.5 271t-135.5 323q0 178 140 370q24 -10 70 -28.5
t65.5 -26t50 -18t52 -14t42.5 -3.5q68 0 113 41t45 98q0 47 -31 117zM711 1192l157 -186l-180 -197l-156 172z" />
    <glyph glyph-name="Agrave" unicode="&#xc0;" horiz-adv-x="1564" 
d="M831 1423h-163q0 -196 -39 -540h409l-43 391q-9 86 -43.5 117.5t-120.5 31.5zM1364 1528l-8 -90q-44 0 -67.5 -43.5t-14.5 -124.5l102 -951q24 -231 148 -231l-8 -88h-791l8 84q367 0 367 207q0 52 -15 170l-22 168h-488q-106 -385 -331 -654q-60 57 -252 228l41 43
q23 -13 43 -13q33 0 76 31t94 91t100.5 160.5t92.5 226.5t74.5 303.5t41.5 377.5h-401l20 105h1190zM725 2062l311 -389l-114 -78l-394 322z" />
    <glyph glyph-name="Aacute" unicode="&#xc1;" horiz-adv-x="1564" 
d="M831 1423h-163q0 -196 -39 -540h409l-43 391q-9 86 -43.5 117.5t-120.5 31.5zM1364 1528l-8 -90q-44 0 -67.5 -43.5t-14.5 -124.5l102 -951q24 -231 148 -231l-8 -88h-791l8 84q367 0 367 207q0 52 -15 170l-22 168h-488q-106 -385 -331 -654q-60 57 -252 228l41 43
q23 -13 43 -13q33 0 76 31t94 91t100.5 160.5t92.5 226.5t74.5 303.5t41.5 377.5h-401l20 105h1190zM989 2062l148 -178l-375 -289l-90 88z" />
    <glyph glyph-name="Acircumflex" unicode="&#xc2;" horiz-adv-x="1564" 
d="M831 1423h-163q0 -196 -39 -540h409l-43 391q-9 86 -43.5 117.5t-120.5 31.5zM1364 1528l-8 -90q-44 0 -67.5 -43.5t-14.5 -124.5l102 -951q24 -231 148 -231l-8 -88h-791l8 84q367 0 367 207q0 52 -15 170l-22 168h-488q-106 -385 -331 -654q-60 57 -252 228l41 43
q23 -13 43 -13q33 0 76 31t94 91t100.5 160.5t92.5 226.5t74.5 303.5t41.5 377.5h-401l20 105h1190zM846 2062l311 -389l-115 -78l-206 189l-218 -189l-90 88z" />
    <glyph glyph-name="Atilde" unicode="&#xc3;" horiz-adv-x="1564" 
d="M831 1423h-163q0 -196 -39 -540h409l-43 391q-9 86 -43.5 117.5t-120.5 31.5zM1364 1528l-8 -90q-44 0 -67.5 -43.5t-14.5 -124.5l102 -951q24 -231 148 -231l-8 -88h-791l8 84q367 0 367 207q0 52 -15 170l-22 168h-488q-106 -385 -331 -654q-60 57 -252 228l41 43
q23 -13 43 -13q33 0 76 31t94 91t100.5 160.5t92.5 226.5t74.5 303.5t41.5 377.5h-401l20 105h1190zM1171 1962l91 -88q-37 -136 -93 -193t-141 -57q-54 0 -110 22t-95.5 49t-89.5 54.5t-90 34.5q-40 -28 -68 -65t-59 -97l-90 88q37 135 93 192.5t138 57.5q54 0 112 -22.5
t99.5 -50.5t90.5 -54.5t85 -32.5q80 51 127 162z" />
    <glyph glyph-name="Adieresis" unicode="&#xc4;" horiz-adv-x="1564" 
d="M831 1423h-163q0 -196 -39 -540h409l-43 391q-9 86 -43.5 117.5t-120.5 31.5zM1364 1528l-8 -90q-44 0 -67.5 -43.5t-14.5 -124.5l102 -951q24 -231 148 -231l-8 -88h-791l8 84q367 0 367 207q0 52 -15 170l-22 168h-488q-106 -385 -331 -654q-60 57 -252 228l41 43
q23 -13 43 -13q33 0 76 31t94 91t100.5 160.5t92.5 226.5t74.5 303.5t41.5 377.5h-401l20 105h1190zM1182 2034v-250l-269 -121v254zM772 1993v-250l-268 -121v254z" />
    <glyph glyph-name="Aring" unicode="&#xc5;" horiz-adv-x="1564" 
d="M831 1423h-163q0 -196 -39 -540h409l-43 391q-9 86 -43.5 117.5t-120.5 31.5zM1364 1528l-8 -90q-44 0 -67.5 -43.5t-14.5 -124.5l102 -951q24 -231 148 -231l-8 -88h-791l8 84q367 0 367 207q0 52 -15 170l-22 168h-488q-106 -385 -331 -654q-60 57 -252 228l41 43
q23 -13 43 -13q33 0 76 31t94 91t100.5 160.5t92.5 226.5t74.5 303.5t41.5 377.5h-401l20 105h1190zM737 1907q-12 -21 -12 -45q0 -66 67 -117t130 -51q25 0 49 12q4 10 4 33q0 70 -59.5 122t-133.5 52q-24 0 -45 -6zM862 2062q228 -113 228 -262q0 -87 -71 -146t-181 -77
q-109 32 -174.5 91.5t-65.5 139.5q0 76 63 132t201 122z" />
    <glyph glyph-name="AE" unicode="&#xc6;" horiz-adv-x="2482" 
d="M2060 1098l-49 61q4 20 4 31q0 69 -74.5 124.5t-197.5 55.5q-95 0 -179.5 -37.5t-149 -106t-102.5 -174t-38 -233.5l1028 127q-101 -149 -195 -371h-36q-9 97 -129 103l-658 31q23 -144 94 -260.5t188 -187.5t259 -71q297 0 524 318l68 -72q-59 -80 -110.5 -140.5
t-122 -125t-140 -105.5t-158.5 -67.5t-184 -26.5q-135 0 -257 50.5t-214 138t-154 209t-80 260.5h-489q-105 -383 -332 -654q-60 57 -252 228l41 43q23 -13 43 -13q33 0 76 31t94 91t100.5 160.5t92.5 226.5t74.5 303.5t41.5 377.5h-401l20 105h1190l-8 -90q-38 0 -61 -33
t-23 -94v-15q111 117 265 182.5t331 65.5q159 0 285 -54.5t242 -166.5q-152 -110 -267 -225zM764 1423h-164q0 -196 -39 -540h410l-43 391q-9 86 -43.5 117.5t-120.5 31.5z" />
    <glyph glyph-name="Ccedilla" unicode="&#xc7;" horiz-adv-x="1583" 
d="M1165 1098l-49 61q4 20 4 31q0 69 -74.5 124.5t-197.5 55.5q-195 0 -325 -145.5t-130 -390.5q0 -171 63.5 -316.5t188 -236.5t285.5 -91q297 0 524 318l68 -72q-67 -89 -124.5 -154.5t-132.5 -132t-161 -109t-180 -58.5q-6 -146 -85 -251t-184 -126l-53 37q88 92 94 340
q-172 27 -309.5 133t-215 270.5t-77.5 357.5q0 170 63 319t171 254.5t258 166.5t319 61q159 0 285 -54.5t242 -166.5q-152 -110 -267 -225z" />
    <glyph glyph-name="Egrave" unicode="&#xc8;" horiz-adv-x="1581" 
d="M1165 1098l-49 61q4 20 4 31q0 69 -74.5 124.5t-197.5 55.5q-95 0 -179.5 -37.5t-149 -106t-102.5 -174t-38 -233.5l1028 127q-101 -149 -195 -371h-36q-9 97 -129 103l-658 31q23 -144 94 -260.5t188 -187.5t259 -71q297 0 524 318l68 -72q-59 -80 -110.5 -140.5
t-122 -125t-140 -105.5t-158.5 -67.5t-184 -26.5q-148 0 -280.5 60.5t-227 163.5t-150 246t-55.5 302q0 170 63 319t171 254.5t258 166.5t319 61q159 0 285 -54.5t242 -166.5q-152 -110 -267 -225zM733 2062l311 -389l-114 -78l-393 322z" />
    <glyph glyph-name="Eacute" unicode="&#xc9;" horiz-adv-x="1581" 
d="M1165 1098l-49 61q4 20 4 31q0 69 -74.5 124.5t-197.5 55.5q-95 0 -179.5 -37.5t-149 -106t-102.5 -174t-38 -233.5l1028 127q-101 -149 -195 -371h-36q-9 97 -129 103l-658 31q23 -144 94 -260.5t188 -187.5t259 -71q297 0 524 318l68 -72q-59 -80 -110.5 -140.5
t-122 -125t-140 -105.5t-158.5 -67.5t-184 -26.5q-148 0 -280.5 60.5t-227 163.5t-150 246t-55.5 302q0 170 63 319t171 254.5t258 166.5t319 61q159 0 285 -54.5t242 -166.5q-152 -110 -267 -225zM997 2062l148 -178l-375 -289l-90 88z" />
    <glyph glyph-name="Ecircumflex" unicode="&#xca;" horiz-adv-x="1581" 
d="M1165 1098l-49 61q4 20 4 31q0 69 -74.5 124.5t-197.5 55.5q-95 0 -179.5 -37.5t-149 -106t-102.5 -174t-38 -233.5l1028 127q-101 -149 -195 -371h-36q-9 97 -129 103l-658 31q23 -144 94 -260.5t188 -187.5t259 -71q297 0 524 318l68 -72q-59 -80 -110.5 -140.5
t-122 -125t-140 -105.5t-158.5 -67.5t-184 -26.5q-148 0 -280.5 60.5t-227 163.5t-150 246t-55.5 302q0 170 63 319t171 254.5t258 166.5t319 61q159 0 285 -54.5t242 -166.5q-152 -110 -267 -225zM854 2062l311 -389l-114 -78l-207 189l-217 -189l-90 88z" />
    <glyph glyph-name="Edieresis" unicode="&#xcb;" horiz-adv-x="1581" 
d="M1165 1098l-49 61q4 20 4 31q0 69 -74.5 124.5t-197.5 55.5q-95 0 -179.5 -37.5t-149 -106t-102.5 -174t-38 -233.5l1028 127q-101 -149 -195 -371h-36q-9 97 -129 103l-658 31q23 -144 94 -260.5t188 -187.5t259 -71q297 0 524 318l68 -72q-59 -80 -110.5 -140.5
t-122 -125t-140 -105.5t-158.5 -67.5t-184 -26.5q-148 0 -280.5 60.5t-227 163.5t-150 246t-55.5 302q0 170 63 319t171 254.5t258 166.5t319 61q159 0 285 -54.5t242 -166.5q-152 -110 -267 -225zM1157 2034v-250l-268 -121v254zM748 1993v-250l-269 -121v254z" />
    <glyph glyph-name="Igrave" unicode="&#xcc;" horiz-adv-x="1091" 
d="M901 1528l-8 -86q-219 0 -219 -137v-1057q0 -152 268 -187q129 0 129 -90q0 -82 -117 -82q-62 0 -98 26.5t-55 84.5h-649l8 84q219 0 219 141v1055q0 148 -270 186q-129 0 -129 90q0 82 116 82q63 0 100 -26t54 -84h651zM426 2062l311 -389l-114 -78l-394 322z" />
    <glyph glyph-name="Iacute" unicode="&#xcd;" horiz-adv-x="1091" 
d="M901 1528l-8 -86q-219 0 -219 -137v-1057q0 -152 268 -187q129 0 129 -90q0 -82 -117 -82q-62 0 -98 26.5t-55 84.5h-649l8 84q219 0 219 141v1055q0 148 -270 186q-129 0 -129 90q0 82 116 82q63 0 100 -26t54 -84h651zM692 2062l148 -178l-375 -289l-90 88z" />
    <glyph glyph-name="Icircumflex" unicode="&#xce;" horiz-adv-x="1091" 
d="M901 1528l-8 -86q-219 0 -219 -137v-1057q0 -152 268 -187q129 0 129 -90q0 -82 -117 -82q-62 0 -98 26.5t-55 84.5h-649l8 84q219 0 219 141v1055q0 148 -270 186q-129 0 -129 90q0 82 116 82q63 0 100 -26t54 -84h651zM549 2062l311 -389l-115 -78l-206 189l-217 -189
l-91 88z" />
    <glyph glyph-name="Idieresis" unicode="&#xcf;" horiz-adv-x="1091" 
d="M901 1528l-8 -86q-219 0 -219 -137v-1057q0 -152 268 -187q129 0 129 -90q0 -82 -117 -82q-62 0 -98 26.5t-55 84.5h-649l8 84q219 0 219 141v1055q0 148 -270 186q-129 0 -129 90q0 82 116 82q63 0 100 -26t54 -84h651zM905 2034v-250l-268 -121v254zM496 1993v-250
l-269 -121v254z" />
    <glyph glyph-name="Idieresis" unicode="&#x407;" horiz-adv-x="1091" 
d="M901 1528l-8 -86q-219 0 -219 -137v-1057q0 -152 268 -187q129 0 129 -90q0 -82 -117 -82q-62 0 -98 26.5t-55 84.5h-649l8 84q219 0 219 141v1055q0 148 -270 186q-129 0 -129 90q0 82 116 82q63 0 100 -26t54 -84h651zM905 2034v-250l-268 -121v254zM496 1993v-250
l-269 -121v254z" />
    <glyph glyph-name="Idieresis" unicode="&#x3aa;" horiz-adv-x="1091" 
d="M901 1528l-8 -86q-219 0 -219 -137v-1057q0 -152 268 -187q129 0 129 -90q0 -82 -117 -82q-62 0 -98 26.5t-55 84.5h-649l8 84q219 0 219 141v1055q0 148 -270 186q-129 0 -129 90q0 82 116 82q63 0 100 -26t54 -84h651zM905 2034v-250l-268 -121v254zM496 1993v-250
l-269 -121v254z" />
    <glyph glyph-name="Eth" unicode="&#xd0;" horiz-adv-x="1558" 
d="M41 1321l37 70q276 0 637 186q119 -27 236 -94t208.5 -154.5t165.5 -185.5t117.5 -193t54.5 -172q-195 -609 -807 -809q-88 27 -199.5 47.5t-183.5 20.5q-107 0 -201 -70l-59 78q148 136 148 315v334l-209 8l8 125l201 17v203q0 135 -154 274zM797 575h-37
q-5 44 -38.5 73t-90.5 30l-139 4v-274q0 -252 186 -252q79 0 156 45.5t139.5 127t101.5 209t39 277.5q0 126 -28 230.5t-72 172t-100 114.5t-109.5 67t-102.5 20q-83 0 -144 -58.5t-64 -164.5l-2 -326l477 43q-99 -169 -172 -338z" />
    <glyph glyph-name="Eth" unicode="&#x110;" horiz-adv-x="1558" 
d="M41 1321l37 70q276 0 637 186q119 -27 236 -94t208.5 -154.5t165.5 -185.5t117.5 -193t54.5 -172q-195 -609 -807 -809q-88 27 -199.5 47.5t-183.5 20.5q-107 0 -201 -70l-59 78q148 136 148 315v334l-209 8l8 125l201 17v203q0 135 -154 274zM797 575h-37
q-5 44 -38.5 73t-90.5 30l-139 4v-274q0 -252 186 -252q79 0 156 45.5t139.5 127t101.5 209t39 277.5q0 126 -28 230.5t-72 172t-100 114.5t-109.5 67t-102.5 20q-83 0 -144 -58.5t-64 -164.5l-2 -326l477 43q-99 -169 -172 -338z" />
    <glyph glyph-name="Ntilde" unicode="&#xd1;" horiz-adv-x="1525" 
d="M1497 1528l-8 -82q-70 -1 -98.5 -20.5t-28.5 -59.5v-1366h-158v100l-850 1065v-923q0 -296 -254 -623l-43 27q131 287 131 573v1049q0 129 -139 153l6 62l357 78l792 -979v761q0 51 -37.5 77t-107.5 26l8 82h430zM1090 1962l90 -88q-37 -136 -93 -193t-141 -57
q-54 0 -110 22t-95.5 49t-89.5 54.5t-90 34.5q-40 -28 -68 -65t-59 -97l-90 88q37 135 93 192.5t138 57.5q54 0 112.5 -22.5t100 -50.5t90.5 -54.5t85 -32.5q80 51 127 162z" />
    <glyph glyph-name="Ograve" unicode="&#xd2;" horiz-adv-x="1542" 
d="M373 1165q-82 -131 -82 -264q0 -224 184 -422q114 -121 266 -194.5t281 -73.5q102 0 178 49q68 133 68 299q0 119 -43 239t-115 214q-85 112 -202 177.5t-249 65.5q-73 0 -139 -21.5t-147 -68.5zM821 1565q290 -150 445 -348q182 -231 182 -504q0 -145 -55.5 -272
t-151.5 -218.5t-220 -154.5t-267 -91q-284 107 -457 285q-203 209 -203 479q0 103 31 194.5t87.5 170.5t148.5 157.5t201.5 149.5t258.5 152zM702 2062l312 -389l-115 -78l-393 322z" />
    <glyph glyph-name="Oacute" unicode="&#xd3;" horiz-adv-x="1542" 
d="M373 1165q-82 -131 -82 -264q0 -224 184 -422q114 -121 266 -194.5t281 -73.5q102 0 178 49q68 133 68 299q0 119 -43 239t-115 214q-85 112 -202 177.5t-249 65.5q-73 0 -139 -21.5t-147 -68.5zM821 1565q290 -150 445 -348q182 -231 182 -504q0 -145 -55.5 -272
t-151.5 -218.5t-220 -154.5t-267 -91q-284 107 -457 285q-203 209 -203 479q0 103 31 194.5t87.5 170.5t148.5 157.5t201.5 149.5t258.5 152zM967 2062l147 -178l-375 -289l-90 88z" />
    <glyph glyph-name="Ocircumflex" unicode="&#xd4;" horiz-adv-x="1542" 
d="M373 1165q-82 -131 -82 -264q0 -224 184 -422q114 -121 266 -194.5t281 -73.5q102 0 178 49q68 133 68 299q0 119 -43 239t-115 214q-85 112 -202 177.5t-249 65.5q-73 0 -139 -21.5t-147 -68.5zM821 1565q290 -150 445 -348q182 -231 182 -504q0 -145 -55.5 -272
t-151.5 -218.5t-220 -154.5t-267 -91q-284 107 -457 285q-203 209 -203 479q0 103 31 194.5t87.5 170.5t148.5 157.5t201.5 149.5t258.5 152zM821 2062l312 -389l-115 -78l-207 189l-217 -189l-90 88z" />
    <glyph glyph-name="Otilde" unicode="&#xd5;" horiz-adv-x="1542" 
d="M373 1165q-82 -131 -82 -264q0 -224 184 -422q114 -121 266 -194.5t281 -73.5q102 0 178 49q68 133 68 299q0 119 -43 239t-115 214q-85 112 -202 177.5t-249 65.5q-73 0 -139 -21.5t-147 -68.5zM821 1565q290 -150 445 -348q182 -231 182 -504q0 -145 -55.5 -272
t-151.5 -218.5t-220 -154.5t-267 -91q-284 107 -457 285q-203 209 -203 479q0 103 31 194.5t87.5 170.5t148.5 157.5t201.5 149.5t258.5 152zM1145 1962l90 -88q-37 -136 -93 -193t-141 -57q-54 0 -110 22t-95.5 49t-89.5 54.5t-90 34.5q-40 -28 -68 -65t-59 -97l-90 88
q37 135 93 192.5t139 57.5q54 0 112 -22.5t99.5 -50.5t90.5 -54.5t85 -32.5q80 51 127 162z" />
    <glyph glyph-name="Odieresis" unicode="&#xd6;" horiz-adv-x="1542" 
d="M373 1165q-82 -131 -82 -264q0 -224 184 -422q114 -121 266 -194.5t281 -73.5q102 0 178 49q68 133 68 299q0 119 -43 239t-115 214q-85 112 -202 177.5t-249 65.5q-73 0 -139 -21.5t-147 -68.5zM821 1565q290 -150 445 -348q182 -231 182 -504q0 -145 -55.5 -272
t-151.5 -218.5t-220 -154.5t-267 -91q-284 107 -457 285q-203 209 -203 479q0 103 31 194.5t87.5 170.5t148.5 157.5t201.5 149.5t258.5 152zM1157 2034v-250l-268 -121v254zM748 1993v-250l-269 -121v254z" />
    <glyph glyph-name="multiply" unicode="&#xd7;" horiz-adv-x="1015" 
d="M784 1171l101 -149l-254 -252l282 -283l-149 -100l-258 258l-287 -287l-100 150l262 262l-281 283l150 100l256 -258z" />
    <glyph glyph-name="Oslash" unicode="&#xd8;" horiz-adv-x="1556" 
d="M1401 1602l-191 -310q40 -40 68 -75q182 -231 182 -504q0 -145 -55.5 -272t-151.5 -218.5t-220 -154.5t-267 -91q-148 56 -281 142l-120 -197l-150 33l156 248q-30 24 -62 59q-203 209 -203 479q0 128 45.5 237.5t142 209t224.5 187.5t316 190q147 -77 276 -181l158 250z
M1122 1012l-49 57l-442 -715q98 -68 204.5 -105.5t198.5 -37.5q102 0 178 49q68 133 68 299q0 119 -43 239t-115 214zM385 1165q-82 -131 -82 -264q0 -224 184 -422q16 -19 35 -35l447 715q-140 96 -297 96q-74 0 -140.5 -22t-146.5 -68z" />
    <glyph glyph-name="Ugrave" unicode="&#xd9;" horiz-adv-x="1533" 
d="M1487 1528l-8 -74q-125 -6 -125 -151v-951q0 -129 135 -159l-2 -58l-225 -166q-72 29 -129.5 91.5t-65.5 142.5q-42 -99 -139 -156t-219 -57q-80 0 -161 24.5t-159 79t-137.5 132t-96 193t-36.5 253.5q0 199 73.5 391.5t206.5 363.5h-270l8 101h654l-9 -84
q-82 -21 -147 -70.5t-105 -111.5t-66 -140t-36 -152t-10 -151q0 -261 113 -422t288 -161q117 0 180.5 73t63.5 187v829q0 64 -41.5 96.5t-103.5 32.5l8 74h561zM729 2062l311 -389l-114 -78l-394 322z" />
    <glyph glyph-name="Uacute" unicode="&#xda;" horiz-adv-x="1533" 
d="M1487 1528l-8 -74q-125 -6 -125 -151v-951q0 -129 135 -159l-2 -58l-225 -166q-72 29 -129.5 91.5t-65.5 142.5q-42 -99 -139 -156t-219 -57q-80 0 -161 24.5t-159 79t-137.5 132t-96 193t-36.5 253.5q0 199 73.5 391.5t206.5 363.5h-270l8 101h654l-9 -84
q-82 -21 -147 -70.5t-105 -111.5t-66 -140t-36 -152t-10 -151q0 -261 113 -422t288 -161q117 0 180.5 73t63.5 187v829q0 64 -41.5 96.5t-103.5 32.5l8 74h561zM995 2062l148 -178l-375 -289l-90 88z" />
    <glyph glyph-name="Ucircumflex" unicode="&#xdb;" horiz-adv-x="1533" 
d="M1487 1528l-8 -74q-125 -6 -125 -151v-951q0 -129 135 -159l-2 -58l-225 -166q-72 29 -129.5 91.5t-65.5 142.5q-42 -99 -139 -156t-219 -57q-80 0 -161 24.5t-159 79t-137.5 132t-96 193t-36.5 253.5q0 199 73.5 391.5t206.5 363.5h-270l8 101h654l-9 -84
q-82 -21 -147 -70.5t-105 -111.5t-66 -140t-36 -152t-10 -151q0 -261 113 -422t288 -161q117 0 180.5 73t63.5 187v829q0 64 -41.5 96.5t-103.5 32.5l8 74h561zM852 2062l311 -389l-114 -78l-207 189l-217 -189l-90 88z" />
    <glyph glyph-name="Udieresis" unicode="&#xdc;" horiz-adv-x="1533" 
d="M1487 1528l-8 -74q-125 -6 -125 -151v-951q0 -129 135 -159l-2 -58l-225 -166q-72 29 -129.5 91.5t-65.5 142.5q-42 -99 -139 -156t-219 -57q-80 0 -161 24.5t-159 79t-137.5 132t-96 193t-36.5 253.5q0 199 73.5 391.5t206.5 363.5h-270l8 101h654l-9 -84
q-82 -21 -147 -70.5t-105 -111.5t-66 -140t-36 -152t-10 -151q0 -261 113 -422t288 -161q117 0 180.5 73t63.5 187v829q0 64 -41.5 96.5t-103.5 32.5l8 74h561zM1192 2034v-250l-268 -121v254zM782 1993v-250l-268 -121v254z" />
    <glyph glyph-name="Yacute" unicode="&#xdd;" horiz-adv-x="1488" 
d="M664 1243l-9 41q171 99 242 242q27 8 76 8q92 0 171.5 -33t141 -96t96.5 -164t35 -229q0 -255 -143.5 -478.5t-442.5 -467.5q-20 -36 -20 -89q0 -58 31.5 -92.5t93.5 -34.5q54 0 117.5 31.5t156.5 106.5l58 -35q-86 -156 -208.5 -243t-242.5 -87q-61 0 -108 23
t-73.5 59.5t-40 77.5t-13.5 82q0 100 84 178q-164 174 -254 311t-124.5 248.5t-43.5 255.5q-4 65 -6.5 99t-8 87.5t-12 83.5t-18.5 73.5t-28 72.5t-38.5 64.5t-52.5 66t-68 61.5v62h328q39 -39 67.5 -76.5t49 -84t33 -83.5t23 -102.5t16 -110.5t14.5 -135
q22 -216 94.5 -360.5t249.5 -321.5q163 148 237 269.5t74 271.5q0 92 -27 176t-76 149.5t-125.5 104.5t-168.5 39q-69 0 -137 -21zM891 2062l147 -178l-374 -289l-91 88z" />
    <glyph glyph-name="Thorn" unicode="&#xde;" horiz-adv-x="1632" 
d="M897 1528v-86q-223 0 -223 -137v-234q103 88 377 254q238 -132 358 -276.5t162 -335.5q-24 -102 -89 -190t-153.5 -149t-185.5 -102t-195 -59q-159 57 -274 160v-125q0 -81 69.5 -134t200.5 -53q129 0 129 -90q0 -82 -117 -82q-63 0 -99.5 26t-55.5 85h-645v84
q223 0 223 141v1055q0 80 -69.5 133t-198.5 53q-131 0 -131 90q0 82 118 82q60 0 97.5 -24.5t56.5 -85.5h645zM1329 461q0 152 -63 273t-170 194q-133 90 -285 90q-56 0 -102 -14q-27 -58 -27 -125q0 -86 49 -170t124.5 -144.5t168 -97.5t176.5 -37q76 0 129 31z" />
    <glyph glyph-name="germandbls" unicode="&#xdf;" horiz-adv-x="1228" 
d="M406 1087v-1087h-269v852h-129l8 45q109 62 109 133q0 42 -30 66.5t-87 27.5l8 37q156 150 295 242.5t285 138.5q140 -255 328 -305q0 -112 -117 -229q159 -23 253.5 -137t94.5 -273q0 -73 -20 -152t-66 -161.5t-111.5 -148.5t-165.5 -111.5t-219 -53.5
q-4 68 -18.5 166.5t-32.5 151.5q165 -51 322 -51q62 0 102 12q35 93 35 174q0 164 -126 261t-333 97l-43 49q179 128 211 234q-18 90 -92.5 152.5t-153.5 62.5q-36 0 -77 -14q39 -80 39 -179z" />
    <glyph glyph-name="agrave" unicode="&#xe0;" horiz-adv-x="1060" 
d="M612 543l-123 -56q-65 -29 -98 -83.5t-33 -112.5q0 -112 127 -127q67 16 127 53v326zM883 809v-530q0 -134 129 -134l-8 -49l-183 -114l-207 153q-138 -106 -282 -178q-111 23 -173.5 91t-62.5 181q0 97 47.5 167.5t163.5 115.5l305 117v43q0 106 -100 151
q-135 -85 -338 -123q-11 34 -51 74q258 103 387 281q201 -163 373 -246zM391 1569l311 -389l-114 -78l-393 321z" />
    <glyph glyph-name="aacute" unicode="&#xe1;" horiz-adv-x="1060" 
d="M612 543l-123 -56q-65 -29 -98 -83.5t-33 -112.5q0 -112 127 -127q67 16 127 53v326zM883 809v-530q0 -134 129 -134l-8 -49l-183 -114l-207 153q-138 -106 -282 -178q-111 23 -173.5 91t-62.5 181q0 97 47.5 167.5t163.5 115.5l305 117v43q0 106 -100 151
q-135 -85 -338 -123q-11 34 -51 74q258 103 387 281q201 -163 373 -246zM657 1569l148 -178l-375 -289l-90 88z" />
    <glyph glyph-name="acircumflex" unicode="&#xe2;" horiz-adv-x="1060" 
d="M612 543l-123 -56q-65 -29 -98 -83.5t-33 -112.5q0 -112 127 -127q67 16 127 53v326zM883 809v-530q0 -134 129 -134l-8 -49l-183 -114l-207 153q-138 -106 -282 -178q-111 23 -173.5 91t-62.5 181q0 97 47.5 167.5t163.5 115.5l305 117v43q0 106 -100 151
q-135 -85 -338 -123q-11 34 -51 74q258 103 387 281q201 -163 373 -246zM514 1569l311 -389l-114 -78l-207 188l-217 -188l-90 88z" />
    <glyph glyph-name="atilde" unicode="&#xe3;" horiz-adv-x="1060" 
d="M612 543l-123 -56q-65 -29 -98 -83.5t-33 -112.5q0 -112 127 -127q67 16 127 53v326zM883 809v-530q0 -134 129 -134l-8 -49l-183 -114l-207 153q-138 -106 -282 -178q-111 23 -173.5 91t-62.5 181q0 97 47.5 167.5t163.5 115.5l305 117v43q0 106 -100 151
q-135 -85 -338 -123q-11 34 -51 74q258 103 387 281q201 -163 373 -246zM840 1468l90 -88q-37 -136 -93 -193t-141 -57q-54 0 -110 22t-95.5 49t-89.5 54.5t-90 34.5q-40 -28 -68 -65t-59 -97l-90 89q37 135 93 192t139 57q54 0 112 -22.5t99.5 -50t90.5 -54t85 -32.5
q81 51 127 161z" />
    <glyph glyph-name="adieresis" unicode="&#xe4;" horiz-adv-x="1060" 
d="M612 543l-123 -56q-65 -29 -98 -83.5t-33 -112.5q0 -112 127 -127q67 16 127 53v326zM883 809v-530q0 -134 129 -134l-8 -49l-183 -114l-207 153q-138 -106 -282 -178q-111 23 -173.5 91t-62.5 181q0 97 47.5 167.5t163.5 115.5l305 117v43q0 106 -100 151
q-135 -85 -338 -123q-11 34 -51 74q258 103 387 281q201 -163 373 -246zM850 1540v-250l-268 -121v254zM440 1499v-250l-268 -121v254z" />
    <glyph glyph-name="aring" unicode="&#xe5;" horiz-adv-x="1060" 
d="M612 543l-123 -56q-65 -29 -98 -83.5t-33 -112.5q0 -112 127 -127q67 16 127 53v326zM883 809v-530q0 -134 129 -134l-8 -49l-183 -114l-207 153q-138 -106 -282 -178q-111 23 -173.5 91t-62.5 181q0 97 47.5 167.5t163.5 115.5l305 117v43q0 106 -100 151
q-135 -85 -338 -123q-11 34 -51 74q258 103 387 281q201 -163 373 -246zM403 1413q-12 -21 -12 -45q0 -66 67 -117t130 -51q25 0 49 12q4 10 4 33q0 71 -59 122.5t-133 51.5q-25 0 -46 -6zM528 1569q228 -113 228 -262q0 -87 -71 -146.5t-181 -77.5q-108 32 -174 92t-66 140
q0 76 63 132t201 122z" />
    <glyph glyph-name="ae" unicode="&#xe6;" horiz-adv-x="1396" 
d="M1311 782l-447 -446q113 -127 266 -127q99 0 185 45l26 -12q-138 -235 -346 -269q-89 38 -167.5 101.5t-129.5 144.5q-78 -75 -176.5 -145.5t-189.5 -116.5q-236 48 -236 274q0 152 135 252l396 152q0 35 8 67q-14 33 -49 68t-74 53q-135 -85 -338 -123q-11 34 -51 74
q258 103 387 281q125 -105 278 -197q84 80 244 201q167 -104 279 -277zM623 555l-134 -68q-131 -88 -131 -198t127 -125q48 17 85.5 37.5t97.5 66.5q-27 67 -38.5 109.5t-11.5 97.5q0 13 5 80zM817 403l236 236q-40 163 -215 178q-56 -139 -56 -248q0 -82 35 -166z" />
    <glyph glyph-name="ccedilla" unicode="&#xe7;" horiz-adv-x="843" 
d="M750 838l-175 -158q-105 97 -292 143q-21 -111 -21 -192q0 -103 30 -183t78.5 -125.5t102.5 -68.5t109 -23q100 0 192 50l39 -39q-76 -149 -260 -230q-4 -158 -73 -271t-161 -136l-47 39q78 101 84 379q-127 79 -204.5 195.5t-77.5 270.5q0 70 19 133t50 114.5t86.5 108
t112 103t143.5 111.5q203 -120 265 -221z" />
    <glyph glyph-name="ccedilla" unicode="&#x4ab;" horiz-adv-x="843" 
d="M750 838l-175 -158q-105 97 -292 143q-21 -111 -21 -192q0 -103 30 -183t78.5 -125.5t102.5 -68.5t109 -23q100 0 192 50l39 -39q-76 -149 -260 -230q-4 -158 -73 -271t-161 -136l-47 39q78 101 84 379q-127 79 -204.5 195.5t-77.5 270.5q0 70 19 133t50 114.5t86.5 108
t112 103t143.5 111.5q203 -120 265 -221z" />
    <glyph glyph-name="egrave" unicode="&#xe8;" horiz-adv-x="872" 
d="M782 782l-446 -446q116 -127 266 -127q93 0 182 47l33 -20q-134 -227 -350 -263q-173 52 -283 190t-110 320q0 53 11.5 101.5t27.5 87t49.5 82.5t61.5 74.5t82 75.5t91 74t107 81q165 -103 278 -277zM289 403l237 236q-43 163 -217 178q-55 -137 -55 -248q0 -82 35 -166z
M362 1569l312 -389l-115 -78l-393 321z" />
    <glyph glyph-name="egrave" unicode="&#x450;" horiz-adv-x="872" 
d="M782 782l-446 -446q116 -127 266 -127q93 0 182 47l33 -20q-134 -227 -350 -263q-173 52 -283 190t-110 320q0 53 11.5 101.5t27.5 87t49.5 82.5t61.5 74.5t82 75.5t91 74t107 81q165 -103 278 -277zM289 403l237 236q-43 163 -217 178q-55 -137 -55 -248q0 -82 35 -166z
M362 1569l312 -389l-115 -78l-393 321z" />
    <glyph glyph-name="eacute" unicode="&#xe9;" horiz-adv-x="872" 
d="M782 782l-446 -446q116 -127 266 -127q93 0 182 47l33 -20q-134 -227 -350 -263q-173 52 -283 190t-110 320q0 53 11.5 101.5t27.5 87t49.5 82.5t61.5 74.5t82 75.5t91 74t107 81q165 -103 278 -277zM289 403l237 236q-43 163 -217 178q-55 -137 -55 -248q0 -82 35 -166z
M631 1569l147 -178l-375 -289l-90 88z" />
    <glyph glyph-name="ecircumflex" unicode="&#xea;" horiz-adv-x="872" 
d="M782 782l-446 -446q116 -127 266 -127q93 0 182 47l33 -20q-134 -227 -350 -263q-173 52 -283 190t-110 320q0 53 11.5 101.5t27.5 87t49.5 82.5t61.5 74.5t82 75.5t91 74t107 81q165 -103 278 -277zM289 403l237 236q-43 163 -217 178q-55 -137 -55 -248q0 -82 35 -166z
M485 1569l312 -389l-115 -78l-207 188l-217 -188l-90 88z" />
    <glyph glyph-name="edieresis" unicode="&#xeb;" horiz-adv-x="872" 
d="M782 782l-446 -446q116 -127 266 -127q93 0 182 47l33 -20q-134 -227 -350 -263q-173 52 -283 190t-110 320q0 53 11.5 101.5t27.5 87t49.5 82.5t61.5 74.5t82 75.5t91 74t107 81q165 -103 278 -277zM289 403l237 236q-43 163 -217 178q-55 -137 -55 -248q0 -82 35 -166z
M821 1540v-250l-268 -121v254zM412 1499v-250l-269 -121v254z" />
    <glyph glyph-name="edieresis" unicode="&#x451;" horiz-adv-x="872" 
d="M782 782l-446 -446q116 -127 266 -127q93 0 182 47l33 -20q-134 -227 -350 -263q-173 52 -283 190t-110 320q0 53 11.5 101.5t27.5 87t49.5 82.5t61.5 74.5t82 75.5t91 74t107 81q165 -103 278 -277zM289 403l237 236q-43 163 -217 178q-55 -137 -55 -248q0 -82 35 -166z
M821 1540v-250l-268 -121v254zM412 1499v-250l-269 -121v254z" />
    <glyph glyph-name="igrave" unicode="&#xec;" horiz-adv-x="634" 
d="M451 848v-569q0 -66 34 -100t97 -34l-9 -49l-182 -114l-209 155v557q0 120 -104 129l8 37l193 195q76 -15 124 -72.5t48 -134.5zM195 1569l311 -389l-115 -78l-393 321z" />
    <glyph glyph-name="iacute" unicode="&#xed;" horiz-adv-x="604" 
d="M420 848v-569q0 -66 34 -100t97 -34l-8 -49l-183 -114l-208 155v557q0 120 -105 129l8 37l193 195q76 -15 124 -72.5t48 -134.5zM436 1569l148 -178l-375 -289l-90 88z" />
    <glyph glyph-name="icircumflex" unicode="&#xee;" horiz-adv-x="667" 
d="M483 848v-569q0 -66 34 -100t97 -34l-8 -49l-182 -114l-209 155v557q0 120 -104 129l8 37l192 195q76 -15 124 -72.5t48 -134.5zM317 1569l312 -389l-115 -78l-207 188l-217 -188l-90 88z" />
    <glyph glyph-name="uni0457" unicode="&#xef;" horiz-adv-x="677" 
d="M475 848v-569q0 -66 34 -100t97 -34l-8 -49l-182 -114l-209 155v557q0 120 -105 129l9 37l192 195q76 -15 124 -72.5t48 -134.5zM678 1540v-250l-268 -121v254zM268 1499v-250l-268 -121v254z" />
    <glyph glyph-name="uni0457" unicode="&#x457;" horiz-adv-x="677" 
d="M475 848v-569q0 -66 34 -100t97 -34l-8 -49l-182 -114l-209 155v557q0 120 -105 129l9 37l192 195q76 -15 124 -72.5t48 -134.5zM678 1540v-250l-268 -121v254zM268 1499v-250l-268 -121v254z" />
    <glyph glyph-name="uni0457" unicode="&#x3ca;" horiz-adv-x="677" 
d="M475 848v-569q0 -66 34 -100t97 -34l-8 -49l-182 -114l-209 155v557q0 120 -105 129l9 37l192 195q76 -15 124 -72.5t48 -134.5zM678 1540v-250l-268 -121v254zM268 1499v-250l-268 -121v254z" />
    <glyph glyph-name="eth" unicode="&#xf0;" horiz-adv-x="1050" 
d="M965 1446l-177 -107q166 -209 166 -561q0 -159 -34.5 -293t-88.5 -221.5t-124 -152t-137 -96t-132 -42.5q-166 67 -265 209.5t-99 311.5q0 181 113.5 325t295.5 217q58 -21 138 -92t124 -145q0 252 -106 448l-211 -127l-80 78l232 139q-53 70 -109.5 111t-87.5 45l35 61
q166 -22 295 -137l174 107zM344 807q-35 -112 -35 -217q0 -310 246 -455q56 48 97.5 164t41.5 258q-15 136 -81 196t-197 60q-38 0 -72 -6z" />
    <glyph glyph-name="ntilde" unicode="&#xf1;" horiz-adv-x="1116" 
d="M420 752v-752h-268v686q0 119 -105 129l8 37l221 195q127 -37 144 -138q191 40 321 138q157 -41 225 -154t68 -320q0 -221 -69 -573h-344q165 395 165 584q0 207 -227 207q-49 0 -75 -8t-64 -31zM885 1468l90 -88q-37 -136 -93 -193t-141 -57q-54 0 -110 22t-95.5 49
t-89.5 54.5t-90 34.5q-40 -28 -68 -65t-59 -97l-90 89q37 135 93 192t139 57q54 0 112 -22.5t99.5 -50t90.5 -54t85 -32.5q81 51 127 161z" />
    <glyph glyph-name="ograve" unicode="&#xf2;" 
d="M279 764q-27 -58 -27 -125q0 -92 46 -179t115 -147t148 -96.5t146 -36.5q54 0 114 31q13 44 13 90q0 96 -39 185t-102.5 152.5t-146 101.5t-167.5 38q-54 0 -100 -14zM563 1059q422 -249 422 -588q0 -99 -37 -184.5t-101 -148t-148 -104.5t-181 -61q-201 73 -322.5 205.5
t-121.5 310.5q0 89 31.5 165t100 145.5t150 127.5t207.5 132zM424 1569l311 -389l-114 -78l-394 321z" />
    <glyph glyph-name="oacute" unicode="&#xf3;" 
d="M279 764q-27 -58 -27 -125q0 -92 46 -179t115 -147t148 -96.5t146 -36.5q54 0 114 31q13 44 13 90q0 96 -39 185t-102.5 152.5t-146 101.5t-167.5 38q-54 0 -100 -14zM563 1059q422 -249 422 -588q0 -99 -37 -184.5t-101 -148t-148 -104.5t-181 -61q-201 73 -322.5 205.5
t-121.5 310.5q0 89 31.5 165t100 145.5t150 127.5t207.5 132zM690 1569l148 -178l-375 -289l-90 88z" />
    <glyph glyph-name="ocircumflex" unicode="&#xf4;" 
d="M279 764q-27 -58 -27 -125q0 -92 46 -179t115 -147t148 -96.5t146 -36.5q54 0 114 31q13 44 13 90q0 96 -39 185t-102.5 152.5t-146 101.5t-167.5 38q-54 0 -100 -14zM563 1059q422 -249 422 -588q0 -99 -37 -184.5t-101 -148t-148 -104.5t-181 -61q-201 73 -322.5 205.5
t-121.5 310.5q0 89 31.5 165t100 145.5t150 127.5t207.5 132zM547 1569l311 -389l-115 -78l-206 188l-218 -188l-90 88z" />
    <glyph glyph-name="otilde" unicode="&#xf5;" 
d="M279 764q-27 -58 -27 -125q0 -92 46 -179t115 -147t148 -96.5t146 -36.5q54 0 114 31q13 44 13 90q0 96 -39 185t-102.5 152.5t-146 101.5t-167.5 38q-54 0 -100 -14zM563 1059q422 -249 422 -588q0 -99 -37 -184.5t-101 -148t-148 -104.5t-181 -61q-201 73 -322.5 205.5
t-121.5 310.5q0 89 31.5 165t100 145.5t150 127.5t207.5 132zM870 1468l91 -88q-37 -136 -93 -193t-141 -57q-54 0 -110 22t-95.5 49t-89.5 54.5t-90 34.5q-40 -28 -68 -65t-59 -97l-90 89q37 135 92.5 192t138.5 57q54 0 112 -22.5t99.5 -50t90.5 -54t85 -32.5
q81 51 127 161z" />
    <glyph glyph-name="odieresis" unicode="&#xf6;" 
d="M279 764q-27 -58 -27 -125q0 -92 46 -179t115 -147t148 -96.5t146 -36.5q54 0 114 31q13 44 13 90q0 96 -39 185t-102.5 152.5t-146 101.5t-167.5 38q-54 0 -100 -14zM563 1059q422 -249 422 -588q0 -99 -37 -184.5t-101 -148t-148 -104.5t-181 -61q-201 73 -322.5 205.5
t-121.5 310.5q0 89 31.5 165t100 145.5t150 127.5t207.5 132zM883 1540v-250l-269 -121v254zM473 1499v-250l-268 -121v254z" />
    <glyph glyph-name="divide" unicode="&#xf7;" horiz-adv-x="1015" 
d="M1001 858l-45 -178h-944l45 178h944zM522 1366l158 -172l-178 -211l-158 186zM522 557l158 -172l-178 -211l-158 186z" />
    <glyph glyph-name="oslash" unicode="&#xf8;" horiz-adv-x="1056" 
d="M979 1016l-141 -187q141 -167 141 -358q0 -99 -37 -184.5t-101 -148t-148 -104.5t-181 -61q-126 45 -231 121l-82 -108l-111 20l119 154q-139 139 -139 329q0 89 31.5 165t100 145.5t150 127.5t207.5 132q131 -79 217 -162l105 137zM827 301q0 188 -137 332l-260 -342
q64 -52 136 -81.5t134 -29.5q55 0 115 31q12 40 12 90zM272 764q-26 -56 -26 -125q0 -150 114 -281l258 336q-117 84 -245 84q-55 0 -101 -14z" />
    <glyph glyph-name="ugrave" unicode="&#xf9;" horiz-adv-x="1155" 
d="M997 1034v-686q0 -120 105 -129l-8 -37l-224 -194q-122 34 -137 172q-181 -52 -350 -172q-317 75 -317 440q0 102 30.5 240t30.5 194q0 95 -41 172h287q41 -53 41 -139q0 -72 -47.5 -250t-47.5 -235q0 -87 61.5 -129.5t158.5 -42.5q109 0 188 61v735h270zM459 1569
l311 -389l-115 -78l-393 321z" />
    <glyph glyph-name="uacute" unicode="&#xfa;" horiz-adv-x="1155" 
d="M997 1034v-686q0 -120 105 -129l-8 -37l-224 -194q-122 34 -137 172q-181 -52 -350 -172q-317 75 -317 440q0 102 30.5 240t30.5 194q0 95 -41 172h287q41 -53 41 -139q0 -72 -47.5 -250t-47.5 -235q0 -87 61.5 -129.5t158.5 -42.5q109 0 188 61v735h270zM723 1569
l147 -178l-374 -289l-90 88z" />
    <glyph glyph-name="ucircumflex" unicode="&#xfb;" horiz-adv-x="1155" 
d="M997 1034v-686q0 -120 105 -129l-8 -37l-224 -194q-122 34 -137 172q-181 -52 -350 -172q-317 75 -317 440q0 102 30.5 240t30.5 194q0 95 -41 172h287q41 -53 41 -139q0 -72 -47.5 -250t-47.5 -235q0 -87 61.5 -129.5t158.5 -42.5q109 0 188 61v735h270zM580 1569
l311 -389l-115 -78l-207 188l-217 -188l-90 88z" />
    <glyph glyph-name="udieresis" unicode="&#xfc;" horiz-adv-x="1155" 
d="M997 1034v-686q0 -120 105 -129l-8 -37l-224 -194q-122 34 -137 172q-181 -52 -350 -172q-317 75 -317 440q0 102 30.5 240t30.5 194q0 95 -41 172h287q41 -53 41 -139q0 -72 -47.5 -250t-47.5 -235q0 -87 61.5 -129.5t158.5 -42.5q109 0 188 61v735h270zM915 1540v-250
l-268 -121v254zM506 1499v-250l-268 -121v254z" />
    <glyph glyph-name="yacute" unicode="&#xfd;" horiz-adv-x="1069" 
d="M475 846l-16 45q116 58 170 166q24 6 57 6q59 0 111 -21t95 -62.5t68 -113.5t25 -166q0 -44 -5 -84.5t-18 -80t-25 -72t-37.5 -70.5t-43.5 -64.5t-55 -65.5t-59 -62.5t-69 -65.5t-72.5 -64.5t-80.5 -70.5q-129 -113 -143 -385h-287q43 149 142 259t239 159
q-156 173 -217.5 297.5t-75.5 273.5q-8 77 -12.5 114t-13.5 79t-16.5 58.5t-26 38.5t-38 34.5t-55.5 32.5l9 73h276q74 -74 96 -146t37 -241q7 -77 16 -125.5t30.5 -104.5t61 -103.5t101.5 -96.5q80 72 121 163t41 179q0 118 -66.5 210.5t-165.5 92.5q-32 0 -98 -16z
M680 1569l147 -178l-374 -289l-91 88z" />
    <glyph glyph-name="thorn" unicode="&#xfe;" horiz-adv-x="1101" 
d="M420 829v-352q16 -67 42 -118.5t55.5 -82.5t65 -51t68 -27.5t66.5 -7.5q10 0 45 5q33 98 33 208q0 71 -15.5 134t-35.5 104t-58 85.5t-63 67t-70 60.5q-68 -22 -133 -25zM420 1542v-616q130 33 248 125q360 -143 360 -516q0 -49 -7 -93.5t-17 -81t-30.5 -73t-38 -63
t-50 -58t-55 -52t-64.5 -51t-68 -48.5t-75 -50q-110 35 -203 199v-549h-268v1567q0 120 -105 129l8 37z" />
    <glyph glyph-name="ydieresis" unicode="&#xff;" horiz-adv-x="1069" 
d="M475 846l-16 45q116 58 170 166q24 6 57 6q59 0 111 -21t95 -62.5t68 -113.5t25 -166q0 -44 -5 -84.5t-18 -80t-25 -72t-37.5 -70.5t-43.5 -64.5t-55 -65.5t-59 -62.5t-69 -65.5t-72.5 -64.5t-80.5 -70.5q-129 -113 -143 -385h-287q43 149 142 259t239 159
q-156 173 -217.5 297.5t-75.5 273.5q-8 77 -12.5 114t-13.5 79t-16.5 58.5t-26 38.5t-38 34.5t-55.5 32.5l9 73h276q74 -74 96 -146t37 -241q7 -77 16 -125.5t30.5 -104.5t61 -103.5t101.5 -96.5q80 72 121 163t41 179q0 118 -66.5 210.5t-165.5 92.5q-32 0 -98 -16z
M872 1540v-250l-268 -121v254zM463 1499v-250l-268 -121v254z" />
    <glyph glyph-name="Amacron" unicode="&#x100;" horiz-adv-x="1564" 
d="M831 1423h-163q0 -196 -39 -540h409l-43 391q-9 86 -43.5 117.5t-120.5 31.5zM1364 1528l-8 -90q-44 0 -67.5 -43.5t-14.5 -124.5l102 -951q24 -231 148 -231l-8 -88h-791l8 84q367 0 367 207q0 52 -15 170l-22 168h-488q-106 -385 -331 -654q-60 57 -252 228l41 43
q23 -13 43 -13q33 0 76 31t94 91t100.5 160.5t92.5 226.5t74.5 303.5t41.5 377.5h-401l20 105h1190zM1208 1944l-45 -179h-686l45 179h686z" />
    <glyph glyph-name="amacron" unicode="&#x101;" horiz-adv-x="1060" 
d="M612 543l-123 -56q-65 -29 -98 -83.5t-33 -112.5q0 -112 127 -127q67 16 127 53v326zM883 809v-530q0 -134 129 -134l-8 -49l-183 -114l-207 153q-138 -106 -282 -178q-111 23 -173.5 91t-62.5 181q0 97 47.5 167.5t163.5 115.5l305 117v43q0 106 -100 151
q-135 -85 -338 -123q-11 34 -51 74q258 103 387 281q201 -163 373 -246zM879 1450l-45 -178h-687l46 178h686z" />
    <glyph glyph-name="Abreve" unicode="&#x102;" horiz-adv-x="1564" 
d="M831 1423h-163q0 -196 -39 -540h409l-43 391q-9 86 -43.5 117.5t-120.5 31.5zM1364 1528l-8 -90q-44 0 -67.5 -43.5t-14.5 -124.5l102 -951q24 -231 148 -231l-8 -88h-791l8 84q367 0 367 207q0 52 -15 170l-22 168h-488q-106 -385 -331 -654q-60 57 -252 228l41 43
q23 -13 43 -13q33 0 76 31t94 91t100.5 160.5t92.5 226.5t74.5 303.5t41.5 377.5h-401l20 105h1190zM1034 2021h180q-12 -84 -39.5 -156.5t-71 -132t-111 -94t-150.5 -34.5t-149 34t-109 94t-70 131.5t-41 157.5h184q8 -76 35 -141t80.5 -117t126.5 -71q60 64 93.5 137
t41.5 192z" />
    <glyph glyph-name="abreve" unicode="&#x103;" horiz-adv-x="1060" 
d="M612 543l-123 -56q-65 -29 -98 -83.5t-33 -112.5q0 -112 127 -127q67 16 127 53v326zM883 809v-530q0 -134 129 -134l-8 -49l-183 -114l-207 153q-138 -106 -282 -178q-111 23 -173.5 91t-62.5 181q0 97 47.5 167.5t163.5 115.5l305 117v43q0 106 -100 151
q-135 -85 -338 -123q-11 34 -51 74q258 103 387 281q201 -163 373 -246zM702 1528h181q-12 -84 -39.5 -156.5t-71.5 -132.5t-111.5 -94.5t-150.5 -34.5t-149 34t-109 94.5t-70 132t-41 157.5h185q8 -77 35 -142t80 -117t126 -71q60 64 93.5 137.5t41.5 192.5z" />
    <glyph glyph-name="Aogonek" unicode="&#x104;" horiz-adv-x="1564" 
d="M1364 1528l-8 -90q-44 0 -67.5 -43.5t-14.5 -124.5l102 -951q24 -231 148 -231l-8 -88h-156q-106 -66 -156 -150q16 -4 53 -4q62 0 133 11.5t119 31.5l-16 -217q-37 -28 -127.5 -47.5t-181.5 -19.5q-67 19 -112.5 64.5t-49.5 119.5q97 142 256 211h-553l8 84
q367 0 367 207q0 52 -15 170l-22 168h-488q-106 -385 -331 -654q-60 57 -252 228l41 43q23 -13 43 -13q33 0 76 31t94 91t100.5 160.5t92.5 226.5t74.5 303.5t41.5 377.5h-401l20 105h1190zM831 1423h-163q0 -196 -39 -540h409l-43 391q-9 86 -43.5 117.5t-120.5 31.5z" />
    <glyph glyph-name="aogonek" unicode="&#x105;" horiz-adv-x="1060" 
d="M883 809v-530q0 -134 129 -134l-8 -49q-120 -77 -187 -127t-87.5 -71.5t-35.5 -47.5q16 -4 54 -4q146 0 251 43l-16 -217q-37 -28 -127.5 -47.5t-181.5 -19.5q-67 19 -112.5 64.5t-49.5 119.5q48 71 124.5 129.5t145.5 89.5l-168 127q-138 -106 -282 -178
q-111 23 -173.5 91t-62.5 181q0 97 47.5 167.5t163.5 115.5l305 117v43q0 106 -100 151q-135 -85 -338 -123q-11 34 -51 74q258 103 387 281q201 -163 373 -246zM612 543l-123 -56q-65 -29 -98 -83.5t-33 -112.5q0 -112 127 -127q67 16 127 53v326z" />
    <glyph glyph-name="Cacute" unicode="&#x106;" horiz-adv-x="1583" 
d="M1165 1098l-49 61q4 20 4 31q0 69 -74.5 124.5t-197.5 55.5q-195 0 -325 -145.5t-130 -390.5q0 -171 63.5 -316.5t188 -236.5t285.5 -91q297 0 524 318l68 -72q-59 -80 -110.5 -140.5t-122 -125t-140 -105.5t-158.5 -67.5t-184 -26.5q-148 0 -280.5 60.5t-227 163.5
t-150 246t-55.5 302q0 170 63 319t171 254.5t258 166.5t319 61q159 0 285 -54.5t242 -166.5q-152 -110 -267 -225zM938 2062l147 -178l-374 -289l-90 88z" />
    <glyph glyph-name="cacute" unicode="&#x107;" horiz-adv-x="843" 
d="M750 838l-175 -158q-105 97 -292 143q-21 -111 -21 -192q0 -103 30 -183t78.5 -125.5t102.5 -68.5t109 -23q100 0 192 50l39 -39q-45 -89 -138 -158.5t-226 -110.5q-75 35 -139 82t-119 110.5t-86 146.5t-31 177q0 70 19 133t50 114.5t86.5 108t112 103t143.5 111.5
q203 -120 265 -221zM633 1569l147 -178l-374 -289l-91 88z" />
    <glyph glyph-name="Cdotaccent" unicode="&#x10a;" horiz-adv-x="1583" 
d="M1165 1098l-49 61q4 20 4 31q0 69 -74.5 124.5t-197.5 55.5q-195 0 -325 -145.5t-130 -390.5q0 -171 63.5 -316.5t188 -236.5t285.5 -91q297 0 524 318l68 -72q-59 -80 -110.5 -140.5t-122 -125t-140 -105.5t-158.5 -67.5t-184 -26.5q-148 0 -280.5 60.5t-227 163.5
t-150 246t-55.5 302q0 170 63 319t171 254.5t258 166.5t319 61q159 0 285 -54.5t242 -166.5q-152 -110 -267 -225zM987 2013v-250l-268 -121v254z" />
    <glyph glyph-name="cdotaccent" unicode="&#x10b;" horiz-adv-x="843" 
d="M750 838l-175 -158q-105 97 -292 143q-21 -111 -21 -192q0 -103 30 -183t78.5 -125.5t102.5 -68.5t109 -23q100 0 192 50l39 -39q-45 -89 -138 -158.5t-226 -110.5q-75 35 -139 82t-119 110.5t-86 146.5t-31 177q0 70 19 133t50 114.5t86.5 108t112 103t143.5 111.5
q203 -120 265 -221zM621 1520v-250l-269 -121v254z" />
    <glyph glyph-name="Ccaron" unicode="&#x10c;" horiz-adv-x="1583" 
d="M1165 1098l-49 61q4 20 4 31q0 69 -74.5 124.5t-197.5 55.5q-195 0 -325 -145.5t-130 -390.5q0 -171 63.5 -316.5t188 -236.5t285.5 -91q297 0 524 318l68 -72q-59 -80 -110.5 -140.5t-122 -125t-140 -105.5t-158.5 -67.5t-184 -26.5q-148 0 -280.5 60.5t-227 163.5
t-150 246t-55.5 302q0 170 63 319t171 254.5t258 166.5t319 61q159 0 285 -54.5t242 -166.5q-152 -110 -267 -225zM1167 1974l-317 -379l-311 390l114 77l207 -188l217 188z" />
    <glyph glyph-name="ccaron" unicode="&#x10d;" horiz-adv-x="843" 
d="M750 838l-175 -158q-105 97 -292 143q-21 -111 -21 -192q0 -103 30 -183t78.5 -125.5t102.5 -68.5t109 -23q100 0 192 50l39 -39q-45 -89 -138 -158.5t-226 -110.5q-75 35 -139 82t-119 110.5t-86 146.5t-31 177q0 70 19 133t50 114.5t86.5 108t112 103t143.5 111.5
q203 -120 265 -221zM801 1481l-318 -379l-311 389l115 78l207 -189l217 189z" />
    <glyph glyph-name="Dcaron" unicode="&#x10e;" horiz-adv-x="1558" 
d="M494 1196l-2 -788q0 -252 186 -252q79 0 156 45.5t139.5 127t101.5 209t39 277.5q0 126 -28 230.5t-72 172t-100 114.5t-109.5 67t-102.5 20q-83 0 -144 -58.5t-64 -164.5zM41 1321l37 70q276 0 637 186q119 -27 236 -94t208.5 -154.5t165.5 -185.5t117.5 -193t54.5 -172
q-195 -609 -807 -809q-88 27 -199.5 47.5t-183.5 20.5q-107 0 -201 -70l-59 78q148 136 148 315v687q0 135 -154 274zM1032 1974l-317 -379l-312 390l115 77l207 -188l217 188z" />
    <glyph glyph-name="dcaron" unicode="&#x10f;" horiz-adv-x="1290" 
d="M682 195v350q-4 51 -22.5 100.5t-51 93t-85.5 70.5t-117 27q-26 0 -66 -7q-35 -122 -35 -219q0 -72 17 -135.5t39 -105.5t60.5 -84.5t63.5 -63.5t66 -51q65 22 131 25zM950 1542v-1263q0 -66 32.5 -100t92.5 -34v-49l-184 -114l-168 122q-160 -26 -289 -131
q-360 145 -360 514q0 45 5 86t17 78t23.5 67.5t34 61.5t39.5 53.5t49 50.5t51.5 45t59 44.5t61 42t65.5 43.5q63 -23 119.5 -74t83.5 -125v322q0 120 -102 129v37zM1182 1569l129 -180l-215 -351l-58 29l80 186l-86 117z" />
    <glyph glyph-name="dcroat" unicode="&#x111;" horiz-adv-x="1128" 
d="M950 1542v-311h178l-43 -129h-135v-823q0 -66 32.5 -100t92.5 -34v-49l-184 -114l-168 122q-160 -26 -289 -131q-360 145 -360 514q0 45 5 86t17 78t23.5 67.5t34 61.5t39.5 53.5t49 50.5t51.5 45t59 44.5t61 42t65.5 43.5q63 -23 119.5 -74t83.5 -125v242h-246l43 129
h197q-18 71 -96 80v37zM682 195v350q-4 51 -22.5 100.5t-51 93t-85.5 70.5t-117 27q-26 0 -66 -7q-35 -122 -35 -219q0 -72 17 -135.5t39 -105.5t60.5 -84.5t63.5 -63.5t66 -51q65 22 131 25z" />
    <glyph glyph-name="Emacron" unicode="&#x112;" horiz-adv-x="1581" 
d="M1165 1098l-49 61q4 20 4 31q0 69 -74.5 124.5t-197.5 55.5q-95 0 -179.5 -37.5t-149 -106t-102.5 -174t-38 -233.5l1028 127q-101 -149 -195 -371h-36q-9 97 -129 103l-658 31q23 -144 94 -260.5t188 -187.5t259 -71q297 0 524 318l68 -72q-59 -80 -110.5 -140.5
t-122 -125t-140 -105.5t-158.5 -67.5t-184 -26.5q-148 0 -280.5 60.5t-227 163.5t-150 246t-55.5 302q0 170 63 319t171 254.5t258 166.5t319 61q159 0 285 -54.5t242 -166.5q-152 -110 -267 -225zM1217 1944l-46 -179h-686l45 179h687z" />
    <glyph glyph-name="emacron" unicode="&#x113;" horiz-adv-x="872" 
d="M782 782l-446 -446q116 -127 266 -127q93 0 182 47l33 -20q-134 -227 -350 -263q-173 52 -283 190t-110 320q0 53 11.5 101.5t27.5 87t49.5 82.5t61.5 74.5t82 75.5t91 74t107 81q165 -103 278 -277zM289 403l237 236q-43 163 -217 178q-55 -137 -55 -248q0 -82 35 -166z
M846 1450l-45 -178h-686l45 178h686z" />
    <glyph glyph-name="Ebreve" unicode="&#x114;" horiz-adv-x="1581" 
d="M1165 1098l-49 61q4 20 4 31q0 69 -74.5 124.5t-197.5 55.5q-95 0 -179.5 -37.5t-149 -106t-102.5 -174t-38 -233.5l1028 127q-101 -149 -195 -371h-36q-9 97 -129 103l-658 31q23 -144 94 -260.5t188 -187.5t259 -71q297 0 524 318l68 -72q-59 -80 -110.5 -140.5
t-122 -125t-140 -105.5t-158.5 -67.5t-184 -26.5q-148 0 -280.5 60.5t-227 163.5t-150 246t-55.5 302q0 170 63 319t171 254.5t258 166.5t319 61q159 0 285 -54.5t242 -166.5q-152 -110 -267 -225zM1042 2021h181q-12 -84 -39.5 -156.5t-71.5 -132t-111.5 -94t-150.5 -34.5
t-149 34t-109 94t-70 131.5t-41 157.5h185q8 -76 35 -141t80 -117t126 -71q60 64 93.5 137t41.5 192z" />
    <glyph glyph-name="ebreve" unicode="&#x115;" horiz-adv-x="872" 
d="M782 782l-446 -446q116 -127 266 -127q93 0 182 47l33 -20q-134 -227 -350 -263q-173 52 -283 190t-110 320q0 53 11.5 101.5t27.5 87t49.5 82.5t61.5 74.5t82 75.5t91 74t107 81q165 -103 278 -277zM289 403l237 236q-43 163 -217 178q-55 -137 -55 -248q0 -82 35 -166z
M672 1528h180q-12 -84 -39.5 -156.5t-71.5 -132.5t-111.5 -94.5t-150.5 -34.5t-148.5 34t-108.5 94.5t-70 132t-41 157.5h184q8 -76 35 -141.5t80.5 -117.5t126.5 -71q60 64 93.5 137.5t41.5 192.5z" />
    <glyph glyph-name="Edotaccent" unicode="&#x116;" horiz-adv-x="1581" 
d="M1165 1098l-49 61q4 20 4 31q0 69 -74.5 124.5t-197.5 55.5q-95 0 -179.5 -37.5t-149 -106t-102.5 -174t-38 -233.5l1028 127q-101 -149 -195 -371h-36q-9 97 -129 103l-658 31q23 -144 94 -260.5t188 -187.5t259 -71q297 0 524 318l68 -72q-59 -80 -110.5 -140.5
t-122 -125t-140 -105.5t-158.5 -67.5t-184 -26.5q-148 0 -280.5 60.5t-227 163.5t-150 246t-55.5 302q0 170 63 319t171 254.5t258 166.5t319 61q159 0 285 -54.5t242 -166.5q-152 -110 -267 -225zM985 2013v-250l-268 -121v254z" />
    <glyph glyph-name="edotaccent" unicode="&#x117;" horiz-adv-x="872" 
d="M782 782l-446 -446q116 -127 266 -127q93 0 182 47l33 -20q-134 -227 -350 -263q-173 52 -283 190t-110 320q0 53 11.5 101.5t27.5 87t49.5 82.5t61.5 74.5t82 75.5t91 74t107 81q165 -103 278 -277zM289 403l237 236q-43 163 -217 178q-55 -137 -55 -248q0 -82 35 -166z
M616 1520v-250l-268 -121v254z" />
    <glyph glyph-name="Eogonek" unicode="&#x118;" horiz-adv-x="1581" 
d="M1165 1098l-49 61q4 20 4 31q0 69 -74.5 124.5t-197.5 55.5q-95 0 -179.5 -37.5t-149 -106t-102.5 -174t-38 -233.5l1028 127q-101 -149 -195 -371h-36q-9 97 -129 103l-658 31q23 -144 94 -260.5t188 -187.5t259 -71q297 0 524 318l68 -72q-56 -75 -104 -132t-113 -118
t-128 -102t-143 -71t-164 -38q-73 -52 -116 -125q16 -4 53 -4q62 0 133 11.5t119 31.5l-17 -217q-37 -28 -127.5 -47.5t-181.5 -19.5q-67 19 -112.5 64.5t-49.5 119.5q73 111 201 184q-190 9 -345.5 113t-244 277.5t-88.5 379.5q0 170 63 319t171 254.5t258 166.5t319 61
q159 0 285 -54.5t242 -166.5q-152 -110 -267 -225z" />
    <glyph glyph-name="eogonek" unicode="&#x119;" horiz-adv-x="872" 
d="M782 782l-446 -446q116 -127 266 -127q93 0 182 47l33 -20q-57 -95 -115.5 -143.5t-146.5 -94.5q-53 -29 -83.5 -57t-65.5 -91q16 -4 53 -4q62 0 133 11.5t119 31.5l-17 -217q-37 -28 -127.5 -47.5t-181.5 -19.5q-67 19 -112.5 64.5t-49.5 119.5q81 121 217 193
q-163 57 -264.5 191t-101.5 310q0 53 11.5 101.5t27.5 87t49.5 82.5t61.5 74.5t82 75.5t91 74t107 81q165 -103 278 -277zM289 403l237 236q-43 163 -217 178q-55 -137 -55 -248q0 -82 35 -166z" />
    <glyph glyph-name="Ecaron" unicode="&#x11a;" horiz-adv-x="1581" 
d="M1165 1098l-49 61q4 20 4 31q0 69 -74.5 124.5t-197.5 55.5q-95 0 -179.5 -37.5t-149 -106t-102.5 -174t-38 -233.5l1028 127q-101 -149 -195 -371h-36q-9 97 -129 103l-658 31q23 -144 94 -260.5t188 -187.5t259 -71q297 0 524 318l68 -72q-59 -80 -110.5 -140.5
t-122 -125t-140 -105.5t-158.5 -67.5t-184 -26.5q-148 0 -280.5 60.5t-227 163.5t-150 246t-55.5 302q0 170 63 319t171 254.5t258 166.5t319 61q159 0 285 -54.5t242 -166.5q-152 -110 -267 -225zM1165 1974l-317 -379l-311 390l114 77l207 -188l217 188z" />
    <glyph glyph-name="ecaron" unicode="&#x11b;" horiz-adv-x="872" 
d="M782 782l-446 -446q116 -127 266 -127q93 0 182 47l33 -20q-134 -227 -350 -263q-173 52 -283 190t-110 320q0 53 11.5 101.5t27.5 87t49.5 82.5t61.5 74.5t82 75.5t91 74t107 81q165 -103 278 -277zM289 403l237 236q-43 163 -217 178q-55 -137 -55 -248q0 -82 35 -166z
M797 1481l-318 -379l-311 389l115 78l206 -189l218 189z" />
    <glyph glyph-name="Gbreve" unicode="&#x11e;" horiz-adv-x="1687" 
d="M1393 651h-574q-140 0 -211 -71l-37 49l537 526q10 10 10 33q0 68 -73.5 125t-198.5 57q-95 0 -177 -37t-143 -105t-96 -171t-35 -228q0 -141 44 -262.5t116.5 -203t167.5 -127.5t197 -46q84 0 167 31.5t152 88t111.5 146t42.5 195.5zM1432 1323l-459 -432h487
q85 0 146 61l43 -51q-27 -71 -74 -92q-19 -165 -75 -304.5t-134 -236t-174 -165t-196.5 -100.5t-200.5 -32q-149 0 -281 65.5t-223 173.5t-144 250.5t-53 293.5q0 163 62.5 309.5t170 252t258.5 167t322 61.5q158 0 285.5 -54.5t239.5 -166.5zM1034 2021h180
q-12 -84 -39.5 -156.5t-71 -132t-111 -94t-150.5 -34.5t-149 34t-109 94t-70 131.5t-41 157.5h184q8 -76 35 -141t80.5 -117t126.5 -71q60 64 93.5 137t41.5 192z" />
    <glyph glyph-name="gbreve" unicode="&#x11f;" horiz-adv-x="1069" 
d="M707 276v154q0 53 -6 93.5t-28 88t-59.5 78t-107 51.5t-164.5 21q-38 0 -61 -2q-35 -78 -35 -154q0 -139 103 -242.5t249 -103.5q43 0 109 16zM975 782v-604q0 -228 -122.5 -369t-371.5 -204q-66 123 -172 123q-88 0 -215 -109l-26 39q157 201 303 201q100 0 209 -103
q127 155 127 365v63q-46 -18 -78.5 -35.5t-64 -44.5t-50 -46.5t-59.5 -65.5q-187 0 -284 112t-97 287q0 106 35.5 215.5t98 203t158 160.5t205.5 85q86 -120 175 -185t229 -88zM725 1528h180q-12 -84 -39.5 -156.5t-71.5 -132.5t-111.5 -94.5t-150.5 -34.5t-148.5 34
t-108.5 94.5t-70 132t-41 157.5h184q8 -76 35 -141.5t80.5 -117.5t126.5 -71q60 64 93.5 137.5t41.5 192.5z" />
    <glyph glyph-name="Gdotaccent" unicode="&#x120;" horiz-adv-x="1687" 
d="M1393 651h-574q-140 0 -211 -71l-37 49l537 526q10 10 10 33q0 68 -73.5 125t-198.5 57q-95 0 -177 -37t-143 -105t-96 -171t-35 -228q0 -141 44 -262.5t116.5 -203t167.5 -127.5t197 -46q84 0 167 31.5t152 88t111.5 146t42.5 195.5zM1432 1323l-459 -432h487
q85 0 146 61l43 -51q-27 -71 -74 -92q-19 -165 -75 -304.5t-134 -236t-174 -165t-196.5 -100.5t-200.5 -32q-149 0 -281 65.5t-223 173.5t-144 250.5t-53 293.5q0 163 62.5 309.5t170 252t258.5 167t322 61.5q158 0 285.5 -54.5t239.5 -166.5zM997 2013v-250l-268 -121v254z
" />
    <glyph glyph-name="gdotaccent" unicode="&#x121;" horiz-adv-x="1069" 
d="M707 276v154q0 53 -6 93.5t-28 88t-59.5 78t-107 51.5t-164.5 21q-38 0 -61 -2q-35 -78 -35 -154q0 -139 103 -242.5t249 -103.5q43 0 109 16zM975 782v-604q0 -228 -122.5 -369t-371.5 -204q-66 123 -172 123q-88 0 -215 -109l-26 39q157 201 303 201q100 0 209 -103
q127 155 127 365v63q-46 -18 -78.5 -35.5t-64 -44.5t-50 -46.5t-59.5 -65.5q-187 0 -284 112t-97 287q0 106 35.5 215.5t98 203t158 160.5t205.5 85q86 -120 175 -185t229 -88zM668 1520v-250l-269 -121v254z" />
    <glyph glyph-name="uni0122" unicode="&#x122;" horiz-adv-x="1687" 
d="M1432 1323l-459 -432h487q85 0 146 61l43 -51q-27 -71 -74 -92q-17 -147 -63.5 -274.5t-111.5 -220.5t-147 -163.5t-169 -111.5t-179 -57q-6 -146 -84.5 -251t-183.5 -126l-53 37q48 48 69.5 131t24.5 211q-169 30 -303.5 144t-207.5 278.5t-73 347.5q0 163 62.5 309.5
t170 252t258.5 167t322 61.5q158 0 285.5 -54.5t239.5 -166.5zM1393 651h-574q-140 0 -211 -71l-37 49l537 526q10 10 10 33q0 68 -73.5 125t-198.5 57q-95 0 -177 -37t-143 -105t-96 -171t-35 -228q0 -141 44 -262.5t116.5 -203t167.5 -127.5t197 -46q84 0 167 31.5t152 88
t111.5 146t42.5 195.5z" />
    <glyph glyph-name="uni0123" unicode="&#x123;" horiz-adv-x="1069" 
d="M707 276v154q0 53 -6 93.5t-28 88t-59.5 78t-107 51.5t-164.5 21q-38 0 -61 -2q-35 -78 -35 -154q0 -139 103 -242.5t249 -103.5q43 0 109 16zM975 782v-604q0 -228 -122.5 -369t-371.5 -204q-66 123 -172 123q-88 0 -215 -109l-26 39q157 201 303 201q100 0 209 -103
q127 155 127 365v63q-46 -18 -78.5 -35.5t-64 -44.5t-50 -46.5t-59.5 -65.5q-187 0 -284 112t-97 287q0 106 35.5 215.5t98 203t158 160.5t205.5 85q86 -120 175 -185t229 -88zM707 1602l-80 -187l86 -117l-150 -198l-129 180l215 350z" />
    <glyph glyph-name="Hbar" unicode="&#x126;" horiz-adv-x="1968" 
d="M1782 1528l-8 -86q-220 0 -220 -137v-93h199l-45 -178h-154v-786q0 -152 269 -187q129 0 129 -90q0 -82 -117 -82q-62 0 -98.5 26t-55.5 85h-645l8 84q112 0 164 34.5t52 106.5v471q-143 13 -277 13q-143 0 -309 -15v-446q0 -74 54 -109.5t190 -52.5l-11 -86h-755l8 84
q219 0 219 141v809h-217l45 178h172v68q0 148 -270 186q-129 0 -129 90q0 82 116 82q64 0 100.5 -25.5t53.5 -84.5h651l-8 -86q-219 0 -219 -137v-93h586v68q0 74 -53.5 108.5t-190.5 53.5l8 86h758zM1260 1034h-586v-168q153 -14 299 -14q155 0 287 18v164z" />
    <glyph glyph-name="hbar" unicode="&#x127;" horiz-adv-x="1114" 
d="M420 1542v-311h272l-43 -129h-229v-193q94 43 170 138q229 -21 339.5 -144.5t110.5 -310.5q0 -110 -38 -214.5t-103.5 -188.5t-146.5 -150.5t-174 -114.5l-37 39q135 98 204.5 214t69.5 274q0 157 -66 252.5t-180 95.5q-72 0 -149 -47v-752h-268v1102h-152l43 129h102
q-18 71 -98 80l8 37z" />
    <glyph glyph-name="hbar" unicode="&#x45b;" horiz-adv-x="1114" 
d="M420 1542v-311h272l-43 -129h-229v-193q94 43 170 138q229 -21 339.5 -144.5t110.5 -310.5q0 -110 -38 -214.5t-103.5 -188.5t-146.5 -150.5t-174 -114.5l-37 39q135 98 204.5 214t69.5 274q0 157 -66 252.5t-180 95.5q-72 0 -149 -47v-752h-268v1102h-152l43 129h102
q-18 71 -98 80l8 37z" />
    <glyph glyph-name="Itilde" unicode="&#x128;" horiz-adv-x="1091" 
d="M901 1528l-8 -86q-219 0 -219 -137v-1057q0 -152 268 -187q129 0 129 -90q0 -82 -117 -82q-62 0 -98 26.5t-55 84.5h-649l8 84q219 0 219 141v1055q0 148 -270 186q-129 0 -129 90q0 82 116 82q63 0 100 -26t54 -84h651zM852 1962l90 -88q-37 -136 -93 -193t-140 -57
q-54 0 -110 22t-95.5 49t-89.5 54.5t-90 34.5q-40 -28 -68 -65t-59 -97l-91 88q37 135 93 192.5t139 57.5q54 0 112 -22.5t99.5 -50.5t90.5 -54.5t85 -32.5q80 51 127 162z" />
    <glyph glyph-name="itilde" unicode="&#x129;" horiz-adv-x="835" 
d="M555 848v-569q0 -66 34 -100t97 -34l-8 -49l-182 -114l-209 155v557q0 120 -105 129l8 37l193 195q76 -15 124 -72.5t48 -134.5zM745 1468l91 -88q-37 -136 -93 -193t-141 -57q-54 0 -110 22t-95.5 49t-89.5 54.5t-90 34.5q-40 -28 -68 -65t-59 -97l-90 89
q37 135 92.5 192t138.5 57q54 0 112 -22.5t99.5 -50t90.5 -54t85 -32.5q81 51 127 161z" />
    <glyph glyph-name="Imacron" unicode="&#x12a;" horiz-adv-x="1091" 
d="M901 1528l-8 -86q-219 0 -219 -137v-1057q0 -152 268 -187q129 0 129 -90q0 -82 -117 -82q-62 0 -98 26.5t-55 84.5h-649l8 84q219 0 219 141v1055q0 148 -270 186q-129 0 -129 90q0 82 116 82q63 0 100 -26t54 -84h651zM891 1944l-45 -179h-686l45 179h686z" />
    <glyph glyph-name="imacron" unicode="&#x12b;" horiz-adv-x="731" 
d="M504 848v-569q0 -66 34 -100t97 -34l-8 -49l-183 -114l-208 155v557q0 120 -105 129l8 37l193 195q76 -15 124 -72.5t48 -134.5zM731 1450l-45 -178h-686l45 178h686z" />
    <glyph glyph-name="Ibreve" unicode="&#x12c;" horiz-adv-x="1091" 
d="M901 1528l-8 -86q-219 0 -219 -137v-1057q0 -152 268 -187q129 0 129 -90q0 -82 -117 -82q-62 0 -98 26.5t-55 84.5h-649l8 84q219 0 219 141v1055q0 148 -270 186q-129 0 -129 90q0 82 116 82q63 0 100 -26t54 -84h651zM715 2021h180q-12 -84 -39.5 -156.5t-71.5 -132
t-111.5 -94t-150.5 -34.5t-148.5 34t-108.5 94t-70 131.5t-41 157.5h184q8 -76 35 -141t80.5 -117t126.5 -71q60 64 93.5 137t41.5 192z" />
    <glyph glyph-name="ibreve" unicode="&#x12d;" horiz-adv-x="741" 
d="M504 848v-569q0 -66 34 -100t97 -34l-8 -49l-183 -114l-208 155v557q0 120 -105 129l8 37l193 195q76 -15 124 -72.5t48 -134.5zM561 1528h180q-12 -85 -39.5 -157t-71 -132t-111 -94.5t-150.5 -34.5t-149 34t-109 94.5t-70 132t-41 157.5h184q8 -76 35 -141.5
t80.5 -117.5t126.5 -71q60 64 93.5 137.5t41.5 192.5z" />
    <glyph glyph-name="Iogonek" unicode="&#x12e;" horiz-adv-x="1091" 
d="M901 1528l-8 -86q-219 0 -219 -137v-1057q0 -152 268 -187q129 0 129 -90q0 -82 -117 -82q-62 0 -98 26.5t-55 84.5h-162q-106 -66 -156 -150q16 -4 54 -4q146 0 251 43l-16 -217q-37 -28 -127.5 -47.5t-181.5 -19.5q-67 19 -112.5 64.5t-49.5 119.5q97 142 256 211h-405
l8 84q219 0 219 141v1055q0 148 -270 186q-129 0 -129 90q0 82 116 82q63 0 100 -26t54 -84h651z" />
    <glyph glyph-name="iogonek" unicode="&#x12f;" horiz-adv-x="604" 
d="M420 848v-569q0 -66 34 -100t97 -34l-8 -49q-116 -73 -183 -123.5t-87 -72.5t-37 -50q16 -4 53 -4q62 0 133 11.5t119 31.5l-17 -217q-37 -28 -127.5 -47.5t-181.5 -19.5q-67 19 -112.5 64.5t-49.5 119.5q49 72 123.5 133t138.5 92l-163 123v557q0 120 -105 129l8 37
l193 195q76 -15 124 -72.5t48 -134.5zM424 1520v-250l-268 -121v254z" />
    <glyph glyph-name="Idotaccent" unicode="&#x130;" horiz-adv-x="1091" 
d="M901 1528l-8 -86q-219 0 -219 -137v-1057q0 -152 268 -187q129 0 129 -90q0 -82 -117 -82q-62 0 -98 26.5t-55 84.5h-649l8 84q219 0 219 141v1055q0 148 -270 186q-129 0 -129 90q0 82 116 82q63 0 100 -26t54 -84h651zM659 2013v-250l-268 -121v254z" />
    <glyph glyph-name="dotlessi" unicode="&#x131;" horiz-adv-x="604" 
d="M420 848v-569q0 -66 34 -100t97 -34l-8 -49l-183 -114l-208 155v557q0 120 -105 129l8 37l193 195q76 -15 124 -72.5t48 -134.5z" />
    <glyph glyph-name="dotlessi" unicode="&#x3b9;" horiz-adv-x="604" 
d="M420 848v-569q0 -66 34 -100t97 -34l-8 -49l-183 -114l-208 155v557q0 120 -105 129l8 37l193 195q76 -15 124 -72.5t48 -134.5z" />
    <glyph glyph-name="IJ" unicode="&#x132;" horiz-adv-x="1957" 
d="M901 1528l-8 -86q-219 0 -219 -137v-1057q0 -152 268 -187q129 0 129 -90q0 -82 -117 -82q-62 0 -98 26.5t-55 84.5h-649l8 84q219 0 219 141v1055q0 148 -270 186q-129 0 -129 90q0 82 116 82q63 0 100 -26t54 -84h651zM1874 1528l43 -37q-80 -139 -80 -313v-838
q-88 -505 -633 -717v82q60 24 121.5 85t112.5 145.5t83.5 197t32.5 227.5q0 175 -67 356.5t-152 291.5l11 41q215 50 344 262q-89 -46 -157.5 -66t-141.5 -20q-56 0 -143.5 17.5t-145.5 17.5q-142 0 -230 -66l-49 35q95 153 178.5 223.5t188.5 101.5q153 -118 389 -118
q192 0 295 92z" />
    <glyph glyph-name="ij" unicode="&#x133;" horiz-adv-x="1003" 
d="M420 848v-569q0 -66 34 -100t97 -34l-8 -49l-183 -114l-208 155v557q0 120 -105 129l8 37l193 195q76 -15 124 -72.5t48 -134.5zM424 1526v-250l-268 -121v254zM909 1055v-682q0 -715 -413 -750l8 58q137 63 137 364v649q0 120 -104 129l8 37zM909 1513v-249l-268 -121
v254z" />
    <glyph glyph-name="uni0136" unicode="&#x136;" horiz-adv-x="1437" 
d="M1331 1368l-172 -182q-47 53 -100 53q-104 0 -248 -199q525 -485 565 -1040h-446l8 66q49 41 49 124q0 104 -58.5 234.5t-152.5 232.5q-52 56 -106.5 91.5t-83.5 45t-45 9.5q-18 0 -44 -13.5t-42 -37.5v-523q0 -66 31.5 -107.5t86.5 -55.5l-8 -66h-524l8 66
q107 29 107 167v1078q0 132 -99 135l9 82h501l-8 -82q-55 -10 -78.5 -51.5t-23.5 -116.5v-385q251 137 639 661zM569 0h228q0 -153 -80 -263.5t-189 -131.5l-53 37q49 49 70.5 136t23.5 222z" />
    <glyph glyph-name="uni0137" unicode="&#x137;" horiz-adv-x="1073" 
d="M420 723v-129q58 10 94 10q71 0 168 -20q6 30 6 65q0 134 -139 197q-65 -70 -129 -123zM420 1542v-717q108 108 201 238q96 18 180 -29.5t131 -133.5t47 -183q0 -39 -6 -92q-102 -47 -228 -66q131 -61 200 -195.5t79 -363.5h-279q0 112 -18.5 198t-48.5 139t-73 86.5
t-88 46.5t-97 13v-483h-268v1182q0 120 -105 129l8 37zM467 0h227q0 -153 -79.5 -263.5t-188.5 -131.5l-53 37q49 49 70.5 136t23.5 222z" />
    <glyph glyph-name="Lacute" unicode="&#x139;" horiz-adv-x="1280" 
d="M1194 424l59 -45q-27 -58 -45 -94.5t-45.5 -83t-51.5 -75t-58 -58.5t-70.5 -46.5t-84 -27t-103.5 -10.5q-43 0 -180.5 12t-225.5 12q-142 0 -301 -35l-47 78q131 122 131 301v617q0 161 -102 213l8 57q71 18 152.5 57t151.5 80t138 80.5t134 64.5t118 25
q119 0 237.5 -113.5t153.5 -236.5q-140 -25 -293 -113q0 74 -34 128t-91 82.5t-119.5 41.5t-131.5 13q-23 -145 -23 -275v-563q0 -78 -26.5 -144.5t-86.5 -140.5q129 72 232 72q46 0 151 -25.5t148 -25.5q135 0 305 178zM786 2062l148 -178l-375 -289l-90 88z" />
    <glyph glyph-name="lacute" unicode="&#x13a;" horiz-adv-x="604" 
d="M420 1542v-1263q0 -66 34 -100t97 -34l-8 -49l-183 -114l-208 155v1045q0 120 -105 129l8 37zM442 2062l148 -178l-375 -289l-90 88z" />
    <glyph glyph-name="uni013B" unicode="&#x13b;" horiz-adv-x="1280" 
d="M1194 424l59 -45q-27 -58 -45.5 -94.5t-45.5 -82.5t-51 -74.5t-57.5 -58.5t-69.5 -46.5t-83 -27.5t-102 -11q-4 -147 -83.5 -252.5t-185.5 -126.5l-53 37q49 49 70.5 136t23.5 222q-114 8 -182 8q-142 0 -301 -35l-47 78q131 122 131 301v617q0 161 -102 213l8 57
q71 18 152.5 57t151.5 80t138 80.5t134 64.5t118 25q119 0 237.5 -113.5t153.5 -236.5q-140 -25 -293 -113q0 74 -34 128t-91 82.5t-119.5 41.5t-131.5 13q-23 -145 -23 -275v-563q0 -78 -26.5 -144.5t-86.5 -140.5q129 72 232 72q46 0 151 -25.5t148 -25.5q135 0 305 178z
" />
    <glyph glyph-name="uni013C" unicode="&#x13c;" horiz-adv-x="604" 
d="M420 1542v-1263q0 -66 34 -100t97 -34l-8 -49l-183 -114l-208 155v1045q0 120 -105 129l8 37zM231 -31h222q0 -141 -78 -242.5t-185 -121.5l-51 35q89 82 92 329z" />
    <glyph glyph-name="Lcaron" unicode="&#x13d;" horiz-adv-x="1435" 
d="M1194 424l59 -45q-27 -58 -45 -94.5t-45.5 -83t-51.5 -75t-58 -58.5t-70.5 -46.5t-84 -27t-103.5 -10.5q-43 0 -180.5 12t-225.5 12q-142 0 -301 -35l-47 78q131 122 131 301v617q0 161 -102 213l8 57q71 18 152.5 57t151.5 80t138 80.5t134 64.5t118 25
q119 0 237.5 -113.5t153.5 -236.5q-140 -25 -293 -113q0 74 -34 128t-91 82.5t-119.5 41.5t-131.5 13q-23 -145 -23 -275v-563q0 -78 -26.5 -144.5t-86.5 -140.5q129 72 232 72q46 0 151 -25.5t148 -25.5q135 0 305 178zM1333 1569l129 -180l-215 -351l-57 29l80 186
l-86 117z" />
    <glyph glyph-name="lcaron" unicode="&#x13e;" horiz-adv-x="759" 
d="M420 1542v-1263q0 -66 34 -100t97 -34l-8 -49l-183 -114l-208 155v1045q0 120 -105 129l8 37zM651 1569l129 -180l-215 -351l-57 29l80 186l-86 117z" />
    <glyph glyph-name="Lslash" unicode="&#x141;" horiz-adv-x="1280" 
d="M844 940l61 -160l-434 -153v-117q0 -78 -26.5 -144.5t-86.5 -140.5q129 72 232 72q46 0 151 -25.5t148 -25.5q135 0 305 178l59 -45q-27 -58 -45 -94.5t-45.5 -83t-51.5 -75t-58 -58.5t-70.5 -46.5t-84 -27t-103.5 -10.5q-43 0 -180.5 12t-225.5 12q-142 0 -301 -35
l-47 78q131 122 131 301v168l-111 -39l-61 160l172 61v267q0 161 -102 213l8 57q71 18 152.5 57t151.5 80t138 80.5t134 64.5t118 25q119 0 237.5 -113.5t153.5 -236.5q-140 -25 -293 -113q0 74 -34 128t-91 82.5t-119.5 41.5t-131.5 13q-23 -145 -23 -275v-266z" />
    <glyph glyph-name="lslash" unicode="&#x142;" horiz-adv-x="739" 
d="M690 1047l49 -132l-241 -86v-550q0 -66 34 -100t97 -34l-8 -49l-183 -114l-209 155v598l-178 -63l-51 131l229 80v299q0 120 -104 129l8 37l365 194v-563z" />
    <glyph glyph-name="Nacute" unicode="&#x143;" horiz-adv-x="1525" 
d="M1497 1528l-8 -82q-70 -1 -98.5 -20.5t-28.5 -59.5v-1366h-158v100l-850 1065v-923q0 -296 -254 -623l-43 27q131 287 131 573v1049q0 129 -139 153l6 62l357 78l792 -979v761q0 51 -37.5 77t-107.5 26l8 82h430zM909 2062l148 -178l-375 -289l-90 88z" />
    <glyph glyph-name="nacute" unicode="&#x144;" horiz-adv-x="1116" 
d="M420 752v-752h-268v686q0 119 -105 129l8 37l221 195q127 -37 144 -138q191 40 321 138q157 -41 225 -154t68 -320q0 -221 -69 -573h-344q165 395 165 584q0 207 -227 207q-49 0 -75 -8t-64 -31zM705 1569l147 -178l-375 -289l-90 88z" />
    <glyph glyph-name="uni0145" unicode="&#x145;" horiz-adv-x="1525" 
d="M1497 1528l-8 -82q-70 -1 -98.5 -20.5t-28.5 -59.5v-1366h-158v100l-850 1065v-923q0 -296 -254 -623l-43 27q131 287 131 573v1049q0 129 -139 153l6 62l357 78l792 -979v761q0 51 -37.5 77t-107.5 26l8 82h430zM674 0h227q0 -153 -79.5 -263.5t-188.5 -131.5l-53 37
q49 49 70.5 136t23.5 222z" />
    <glyph glyph-name="uni0146" unicode="&#x146;" horiz-adv-x="1116" 
d="M420 752v-752h-268v686q0 119 -105 129l8 37l221 195q127 -37 144 -138q191 40 321 138q157 -41 225 -154t68 -320q0 -221 -69 -573h-344q165 395 165 584q0 207 -227 207q-49 0 -75 -8t-64 -31zM420 -25h196q0 -144 -68 -247t-163 -123l-47 35q79 84 82 335z" />
    <glyph glyph-name="Ncaron" unicode="&#x147;" horiz-adv-x="1525" 
d="M1497 1528l-8 -82q-70 -1 -98.5 -20.5t-28.5 -59.5v-1366h-158v100l-850 1065v-923q0 -296 -254 -623l-43 27q131 287 131 573v1049q0 129 -139 153l6 62l357 78l792 -979v761q0 51 -37.5 77t-107.5 26l8 82h430zM1077 1974l-317 -379l-311 390l114 77l207 -188l217 188z
" />
    <glyph glyph-name="ncaron" unicode="&#x148;" horiz-adv-x="1116" 
d="M420 752v-752h-268v686q0 119 -105 129l8 37l221 195q127 -37 144 -138q191 40 321 138q157 -41 225 -154t68 -320q0 -221 -69 -573h-344q165 395 165 584q0 207 -227 207q-49 0 -75 -8t-64 -31zM872 1481l-317 -379l-311 389l114 78l207 -189l217 189z" />
    <glyph glyph-name="Eng" unicode="&#x14a;" horiz-adv-x="1396" 
d="M455 1528v-135q243 39 391 163q141 -17 256 -123t177 -263.5t62 -331.5q0 -258 -80.5 -474.5t-223 -368.5t-330.5 -251t-410 -139l-41 57q116 54 203.5 102.5t170.5 107.5t141.5 122t108 141.5t79 170.5t45.5 204.5t16 247.5q0 265 -86 406t-223 141q-110 0 -256 -93
v-876q0 -210 67 -268v-68h-481v68q119 73 119 198v856q0 64 -34 115t-85 84l37 70z" />
    <glyph glyph-name="eng" unicode="&#x14b;" horiz-adv-x="1116" 
d="M420 752v-752h-268v686q0 119 -105 129l8 37l221 195q127 -37 144 -138q191 40 321 138q72 -21 121 -50t83.5 -69.5t53.5 -101.5t27 -137.5t8 -186.5q0 -412 -103 -641t-310 -238l8 58q39 18 61.5 56t40.5 134t25.5 267t7.5 446q0 53 -13 92.5t-32.5 61t-49 34t-54.5 16
t-56 3.5q-49 0 -75 -8t-64 -31z" />
    <glyph glyph-name="Omacron" unicode="&#x14c;" horiz-adv-x="1542" 
d="M373 1165q-82 -131 -82 -264q0 -224 184 -422q114 -121 266 -194.5t281 -73.5q102 0 178 49q68 133 68 299q0 119 -43 239t-115 214q-85 112 -202 177.5t-249 65.5q-73 0 -139 -21.5t-147 -68.5zM821 1565q290 -150 445 -348q182 -231 182 -504q0 -145 -55.5 -272
t-151.5 -218.5t-220 -154.5t-267 -91q-284 107 -457 285q-203 209 -203 479q0 103 31 194.5t87.5 170.5t148.5 157.5t201.5 149.5t258.5 152zM1186 1944l-45 -179h-686l45 179h686z" />
    <glyph glyph-name="omacron" unicode="&#x14d;" 
d="M279 764q-27 -58 -27 -125q0 -92 46 -179t115 -147t148 -96.5t146 -36.5q54 0 114 31q13 44 13 90q0 96 -39 185t-102.5 152.5t-146 101.5t-167.5 38q-54 0 -100 -14zM563 1059q422 -249 422 -588q0 -99 -37 -184.5t-101 -148t-148 -104.5t-181 -61q-201 73 -322.5 205.5
t-121.5 310.5q0 89 31.5 165t100 145.5t150 127.5t207.5 132zM930 1450l-45 -178h-686l45 178h686z" />
    <glyph glyph-name="Obreve" unicode="&#x14e;" horiz-adv-x="1542" 
d="M373 1165q-82 -131 -82 -264q0 -224 184 -422q114 -121 266 -194.5t281 -73.5q102 0 178 49q68 133 68 299q0 119 -43 239t-115 214q-85 112 -202 177.5t-249 65.5q-73 0 -139 -21.5t-147 -68.5zM821 1565q290 -150 445 -348q182 -231 182 -504q0 -145 -55.5 -272
t-151.5 -218.5t-220 -154.5t-267 -91q-284 107 -457 285q-203 209 -203 479q0 103 31 194.5t87.5 170.5t148.5 157.5t201.5 149.5t258.5 152zM1010 2021h180q-12 -84 -39.5 -156.5t-71.5 -132t-111.5 -94t-150.5 -34.5t-148.5 34t-108.5 94t-70 131.5t-41 157.5h184
q8 -76 35 -141t80 -117t126 -71q61 64 94.5 137.5t41.5 191.5z" />
    <glyph glyph-name="obreve" unicode="&#x14f;" 
d="M279 764q-27 -58 -27 -125q0 -92 46 -179t115 -147t148 -96.5t146 -36.5q54 0 114 31q13 44 13 90q0 96 -39 185t-102.5 152.5t-146 101.5t-167.5 38q-54 0 -100 -14zM563 1059q422 -249 422 -588q0 -99 -37 -184.5t-101 -148t-148 -104.5t-181 -61q-201 73 -322.5 205.5
t-121.5 310.5q0 89 31.5 165t100 145.5t150 127.5t207.5 132zM754 1528h180q-12 -84 -39.5 -156.5t-71.5 -132.5t-111.5 -94.5t-150.5 -34.5t-148.5 34t-108.5 94.5t-70 132t-41 157.5h184q8 -77 35 -142t80 -117t126 -71q61 64 94.5 138t41.5 192z" />
    <glyph glyph-name="Ohungarumlaut" unicode="&#x150;" horiz-adv-x="1542" 
d="M373 1165q-82 -131 -82 -264q0 -224 184 -422q114 -121 266 -194.5t281 -73.5q102 0 178 49q68 133 68 299q0 119 -43 239t-115 214q-85 112 -202 177.5t-249 65.5q-73 0 -139 -21.5t-147 -68.5zM821 1565q290 -150 445 -348q182 -231 182 -504q0 -145 -55.5 -272
t-151.5 -218.5t-220 -154.5t-267 -91q-284 107 -457 285q-203 209 -203 479q0 103 31 194.5t87.5 170.5t148.5 157.5t201.5 149.5t258.5 152zM1272 1933l-309 -356l-115 51l237 434zM913 1933l-309 -356l-115 51l238 434z" />
    <glyph glyph-name="ohungarumlaut" unicode="&#x151;" 
d="M279 764q-27 -58 -27 -125q0 -92 46 -179t115 -147t148 -96.5t146 -36.5q54 0 114 31q13 44 13 90q0 96 -39 185t-102.5 152.5t-146 101.5t-167.5 38q-54 0 -100 -14zM563 1059q422 -249 422 -588q0 -99 -37 -184.5t-101 -148t-148 -104.5t-181 -61q-201 73 -322.5 205.5
t-121.5 310.5q0 89 31.5 165t100 145.5t150 127.5t207.5 132zM1014 1440l-309 -357l-115 52l237 434zM655 1440l-309 -357l-115 52l238 434z" />
    <glyph glyph-name="OE" unicode="&#x152;" horiz-adv-x="2678" 
d="M2271 1100l-47 61q4 20 4 31q0 69 -70.5 124.5t-187.5 55.5q-90 0 -171 -37.5t-142 -106t-97 -174t-36 -233.5l977 127q-90 -141 -185 -373h-35q-9 97 -122 103l-625 31q34 -222 173 -370.5t341 -148.5q286 0 498 318l65 -72q-57 -80 -106 -140.5t-116 -125t-133 -105.5
t-150.5 -67.5t-174.5 -26.5q-190 0 -347 105.5t-245 283.5q-88 -148 -242.5 -246.5t-342.5 -136.5q-104 40 -195.5 91t-176 121t-144.5 151t-96 183.5t-36 215.5q0 102 30.5 193t86 170t145.5 157.5t197.5 148.5t253.5 151q363 -193 510 -457q93 204 278 324t416 120
q151 0 271.5 -54.5t230.5 -166.5q-142 -107 -254 -225zM379 1161q-80 -133 -80 -264q0 -111 47 -218.5t123.5 -190t170.5 -146.5t192.5 -97.5t183.5 -33.5q101 0 174 49q67 128 67 299q0 129 -48 255t-127.5 222t-191 155.5t-231.5 59.5q-71 0 -136 -22t-144 -68z" />
    <glyph glyph-name="oe" unicode="&#x153;" horiz-adv-x="1525" 
d="M1440 782l-447 -446q113 -127 267 -127q98 0 184 45l26 -12q-138 -235 -346 -269q-181 77 -282 226q-75 -98 -148.5 -152.5t-181.5 -73.5q-202 75 -323 206t-121 310q0 72 22.5 136.5t60.5 117t103.5 108.5t133.5 102t169 106q206 -113 283 -293q115 170 321 293
q167 -104 279 -277zM946 403l236 236q-40 163 -215 178q-52 -127 -52 -242q0 -95 31 -172zM272 764q-26 -53 -26 -129q0 -91 38.5 -177t98.5 -145.5t132.5 -96t139.5 -36.5q50 0 89 19t49 49q0 97 -29 191t-81.5 170t-133.5 122.5t-176 46.5q-55 0 -101 -14z" />
    <glyph glyph-name="Racute" unicode="&#x154;" horiz-adv-x="1480" 
d="M489 1141v-426l302 209q107 73 146.5 148.5t39.5 162.5q0 213 -184 213q-34 0 -68.5 -7t-74.5 -28t-72 -53.5t-56.5 -89t-32.5 -129.5zM991 920l-176 -121q58 -119 144.5 -239t182.5 -205t163 -85q64 0 147 68l43 -49q-101 -82 -358 -342q-262 385 -539 702l-106 -74
v-167q0 -181 178 -271v-125q-174 49 -289 49q-89 0 -163 -26.5t-120 -61.5l-57 84q141 85 141 213v813q0 166 -133 172l8 78q113 0 267 64q34 14 92.5 41t94 41.5t88.5 32t111 25t126 7.5q210 0 320 -75t110 -205q0 -95 -63 -168.5t-212 -175.5zM887 2062l147 -178
l-375 -289l-90 88z" />
    <glyph glyph-name="racute" unicode="&#x155;" horiz-adv-x="778" 
d="M778 913l-4 -22l-174 -143l-10 4q-18 57 -64 57q-43 0 -106 -57v-752h-268v686q0 120 -105 129l8 37l221 195q124 -36 144 -138q58 103 196 138q48 -108 162 -134zM555 1569l147 -178l-374 -289l-90 88z" />
    <glyph glyph-name="uni0156" unicode="&#x156;" horiz-adv-x="1480" 
d="M489 1141v-426l302 209q107 73 146.5 148.5t39.5 162.5q0 213 -184 213q-34 0 -68.5 -7t-74.5 -28t-72 -53.5t-56.5 -89t-32.5 -129.5zM991 920l-176 -121q58 -119 144.5 -239t182.5 -205t163 -85q64 0 147 68l43 -49q-101 -82 -358 -342q-262 385 -539 702l-106 -74
v-167q0 -181 178 -271v-125q-174 49 -289 49q-89 0 -163 -26.5t-120 -61.5l-57 84q141 85 141 213v813q0 166 -133 172l8 78q113 0 267 64q34 14 92.5 41t94 41.5t88.5 32t111 25t126 7.5q210 0 320 -75t110 -205q0 -95 -63 -168.5t-212 -175.5zM760 0h227
q0 -153 -79.5 -263.5t-188.5 -131.5l-53 37q49 49 70.5 136t23.5 222z" />
    <glyph glyph-name="uni0157" unicode="&#x157;" horiz-adv-x="778" 
d="M778 913l-4 -22l-174 -143l-10 4q-18 57 -64 57q-43 0 -106 -57v-752h-268v686q0 120 -105 129l8 37l221 195q124 -36 144 -138q58 103 196 138q48 -108 162 -134zM188 -29h195q0 -143 -68 -244.5t-163 -121.5l-46 35q79 84 82 331z" />
    <glyph glyph-name="Rcaron" unicode="&#x158;" horiz-adv-x="1480" 
d="M489 1141v-426l302 209q107 73 146.5 148.5t39.5 162.5q0 213 -184 213q-34 0 -68.5 -7t-74.5 -28t-72 -53.5t-56.5 -89t-32.5 -129.5zM991 920l-176 -121q58 -119 144.5 -239t182.5 -205t163 -85q64 0 147 68l43 -49q-101 -82 -358 -342q-262 385 -539 702l-106 -74
v-167q0 -181 178 -271v-125q-174 49 -289 49q-89 0 -163 -26.5t-120 -61.5l-57 84q141 85 141 213v813q0 166 -133 172l8 78q113 0 267 64q34 14 92.5 41t94 41.5t88.5 32t111 25t126 7.5q210 0 320 -75t110 -205q0 -95 -63 -168.5t-212 -175.5zM1055 1974l-318 -379
l-311 390l115 77l207 -188l217 188z" />
    <glyph glyph-name="rcaron" unicode="&#x159;" horiz-adv-x="778" 
d="M778 913l-4 -22l-174 -143l-10 4q-18 57 -64 57q-43 0 -106 -57v-752h-268v686q0 120 -105 129l8 37l221 195q124 -36 144 -138q58 103 196 138q48 -108 162 -134zM723 1481l-317 -379l-312 389l115 78l207 -189l217 189z" />
    <glyph glyph-name="Sacute" unicode="&#x15a;" horiz-adv-x="1449" 
d="M1038 1094q-40 90 -148 161.5t-235 71.5q-89 0 -198 -41q-56 -115 -56 -217q0 -148 102.5 -225.5t309.5 -77.5q257 0 453 88q46 -100 74 -212t28 -185q0 -74 -31 -141t-86 -118.5t-123.5 -94.5t-149.5 -75t-157 -54t-153 -37q-162 44 -331.5 130.5t-254.5 182.5
q174 61 319 156q95 -161 202 -230.5t237 -69.5q103 0 227 48q20 73 20 145q0 93 -41.5 162.5t-115.5 110t-168 60t-209 19.5q-198 0 -317 -45q-144 199 -144 363q0 38 8 73t26.5 68.5t39.5 62.5t57 60t68 56.5t84 56t93 54t107.5 56t115 55.5t126.5 60q285 -125 506 -324
q-151 -43 -285 -153zM965 2062l147 -178l-375 -289l-90 88z" />
    <glyph glyph-name="sacute" unicode="&#x15b;" horiz-adv-x="1052" 
d="M731 702q-24 71 -118.5 119.5t-200.5 48.5q-36 0 -74 -6q-39 -71 -39 -131q0 -91 78.5 -142.5t224.5 -51.5q173 0 318 59q34 -63 55.5 -146t21.5 -135q0 -67 -44.5 -126t-119 -101t-162.5 -71.5t-184 -45.5q-310 90 -424 209q127 37 248 127q39 -62 85 -104.5t94 -63
t90.5 -29t91.5 -8.5q61 0 100 17q8 13 8 43q0 254 -411 254q-87 0 -185 -33q-110 149 -110 262q0 43 16 82t50 74t76 65t105.5 62.5t125.5 59t149 61.5q229 -95 367 -213q-103 -26 -232 -136zM741 1569l148 -178l-375 -289l-90 88z" />
    <glyph glyph-name="Scedilla" unicode="&#x15e;" horiz-adv-x="1449" 
d="M530 -395l-53 37q85 85 94 325q-147 50 -282 125t-207 158q174 61 319 156q95 -161 202 -230.5t237 -69.5q103 0 227 48q20 73 20 145q0 93 -41.5 162.5t-115.5 110t-168 60t-209 19.5q-198 0 -317 -45q-144 199 -144 363q0 38 8 73t26.5 68.5t39.5 62.5t57 60t68 56.5
t84 56t93 54t107.5 56t115 55.5t126.5 60q285 -125 506 -324q-151 -43 -285 -153q-40 90 -148 161.5t-235 71.5q-89 0 -198 -41q-56 -115 -56 -217q0 -148 102.5 -225.5t309.5 -77.5q257 0 453 88q46 -100 74 -212t28 -185q0 -76 -34 -145t-89 -121t-131 -96.5t-153.5 -74.5
t-163.5 -53q-9 -141 -86.5 -241t-180.5 -121z" />
    <glyph glyph-name="Scedilla" unicode="&#x218;" horiz-adv-x="1449" 
d="M530 -395l-53 37q85 85 94 325q-147 50 -282 125t-207 158q174 61 319 156q95 -161 202 -230.5t237 -69.5q103 0 227 48q20 73 20 145q0 93 -41.5 162.5t-115.5 110t-168 60t-209 19.5q-198 0 -317 -45q-144 199 -144 363q0 38 8 73t26.5 68.5t39.5 62.5t57 60t68 56.5
t84 56t93 54t107.5 56t115 55.5t126.5 60q285 -125 506 -324q-151 -43 -285 -153q-40 90 -148 161.5t-235 71.5q-89 0 -198 -41q-56 -115 -56 -217q0 -148 102.5 -225.5t309.5 -77.5q257 0 453 88q46 -100 74 -212t28 -185q0 -76 -34 -145t-89 -121t-131 -96.5t-153.5 -74.5
t-163.5 -53q-9 -141 -86.5 -241t-180.5 -121z" />
    <glyph glyph-name="scedilla" unicode="&#x15f;" horiz-adv-x="1052" 
d="M381 -395l-45 37q76 97 82 354q-255 81 -355 186q127 37 248 127q39 -62 85 -104.5t94 -63t90.5 -29t91.5 -8.5q61 0 100 17q8 13 8 43q0 254 -411 254q-87 0 -185 -33q-110 149 -110 262q0 43 16 82t50 74t76 65t105.5 62.5t125.5 59t149 61.5q229 -95 367 -213
q-103 -26 -232 -136q-24 71 -118.5 119.5t-200.5 48.5q-36 0 -74 -6q-39 -71 -39 -131q0 -91 78.5 -142.5t224.5 -51.5q173 0 318 59q34 -63 55.5 -146t21.5 -135q0 -56 -31 -107t-86 -90t-122 -69t-146 -51q-1 -153 -69.5 -263.5t-161.5 -131.5z" />
    <glyph glyph-name="scedilla" unicode="&#x219;" horiz-adv-x="1052" 
d="M381 -395l-45 37q76 97 82 354q-255 81 -355 186q127 37 248 127q39 -62 85 -104.5t94 -63t90.5 -29t91.5 -8.5q61 0 100 17q8 13 8 43q0 254 -411 254q-87 0 -185 -33q-110 149 -110 262q0 43 16 82t50 74t76 65t105.5 62.5t125.5 59t149 61.5q229 -95 367 -213
q-103 -26 -232 -136q-24 71 -118.5 119.5t-200.5 48.5q-36 0 -74 -6q-39 -71 -39 -131q0 -91 78.5 -142.5t224.5 -51.5q173 0 318 59q34 -63 55.5 -146t21.5 -135q0 -56 -31 -107t-86 -90t-122 -69t-146 -51q-1 -153 -69.5 -263.5t-161.5 -131.5z" />
    <glyph glyph-name="Scaron" unicode="&#x160;" horiz-adv-x="1449" 
d="M1038 1094q-40 90 -148 161.5t-235 71.5q-89 0 -198 -41q-56 -115 -56 -217q0 -148 102.5 -225.5t309.5 -77.5q257 0 453 88q46 -100 74 -212t28 -185q0 -74 -31 -141t-86 -118.5t-123.5 -94.5t-149.5 -75t-157 -54t-153 -37q-162 44 -331.5 130.5t-254.5 182.5
q174 61 319 156q95 -161 202 -230.5t237 -69.5q103 0 227 48q20 73 20 145q0 93 -41.5 162.5t-115.5 110t-168 60t-209 19.5q-198 0 -317 -45q-144 199 -144 363q0 38 8 73t26.5 68.5t39.5 62.5t57 60t68 56.5t84 56t93 54t107.5 56t115 55.5t126.5 60q285 -125 506 -324
q-151 -43 -285 -153zM1133 1974l-318 -379l-311 390l114 77l207 -188l217 188z" />
    <glyph glyph-name="scaron" unicode="&#x161;" horiz-adv-x="1052" 
d="M731 702q-24 71 -118.5 119.5t-200.5 48.5q-36 0 -74 -6q-39 -71 -39 -131q0 -91 78.5 -142.5t224.5 -51.5q173 0 318 59q34 -63 55.5 -146t21.5 -135q0 -67 -44.5 -126t-119 -101t-162.5 -71.5t-184 -45.5q-310 90 -424 209q127 37 248 127q39 -62 85 -104.5t94 -63
t90.5 -29t91.5 -8.5q61 0 100 17q8 13 8 43q0 254 -411 254q-87 0 -185 -33q-110 149 -110 262q0 43 16 82t50 74t76 65t105.5 62.5t125.5 59t149 61.5q229 -95 367 -213q-103 -26 -232 -136zM911 1481l-317 -379l-311 389l114 78l207 -189l217 189z" />
    <glyph glyph-name="uni0162" unicode="&#x162;" horiz-adv-x="1519" 
d="M1411 432l68 -45q-42 -65 -73 -108.5t-83.5 -101.5t-104.5 -94.5t-125.5 -66.5t-156.5 -39q-6 -144 -84 -247.5t-182 -124.5l-54 37q89 89 95 344q-221 45 -356.5 223.5t-135.5 464.5q0 184 59 347t173 277q-67 0 -97 -0.5t-74 -4.5t-65 -12t-51 -24t-54 -39.5t-53 -58.5
l-57 37q103 189 277.5 263.5t472.5 74.5q238 0 577 -37q-106 -153 -156 -319q-299 98 -550 114q-85 -68 -126.5 -197.5t-41.5 -256.5q0 -139 52.5 -262t136 -205t186 -129t204.5 -47q232 0 379 237z" />
    <glyph glyph-name="uni0162" unicode="&#x21a;" horiz-adv-x="1519" 
d="M1411 432l68 -45q-42 -65 -73 -108.5t-83.5 -101.5t-104.5 -94.5t-125.5 -66.5t-156.5 -39q-6 -144 -84 -247.5t-182 -124.5l-54 37q89 89 95 344q-221 45 -356.5 223.5t-135.5 464.5q0 184 59 347t173 277q-67 0 -97 -0.5t-74 -4.5t-65 -12t-51 -24t-54 -39.5t-53 -58.5
l-57 37q103 189 277.5 263.5t472.5 74.5q238 0 577 -37q-106 -153 -156 -319q-299 98 -550 114q-85 -68 -126.5 -197.5t-41.5 -256.5q0 -139 52.5 -262t136 -205t186 -129t204.5 -47q232 0 379 237z" />
    <glyph glyph-name="uni0163" unicode="&#x163;" horiz-adv-x="645" 
d="M645 1034l-51 -182h-174v-573q0 -66 34 -100t97 -34l-8 -49l-80 -49q-7 -172 -84 -294t-180 -148l-52 45q87 110 93 422l-88 65v592q0 114 -105 123l8 45q171 134 346 358h19v-221h225z" />
    <glyph glyph-name="uni0163" unicode="&#x21b;" horiz-adv-x="645" 
d="M645 1034l-51 -182h-174v-573q0 -66 34 -100t97 -34l-8 -49l-80 -49q-7 -172 -84 -294t-180 -148l-52 45q87 110 93 422l-88 65v592q0 114 -105 123l8 45q171 134 346 358h19v-221h225z" />
    <glyph glyph-name="Tcaron" unicode="&#x164;" horiz-adv-x="1519" 
d="M1073 1974l-317 -379l-312 390l115 77l207 -188l217 188zM1411 432l68 -45q-32 -50 -55.5 -84.5t-61.5 -81.5t-72.5 -79.5t-83 -67t-99 -55.5t-115.5 -34.5t-136 -13.5q-134 0 -249 45.5t-202 132t-136.5 221.5t-49.5 304q0 184 59 347t173 277q-67 0 -97 -0.5t-74 -4.5
t-65 -12t-51 -24t-54 -39.5t-53 -58.5l-57 37q103 189 277.5 263.5t472.5 74.5q238 0 577 -37q-106 -153 -156 -319q-299 98 -550 114q-85 -68 -126.5 -197.5t-41.5 -256.5q0 -139 52.5 -262t136 -205t186 -129t204.5 -47q232 0 379 237z" />
    <glyph glyph-name="tcaron" unicode="&#x165;" horiz-adv-x="897" 
d="M645 1034l-51 -182h-174v-573q0 -66 34 -100t97 -34l-8 -49l-183 -114l-208 155v592q0 114 -105 123l8 45q171 134 346 358h19v-221h225zM788 1569l130 -180l-216 -351l-57 29l80 186l-86 117z" />
    <glyph glyph-name="Tbar" unicode="&#x166;" horiz-adv-x="1519" 
d="M1411 432l68 -45q-32 -50 -55.5 -84.5t-61.5 -81.5t-72.5 -79.5t-83 -67t-99 -55.5t-115.5 -34.5t-136 -13.5q-136 0 -250 47t-200.5 139t-135.5 241.5t-49 342.5h-174l45 179h154q55 228 205 378q-67 0 -97 -0.5t-74 -4.5t-65 -12t-51 -24t-54 -39.5t-53 -58.5l-57 37
q103 189 277.5 263.5t472.5 74.5q238 0 577 -37q-106 -153 -156 -319q-299 98 -550 114q-71 -57 -111.5 -158t-52.5 -214h321l-45 -179h-274q23 -160 113.5 -287t212 -193t247.5 -66q232 0 379 237z" />
    <glyph glyph-name="tbar" unicode="&#x167;" horiz-adv-x="731" 
d="M731 670l-45 -178h-266v-213q0 -66 34 -100t97 -34l-8 -49l-183 -114l-208 155v355h-152l45 178h107v59q0 114 -105 123l8 45q171 134 346 358h19v-221h225l-51 -182h-174v-182h311z" />
    <glyph glyph-name="Utilde" unicode="&#x168;" horiz-adv-x="1533" 
d="M1487 1528l-8 -74q-125 -6 -125 -151v-951q0 -129 135 -159l-2 -58l-225 -166q-72 29 -129.5 91.5t-65.5 142.5q-42 -99 -139 -156t-219 -57q-80 0 -161 24.5t-159 79t-137.5 132t-96 193t-36.5 253.5q0 199 73.5 391.5t206.5 363.5h-270l8 101h654l-9 -84
q-82 -21 -147 -70.5t-105 -111.5t-66 -140t-36 -152t-10 -151q0 -261 113 -422t288 -161q117 0 180.5 73t63.5 187v829q0 64 -41.5 96.5t-103.5 32.5l8 74h561zM1180 1962l90 -88q-37 -136 -93 -193t-141 -57q-54 0 -110 22t-95.5 49t-89.5 54.5t-90 34.5q-40 -28 -68 -65
t-59 -97l-90 88q37 135 93 192.5t139 57.5q54 0 112 -22.5t99.5 -50.5t90.5 -54.5t85 -32.5q80 51 127 162z" />
    <glyph glyph-name="utilde" unicode="&#x169;" horiz-adv-x="1155" 
d="M997 1034v-686q0 -120 105 -129l-8 -37l-224 -194q-122 34 -137 172q-181 -52 -350 -172q-317 75 -317 440q0 102 30.5 240t30.5 194q0 95 -41 172h287q41 -53 41 -139q0 -72 -47.5 -250t-47.5 -235q0 -87 61.5 -129.5t158.5 -42.5q109 0 188 61v735h270zM905 1468
l90 -88q-37 -136 -93 -193t-140 -57q-54 0 -110 22t-95.5 49t-89.5 54.5t-90 34.5q-40 -28 -68 -65t-59 -97l-90 89q37 135 92.5 192t138.5 57q54 0 112 -22.5t99.5 -50t90.5 -54t85 -32.5q81 51 127 161z" />
    <glyph glyph-name="Umacron" unicode="&#x16a;" horiz-adv-x="1533" 
d="M1487 1528l-8 -74q-125 -6 -125 -151v-951q0 -129 135 -159l-2 -58l-225 -166q-72 29 -129.5 91.5t-65.5 142.5q-42 -99 -139 -156t-219 -57q-80 0 -161 24.5t-159 79t-137.5 132t-96 193t-36.5 253.5q0 199 73.5 391.5t206.5 363.5h-270l8 101h654l-9 -84
q-82 -21 -147 -70.5t-105 -111.5t-66 -140t-36 -152t-10 -151q0 -261 113 -422t288 -161q117 0 180.5 73t63.5 187v829q0 64 -41.5 96.5t-103.5 32.5l8 74h561zM1219 1944l-45 -179h-687l45 179h687z" />
    <glyph glyph-name="umacron" unicode="&#x16b;" horiz-adv-x="1155" 
d="M997 1034v-686q0 -120 105 -129l-8 -37l-224 -194q-122 34 -137 172q-181 -52 -350 -172q-317 75 -317 440q0 102 30.5 240t30.5 194q0 95 -41 172h287q41 -53 41 -139q0 -72 -47.5 -250t-47.5 -235q0 -87 61.5 -129.5t158.5 -42.5q109 0 188 61v735h270zM942 1450
l-45 -178h-686l45 178h686z" />
    <glyph glyph-name="Uring" unicode="&#x16e;" horiz-adv-x="1533" 
d="M1487 1528l-8 -74q-125 -6 -125 -151v-951q0 -129 135 -159l-2 -58l-225 -166q-72 29 -129.5 91.5t-65.5 142.5q-42 -99 -139 -156t-219 -57q-80 0 -161 24.5t-159 79t-137.5 132t-96 193t-36.5 253.5q0 199 73.5 391.5t206.5 363.5h-270l8 101h654l-9 -84
q-82 -21 -147 -70.5t-105 -111.5t-66 -140t-36 -152t-10 -151q0 -261 113 -422t288 -161q117 0 180.5 73t63.5 187v829q0 64 -41.5 96.5t-103.5 32.5l8 74h561zM748 1907q-13 -23 -13 -45q0 -66 67 -117t130 -51q25 0 49 12q4 10 4 33q0 71 -59 122.5t-133 51.5
q-24 0 -45 -6zM872 2062q228 -113 228 -262q0 -87 -71 -146t-181 -77q-109 32 -174.5 91.5t-65.5 139.5q0 76 63 132t201 122z" />
    <glyph glyph-name="uring" unicode="&#x16f;" horiz-adv-x="1155" 
d="M997 1034v-686q0 -120 105 -129l-8 -37l-224 -194q-122 34 -137 172q-181 -52 -350 -172q-317 75 -317 440q0 102 30.5 240t30.5 194q0 95 -41 172h287q41 -53 41 -139q0 -72 -47.5 -250t-47.5 -235q0 -87 61.5 -129.5t158.5 -42.5q109 0 188 61v735h270zM471 1413
q-12 -21 -12 -45q0 -66 66.5 -117t129.5 -51q26 0 50 12q4 10 4 33q0 70 -59.5 122t-133.5 52q-24 0 -45 -6zM596 1569q227 -112 227 -262q0 -87 -71 -146.5t-181 -77.5q-108 32 -173.5 92t-65.5 140q0 76 63 132t201 122z" />
    <glyph glyph-name="Uhungarumlaut" unicode="&#x170;" horiz-adv-x="1533" 
d="M1487 1528l-8 -74q-125 -6 -125 -151v-951q0 -129 135 -159l-2 -58l-225 -166q-72 29 -129.5 91.5t-65.5 142.5q-42 -99 -139 -156t-219 -57q-80 0 -161 24.5t-159 79t-137.5 132t-96 193t-36.5 253.5q0 199 73.5 391.5t206.5 363.5h-270l8 101h654l-9 -84
q-82 -21 -147 -70.5t-105 -111.5t-66 -140t-36 -152t-10 -151q0 -261 113 -422t288 -161q117 0 180.5 73t63.5 187v829q0 64 -41.5 96.5t-103.5 32.5l8 74h561zM1305 1933l-310 -356l-114 51l237 434zM946 1933l-309 -356l-115 51l238 434z" />
    <glyph glyph-name="uhungarumlaut" unicode="&#x171;" horiz-adv-x="1155" 
d="M997 1034v-686q0 -120 105 -129l-8 -37l-224 -194q-122 34 -137 172q-181 -52 -350 -172q-317 75 -317 440q0 102 30.5 240t30.5 194q0 95 -41 172h287q41 -53 41 -139q0 -72 -47.5 -250t-47.5 -235q0 -87 61.5 -129.5t158.5 -42.5q109 0 188 61v735h270zM1030 1440
l-309 -357l-115 52l238 434zM672 1440l-310 -357l-114 52l237 434z" />
    <glyph glyph-name="Uogonek" unicode="&#x172;" horiz-adv-x="1533" 
d="M1487 1528l-8 -74q-125 -6 -125 -151v-951q0 -129 135 -159l-2 -58q-142 -90 -231 -170t-107 -115q16 -4 53 -4q62 0 133 11.5t119 31.5l-16 -217q-37 -28 -128 -47.5t-182 -19.5q-67 19 -112 64.5t-49 119.5q94 138 243 207q-56 33 -96 87.5t-47 119.5
q-42 -99 -139 -156t-219 -57q-80 0 -161 24.5t-159 79t-137.5 132t-96 193t-36.5 253.5q0 199 73.5 391.5t206.5 363.5h-270l8 101h654l-9 -84q-82 -21 -147 -70.5t-105 -111.5t-66 -140t-36 -152t-10 -151q0 -261 113 -422t288 -161q117 0 180.5 73t63.5 187v829
q0 64 -41.5 96.5t-103.5 32.5l8 74h561z" />
    <glyph glyph-name="uogonek" unicode="&#x173;" horiz-adv-x="1155" 
d="M997 1034v-686q0 -120 105 -129l-8 -37q-204 -165 -270.5 -228t-90.5 -104q16 -4 53 -4q62 0 133 11.5t119 31.5l-16 -217q-37 -28 -127.5 -47.5t-181.5 -19.5q-67 19 -112.5 64.5t-49.5 119.5q48 71 123.5 129.5t142.5 89.5q-72 46 -84 152q-181 -52 -350 -172
q-317 75 -317 440q0 102 30.5 240t30.5 194q0 95 -41 172h287q41 -53 41 -139q0 -72 -47.5 -250t-47.5 -235q0 -87 61.5 -129.5t158.5 -42.5q109 0 188 61v735h270z" />
    <glyph glyph-name="Wcircumflex" unicode="&#x174;" horiz-adv-x="2263" 
d="M1382 1243l-8 41q173 101 244 242q32 8 74 8q219 0 359 -177t140 -468q0 -176 -63.5 -320.5t-195.5 -283.5t-369 -320h-29q-240 243 -320 432q-148 -194 -454 -432h-29q-140 141 -230.5 259.5t-140 227t-70 198.5t-28.5 208q-4 62 -7 94.5t-9 84t-13.5 81.5t-20 73
t-30 73t-41.5 66.5t-56 69.5t-73 66l8 62h324q42 -41 73.5 -82.5t53.5 -91.5t35.5 -88.5t24.5 -103.5t16 -104.5t14 -121.5q11 -108 28 -185t53 -167t101 -178t162 -181q143 121 206 242t63 264t-52.5 263.5t-156 195t-238.5 74.5q-73 0 -147 -21l-9 41q173 101 244 242
q36 8 78 8q189 0 311 -123t164 -338q18 -97 18 -199q0 -62 -4 -90q64 -315 326 -559q142 121 205 242t63 264q0 106 -31 202.5t-87 170t-141 117t-187 43.5q-74 0 -148 -21zM1176 2062l311 -389l-115 -78l-207 189l-217 -189l-90 88z" />
    <glyph glyph-name="wcircumflex" unicode="&#x175;" horiz-adv-x="1613" 
d="M1026 846l-16 45q118 64 168 166q24 6 55 6q125 0 211 -94.5t86 -282.5q0 -194 -108 -360t-353 -361h-16q-161 166 -232 297q-117 -148 -307 -297h-18q-177 187 -241.5 320t-78.5 305q-6 70 -9.5 104t-11 77t-17 63t-26.5 45t-39.5 41.5t-56.5 35.5l9 78h274
q73 -78 94.5 -152t36.5 -249q6 -69 10.5 -105.5t18 -90.5t33.5 -90t56.5 -80t88.5 -85q79 76 119.5 168.5t40.5 186.5q0 128 -66 226.5t-164 98.5q-34 0 -96 -16l-16 45q118 64 168 166q24 6 55 6q59 0 111 -22t94.5 -66t67 -118.5t24.5 -172.5q0 -56 -8 -100
q20 -127 71 -223.5t154 -178.5q79 76 119.5 168.5t40.5 186.5q0 128 -66 226.5t-164 98.5q-34 0 -96 -16zM788 1569l312 -389l-115 -78l-207 188l-217 -188l-90 88z" />
    <glyph glyph-name="Ycircumflex" unicode="&#x176;" horiz-adv-x="1488" 
d="M664 1243l-9 41q171 99 242 242q27 8 76 8q92 0 171.5 -33t141 -96t96.5 -164t35 -229q0 -255 -143.5 -478.5t-442.5 -467.5q-20 -36 -20 -89q0 -58 31.5 -92.5t93.5 -34.5q54 0 117.5 31.5t156.5 106.5l58 -35q-86 -156 -208.5 -243t-242.5 -87q-61 0 -108 23
t-73.5 59.5t-40 77.5t-13.5 82q0 100 84 178q-164 174 -254 311t-124.5 248.5t-43.5 255.5q-4 65 -6.5 99t-8 87.5t-12 83.5t-18.5 73.5t-28 72.5t-38.5 64.5t-52.5 66t-68 61.5v62h328q39 -39 67.5 -76.5t49 -84t33 -83.5t23 -102.5t16 -110.5t14.5 -135
q22 -216 94.5 -360.5t249.5 -321.5q163 148 237 269.5t74 271.5q0 92 -27 176t-76 149.5t-125.5 104.5t-168.5 39q-69 0 -137 -21zM748 2062l311 -389l-115 -78l-207 189l-217 -189l-90 88z" />
    <glyph glyph-name="ycircumflex" unicode="&#x177;" horiz-adv-x="1069" 
d="M475 846l-16 45q116 58 170 166q24 6 57 6q59 0 111 -21t95 -62.5t68 -113.5t25 -166q0 -44 -5 -84.5t-18 -80t-25 -72t-37.5 -70.5t-43.5 -64.5t-55 -65.5t-59 -62.5t-69 -65.5t-72.5 -64.5t-80.5 -70.5q-129 -113 -143 -385h-287q43 149 142 259t239 159
q-156 173 -217.5 297.5t-75.5 273.5q-8 77 -12.5 114t-13.5 79t-16.5 58.5t-26 38.5t-38 34.5t-55.5 32.5l9 73h276q74 -74 96 -146t37 -241q7 -77 16 -125.5t30.5 -104.5t61 -103.5t101.5 -96.5q80 72 121 163t41 179q0 118 -66.5 210.5t-165.5 92.5q-32 0 -98 -16z
M537 1569l311 -389l-115 -78l-207 188l-217 -188l-90 88z" />
    <glyph glyph-name="Ydieresis" unicode="&#x178;" horiz-adv-x="1488" 
d="M664 1243l-9 41q171 99 242 242q27 8 76 8q92 0 171.5 -33t141 -96t96.5 -164t35 -229q0 -255 -143.5 -478.5t-442.5 -467.5q-20 -36 -20 -89q0 -58 31.5 -92.5t93.5 -34.5q54 0 117.5 31.5t156.5 106.5l58 -35q-86 -156 -208.5 -243t-242.5 -87q-61 0 -108 23
t-73.5 59.5t-40 77.5t-13.5 82q0 100 84 178q-164 174 -254 311t-124.5 248.5t-43.5 255.5q-4 65 -6.5 99t-8 87.5t-12 83.5t-18.5 73.5t-28 72.5t-38.5 64.5t-52.5 66t-68 61.5v62h328q39 -39 67.5 -76.5t49 -84t33 -83.5t23 -102.5t16 -110.5t14.5 -135
q22 -216 94.5 -360.5t249.5 -321.5q163 148 237 269.5t74 271.5q0 92 -27 176t-76 149.5t-125.5 104.5t-168.5 39q-69 0 -137 -21zM1083 2034v-250l-268 -121v254zM674 1993v-250l-268 -121v254z" />
    <glyph glyph-name="Zacute" unicode="&#x179;" horiz-adv-x="1427" 
d="M1219 1532l84 -74q-588 -600 -832 -1106q10 5 42 10t60 5q56 0 224.5 -39t238.5 -39q66 0 122 24.5t91 62.5t56.5 75.5t29.5 72.5l64 -14q-72 -530 -461 -530q-72 0 -276.5 29.5t-294.5 29.5q-76 0 -130 -16t-106 -50l-72 66q91 149 146 238t121 192.5t106.5 163
t93 131.5t92 117.5t91.5 100.5t103 102t116 102q-74 -21 -150 -21q-65 0 -176.5 30t-195.5 30q-49 0 -82.5 -11t-82.5 -55.5t-112 -132.5l-63 43q31 78 56.5 132t67.5 117.5t86.5 102t110 64.5t143.5 26q75 0 227.5 -34.5t225.5 -34.5q130 0 236 90zM860 2062l148 -178
l-375 -289l-90 88z" />
    <glyph glyph-name="zacute" unicode="&#x17a;" horiz-adv-x="1044" 
d="M950 1034l-8 -71q-337 -427 -528 -715h229q189 0 307 112l33 -41l-111 -266q-21 -53 -84 -53h-718l8 88q296 406 571 713h-235q-123 0 -289 -90l-27 26l64 297h788zM688 1569l148 -178l-375 -289l-90 88z" />
    <glyph glyph-name="Zdotaccent" unicode="&#x17b;" horiz-adv-x="1427" 
d="M1219 1532l84 -74q-588 -600 -832 -1106q10 5 42 10t60 5q56 0 224.5 -39t238.5 -39q66 0 122 24.5t91 62.5t56.5 75.5t29.5 72.5l64 -14q-72 -530 -461 -530q-72 0 -276.5 29.5t-294.5 29.5q-76 0 -130 -16t-106 -50l-72 66q91 149 146 238t121 192.5t106.5 163
t93 131.5t92 117.5t91.5 100.5t103 102t116 102q-74 -21 -150 -21q-65 0 -176.5 30t-195.5 30q-49 0 -82.5 -11t-82.5 -55.5t-112 -132.5l-63 43q31 78 56.5 132t67.5 117.5t86.5 102t110 64.5t143.5 26q75 0 227.5 -34.5t225.5 -34.5q130 0 236 90zM848 2013v-250
l-268 -121v254z" />
    <glyph glyph-name="zdotaccent" unicode="&#x17c;" horiz-adv-x="1044" 
d="M950 1034l-8 -71q-337 -427 -528 -715h229q189 0 307 112l33 -41l-111 -266q-21 -53 -84 -53h-718l8 88q296 406 571 713h-235q-123 0 -289 -90l-27 26l64 297h788zM676 1520v-250l-268 -121v254z" />
    <glyph glyph-name="Zcaron" unicode="&#x17d;" horiz-adv-x="1427" 
d="M1219 1532l84 -74q-588 -600 -832 -1106q10 5 42 10t60 5q56 0 224.5 -39t238.5 -39q66 0 122 24.5t91 62.5t56.5 75.5t29.5 72.5l64 -14q-72 -530 -461 -530q-72 0 -276.5 29.5t-294.5 29.5q-76 0 -130 -16t-106 -50l-72 66q91 149 146 238t121 192.5t106.5 163
t93 131.5t92 117.5t91.5 100.5t103 102t116 102q-74 -21 -150 -21q-65 0 -176.5 30t-195.5 30q-49 0 -82.5 -11t-82.5 -55.5t-112 -132.5l-63 43q31 78 56.5 132t67.5 117.5t86.5 102t110 64.5t143.5 26q75 0 227.5 -34.5t225.5 -34.5q130 0 236 90zM1028 1974l-317 -379
l-312 390l115 77l207 -188l217 188z" />
    <glyph glyph-name="zcaron" unicode="&#x17e;" horiz-adv-x="1044" 
d="M950 1034l-8 -71q-337 -427 -528 -715h229q189 0 307 112l33 -41l-111 -266q-21 -53 -84 -53h-718l8 88q296 406 571 713h-235q-123 0 -289 -90l-27 26l64 297h788zM836 1481l-318 -379l-311 389l115 78l206 -189l217 189z" />
    <glyph glyph-name="uni018E" unicode="&#x18e;" horiz-adv-x="1581" 
d="M1237 696l-1028 -127q99 146 194 371h37q9 -96 129 -102l658 -31q-23 144 -94 260.5t-188 187t-259 70.5q-298 0 -524 -317l-68 71q59 80 110.5 140.5t122 125t140 105.5t158.5 67.5t184 26.5q148 0 280.5 -60.5t227 -163.5t150 -246t55.5 -302q0 -170 -63 -319
t-171 -254.5t-258 -166.5t-319 -61q-159 0 -285 55t-242 167q152 110 267 225l49 -62q-4 -20 -4 -30q0 -69 74.5 -125t197.5 -56q95 0 179.5 37.5t149 106t102.5 174t38 233.5z" />
    <glyph glyph-name="uni018F" unicode="&#x18f;" horiz-adv-x="1662" 
d="M209 1008l-68 71q59 80 110.5 140.5t122 125t140 105.5t158.5 67.5t184 26.5q197 0 361 -102.5t258 -279.5t94 -388q0 -171 -65 -322.5t-173.5 -255.5t-252.5 -164.5t-300 -60.5q-150 0 -279 57t-216.5 153.5t-137 226t-49.5 272.5q0 55 10 127h1168q-23 144 -94 260.5
t-188 187t-259 70.5q-298 0 -524 -317zM1284 696h-870q1 -168 57 -294.5t151 -191.5t214 -65q89 0 169.5 37.5t143 106t99 174.5t36.5 233z" />
    <glyph glyph-name="uni018F" unicode="&#x4d8;" horiz-adv-x="1662" 
d="M209 1008l-68 71q59 80 110.5 140.5t122 125t140 105.5t158.5 67.5t184 26.5q197 0 361 -102.5t258 -279.5t94 -388q0 -171 -65 -322.5t-173.5 -255.5t-252.5 -164.5t-300 -60.5q-150 0 -279 57t-216.5 153.5t-137 226t-49.5 272.5q0 55 10 127h1168q-23 144 -94 260.5
t-188 187t-259 70.5q-298 0 -524 -317zM1284 696h-870q1 -168 57 -294.5t151 -191.5t214 -65q89 0 169.5 37.5t143 106t99 174.5t36.5 233z" />
    <glyph glyph-name="florin" unicode="&#x192;" horiz-adv-x="1060" 
d="M1065 1397l-178 -183q-69 93 -182 93q-37 0 -64 -9q8 -27 8 -84q0 -43 -11 -98.5t-52 -208.5h248l-19 -110h-258l-115 -432q-188 -708 -614 -742l14 58q161 68 242 364l203 752h-156l19 110h88q45 8 71.5 42.5t26.5 90.5q0 38 -18.5 59t-67.5 25l10 37q380 289 660 373
q21 -113 145 -137z" />
    <glyph glyph-name="uni0194" unicode="&#x194;" horiz-adv-x="1492" 
d="M668 1243l-9 41q173 100 242 242q33 8 78 8q87 0 164.5 -31t140.5 -93t100 -168.5t37 -244.5q0 -261 -110.5 -474t-331.5 -351q47 -44 70 -67.5t48.5 -56.5t35.5 -63t10 -65q0 -110 -91 -200.5t-214 -114.5q-124 45 -208.5 125t-84.5 184q0 103 94 190
q-105 94 -183.5 203t-120 211t-62 184.5t-25.5 155.5q-5 77 -8 115.5t-10.5 98.5t-17 93t-26.5 79t-40 78.5t-56.5 70t-77.5 73.5l8 62h324q94 -114 133.5 -237.5t69.5 -354.5q25 -199 116.5 -371.5t215.5 -296.5q160 102 241.5 227.5t81.5 307.5q0 119 -45 222.5
t-137.5 171t-214.5 67.5q-67 0 -137 -21zM997 -225q-4 35 -17 62t-40.5 52t-50.5 41t-71.5 46t-78.5 51q-49 -40 -49 -78q0 -63 85 -121.5t175 -58.5q23 0 47 6z" />
    <glyph glyph-name="uni019D" unicode="&#x19d;" horiz-adv-x="1525" 
d="M1497 1528l-8 -82q-70 -1 -98.5 -20.5t-28.5 -59.5v-1366h-158v100l-850 1065v-876q0 -297 -147 -474.5t-430 -209.5l-13 71q93 36 165.5 88.5t133 134t93 202.5t32.5 276v891q0 129 -139 153l6 62l357 78l792 -979v761q0 51 -37.5 77t-107.5 26l8 82h430z" />
    <glyph glyph-name="Ohorn" unicode="&#x1a0;" horiz-adv-x="1542" 
d="M1284 1855h258q64 -134 64 -237t-66.5 -154t-218.5 -51q-60 0 -151 6.5t-140 16.5q217 -156 317.5 -343.5t100.5 -379.5q0 -145 -55.5 -272t-151.5 -218.5t-220 -154.5t-267 -91q-104 39 -196.5 89.5t-179 120.5t-148.5 151t-99 185t-37 218q0 103 31 194.5t87.5 170.5
t148.5 157.5t201.5 149.5t258.5 152q180 -62 439 -62q91 0 117 14.5t26 63.5q0 72 -34.5 145t-84.5 129zM373 1165q-82 -131 -82 -264q0 -112 48 -220t126 -191t173.5 -147t196 -98t187.5 -34q102 0 178 49q68 133 68 299q0 123 -46.5 247.5t-126 224t-194.5 162t-242 62.5
q-73 0 -139 -21.5t-147 -68.5z" />
    <glyph glyph-name="ohorn" unicode="&#x1a1;" 
d="M801 1362h258q63 -132 63 -234q0 -97 -61.5 -152.5t-179.5 -55.5q-55 0 -150 20q254 -211 254 -471q0 -193 -132.5 -325t-334.5 -171q-201 73 -322.5 205.5t-121.5 310.5q0 89 31.5 165t100 145.5t150 127.5t207.5 132q151 -49 268 -49q54 0 71.5 16.5t17.5 52.5
q0 33 -7.5 66t-24.5 68t-27.5 54t-33.5 54.5t-26 40.5zM279 764q-27 -58 -27 -125q0 -92 46 -179t115 -147t148 -96.5t146 -36.5q54 0 114 31q13 44 13 90q0 96 -39 185t-102.5 152.5t-146 101.5t-167.5 38q-54 0 -100 -14z" />
    <glyph glyph-name="Uhorn" unicode="&#x1af;" horiz-adv-x="1617" 
d="M1360 1855h258q63 -132 63 -235q0 -159 -145 -188q-113 -22 -147.5 -43t-34.5 -86v-951q0 -129 135 -159l-2 -58l-225 -166q-72 29 -129.5 91.5t-65.5 142.5q-42 -99 -139 -156t-219 -57q-80 0 -161 24.5t-159 79t-137.5 132t-96 193t-36.5 253.5q0 199 73.5 391.5
t206.5 363.5h-270l8 101h654l-9 -84q-82 -21 -147 -70.5t-105 -111.5t-66 -140t-36 -152t-10 -151q0 -261 113 -422t288 -161q117 0 180.5 73t63.5 187v829q0 64 -41.5 96.5t-103.5 32.5l8 74h512q26 0 33.5 10t7.5 33q0 27 -6.5 56t-12.5 49t-23 51.5t-23.5 43t-28.5 45.5
t-25 39z" />
    <glyph glyph-name="uhorn" unicode="&#x1b0;" horiz-adv-x="1155" 
d="M897 1362h258q64 -134 64 -234q0 -91 -55 -146t-167 -62v-572q0 -120 105 -129l-8 -37l-224 -194q-122 34 -137 172q-181 -52 -350 -172q-317 75 -317 440q0 102 30.5 240t30.5 194q0 95 -41 172h287q41 -53 41 -139q0 -72 -47.5 -250t-47.5 -235q0 -87 61.5 -129.5
t158.5 -42.5q109 0 188 61v735h231q23 0 32 13.5t9 44.5q0 109 -102 270z" />
    <glyph glyph-name="uni01DD" unicode="&#x1dd;" horiz-adv-x="872" 
d="M82 776l-33 21q133 226 350 262q173 -52 283.5 -190t110.5 -320q0 -53 -11.5 -101.5t-27.5 -87t-50 -82.5t-62 -74.5t-82 -76t-91 -73.5t-107 -81q-165 103 -278 277l446 446q-116 127 -266 127q-93 0 -182 -47zM578 629l-238 -236q43 -163 217 -178q55 137 55 248
q0 85 -34 166z" />
    <glyph glyph-name="uni01DD" unicode="&#x4d9;" horiz-adv-x="872" 
d="M82 776l-33 21q133 226 350 262q173 -52 283.5 -190t110.5 -320q0 -53 -11.5 -101.5t-27.5 -87t-50 -82.5t-62 -74.5t-82 -76t-91 -73.5t-107 -81q-165 103 -278 277l446 446q-116 127 -266 127q-93 0 -182 -47zM578 629l-238 -236q43 -163 217 -178q55 137 55 248
q0 85 -34 166z" />
    <glyph glyph-name="Gcaron" unicode="&#x1e6;" horiz-adv-x="1687" 
d="M1393 651h-574q-140 0 -211 -71l-37 49l537 526q10 10 10 33q0 68 -73.5 125t-198.5 57q-95 0 -177 -37t-143 -105t-96 -171t-35 -228q0 -141 44 -262.5t116.5 -203t167.5 -127.5t197 -46q84 0 167 31.5t152 88t111.5 146t42.5 195.5zM1432 1323l-459 -432h487
q85 0 146 61l43 -51q-27 -71 -74 -92q-19 -165 -75 -304.5t-134 -236t-174 -165t-196.5 -100.5t-200.5 -32q-149 0 -281 65.5t-223 173.5t-144 250.5t-53 293.5q0 163 62.5 309.5t170 252t258.5 167t322 61.5q158 0 285.5 -54.5t239.5 -166.5zM1178 1974l-318 -379l-311 390
l115 77l206 -188l217 188z" />
    <glyph glyph-name="gcaron" unicode="&#x1e7;" horiz-adv-x="1069" 
d="M707 276v154q0 53 -6 93.5t-28 88t-59.5 78t-107 51.5t-164.5 21q-38 0 -61 -2q-35 -78 -35 -154q0 -139 103 -242.5t249 -103.5q43 0 109 16zM975 782v-604q0 -228 -122.5 -369t-371.5 -204q-66 123 -172 123q-88 0 -215 -109l-26 39q157 201 303 201q100 0 209 -103
q127 155 127 365v63q-46 -18 -78.5 -35.5t-64 -44.5t-50 -46.5t-59.5 -65.5q-187 0 -284 112t-97 287q0 106 35.5 215.5t98 203t158 160.5t205.5 85q86 -120 175 -185t229 -88zM848 1481l-318 -379l-311 389l115 78l207 -189l217 189z" />
    <glyph glyph-name="uni01F4" unicode="&#x1f4;" horiz-adv-x="1687" 
d="M1393 651h-574q-140 0 -211 -71l-37 49l537 526q10 10 10 33q0 68 -73.5 125t-198.5 57q-95 0 -177 -37t-143 -105t-96 -171t-35 -228q0 -141 44 -262.5t116.5 -203t167.5 -127.5t197 -46q84 0 167 31.5t152 88t111.5 146t42.5 195.5zM1432 1323l-459 -432h487
q85 0 146 61l43 -51q-27 -71 -74 -92q-19 -165 -75 -304.5t-134 -236t-174 -165t-196.5 -100.5t-200.5 -32q-149 0 -281 65.5t-223 173.5t-144 250.5t-53 293.5q0 163 62.5 309.5t170 252t258.5 167t322 61.5q158 0 285.5 -54.5t239.5 -166.5zM989 2062l148 -178l-375 -289
l-90 88z" />
    <glyph glyph-name="uni01F5" unicode="&#x1f5;" horiz-adv-x="1069" 
d="M707 276v154q0 53 -6 93.5t-28 88t-59.5 78t-107 51.5t-164.5 21q-38 0 -61 -2q-35 -78 -35 -154q0 -139 103 -242.5t249 -103.5q43 0 109 16zM975 782v-604q0 -228 -122.5 -369t-371.5 -204q-66 123 -172 123q-88 0 -215 -109l-26 39q157 201 303 201q100 0 209 -103
q127 155 127 365v63q-46 -18 -78.5 -35.5t-64 -44.5t-50 -46.5t-59.5 -65.5q-187 0 -284 112t-97 287q0 106 35.5 215.5t98 203t158 160.5t205.5 85q86 -120 175 -185t229 -88zM680 1569l147 -178l-374 -289l-91 88z" />
    <glyph glyph-name="uni01F8" unicode="&#x1f8;" horiz-adv-x="1525" 
d="M1497 1528l-8 -82q-70 -1 -98.5 -20.5t-28.5 -59.5v-1366h-158v100l-850 1065v-923q0 -296 -254 -623l-43 27q131 287 131 573v1049q0 129 -139 153l6 62l357 78l792 -979v761q0 51 -37.5 77t-107.5 26l8 82h430zM643 2062l311 -389l-114 -78l-394 322z" />
    <glyph glyph-name="uni01F9" unicode="&#x1f9;" horiz-adv-x="1116" 
d="M420 752v-752h-268v686q0 119 -105 129l8 37l221 195q127 -37 144 -138q191 40 321 138q157 -41 225 -154t68 -320q0 -221 -69 -573h-344q165 395 165 584q0 207 -227 207q-49 0 -75 -8t-64 -31zM438 1569l312 -389l-115 -78l-393 321z" />
    <glyph glyph-name="uni0237" unicode="&#x237;" horiz-adv-x="542" 
d="M449 1055v-682q0 -356 -104.5 -544.5t-309.5 -205.5l8 58q137 63 137 364v649q0 120 -104 129l8 37z" />
    <glyph glyph-name="uni0241" unicode="&#x241;" horiz-adv-x="1185" 
d="M741 520v-272q0 -44 17 -77t41.5 -52t63.5 -31.5t71 -17.5t76 -9q22 -2 35 -3.5t33.5 -7t31.5 -14t20 -25t9 -38.5q0 -84 -117 -84q-62 0 -98.5 26.5t-55.5 84.5h-649l8 84q219 0 219 141v289q0 207 70 299q94 -88 176 -88q79 0 121.5 80.5t42.5 179.5q0 97 -39 198.5
t-117 176t-174 74.5q-88 0 -136 -76t-79 -264q-134 111 -284 153q222 200 505 324q312 -147 446 -280t134 -314t-139 -371q-60 49 -127 49q-46 0 -75.5 -32.5t-29.5 -102.5z" />
    <glyph glyph-name="uni0242" unicode="&#x242;" horiz-adv-x="1021" 
d="M633 354v-75q0 -66 34 -100t97 -34l-8 -49l-183 -114l-208 155v213q0 143 55 205q72 -57 147 -57q62 0 107 39t45 106q0 98 -87.5 183t-174.5 85q-121 0 -193 -241q-17 17 -36 35t-34 30.5t-38 30.5t-35 27t-39 29.5t-37 27.5q156 114 418 209q130 -24 226 -65.5t150 -94
t79.5 -108.5t25.5 -117q0 -67 -29.5 -127t-95.5 -135q-48 32 -104 32q-82 0 -82 -90z" />
    <glyph glyph-name="uni024C" unicode="&#x24c;" horiz-adv-x="1568" 
d="M1079 920l-176 -121q58 -119 144.5 -239t182.5 -205t163 -85q64 0 147 68l43 -49q-101 -82 -358 -342q-262 385 -539 702l-106 -74v-167q0 -181 178 -271v-125q-174 49 -289 49q-89 0 -163 -26.5t-120 -61.5l-57 84q141 85 141 213v269h-270l35 180h235v364
q0 166 -133 172l8 78q113 0 267 64q34 14 92.5 41t94 41.5t88.5 32t111 25t126 7.5q210 0 320 -75t110 -205q0 -95 -63 -168.5t-212 -175.5zM578 1141v-426l301 209q107 73 146.5 148.5t39.5 162.5q0 213 -184 213q-34 0 -68.5 -7t-74.5 -28t-71.5 -53.5t-56 -89
t-32.5 -129.5z" />
    <glyph glyph-name="uni024D" unicode="&#x24d;" horiz-adv-x="778" 
d="M778 913l-4 -22l-174 -143l-10 4q-18 57 -64 57q-43 0 -106 -57v-148h311l-45 -178h-266v-426h-268v426h-152l45 178h107v82q0 120 -105 129l8 37l221 195q124 -36 144 -138q58 103 196 138q48 -108 162 -134z" />
    <glyph glyph-name="uni0263" unicode="&#x263;" horiz-adv-x="1069" 
d="M475 846l-16 45q119 62 172 166q24 6 57 6q59 0 110 -21t94 -65t68 -122.5t25 -184.5q0 -86 -17 -173t-51.5 -172.5t-94.5 -162t-138 -129.5q62 -62 87.5 -100.5t25.5 -88.5q0 -84 -62 -152.5t-147 -86.5q-86 35 -144.5 94.5t-58.5 138.5q0 77 66 146q-76 76 -131 159.5
t-83 160t-41 135t-16 114.5q-4 57 -6.5 86.5t-7.5 72t-12 65.5t-18.5 53.5t-27.5 49.5t-39 39t-53 37l9 78h276q74 -78 96 -152t37 -249q15 -173 61.5 -310t120.5 -217q93 64 141 173t48 235q0 157 -67.5 252.5t-164.5 95.5q-32 0 -98 -16zM698 -266q7 41 -31 79t-147 111
q-35 -27 -35 -63q0 -40 35 -77t82 -51t96 1z" />
    <glyph glyph-name="uni0272" unicode="&#x272;" horiz-adv-x="1116" 
d="M965 0h-344q165 395 165 584q0 207 -227 207q-49 0 -75 -8t-64 -31q0 -317 -26.5 -533.5t-82 -344t-130 -185t-181.5 -66.5l8 58q39 18 62.5 58t44 143.5t29 298.5t8.5 505q0 119 -105 129l8 37l221 195q127 -37 144 -138q191 40 321 138q157 -41 225 -154t68 -322
q0 -219 -69 -571z" />
    <glyph glyph-name="circumflex" unicode="&#x2c6;" horiz-adv-x="643" 
d="M375 1569l311 -389l-115 -78l-206 188l-218 -188l-90 88z" />
    <glyph glyph-name="caron" unicode="&#x2c7;" horiz-adv-x="772" 
d="M700 1481l-317 -379l-311 389l114 78l207 -189l217 189z" />
    <glyph glyph-name="breve" unicode="&#x2d8;" horiz-adv-x="837" 
d="M608 1528h180q-12 -85 -39.5 -157t-71 -132t-111 -94.5t-150.5 -34.5t-149 34t-109 94.5t-70 132t-41 157.5h184q8 -76 35 -141.5t80.5 -117.5t126.5 -71q60 64 93.5 137.5t41.5 192.5z" />
    <glyph glyph-name="dotaccent" unicode="&#x2d9;" horiz-adv-x="411" 
d="M340 1520v-250l-268 -121v254z" />
    <glyph glyph-name="ring" unicode="&#x2da;" horiz-adv-x="634" 
d="M211 1413q-12 -21 -12 -45q0 -66 66.5 -117t129.5 -51q25 0 49 12q5 12 5 33q0 70 -59.5 122t-133.5 52q-24 0 -45 -6zM336 1569q227 -112 227 -262q0 -87 -71 -146.5t-181 -77.5q-108 32 -173.5 92t-65.5 140q0 76 63 132t201 122z" />
    <glyph glyph-name="ogonek" unicode="&#x2db;" horiz-adv-x="630" 
d="M559 -111l-16 -217q-37 -28 -128 -47.5t-182 -19.5q-67 19 -112 64.5t-49 119.5q97 142 256 211h82q-106 -66 -156 -150q16 -4 53 -4q62 0 133 11.5t119 31.5z" />
    <glyph glyph-name="tilde" unicode="&#x2dc;" horiz-adv-x="978" 
d="M817 1468l90 -88q-37 -136 -93 -193t-140 -57q-54 0 -110 22t-95.5 49t-89.5 54.5t-90 34.5q-40 -28 -68 -65t-59 -97l-90 89q37 135 92.5 192t138.5 57q54 0 112 -22.5t99.5 -50t90.5 -54t85 -32.5q81 51 127 161z" />
    <glyph glyph-name="hungarumlaut" unicode="&#x2dd;" horiz-adv-x="925" 
d="M854 1440l-309 -357l-115 52l238 434zM496 1440l-310 -357l-114 52l237 434z" />
    <glyph glyph-name="gravecomb" unicode="&#x300;" horiz-adv-x="0" 
d="M-651 1569l311 -389l-115 -78l-393 321z" />
    <glyph glyph-name="acutecomb" unicode="&#x301;" horiz-adv-x="0" 
d="M-387 1569l147 -178l-374 -289l-91 88z" />
    <glyph glyph-name="uni0302" unicode="&#x302;" horiz-adv-x="0" 
d="M-530 1569l311 -389l-115 -78l-207 188l-217 -188l-90 88z" />
    <glyph glyph-name="tildecomb" unicode="&#x303;" horiz-adv-x="0" 
d="M-205 1468l90 -88q-37 -136 -93 -193t-140 -57q-54 0 -110 22t-95.5 49t-89.5 54.5t-90 34.5q-40 -28 -68 -65t-59 -97l-90 89q37 135 92.5 192t138.5 57q54 0 112 -22.5t99.5 -50t90.5 -54t85 -32.5q81 51 127 161z" />
    <glyph glyph-name="uni0304" unicode="&#x304;" horiz-adv-x="0" 
d="M-168 1450l-45 -178h-686l45 178h686z" />
    <glyph glyph-name="uni0306" unicode="&#x306;" horiz-adv-x="0" 
d="M-340 1528h180q-12 -85 -39.5 -157t-71 -132t-111 -94.5t-150.5 -34.5t-149 34t-109 94.5t-70 132t-41 157.5h184q8 -76 35 -141.5t80.5 -117.5t126.5 -71q60 64 93.5 137.5t41.5 192.5z" />
    <glyph glyph-name="uni0307" unicode="&#x307;" horiz-adv-x="0" 
d="M-399 1520v-250l-269 -121v254z" />
    <glyph glyph-name="uni0308" unicode="&#x308;" horiz-adv-x="0" 
d="M-195 1540v-250l-268 -121v254zM-604 1499v-250l-268 -121v254z" />
    <glyph glyph-name="hookabovecomb" unicode="&#x309;" horiz-adv-x="0" 
d="M-520 1133l-119 41q61 21 114.5 92t53.5 135q0 42 -27 69q-22 -6 -41 -17.5t-30.5 -21.5t-26.5 -31.5t-20.5 -30.5t-20.5 -36q-24 27 -69.5 56t-77.5 38q99 89 243 142q141 -61 194.5 -107t53.5 -104q0 -63 -52.5 -110t-174.5 -115z" />
    <glyph glyph-name="uni030A" unicode="&#x30a;" horiz-adv-x="0" 
d="M-639 1413q-12 -21 -12 -45q0 -66 66.5 -117t129.5 -51q25 0 49 12q5 12 5 33q0 70 -59.5 122t-133.5 52q-24 0 -45 -6zM-514 1569q227 -112 227 -262q0 -87 -71 -146.5t-181 -77.5q-108 32 -173.5 92t-65.5 140q0 76 63 132t201 122z" />
    <glyph glyph-name="uni030B" unicode="&#x30b;" horiz-adv-x="0" 
d="M-80 1440l-309 -357l-115 52l238 434zM-438 1440l-310 -357l-114 52l237 434z" />
    <glyph glyph-name="uni030C" unicode="&#x30c;" horiz-adv-x="0" 
d="M-219 1481l-318 -379l-311 389l115 78l207 -189l217 189z" />
    <glyph glyph-name="uni0313" unicode="&#x313;" horiz-adv-x="0" 
d="M-397 1540l-80 -186l86 -117l-150 -199l-129 181l215 350z" />
    <glyph glyph-name="uni031B" unicode="&#x31b;" horiz-adv-x="88" 
d="M-186 1362h258q63 -132 63 -234q0 -98 -62.5 -153t-191.5 -55q-90 0 -219 30v72q99 -12 170 -12q73 0 98 14q2 16 2 47q0 36 -6 68.5t-22.5 67.5t-25.5 52t-34.5 56.5t-29.5 46.5z" />
    <glyph glyph-name="dotbelowcomb" unicode="&#x323;" horiz-adv-x="0" 
d="M-399 -61v-230l-269 -106v233z" />
    <glyph glyph-name="uni0326" unicode="&#x326;" horiz-adv-x="0" 
d="M-680 0h227q0 -153 -79.5 -263.5t-188.5 -131.5l-53 37q49 49 70.5 136t23.5 222z" />
    <glyph glyph-name="uni0328" unicode="&#x328;" horiz-adv-x="0" 
d="M-289 -111l-16 -217q-37 -28 -127.5 -47.5t-181.5 -19.5q-67 19 -112.5 64.5t-49.5 119.5q97 142 256 211h82q-106 -66 -156 -150q16 -4 53 -4q62 0 133 11.5t119 31.5z" />
    <glyph glyph-name="uni032D" unicode="&#x32d;" horiz-adv-x="0" 
d="M-528 -29l303 -305l-111 -61l-203 149l-213 -149l-88 69z" />
    <glyph glyph-name="tonos" unicode="&#x384;" horiz-adv-x="266" 
d="M266 1569l-112 -498h-125v498h237z" />
    <glyph glyph-name="dieresistonos" unicode="&#x385;" horiz-adv-x="929" 
d="M311 1479v-250l-268 -121v254zM612 1569l-112 -498h-125v498h237zM889 1561v-250l-268 -121v254z" />
    <glyph glyph-name="Alphatonos" unicode="&#x386;" horiz-adv-x="1716" 
d="M266 1569l-112 -498h-125v498h237zM983 1423h-164q0 -196 -39 -540h410l-43 391q-9 86 -43.5 117.5t-120.5 31.5zM1516 1528l-9 -90q-44 0 -67.5 -43.5t-14.5 -124.5l103 -951q24 -231 147 -231l-8 -88h-790l8 84q366 0 366 207q0 60 -14 170l-23 168h-487
q-105 -383 -332 -654q-60 57 -252 228l41 43q23 -13 43 -13q33 0 76.5 31t94 91t100.5 160.5t93 226.5t74.5 303.5t41.5 377.5h-402l21 105h1190z" />
    <glyph glyph-name="anoteleia" unicode="&#x387;" horiz-adv-x="479" 
d="M250 1067l158 -172l-179 -211l-157 186z" />
    <glyph glyph-name="Epsilontonos" unicode="&#x388;" horiz-adv-x="1562" 
d="M1477 424l59 -45q-27 -58 -45.5 -94.5t-45.5 -83t-51 -75t-58.5 -58.5t-71 -46.5t-84 -27t-103.5 -10.5q-43 0 -232 12t-278 12q-142 0 -301 -35l-47 78q131 122 131 301v617q0 161 -102 213l8 57q71 18 152.5 57t151.5 80t138 80.5t134 64.5t118 25q392 0 551 -53
q-32 -43 -63 -104t-45.5 -98.5t-42.5 -112.5q-232 92 -390 131t-288 39q-23 -145 -23 -275v-221l635 61q-99 -169 -172 -338h-37q-5 43 -38 71.5t-91 31.5l-297 12v-180q0 -78 -26 -145t-86 -140q129 72 231 72q46 0 203 -25.5t200 -25.5q136 0 306 178zM258 1569l-113 -498
h-125v498h238z" />
    <glyph glyph-name="Etatonos" unicode="&#x389;" horiz-adv-x="2316" 
d="M266 1569l-112 -498h-125v498h237zM2130 1528l-8 -86q-219 0 -219 -137v-1057q0 -152 268 -187q129 0 129 -90q0 -82 -117 -82q-62 0 -98 26t-55 85h-646l9 84q112 0 163.5 34.5t51.5 106.5v471q-143 13 -277 13q-143 0 -309 -15v-446q0 -74 54 -109.5t190 -52.5l-11 -86
h-755l8 84q219 0 219 141v1055q0 148 -270 186q-129 0 -129 90q0 82 116 82q64 0 100.5 -25.5t53.5 -84.5h651l-8 -86q-219 0 -219 -137v-439q153 -14 299 -14q155 0 287 18v410q0 74 -53.5 108.5t-190.5 53.5l8 86h758z" />
    <glyph glyph-name="Iotatonos" unicode="&#x38a;" horiz-adv-x="1419" 
d="M266 1569l-112 -498h-125v498h237zM1229 1528l-8 -86q-220 0 -220 -137v-1057q0 -152 269 -187q129 0 129 -90q0 -82 -117 -82q-62 0 -98.5 26.5t-55.5 84.5h-649l8 84q220 0 220 141v1055q0 148 -271 186q-129 0 -129 90q0 82 117 82q63 0 100 -26t54 -84h651z" />
    <glyph glyph-name="Omicrontonos" unicode="&#x38c;" horiz-adv-x="1609" 
d="M266 1569l-112 -498h-125v498h237zM440 1165q-82 -131 -82 -264q0 -223 185 -422q114 -121 266 -194.5t281 -73.5q102 0 178 49q67 131 67 299q0 120 -43 239.5t-114 213.5q-85 112 -202 177.5t-249 65.5q-74 0 -140.5 -22t-146.5 -68zM889 1565q288 -149 444 -348
q183 -233 183 -504q0 -145 -55.5 -272t-151.5 -218.5t-220.5 -154.5t-267.5 -91q-283 106 -456 285q-203 209 -203 479q0 103 31 194.5t87.5 170.5t148.5 157.5t201.5 149.5t258.5 152z" />
    <glyph glyph-name="Upsilontonos" unicode="&#x38e;" horiz-adv-x="1591" 
d="M266 1569l-112 -498h-125v498h237zM879 1325l-19 45q128 69 182 168q8 0 17.5 1t21.5 1q52 0 108.5 -13t116 -42.5t106 -71t76.5 -106t30 -140.5q0 -144 -103 -278t-295 -219v-262q0 -181 178 -271v-125q-174 49 -288 49q-89 0 -163 -26.5t-120 -61.5l-57 84
q141 85 141 213v381q-72 45 -128.5 107.5t-89.5 130t-52 129t-27 123.5q-10 71 -16 103t-16 66.5t-28.5 54t-43 39t-70.5 46.5v78h348q28 -20 46 -42.5t30.5 -44t24 -72t19 -91t23.5 -135.5q29 -173 84 -275t152 -139q51 32 87 76t53 90t24.5 84.5t7.5 73.5q0 120 -71 205
t-185 85q-49 0 -104 -18z" />
    <glyph glyph-name="Omegatonos" unicode="&#x38f;" horiz-adv-x="1681" 
d="M266 1569l-112 -498h-125v498h237zM1579 424l59 -45q-83 -197 -171.5 -288t-223.5 -91h-246l27 147q91 29 160 87t107.5 129.5t57.5 143.5t19 142q0 122 -56 236.5t-144 194t-197.5 127.5t-214.5 48q-131 0 -283 -90q-82 -131 -82 -243q0 -124 72.5 -285.5t185 -299
t223.5 -198.5l-34 -139h-326q-148 0 -297 -47l68 197q137 51 297 51q-90 56 -154 108.5t-119.5 120t-83.5 150.5t-28 182q0 101 32 191t89 166t150.5 153.5t200 144.5t255.5 148q174 -94 297.5 -194.5t194.5 -204t102.5 -204.5t31.5 -212q0 -274 -194 -490q56 17 99 47.5
t79 69.5t47 47z" />
    <glyph glyph-name="iotadieresistonos" unicode="&#x390;" horiz-adv-x="845" 
d="M541 848v-569q0 -66 34 -100t97 -34l-8 -49l-183 -114l-209 155v557q0 120 -104 129l8 37l193 195q76 -15 124 -72.5t48 -134.5zM268 1479v-250l-268 -121v254zM569 1569l-112 -498h-125v498h237zM846 1561v-250l-268 -121v254z" />
    <glyph glyph-name="Gamma" unicode="&#x393;" horiz-adv-x="1280" 
d="M471 1073v-665q0 -181 178 -271v-125q-174 49 -278 49q-89 0 -163 -26.5t-120 -61.5l-57 84q141 85 141 213v699q0 161 -102 213l8 57q78 19 161 59t152 80.5t142 79.5t158 63.5t173 24.5q76 0 200 -14.5t216 -38.5q-82 -108 -141 -301q-227 90 -369 123t-276 33
q-23 -145 -23 -275z" />
    <glyph glyph-name="Gamma" unicode="&#x413;" horiz-adv-x="1280" 
d="M471 1073v-665q0 -181 178 -271v-125q-174 49 -278 49q-89 0 -163 -26.5t-120 -61.5l-57 84q141 85 141 213v699q0 161 -102 213l8 57q78 19 161 59t152 80.5t142 79.5t158 63.5t173 24.5q76 0 200 -14.5t216 -38.5q-82 -108 -141 -301q-227 90 -369 123t-276 33
q-23 -145 -23 -275z" />
    <glyph glyph-name="uni0394" unicode="&#x394;" horiz-adv-x="1710" 
d="M954 1528l631 -1395q14 -31 32.5 -42.5t53.5 -18.5l-8 -72h-1632l8 70q22 0 44 10t56 38.5t81 92t104 158.5q133 223 258 506.5t125 394.5q0 53 -29 103t-88 50h-45l18 105h391zM1135 342l-269 651q-31 74 -67 74t-66 -72q-55 -131 -89 -209.5t-97.5 -207t-134.5 -252.5
q-15 -27 -38 -65t-33.5 -56.5t-19 -39.5t-8.5 -34q0 -21 18 -32t46 -11h604q84 0 132 35t48 104q0 50 -26 115z" />
    <glyph glyph-name="Epsilon" unicode="&#x395;" horiz-adv-x="1384" 
d="M1298 424l60 -45q-27 -58 -45.5 -94.5t-45.5 -83t-51 -75t-58.5 -58.5t-71 -46.5t-84 -27t-103.5 -10.5q-43 0 -232 12t-278 12q-142 0 -301 -35l-47 78q131 122 131 301v617q0 161 -102 213l8 57q71 18 152.5 57t151.5 80t138 80.5t134 64.5t118 25q392 0 551 -53
q-33 -43 -63.5 -103t-46 -100t-42.5 -112q-232 92 -389.5 131t-287.5 39q-23 -145 -23 -275v-221l635 61q-99 -169 -172 -338h-37q-5 43 -38 71.5t-91 31.5l-297 12v-180q0 -78 -26.5 -144.5t-86.5 -140.5q129 72 232 72q47 0 203.5 -25.5t199.5 -25.5q135 0 305 178z" />
    <glyph glyph-name="Epsilon" unicode="&#x415;" horiz-adv-x="1384" 
d="M1298 424l60 -45q-27 -58 -45.5 -94.5t-45.5 -83t-51 -75t-58.5 -58.5t-71 -46.5t-84 -27t-103.5 -10.5q-43 0 -232 12t-278 12q-142 0 -301 -35l-47 78q131 122 131 301v617q0 161 -102 213l8 57q71 18 152.5 57t151.5 80t138 80.5t134 64.5t118 25q392 0 551 -53
q-33 -43 -63.5 -103t-46 -100t-42.5 -112q-232 92 -389.5 131t-287.5 39q-23 -145 -23 -275v-221l635 61q-99 -169 -172 -338h-37q-5 43 -38 71.5t-91 31.5l-297 12v-180q0 -78 -26.5 -144.5t-86.5 -140.5q129 72 232 72q47 0 203.5 -25.5t199.5 -25.5q135 0 305 178z" />
    <glyph glyph-name="Eta" unicode="&#x397;" horiz-adv-x="1968" 
d="M1782 1528l-8 -86q-220 0 -220 -137v-1057q0 -152 269 -187q129 0 129 -90q0 -82 -117 -82q-62 0 -98.5 26t-55.5 85h-645l8 84q112 0 164 34.5t52 106.5v471q-143 13 -277 13q-143 0 -309 -15v-446q0 -74 54 -109.5t190 -52.5l-11 -86h-755l8 84q219 0 219 141v1055
q0 148 -270 186q-129 0 -129 90q0 82 116 82q64 0 100.5 -25.5t53.5 -84.5h651l-8 -86q-219 0 -219 -137v-439q153 -14 299 -14q155 0 287 18v410q0 74 -53.5 108.5t-190.5 53.5l8 86h758z" />
    <glyph glyph-name="Eta" unicode="&#x41d;" horiz-adv-x="1968" 
d="M1782 1528l-8 -86q-220 0 -220 -137v-1057q0 -152 269 -187q129 0 129 -90q0 -82 -117 -82q-62 0 -98.5 26t-55.5 85h-645l8 84q112 0 164 34.5t52 106.5v471q-143 13 -277 13q-143 0 -309 -15v-446q0 -74 54 -109.5t190 -52.5l-11 -86h-755l8 84q219 0 219 141v1055
q0 148 -270 186q-129 0 -129 90q0 82 116 82q64 0 100.5 -25.5t53.5 -84.5h651l-8 -86q-219 0 -219 -137v-439q153 -14 299 -14q155 0 287 18v410q0 74 -53.5 108.5t-190.5 53.5l8 86h758z" />
    <glyph glyph-name="Theta" unicode="&#x398;" horiz-adv-x="1542" 
d="M373 1165q-82 -131 -82 -264q0 -224 184 -422q114 -121 266 -194.5t281 -73.5q102 0 178 49q68 133 68 299q0 119 -43 239t-115 214q-85 112 -202 177.5t-249 65.5q-73 0 -139 -21.5t-147 -68.5zM821 1565q290 -150 445 -348q182 -231 182 -504q0 -145 -55.5 -272
t-151.5 -218.5t-220 -154.5t-267 -91q-284 107 -457 285q-203 209 -203 479q0 103 31 194.5t87.5 170.5t148.5 157.5t201.5 149.5t258.5 152zM1116 852l-78 -236q-50 31 -118 31h-273q-89 0 -143 -33l-45 25l80 233q53 -30 116 -30h273q93 0 143 32z" />
    <glyph glyph-name="Lambda" unicode="&#x39b;" horiz-adv-x="1710" 
d="M954 1528l631 -1395q14 -31 32.5 -42.5t53.5 -18.5l-8 -72h-659l8 88h30q73 0 96 29t23 94q0 66 -26 131l-269 651q-31 74 -67 74t-66 -72q-58 -137 -90 -211t-95.5 -203t-135.5 -255q-15 -27 -38 -65t-33.5 -56.5t-19 -39.5t-8.5 -34q0 -21 18 -32t46 -11h55l-8 -88
h-393l8 70q22 0 44 10t56 38.5t81 92t104 158.5q133 223 258 506.5t125 394.5q0 53 -29 103t-88 50h-45l18 105h391z" />
    <glyph glyph-name="Xi" unicode="&#x39e;" horiz-adv-x="1386" 
d="M1327 -70l-63 -24q-25 50 -67.5 72t-135.5 22h-821q-88 0 -144 -29l-39 21l136 332q49 -27 108 -27h655q191 0 275.5 -94t95.5 -273zM1368 1528l-149 -344h-33q-1 29 -25.5 45t-56.5 16h-727q-95 0 -153 -40.5t-95 -114.5l-43 20q26 129 53 204.5t72.5 126.5t107.5 69
t160 18h889zM1114 887l-98 -277q-64 37 -144 37h-335q-116 0 -177 -39l-55 27l96 276q61 -34 146 -34h336q117 0 176 38z" />
    <glyph glyph-name="Pi" unicode="&#x3a0;" horiz-adv-x="1574" 
d="M1503 1528l-8 -90q-56 -1 -82.5 -35.5t-26.5 -104.5v-981q0 -234 148 -237l-8 -80h-568l9 94q61 0 89.5 50.5t28.5 154.5v963q0 49 -43 86.5t-143 37.5h-223q-100 0 -143.5 -37.5t-43.5 -86.5v-963q0 -205 127 -205l-8 -94h-567l8 80q72 1 105.5 59.5t33.5 177.5v981
q0 137 -116 140l8 90h1423z" />
    <glyph glyph-name="Pi" unicode="&#x41f;" horiz-adv-x="1574" 
d="M1503 1528l-8 -90q-56 -1 -82.5 -35.5t-26.5 -104.5v-981q0 -234 148 -237l-8 -80h-568l9 94q61 0 89.5 50.5t28.5 154.5v963q0 49 -43 86.5t-143 37.5h-223q-100 0 -143.5 -37.5t-43.5 -86.5v-963q0 -205 127 -205l-8 -94h-567l8 80q72 1 105.5 59.5t33.5 177.5v981
q0 137 -116 140l8 90h1423z" />
    <glyph glyph-name="Sigma" unicode="&#x3a3;" horiz-adv-x="1384" 
d="M1298 424l60 -45q-27 -58 -45.5 -94.5t-45.5 -83t-51 -75t-58.5 -58.5t-71 -46.5t-84 -27t-103.5 -10.5q-43 0 -232 12t-278 12q-142 0 -301 -35l-49 121q84 52 282 248t275 303q-118 92 -263.5 254.5t-262.5 319.5l8 57q70 18 152.5 53t151.5 71t137.5 69.5t134.5 55
t118 21.5q392 0 551 -53q-33 -43 -63.5 -103t-46 -100t-42.5 -112q-232 92 -389.5 131t-287.5 39q51 -179 138.5 -299.5t270.5 -268.5q-12 -21 -274 -283t-271 -272q129 72 232 72q47 0 203.5 -25.5t199.5 -25.5q135 0 305 178z" />
    <glyph glyph-name="Tau" unicode="&#x3a4;" horiz-adv-x="1519" 
d="M59 1159l-57 37q163 340 895 340q81 0 177.5 -4.5t157.5 -9t166 -14t136 -11.5q-106 -153 -156 -319q-279 65 -469 92v-1041q0 -66 32.5 -107.5t88.5 -55.5l-8 -66h-524l8 66q106 29 106 167v1065q-27 2 -75 2q-361 0 -478 -141z" />
    <glyph glyph-name="Tau" unicode="&#x422;" horiz-adv-x="1519" 
d="M59 1159l-57 37q163 340 895 340q81 0 177.5 -4.5t157.5 -9t166 -14t136 -11.5q-106 -153 -156 -319q-279 65 -469 92v-1041q0 -66 32.5 -107.5t88.5 -55.5l-8 -66h-524l8 66q106 29 106 167v1065q-27 2 -75 2q-361 0 -478 -141z" />
    <glyph glyph-name="Upsilon" unicode="&#x3a5;" horiz-adv-x="1255" 
d="M551 1325l-19 45q129 70 183 168q8 0 17.5 1t21.5 1q52 0 108.5 -13t115.5 -42.5t106 -71t76.5 -106t29.5 -140.5q0 -145 -102.5 -278.5t-294.5 -218.5v-262q0 -181 178 -271v-125q-174 49 -289 49q-89 0 -163 -26.5t-120 -61.5l-57 84q141 85 141 213v381
q-72 45 -128.5 107.5t-89.5 130t-52 129t-27 123.5q-10 71 -16 103t-16 66.5t-28.5 54t-43 39t-70.5 46.5v78h348q64 -47 87 -112t57 -273q29 -174 83.5 -275.5t151.5 -138.5q51 32 87 76t53 90t24.5 84.5t7.5 73.5q0 120 -71 205t-185 85q-49 0 -104 -18z" />
    <glyph glyph-name="Upsilon" unicode="&#x4ae;" horiz-adv-x="1255" 
d="M551 1325l-19 45q129 70 183 168q8 0 17.5 1t21.5 1q52 0 108.5 -13t115.5 -42.5t106 -71t76.5 -106t29.5 -140.5q0 -145 -102.5 -278.5t-294.5 -218.5v-262q0 -181 178 -271v-125q-174 49 -289 49q-89 0 -163 -26.5t-120 -61.5l-57 84q141 85 141 213v381
q-72 45 -128.5 107.5t-89.5 130t-52 129t-27 123.5q-10 71 -16 103t-16 66.5t-28.5 54t-43 39t-70.5 46.5v78h348q64 -47 87 -112t57 -273q29 -174 83.5 -275.5t151.5 -138.5q51 32 87 76t53 90t24.5 84.5t7.5 73.5q0 120 -71 205t-185 85q-49 0 -104 -18z" />
    <glyph glyph-name="Phi" unicode="&#x3a6;" horiz-adv-x="1941" 
d="M823 340v807q-204 0 -364 -60q-56 -153 -56 -292q0 -68 13 -130.5t44.5 -121.5t78.5 -103t120 -71t164 -29zM1346 1528l-9 -86q-114 0 -166.5 -37.5t-52.5 -122.5q160 0 297.5 -46t231.5 -122.5t153.5 -172t79.5 -198.5q-44 -116 -109.5 -207.5t-157.5 -161.5t-218 -108
t-277 -39q3 -75 71.5 -120.5t196.5 -45.5q64 0 97 -23.5t33 -66.5q0 -82 -117 -82q-62 0 -98.5 26.5t-55.5 84.5h-649l8 84q107 0 161.5 37t57.5 106q-151 1 -277 39t-218 108t-157.5 161.5t-109.5 207.5q20 103 79.5 198.5t153.5 172t231.5 122.5t297.5 46q0 146 -270 184
q-129 0 -129 90q0 82 117 82q63 0 99.5 -26t53.5 -84h652zM1118 1149v-807q108 0 208 28t171 70q28 64 43.5 148.5t15.5 154.5q0 84 -25.5 155.5t-77 128t-137.5 89t-198 33.5z" />
    <glyph glyph-name="Phi" unicode="&#x424;" horiz-adv-x="1941" 
d="M823 340v807q-204 0 -364 -60q-56 -153 -56 -292q0 -68 13 -130.5t44.5 -121.5t78.5 -103t120 -71t164 -29zM1346 1528l-9 -86q-114 0 -166.5 -37.5t-52.5 -122.5q160 0 297.5 -46t231.5 -122.5t153.5 -172t79.5 -198.5q-44 -116 -109.5 -207.5t-157.5 -161.5t-218 -108
t-277 -39q3 -75 71.5 -120.5t196.5 -45.5q64 0 97 -23.5t33 -66.5q0 -82 -117 -82q-62 0 -98.5 26.5t-55.5 84.5h-649l8 84q107 0 161.5 37t57.5 106q-151 1 -277 39t-218 108t-157.5 161.5t-109.5 207.5q20 103 79.5 198.5t153.5 172t231.5 122.5t297.5 46q0 146 -270 184
q-129 0 -129 90q0 82 117 82q63 0 99.5 -26t53.5 -84h652zM1118 1149v-807q108 0 208 28t171 70q28 64 43.5 148.5t15.5 154.5q0 84 -25.5 155.5t-77 128t-137.5 89t-198 33.5z" />
    <glyph glyph-name="Psi" unicode="&#x3a8;" horiz-adv-x="1931" 
d="M1931 1309l-20 -90q-50 -8 -82 -18.5t-56 -34t-36 -43.5t-21 -70.5t-12 -90.5t-8 -126q-7 -108 -53 -185.5t-126.5 -123t-173 -69t-213.5 -32.5v-197q0 -66 31.5 -107.5t87.5 -55.5l-8 -66h-524l8 66q106 29 106 167v185q-335 5 -481 104q-78 52 -106 135.5t-49 272.5
q-3 32 -6.5 55.5t-12 57t-20.5 54.5t-32.5 36.5t-47.5 15.5q-37 0 -74 -16l12 77l363 117q25 -6 45 -19.5t33 -29t23 -41t15 -45t9 -53t5.5 -54t3.5 -58.5t3 -56q14 -214 82 -311t235 -121v772q0 132 -98 135l8 82h502l-8 -82q-105 -19 -105 -168v-741q238 19 336 90
q7 47 7 75q0 69 -22.5 139t-45.5 136.5t-23 126.5q0 113 82 168z" />
    <glyph glyph-name="uni03A9" unicode="&#x3a9;" horiz-adv-x="1536" 
d="M1434 424l59 -45q-83 -197 -171.5 -288t-223.5 -91h-246l27 147q91 29 160 87t107.5 129.5t57.5 143.5t19 142q0 82 -26 162t-70 145.5t-104.5 122t-128 95t-141 60t-143.5 21.5q-130 0 -282 -90q-82 -131 -82 -243q0 -124 72.5 -285.5t185 -299t223.5 -198.5l-35 -139
h-325q-148 0 -297 -47l67 197q137 51 297 51q-90 56 -154 108.5t-119.5 120t-83.5 150.5t-28 182q0 101 32 191t89 166t150.5 153.5t200 144.5t255.5 148q174 -94 297.5 -194.5t194.5 -204t103 -204.5t32 -212q0 -273 -195 -490q56 17 99 47.5t80 69.5t47 47z" />
    <glyph glyph-name="Upsilondieresis" unicode="&#x3ab;" horiz-adv-x="1255" 
d="M551 1325l-19 45q129 70 183 168q8 0 17.5 1t21.5 1q52 0 108.5 -13t115.5 -42.5t106 -71t76.5 -106t29.5 -140.5q0 -145 -102.5 -278.5t-294.5 -218.5v-262q0 -181 178 -271v-125q-174 49 -289 49q-89 0 -163 -26.5t-120 -61.5l-57 84q141 85 141 213v381
q-72 45 -128.5 107.5t-89.5 130t-52 129t-27 123.5q-10 71 -16 103t-16 66.5t-28.5 54t-43 39t-70.5 46.5v78h348q64 -47 87 -112t57 -273q29 -174 83.5 -275.5t151.5 -138.5q51 32 87 76t53 90t24.5 84.5t7.5 73.5q0 120 -71 205t-185 85q-49 0 -104 -18zM1001 2034v-250
l-268 -121v254zM592 1993v-250l-268 -121v254z" />
    <glyph glyph-name="alphatonos" unicode="&#x3ac;" horiz-adv-x="1212" 
d="M872 1034h228q0 -397 -144 -669q38 -80 88 -129t119 -91l-8 -49l-160 -114l-209 163q-140 -125 -329 -172q-188 68 -285.5 198t-97.5 316q0 92 23.5 166t78 143t122.5 127.5t177 135.5q67 -20 123 -54t94.5 -73t72 -91t54 -97.5t41.5 -102.5q12 156 12 393zM289 782
q-37 -70 -37 -172q0 -165 87 -283t216 -118q102 0 195 55q-69 211 -132 334.5t-114 167t-109 43.5q-38 0 -106 -27zM725 1569l-113 -498h-125v498h238z" />
    <glyph glyph-name="epsilontonos" unicode="&#x3ad;" horiz-adv-x="819" 
d="M754 838l-183 -158q-11 10 -42 42t-48 47.5t-45.5 38.5t-57 36.5t-59.5 21.5q-18 -75 -18 -104q0 -163 270 -182l-10 -97q-24 0 -76.5 2t-68.5 2q-54 0 -77.5 -30.5t-23.5 -89.5q0 -50 21.5 -85t57 -50t66 -21t62.5 -6q100 0 230 76l36 -39q-46 -85 -154 -155.5
t-249 -113.5q-47 22 -81.5 40t-77 47.5t-69 58.5t-45 69t-18.5 84q0 62 35.5 128t108.5 108q-81 59 -112.5 96t-31.5 92q0 62 36.5 120t98.5 104.5t118.5 78.5t121.5 60q100 -42 174.5 -100.5t110.5 -120.5zM635 1569l-113 -498h-125v498h238z" />
    <glyph glyph-name="etatonos" unicode="&#x3ae;" horiz-adv-x="1116" 
d="M420 752v-752h-268v686q0 119 -105 129l8 37l221 195q127 -37 144 -138q191 40 321 138q164 -49 228.5 -175t64.5 -346q0 -203 -41 -456.5t-116 -454.5h-320q103 251 163 497t60 439q0 63 -8 103.5t-31 73.5t-67 48t-113 15q-50 0 -76.5 -8t-64.5 -31zM721 1569
l-113 -498h-125v498h238z" />
    <glyph glyph-name="iotatonos" unicode="&#x3af;" horiz-adv-x="604" 
d="M420 848v-569q0 -66 34 -100t97 -34l-8 -49l-183 -114l-208 155v557q0 120 -105 129l8 37l193 195q76 -15 124 -72.5t48 -134.5zM420 1569l-113 -498h-125v498h238z" />
    <glyph glyph-name="upsilondieresistonos" unicode="&#x3b0;" horiz-adv-x="1069" 
d="M475 846l-16 45q120 63 170 166q24 6 57 6q80 0 143.5 -39t102 -104.5t58.5 -146t20 -169.5q0 -110 -30 -215.5t-87 -195.5t-149 -151.5t-207 -76.5q-80 21 -140 52.5t-97.5 86.5t-60 92t-35.5 120t-16 115t-8 130q-1 19 -2 29q-9 180 -36.5 246t-125.5 120l9 78h276
q21 -22 37.5 -44.5t27.5 -39t18.5 -44t11.5 -40t6.5 -49t3 -49t1.5 -61t1 -66.5q2 -84 8 -145t23 -125t44.5 -104t74.5 -65.5t112 -25.5q36 0 75 8q44 42 67.5 114.5t23.5 158.5q0 101 -29 191.5t-90 152t-142 61.5q-34 0 -100 -16zM379 1479v-250l-268 -121v254zM680 1569
l-113 -498h-125v498h238zM956 1561v-250l-268 -121v254z" />
    <glyph glyph-name="alpha" unicode="&#x3b1;" horiz-adv-x="1191" 
d="M872 1034h228q0 -397 -144 -669q38 -80 88 -129t119 -91l-8 -49l-160 -114l-209 163q-140 -125 -329 -172q-188 68 -285.5 198t-97.5 316q0 92 23.5 166t78 143t122.5 127.5t177 135.5q67 -20 123 -54t94.5 -73t72 -91t54 -97.5t41.5 -102.5q12 156 12 393zM289 782
q-37 -70 -37 -172q0 -165 87 -283t216 -118q102 0 195 55q-69 211 -132 334.5t-114 167t-109 43.5q-38 0 -106 -27z" />
    <glyph glyph-name="beta" unicode="&#x3b2;" horiz-adv-x="1173" 
d="M8 1124l8 37q156 150 295 242.5t285 138.5q63 -115 176.5 -199.5t216.5 -111.5q0 -64 -69 -168t-129 -164q152 -98 222 -198.5t70 -235.5q0 -98 -35.5 -187.5t-90.5 -151t-115.5 -102t-116.5 -53.5q-176 44 -319 170v-526h-269v1415q0 41 -35.5 66t-93.5 28zM406 1087
v-782q150 -108 299 -108q43 0 104 14q14 86 14 139q0 140 -77.5 226.5t-237.5 121.5l-25 58q84 60 154 139t88 139q-45 103 -129.5 169.5t-177.5 66.5q-35 0 -53 -6q41 -84 41 -177z" />
    <glyph glyph-name="gamma" unicode="&#x3b3;" horiz-adv-x="1069" 
d="M475 846l-16 45q120 63 170 166q24 6 57 6q59 0 111 -22t95 -65.5t68 -118t25 -171.5q0 -164 -78.5 -307t-249.5 -299v-465h-268v475q-111 134 -155.5 245.5t-55.5 254.5q-6 70 -9.5 103.5t-11.5 76.5t-17 63t-26.5 45.5t-40.5 42t-57 35.5l9 78h276q74 -78 96 -152
t37 -249q4 -49 7 -77t10 -68.5t16 -67t24 -60.5t35.5 -61t49.5 -57.5t67 -59.5q81 76 121.5 168.5t40.5 186.5q0 128 -66.5 226.5t-165.5 98.5q-32 0 -98 -16z" />
    <glyph glyph-name="gamma" unicode="&#x4af;" horiz-adv-x="1069" 
d="M475 846l-16 45q120 63 170 166q24 6 57 6q59 0 111 -22t95 -65.5t68 -118t25 -171.5q0 -164 -78.5 -307t-249.5 -299v-465h-268v475q-111 134 -155.5 245.5t-55.5 254.5q-6 70 -9.5 103.5t-11.5 76.5t-17 63t-26.5 45.5t-40.5 42t-57 35.5l9 78h276q74 -78 96 -152
t37 -249q4 -49 7 -77t10 -68.5t16 -67t24 -60.5t35.5 -61t49.5 -57.5t67 -59.5q81 76 121.5 168.5t40.5 186.5q0 128 -66.5 226.5t-165.5 98.5q-32 0 -98 -16z" />
    <glyph glyph-name="delta" unicode="&#x3b4;" 
d="M748 1233q-33 81 -123 121.5t-195 40.5q-38 0 -76 -6q-39 -68 -39 -121q0 -54 45 -101.5t127 -97.5q26 -16 101 -57t131 -76t96 -72q78 -72 124 -183t46 -218q0 -187 -136 -321t-331 -169q-206 75 -325 208t-119 315q0 125 59 231t178 168q-108 66 -164.5 139.5
t-56.5 147.5q0 49 25.5 93.5t67.5 80.5t112 74.5t142 70t175 70.5q229 -92 367 -207q-105 -26 -231 -131zM375 866q-31 -12 -77 -91t-46 -161q0 -101 75.5 -204t182 -166.5t197.5 -63.5q54 0 114 31q13 44 13 94q0 122 -50 225.5t-137 178.5q-95 83 -272 157z" />
    <glyph glyph-name="epsilon" unicode="&#x3b5;" horiz-adv-x="819" 
d="M754 838l-183 -158q-11 10 -42 42t-48 47.5t-45.5 38.5t-57 36.5t-59.5 21.5q-18 -75 -18 -104q0 -163 270 -182l-10 -97q-24 0 -76.5 2t-68.5 2q-54 0 -77.5 -30.5t-23.5 -89.5q0 -50 21.5 -85t57 -50t66 -21t62.5 -6q100 0 230 76l36 -39q-46 -85 -154 -155.5
t-249 -113.5q-47 22 -81.5 40t-77 47.5t-69 58.5t-45 69t-18.5 84q0 62 35.5 128t108.5 108q-81 59 -112.5 96t-31.5 92q0 62 36.5 120t98.5 104.5t118.5 78.5t121.5 60q100 -42 174.5 -100.5t110.5 -120.5z" />
    <glyph glyph-name="zeta" unicode="&#x3b6;" horiz-adv-x="897" 
d="M862 1575l35 -45q-13 -45 -34 -71.5t-81 -78t-106 -98.5q-83 -85 -143.5 -171t-94.5 -157.5t-54 -149.5t-26 -137.5t-6 -129.5q0 -197 54.5 -281t195.5 -84q114 0 191 41q28 -61 45.5 -141t17.5 -127q0 -67 -41 -125.5t-109 -99.5t-143.5 -70t-156.5 -45q-102 35 -197 87
t-146 115q107 39 199 125q106 -200 318 -200q60 0 81 15t21 58q0 159 -209 215q-60 16 -114.5 41.5t-109.5 67.5t-94.5 95t-64 128.5t-24.5 163.5q0 65 14.5 129.5t35.5 117.5t59 113.5t70.5 103.5t86.5 102.5t90 95.5t97 96.5t93 93.5q-38 -12 -137 -12q-53 0 -133.5 9
t-99.5 9q-88 0 -195 -55l-47 43q74 108 140 158t151 73q56 -37 168.5 -62.5t189.5 -25.5q113 0 213 70z" />
    <glyph glyph-name="eta" unicode="&#x3b7;" horiz-adv-x="1116" 
d="M420 752v-752h-268v686q0 119 -105 129l8 37l221 195q127 -37 144 -138q191 40 321 138q164 -49 228.5 -175t64.5 -346q0 -203 -41 -456.5t-116 -454.5h-320q103 251 163 497t60 439q0 63 -8 103.5t-31 73.5t-67 48t-113 15q-50 0 -76.5 -8t-64.5 -31z" />
    <glyph glyph-name="theta" unicode="&#x3b8;" 
d="M563 1571q422 -284 422 -862q0 -168 -34 -297t-98.5 -214.5t-146 -139t-188.5 -85.5q-104 40 -183 102t-139 152.5t-91 217.5t-31 286q0 130 22 236.5t60 187.5t102.5 156.5t134 133t170.5 126.5zM676 651h-244q-76 0 -123 -18q80 -453 387 -453q32 0 70 6q18 116 18 273
q0 73 -6 172q-47 20 -102 20zM406 823h225q73 0 119 19q-89 444 -359 444q-39 0 -59 -4q-41 -215 -41 -436q50 -23 115 -23z" />
    <glyph glyph-name="kappa" unicode="&#x3ba;" horiz-adv-x="1073" 
d="M1073 934l-141 -170q-34 31 -78 31q-60 0 -124.5 -52.5t-143.5 -142.5q402 -41 438 -600h-279q0 112 -18.5 198t-48.5 139t-73 86.5t-88 46.5t-97 13v-483h-268v686q0 120 -105 129l8 37l217 195q70 -14 109 -60t39 -96v-279q161 104 397 439z" />
    <glyph glyph-name="kappa" unicode="&#x43a;" horiz-adv-x="1073" 
d="M1073 934l-141 -170q-34 31 -78 31q-60 0 -124.5 -52.5t-143.5 -142.5q402 -41 438 -600h-279q0 112 -18.5 198t-48.5 139t-73 86.5t-88 46.5t-97 13v-483h-268v686q0 120 -105 129l8 37l217 195q70 -14 109 -60t39 -96v-279q161 104 397 439z" />
    <glyph glyph-name="lambda" unicode="&#x3bb;" horiz-adv-x="1216" 
d="M381 1561l285 -162q43 -60 80.5 -130.5t67 -150t52 -146.5t44 -155.5t33 -139t28.5 -135.5t22 -108q34 -155 74 -239t100 -127l-8 -68h-274q-99 111 -158 369q-5 21 -46 240t-77 331q-127 -182 -207 -380t-80 -388q0 -86 21 -172h-291q36 668 512 1049
q-60 130 -132.5 199.5t-188.5 80.5l-17 37z" />
    <glyph glyph-name="uni03BC" unicode="&#x3bc;" horiz-adv-x="1171" 
d="M1014 848v-500q0 -120 104 -129l-8 -37l-223 -194q-65 18 -96 48.5t-37 90.5q-30 -52 -87.5 -86.5t-119.5 -34.5q-59 0 -114.5 35t-92.5 100q11 -159 40.5 -278t94.5 -248h-323v1079q0 120 -105 129l8 37l193 195q76 -15 124 -72.5t48 -134.5v-410q0 -110 55 -172.5
t137 -62.5q69 0 133 47v444q0 120 -104 129l8 37l193 195q76 -15 124 -72.5t48 -134.5z" />
    <glyph glyph-name="nu" unicode="&#x3bd;" horiz-adv-x="1069" 
d="M475 846l-16 45q120 63 170 166q24 6 57 6q59 0 111 -22t95 -65.5t68 -118t25 -171.5q0 -194 -109 -360t-356 -361h-18q-92 142 -153.5 256.5t-102 228t-60.5 185.5t-51 209q-18 77 -119 112l9 78h251q37 -20 57 -53t34 -94q32 -150 53 -222t74 -187t155 -290
q156 146 156 347q0 130 -66 228.5t-166 98.5q-32 0 -98 -16z" />
    <glyph glyph-name="xi" unicode="&#x3be;" horiz-adv-x="878" 
d="M809 1575l35 -45q0 -19 -11.5 -36.5t-26.5 -30.5t-45 -28.5t-52 -25.5t-63 -27.5t-64 -27.5q-57 -26 -99.5 -52t-83.5 -63.5t-62.5 -87t-21.5 -109.5q0 -40 11 -70t39.5 -56t81.5 -42t131 -22l-11 -96q-20 -2 -51 -2q-32 0 -78 6q-58 -30 -83 -84.5t-25 -157.5
q0 -85 17 -148.5t43 -100t64.5 -59t74.5 -29.5t79 -7q109 0 185 39q28 -61 45.5 -141t17.5 -127q0 -67 -41 -125.5t-109 -99.5t-143.5 -70t-156.5 -45q-102 35 -197 87t-146 115q107 39 199 125q34 -64 72 -106t78.5 -61.5t73.5 -26t73 -6.5q75 0 99 19.5t24 58.5
q0 154 -209 210q-52 14 -102.5 36t-108 61t-100 87t-71 118.5t-28.5 150.5q0 202 166 313q-153 76 -153 226q0 137 141 248q91 71 223 112q-46 -7 -112 0q-40 4 -68 4q-101 0 -213 -57l-47 43q74 108 140 158t151 73q60 -40 137.5 -64t146.5 -24q134 0 234 70z" />
    <glyph glyph-name="pi" unicode="&#x3c0;" horiz-adv-x="1239" 
d="M1239 1034l-51 -182h-221q47 -47 47 -119v-454q0 -134 131 -134l-8 -49l-183 -114l-209 155v600q0 115 -120 115h-232q47 -47 47 -119v-733h-268v743q0 109 -86 109h-63l51 182h1165z" />
    <glyph glyph-name="rho" unicode="&#x3c1;" horiz-adv-x="1064" 
d="M440 838q-125 -149 -125 -310q0 -79 30.5 -145.5t80 -108t108.5 -64t119 -22.5q24 0 68 7q35 104 35 215q0 87 -25 157.5t-71.5 121t-99 85t-120.5 64.5zM395 -385h-301q-20 508 -20 586q0 132 10 232t34.5 182.5t59 143t90.5 114.5t121 96t158 90q113 -47 212 -132
t165.5 -207t66.5 -249q0 -71 -23 -134.5t-55.5 -109.5t-92 -96.5t-108 -83.5t-128.5 -82q-40 15 -101 54.5t-120.5 98.5t-77.5 109q5 -173 32.5 -311.5t77.5 -300.5z" />
    <glyph glyph-name="uni03C2" unicode="&#x3c2;" horiz-adv-x="843" 
d="M750 838l-175 -158q-105 97 -292 143q-4 -58 -4 -96q0 -73 8 -144t30.5 -147t56.5 -132.5t91 -93t129 -36.5q84 0 158 39q29 -62 46 -141.5t17 -130.5q0 -65 -35.5 -123t-95.5 -99t-130.5 -70t-147.5 -44q-102 35 -197 87t-146 115q107 39 199 125q34 -64 72 -106
t78.5 -61.5t73.5 -26t73 -6.5q51 0 66.5 13t15.5 54q0 47 -14.5 84.5t-33 59t-49 39t-48 24t-43.5 14.5q-32 10 -51.5 16t-54 19.5t-57.5 26t-54.5 33.5t-52 44t-43 55.5t-36 69t-22 84.5t-8.5 103q0 66 11 121.5t38.5 106.5t57 91t83 89t99 85.5t122.5 94.5
q203 -120 265 -221z" />
    <glyph glyph-name="sigma" unicode="&#x3c3;" horiz-adv-x="1097" 
d="M1065 1147l33 -41q-13 -72 -24 -118t-27 -82.5t-32 -55.5t-44 -32t-57 -17.5t-78 -7.5q149 -152 149 -334q0 -122 -65 -226.5t-170.5 -170.5t-231.5 -89q-205 75 -324.5 208.5t-119.5 310.5q0 52 12 99.5t30.5 85.5t54.5 78t69.5 70t91 69t103 67.5t120.5 72.5
q109 -16 182 -16q102 0 177 30.5t151 98.5zM279 764q-27 -58 -27 -125q0 -92 46 -179t115 -147t148 -96.5t146 -36.5q54 0 114 31q13 44 13 90q0 96 -39 185t-102.5 152.5t-146 101.5t-167.5 38q-54 0 -100 -14z" />
    <glyph glyph-name="tau" unicode="&#x3c4;" horiz-adv-x="931" 
d="M932 1034l-51 -182h-324q47 -47 47 -119v-454q0 -134 131 -134l-8 -49l-182 -114l-209 155v600q0 115 -121 115h-201l52 182h866z" />
    <glyph glyph-name="tau" unicode="&#x442;" horiz-adv-x="931" 
d="M932 1034l-51 -182h-324q47 -47 47 -119v-454q0 -134 131 -134l-8 -49l-182 -114l-209 155v600q0 115 -121 115h-201l52 182h866z" />
    <glyph glyph-name="upsilon" unicode="&#x3c5;" horiz-adv-x="1069" 
d="M475 846l-16 45q120 63 170 166q24 6 57 6q80 0 143.5 -39t102 -104.5t58.5 -146t20 -169.5q0 -110 -30 -215.5t-87 -195.5t-149 -151.5t-207 -76.5q-80 21 -140 52.5t-97.5 86.5t-60 92t-35.5 120t-16 115t-8 130q-1 19 -2 29q-9 180 -36.5 246t-125.5 120l9 78h276
q21 -22 37.5 -44.5t27.5 -39t18.5 -44t11.5 -40t6.5 -49t3 -49t1.5 -61t1 -66.5q2 -84 8 -145t23 -125t44.5 -104t74.5 -65.5t112 -25.5q36 0 75 8q44 42 67.5 114.5t23.5 158.5q0 101 -29 191.5t-90 152t-142 61.5q-34 0 -100 -16z" />
    <glyph glyph-name="phi" unicode="&#x3c6;" horiz-adv-x="1480" 
d="M874 1542v-500q109 -18 202 -57.5t168.5 -100t119 -150t43.5 -197.5q0 -111 -46 -205t-124 -158.5t-169.5 -107t-193.5 -64.5v-387h-268v375q-232 25 -383 170.5t-151 341.5q0 188 145 334.5t389 195.5v150q0 120 -104 129l8 37zM606 211v659q-194 -24 -321 -94
q-2 -20 -2 -61q0 -174 89.5 -308t233.5 -196zM874 823v-659q66 0 154 25.5t168 70.5q2 20 2 59q0 160 -86.5 294.5t-237.5 209.5z" />
    <glyph glyph-name="phi" unicode="&#x444;" horiz-adv-x="1480" 
d="M874 1542v-500q109 -18 202 -57.5t168.5 -100t119 -150t43.5 -197.5q0 -111 -46 -205t-124 -158.5t-169.5 -107t-193.5 -64.5v-387h-268v375q-232 25 -383 170.5t-151 341.5q0 188 145 334.5t389 195.5v150q0 120 -104 129l8 37zM606 211v659q-194 -24 -321 -94
q-2 -20 -2 -61q0 -174 89.5 -308t233.5 -196zM874 823v-659q66 0 154 25.5t168 70.5q2 20 2 59q0 160 -86.5 294.5t-237.5 209.5z" />
    <glyph glyph-name="chi" unicode="&#x3c7;" horiz-adv-x="1026" 
d="M465 887l74 -252q74 143 156.5 247t189.5 173q44 -113 96 -195q-70 -55 -120 -100t-123.5 -131.5t-135.5 -188.5l209 -587q29 -80 193 -84l22 -50l-186 -114l-289 155l-107 400q-122 -241 -168 -315q-102 -165 -210 -220q-10 -5 -21 -10l-20 43q88 58 167 209t195 450
l-119 377q-18 58 -79 91t-150 38l-16 37l159 195z" />
    <glyph glyph-name="psi" unicode="&#x3c8;" horiz-adv-x="1437" 
d="M1438 1034l-8 -78q-37 -21 -61 -37.5t-41.5 -40.5t-26 -43t-13.5 -59t-6 -72t-2 -98q-3 -256 -106 -409t-302 -199v-383h-268v365q-214 16 -315 139q-23 28 -40.5 59.5t-29 75.5t-18 70.5t-11.5 88t-6.5 82t-5.5 95.5q-5 92 -11.5 146.5t-16 95.5t-28.5 60.5t-42.5 29.5
t-63.5 14l9 78l276 37q29 -31 49.5 -64t31 -58.5t16 -67t7 -64t2 -76.5t1.5 -80q5 -155 31 -255.5t65.5 -150t99.5 -75.5v1022q0 120 -104 129l8 37l364 194v-1397q122 27 182 83t60 175q0 80 -37 216.5t-37 191.5q0 114 76 184z" />
    <glyph glyph-name="omega" unicode="&#x3c9;" horiz-adv-x="1576" 
d="M961 846l-17 45q120 63 170 166q24 6 57 6q106 0 183 -67t113 -169.5t36 -224.5q0 -109 -31.5 -214.5t-89.5 -195t-151.5 -151t-208.5 -76.5q-176 72 -248 240q-67 -102 -143 -160t-189 -72q-176 59 -272 202.5t-96 332.5q0 370 399 555l113 -51q-78 -31 -132.5 -75
t-84.5 -99t-43 -114t-13 -130q0 -188 78.5 -304t202.5 -116q31 0 47 2q76 116 76 262q0 46 -12 152l188 51q2 -84 8 -145t23 -125t44.5 -104t74.5 -65.5t112 -25.5q37 0 76 8q44 41 67 114t23 159q0 101 -28.5 191.5t-89.5 152t-142 61.5q-34 0 -100 -16z" />
    <glyph glyph-name="upsilondieresis" unicode="&#x3cb;" horiz-adv-x="1069" 
d="M475 846l-16 45q120 63 170 166q24 6 57 6q80 0 143.5 -39t102 -104.5t58.5 -146t20 -169.5q0 -110 -30 -215.5t-87 -195.5t-149 -151.5t-207 -76.5q-80 21 -140 52.5t-97.5 86.5t-60 92t-35.5 120t-16 115t-8 130q-1 19 -2 29q-9 180 -36.5 246t-125.5 120l9 78h276
q21 -22 37.5 -44.5t27.5 -39t18.5 -44t11.5 -40t6.5 -49t3 -49t1.5 -61t1 -66.5q2 -84 8 -145t23 -125t44.5 -104t74.5 -65.5t112 -25.5q36 0 75 8q44 42 67.5 114.5t23.5 158.5q0 101 -29 191.5t-90 152t-142 61.5q-34 0 -100 -16zM872 1540v-250l-268 -121v254zM463 1499
v-250l-268 -121v254z" />
    <glyph glyph-name="omicrontonos" unicode="&#x3cc;" 
d="M279 764q-27 -58 -27 -125q0 -92 46 -179t115 -147t148 -96.5t146 -36.5q54 0 114 31q13 44 13 90q0 96 -39 185t-102.5 152.5t-146 101.5t-167.5 38q-54 0 -100 -14zM563 1059q422 -249 422 -588q0 -99 -37 -184.5t-101 -148t-148 -104.5t-181 -61q-201 73 -322.5 205.5
t-121.5 310.5q0 89 31.5 165t100 145.5t150 127.5t207.5 132zM731 1569l-113 -498h-124v498h237z" />
    <glyph glyph-name="upsilontonos" unicode="&#x3cd;" horiz-adv-x="1069" 
d="M475 846l-16 45q120 63 170 166q24 6 57 6q80 0 143.5 -39t102 -104.5t58.5 -146t20 -169.5q0 -110 -30 -215.5t-87 -195.5t-149 -151.5t-207 -76.5q-80 21 -140 52.5t-97.5 86.5t-60 92t-35.5 120t-16 115t-8 130q-1 19 -2 29q-9 180 -36.5 246t-125.5 120l9 78h276
q21 -22 37.5 -44.5t27.5 -39t18.5 -44t11.5 -40t6.5 -49t3 -49t1.5 -61t1 -66.5q2 -84 8 -145t23 -125t44.5 -104t74.5 -65.5t112 -25.5q36 0 75 8q44 42 67.5 114.5t23.5 158.5q0 101 -29 191.5t-90 152t-142 61.5q-34 0 -100 -16zM670 1569l-113 -498h-125v498h238z" />
    <glyph glyph-name="omegatonos" unicode="&#x3ce;" horiz-adv-x="1576" 
d="M961 846l-17 45q120 63 170 166q24 6 57 6q106 0 183 -67t113 -169.5t36 -224.5q0 -109 -31.5 -214.5t-89.5 -195t-151.5 -151t-208.5 -76.5q-176 72 -248 240q-67 -102 -143 -160t-189 -72q-176 59 -272 202.5t-96 332.5q0 370 399 555l113 -51q-78 -31 -132.5 -75
t-84.5 -99t-43 -114t-13 -130q0 -188 78.5 -304t202.5 -116q31 0 47 2q76 116 76 262q0 46 -12 152l188 51q2 -84 8 -145t23 -125t44.5 -104t74.5 -65.5t112 -25.5q37 0 76 8q44 41 67 114t23 159q0 101 -28.5 191.5t-89.5 152t-142 61.5q-34 0 -100 -16zM944 1569
l-113 -498h-124v498h237z" />
    <glyph glyph-name="uni0400" unicode="&#x400;" horiz-adv-x="1384" 
d="M1298 424l60 -45q-27 -58 -45.5 -94.5t-45.5 -83t-51 -75t-58.5 -58.5t-71 -46.5t-84 -27t-103.5 -10.5q-43 0 -232 12t-278 12q-142 0 -301 -35l-47 78q131 122 131 301v617q0 161 -102 213l8 57q71 18 152.5 57t151.5 80t138 80.5t134 64.5t118 25q392 0 551 -53
q-33 -43 -63.5 -103t-46 -100t-42.5 -112q-232 92 -389.5 131t-287.5 39q-23 -145 -23 -275v-221l635 61q-99 -169 -172 -338h-37q-5 43 -38 71.5t-91 31.5l-297 12v-180q0 -78 -26.5 -144.5t-86.5 -140.5q129 72 232 72q47 0 203.5 -25.5t199.5 -25.5q135 0 305 178z
M610 2062l312 -389l-115 -78l-393 322z" />
    <glyph glyph-name="uni0401" unicode="&#x401;" horiz-adv-x="1384" 
d="M1298 424l60 -45q-27 -58 -45.5 -94.5t-45.5 -83t-51 -75t-58.5 -58.5t-71 -46.5t-84 -27t-103.5 -10.5q-43 0 -232 12t-278 12q-142 0 -301 -35l-47 78q131 122 131 301v617q0 161 -102 213l8 57q71 18 152.5 57t151.5 80t138 80.5t134 64.5t118 25q392 0 551 -53
q-33 -43 -63.5 -103t-46 -100t-42.5 -112q-232 92 -389.5 131t-287.5 39q-23 -145 -23 -275v-221l635 61q-99 -169 -172 -338h-37q-5 43 -38 71.5t-91 31.5l-297 12v-180q0 -78 -26.5 -144.5t-86.5 -140.5q129 72 232 72q47 0 203.5 -25.5t199.5 -25.5q135 0 305 178z
M1034 2034v-250l-268 -121v254zM625 1993v-250l-269 -121v254z" />
    <glyph glyph-name="uni0402" unicode="&#x402;" horiz-adv-x="1701" 
d="M59 1159l-57 37q163 340 895 340q81 0 177.5 -4.5t157.5 -9t166 -14t136 -11.5q-106 -153 -156 -319q-352 87 -641 112v-305q149 62 307 62q140 0 246.5 -43t171 -120.5t97 -177.5t32.5 -221q0 -380 -317 -601.5t-950 -278.5l8 63q185 45 329 100t242.5 118.5t165 131
t103.5 148t52 158.5t15 172q0 208 -67.5 300.5t-198.5 92.5q-53 0 -101 -14t-135 -48v-598q0 -66 32.5 -107.5t88.5 -55.5l-8 -66h-524l8 66q106 29 106 167v1065q-278 -17 -381 -139z" />
    <glyph glyph-name="uni0403" unicode="&#x403;" horiz-adv-x="1280" 
d="M471 1073v-665q0 -181 178 -271v-125q-174 49 -278 49q-89 0 -163 -26.5t-120 -61.5l-57 84q141 85 141 213v699q0 161 -102 213l8 57q78 19 161 59t152 80.5t142 79.5t158 63.5t173 24.5q76 0 200 -14.5t216 -38.5q-82 -108 -141 -301q-227 90 -369 123t-276 33
q-23 -145 -23 -275zM827 2062l148 -178l-375 -289l-90 88z" />
    </font>
</defs>
</svg>
