<?xml version="1.0" standalone="no"?>
<!DOCTYPE svg PUBLIC "-//W3C//DTD SVG 20010904//EN"
 "http://www.w3.org/TR/2001/REC-SVG-20010904/DTD/svg10.dtd">
<svg version="1.0" xmlns="http://www.w3.org/2000/svg"
 width="700.000000pt" height="700.000000pt" viewBox="0 0 700.000000 700.000000"
 preserveAspectRatio="xMidYMid meet">
<metadata>
Created by potrace 1.14, written by Peter Selinger 2001-2017
</metadata>
<g transform="translate(0.000000,700.000000) scale(0.100000,-0.100000)"
fill="#000000" stroke="none">
<path d="M1385 6599 c-104 -15 -236 -57 -341 -109 -338 -166 -576 -482 -640
-851 -24 -137 -15 -351 19 -482 55 -207 157 -387 306 -536 l87 -87 -94 -104
c-379 -423 -604 -864 -699 -1370 -14 -74 -17 -146 -17 -330 0 -216 2 -245 27
-361 55 -262 143 -473 285 -685 400 -596 1167 -1025 2152 -1203 365 -66 603
-86 1040 -85 457 0 751 28 1130 105 1472 302 2360 1140 2360 2229 0 593 -268
1209 -752 1734 l-64 70 86 85 c147 148 251 328 308 538 24 90 26 113 26 288 0
174 -3 198 -27 290 -32 120 -126 313 -196 405 -387 509 -1096 620 -1616 252
-209 -148 -387 -401 -446 -635 -14 -56 0 -55 -154 -7 -436 135 -952 130 -1375
-14 -41 -14 -80 -26 -86 -26 -7 0 -17 21 -24 48 -30 122 -109 279 -197 394
-253 332 -683 507 -1098 447z m270 -409 c110 -34 192 -85 281 -174 68 -67 89
-97 127 -176 54 -114 71 -185 70 -305 -1 -183 -67 -339 -198 -470 -131 -131
-287 -197 -470 -198 -120 -1 -191 16 -305 70 -165 79 -296 232 -350 408 -114
373 122 775 505 859 95 21 247 15 340 -14z m4023 14 c94 -19 217 -77 294 -139
162 -130 259 -356 245 -565 -13 -176 -74 -309 -201 -436 -67 -68 -97 -89 -176
-127 -113 -54 -184 -71 -305 -70 -181 0 -339 67 -471 198 -132 131 -197 289
-197 475 0 121 22 211 75 313 141 270 438 412 736 351z"/>
<path d="M1395 5831 c-139 -36 -228 -148 -229 -286 0 -92 30 -160 95 -219 59
-53 121 -76 205 -76 51 0 74 6 125 33 263 136 184 525 -112 551 -30 3 -67 2
-84 -3z"/>
<path d="M5477 5830 c-59 -15 -110 -45 -150 -89 -56 -62 -70 -97 -75 -186 -4
-75 -2 -84 30 -145 55 -106 143 -160 260 -160 76 0 140 24 197 76 155 139 116
394 -74 483 -52 25 -135 34 -188 21z"/>
</g>
</svg>
