<svg width="262" height="260" viewBox="0 0 262 260" fill="none" xmlns="http://www.w3.org/2000/svg">
<path d="M34.3208 200.681L35.3251 200.98L36.244 201.087L36.6073 201.066L36.9278 201.002L37.227 200.895L37.4834 200.702L37.7185 200.445L37.9537 200.124L38.1888 199.696L38.4453 199.161L38.5734 198.883L38.6885 198.669L38.7229 198.605L38.8512 198.37L38.9474 198.209L38.9794 198.156L39.1077 197.984L39.2145 197.835L39.3428 197.706L39.4496 197.621L39.8556 197.364L40.4539 198.027L40.8814 198.562L41.2447 199.012L41.6507 199.525L42.1209 200.124L42.4628 200.552L42.6338 200.766L43.1679 201.451L43.7236 202.157L45.7538 204.725L47.3351 206.737L48.5747 208.278L49.5577 209.476L50.3485 210.375L51.0323 211.124L51.6947 211.766L52.4 212.408L54.8149 214.548L57.1656 216.474L59.6231 218.293L62.2731 220.09L65.2863 221.931L68.791 223.942L72.8941 226.168L77.7879 228.736L79.989 229.87L82.0619 230.961L84.1563 232.074L86.4001 233.251L88.879 234.599L91.7427 236.161L95.1191 237.98L99.1368 240.184L105.484 243.63L110.997 246.604L115.806 249.151L120.08 251.355L123.948 253.281L127.581 255.057L131.171 256.726L134.804 258.353L135.83 258.802L136.663 259.123L137.368 259.38L137.967 259.53L138.501 259.594L139.014 259.572L139.527 259.487L140.082 259.337L140.894 259.059L141.856 258.609L142.925 258.032L144.121 257.304L145.446 256.448L146.857 255.485L148.374 254.373L149.977 253.153L151.409 252.04L152.563 251.163L153.503 250.456L154.294 249.879L155.79 248.894L156.623 248.402L157.606 247.803L160.726 246.005L163.697 244.336L166.71 242.774L169.915 241.19L173.527 239.5L177.694 237.638L182.631 235.519L188.486 233.016L194.662 230.405L199.791 228.179L204.001 226.318L207.484 224.691L210.412 223.236L212.912 221.888L215.178 220.54L217.379 219.149L219.217 217.886L220.948 216.624L222.593 215.318L224.132 213.991L225.564 212.643L226.91 211.274L228.128 209.904L229.239 208.492L230.158 207.293L230.928 206.352L231.569 205.581L232.188 204.961L232.808 204.447L233.492 203.955L234.283 203.463L235.223 202.906L236.291 202.286L237.253 201.644L238.151 201.002L238.984 200.317L239.753 199.611L240.48 198.84L241.185 198.006L241.89 197.107L242.489 196.294L243.002 195.502L243.451 194.753L243.857 194.004L244.241 193.212L244.604 192.356L244.989 191.415L245.374 190.345L245.759 189.232L246.378 187.563L246.656 186.942L246.891 186.45L247.126 186.065L247.34 185.765L247.554 185.53L247.725 185.38L247.896 185.294L248.088 185.252L248.302 185.273L248.558 185.337L248.879 185.487L249.263 185.701L249.755 185.979L250.631 186.429L251.4 186.664L252.084 186.685L252.725 186.493L253.302 186.065L253.879 185.401L254.456 184.481L255.076 183.304L255.546 182.191L255.952 181.014L256.273 179.773L256.55 178.447L256.743 177.077L256.871 175.622L256.935 174.102L256.914 172.519L256.871 171.534L256.828 170.657L256.743 169.822L256.636 168.966L256.486 168.046L256.016 165.692L255.674 164.13L255.396 162.932L255.183 161.862L254.82 160L254.691 159.187L254.585 158.438L254.499 157.732L254.435 157.068L254.328 155.87L254.755 156.041L255.354 156.127L256.123 156.084L257.063 155.913L258.046 155.635L259.03 155.271L259.927 154.864L260.696 154.415L261.252 153.944L261.508 153.602L261.701 153.238L261.872 152.81L261.957 152.339L262 151.847L261.957 151.333L261.893 150.777L261.744 150.22L261.53 149.664L261.167 148.829L260.675 147.781L260.077 146.604L259.435 145.363L258.773 144.121L257.534 141.96L256.828 140.805L256.166 139.82L255.525 138.964L254.884 138.172L254.178 137.402L253.366 136.653L252.469 135.861L251.4 134.962L250.204 133.999L249.156 133.101L248.259 132.309L247.511 131.624L246.913 131.025L246.485 130.533L246.229 130.148L246.122 129.891L246.143 129.698L246.207 129.527L246.336 129.377L246.528 129.206L246.806 129.013L247.212 128.799L247.746 128.521L248.43 128.2L249.242 127.794L249.926 127.43L250.417 127.087L250.802 126.745L251.058 126.381L251.229 126.017L251.315 125.568L251.358 125.054L251.315 124.605L251.251 124.177L251.144 123.749L250.994 123.342L250.781 122.957L250.524 122.572L250.225 122.208L249.883 121.844L249.498 121.502L249.071 121.202L248.622 120.903L248.109 120.625L247.532 120.346L246.87 120.068L246.143 119.79L245.31 119.512L244.434 119.234L243.622 118.998L242.831 118.784L242.04 118.613L241.228 118.463L240.352 118.313L239.433 118.185L238.428 118.078L237.916 118.014L237.296 117.95L236.633 117.864L235.928 117.757L235.18 117.671L234.855 117.623L231.845 114.538L232.039 114.483L233.406 114.119L235.009 113.734L235.672 113.584L236.334 113.413L236.954 113.263L237.531 113.113L238.044 112.985L238.493 112.878L238.813 112.792L239.027 112.707L239.433 112.578L239.818 112.429L240.202 112.257L240.544 112.108L240.822 111.979L240.993 111.872L241.036 111.808L240.929 111.829L240.736 111.851L240.331 111.872L239.732 111.936L238.963 111.979L238.065 112.065L237.061 112.129L235.971 112.215L234.817 112.279L231.526 112.514L229.996 112.644L227.594 110.182L218.22 105.288L217.528 101.793L217.122 99.7171L216.78 97.9195L216.545 96.5928L216.481 96.1861L216.438 95.7796L216.396 95.4158L216.353 95.0734L216.332 94.7524L216.31 94.4956L216.289 94.2816L216.268 94.1532C198.679 22.454 172.382 2.09329 146.5 0.0931058C120.618 -1.90708 94.6066 28.4551 68.1113 78.1463L66.3333 81.1636L65.5641 82.8114L64.9444 84.1167L64.3887 85.2296L63.8972 86.2353L63.3629 87.2625L62.7431 88.4181L61.9953 89.8305L61.0764 91.6066L60.7345 92.2486L60.0399 93.6396L60.0291 93.661L59.6872 94.3672L59.3667 95.052L59.0889 95.7154L58.8324 96.2932L58.6402 96.7854L58.6284 96.8147L58.234 97.8125L57.8067 98.8183L57.4005 99.7599L56.9946 100.616L56.6314 101.365L56.2894 101.964L56.0116 102.435L55.7979 102.692L55.4346 103.034L53.383 102.499L51.5666 102.071L49.8997 101.707L48.3824 101.429L46.9719 101.236L45.6684 101.108L44.4289 101.065L43.2749 101.108L42.1636 101.194L40.283 101.472L37.8896 101.836L35.1969 102.285L32.4614 102.777L29.8757 103.248L27.6958 103.676L26.1572 103.997L25.452 104.211L25.388 104.361L25.7085 104.489L26.435 104.596L27.5891 104.703L29.1704 104.767L31.222 104.853L33.7437 104.896L36.757 104.96L39.1718 104.981L41.0523 105.024L42.4628 105.046L43.4458 105.088L44.087 105.131L44.4502 105.195L44.5998 105.26V105.367L44.3647 105.581L43.9373 105.795L43.2749 106.03L42.3773 106.287L41.2447 106.544L39.8556 106.822L38.1888 107.143L36.2226 107.464L34.5986 107.742L33.2735 107.999L32.1409 108.234L31.1579 108.512L30.1963 108.812L29.2345 109.176L28.1447 109.625L26.8839 110.203L25.6016 110.802L24.3621 111.423L23.144 112.086L21.926 112.814L20.6865 113.605L19.4042 114.461L18.0579 115.403L16.6474 116.473L14.5745 118.099L12.8862 119.597L11.5613 120.988L10.5783 122.294L9.93709 123.514L9.63793 124.669L9.65944 125.782L10.0014 126.852L10.2149 127.259L10.4928 127.708L10.8133 128.157L11.1554 128.628L11.54 129.078L11.946 129.506L12.3734 129.934L12.8008 130.297L12.9932 130.469L13.164 130.618L13.4419 130.897L13.5702 131.003L13.6556 131.111L13.7197 131.239L13.677 131.431L13.5488 131.752L13.3564 132.159L13.0999 132.63L12.8221 133.122L12.523 133.636L12.2238 134.085L11.9246 134.492L11.7324 134.748L11.4973 135.048L11.2194 135.39L10.8775 135.754L10.5355 136.161L9.44569 137.381L8.33441 138.6L7.41548 139.606L6.66745 140.419L6.06909 141.126L5.55631 141.768L4.70148 142.923L4.27396 143.565L3.26962 145.127L2.4148 146.711L1.68829 148.294L1.08994 149.878L0.619721 151.462L0.277802 153.024L0.0854188 154.586L0 156.148L0.0640563 157.346L0.192383 158.395L0.427337 159.315L0.748016 160.086L1.17535 160.728L1.66696 161.22L2.26532 161.562L2.9649 161.757L3.09863 161.776H3.56882L3.84665 161.755L4.14584 161.733L5.17154 161.605L5.81274 161.519L5.94092 161.509L5.98364 161.505L6.32555 161.477L6.75304 161.455L7.07361 161.498L7.35141 161.562L7.54364 161.691L7.69333 161.883L7.80009 162.097L7.86415 162.311L7.88568 162.611L7.90707 163.039L7.86415 163.595L7.80009 164.344L7.71468 165.307L7.56499 166.548L7.39412 168.068L7.26582 169.116L7.15901 169.929L7.11632 170.571L7.07361 171.085V171.513L7.11632 171.92L7.15901 172.348L7.24448 172.861L7.43683 173.888L7.69333 174.937L8.01385 175.964L8.35576 176.949L8.74039 177.869L9.12514 178.703L9.53111 179.388L9.93709 179.945L10.4287 180.415L10.9843 180.758L11.5827 181.014L12.2238 181.143L12.9291 181.164L13.6556 181.057L14.425 180.843L15.2156 180.522L15.6645 180.287L16.1345 179.966L17.032 179.196L17.4168 178.789L17.7588 178.404L17.9725 178.04L18.1006 177.74L18.1434 177.569L18.1861 177.484L18.2074 177.419L18.2501 177.355L18.293 177.312L18.3144 177.291L18.3571 177.312L18.4852 177.441L18.6776 177.805L18.9555 178.361L19.2547 179.089L19.5966 179.966L19.9812 180.993L20.3873 182.127L20.8146 183.368L21.6481 185.765L22.396 187.721L22.4175 187.777L23.1227 189.489L23.8278 190.944L24.5545 192.207L25.3451 193.362L26.2426 194.475L27.2685 195.588L28.4439 196.786L29.662 197.856L30.8801 198.776L32.0554 199.568L33.2095 200.21L34.3208 200.681Z" fill="#007C0F"/>
<path d="M123.311 139.881C123.311 144.932 115.33 149.027 105.486 149.027C95.6423 149.027 87.6621 144.932 87.6621 139.881C87.6621 134.83 95.6423 130.736 105.486 130.736C115.33 130.736 123.311 134.83 123.311 139.881Z" fill="#D9D9D9"/>
<path d="M126.201 148.545C126.201 153.596 119.515 157.691 111.267 157.691C103.019 157.691 96.3333 153.596 96.3333 148.545C96.3333 143.494 103.019 139.4 111.267 139.4C119.515 139.4 126.201 143.494 126.201 148.545Z" fill="#D9D9D9"/>
<path d="M177.265 143.732C177.265 148.783 172.304 152.877 166.185 152.877C160.066 152.877 155.105 148.783 155.105 143.732C155.105 138.681 160.066 134.586 166.185 134.586C172.304 134.586 177.265 138.681 177.265 143.732Z" fill="#D9D9D9"/>
<path d="M184.009 133.142C184.009 138.193 179.048 142.288 172.929 142.288C166.81 142.288 161.849 138.193 161.849 133.142C161.849 128.091 166.81 123.997 172.929 123.997C179.048 123.997 184.009 128.091 184.009 133.142Z" fill="#D9D9D9"/>
<path d="M143.537 234.53C141.262 229.798 139.05 227.609 132.437 223.544C126.186 219.701 121.2 217.284 90.2841 203.106C73.3657 195.347 67.6261 192.436 62.5574 189.041C51.3559 181.538 43.2947 172.984 38.4474 163.458C36.5768 159.781 36.2928 158.66 36.0523 153.999C35.7998 149.104 35.8935 148.502 37.313 145.887C38.1565 144.334 38.8466 142.809 38.8466 142.499C38.8466 141.294 37.05 142.049 33.6975 144.663C31.7738 146.163 30.0411 147.391 29.8471 147.391C29.1204 147.391 29.5411 145.936 31.0151 143.352L32.5358 140.686L30.5767 141.096C29.4991 141.321 28.0257 141.631 27.3023 141.784C23.6069 142.567 28.3531 138.779 34.3113 136.19C36.9277 135.053 38.2605 134.853 43.2648 134.849C48.9439 134.843 49.2628 134.909 52.6171 136.759C58.4247 139.963 61.6282 144.077 61.6395 148.345C61.6439 150.371 60.2129 149.748 57.4924 146.541C54.864 143.443 49.2588 139.753 47.1809 139.753C46.3614 139.753 45.4481 140.748 44.0515 143.163C42.1445 146.46 42.0844 146.751 42.2344 151.965C42.4026 157.81 43.1314 160.013 46.9481 166.211C50.3139 171.677 60.0614 180.255 69.5338 186.086C77.2547 190.84 81.3904 192.847 118.062 209.642C127.728 214.068 135.302 218.553 140.534 222.946L144.314 226.121L145.265 224.109C145.788 223.002 147.002 221.551 147.962 220.885C148.922 220.218 152.316 217.422 155.505 214.67C166.293 205.361 176.255 198.797 193.421 189.686C205.979 183.021 209.579 180.609 214.69 175.431C223.063 166.951 226.1 157.378 224.106 145.754C223.289 140.989 220.595 136.825 217.395 135.379C214.531 134.085 209.774 133.959 206.851 135.098C204.238 136.117 203.946 135.548 205.038 131.566L205.847 128.617L210.463 127.106C215.759 125.372 220.681 125.12 224.011 126.413C226.703 127.458 231.02 131.322 234.42 135.731C238.302 140.764 237.717 141.945 233.247 138.1C229.977 135.286 225.788 132.657 225.156 133.021C224.66 133.308 225.165 134.093 227.326 136.387C228.558 137.695 228.783 139.087 229.735 151.257C230.558 161.782 226.796 170.668 217.685 179.727C212.036 185.342 206.184 189.332 195.497 194.853C188.22 198.612 175.947 206.112 170.042 210.409C163.875 214.898 148.86 229.418 147.49 232.22C146.904 233.42 146.418 235.063 146.411 235.87C146.387 238.591 145.229 238.051 143.537 234.53ZM146.804 219.597C146.581 219.389 146.393 213.429 146.387 206.353C146.38 198.048 146.075 191.554 145.528 188.032C144.426 180.934 144.408 178.486 145.458 178.486C146.51 178.486 147.829 181.606 148.984 186.827C151.118 196.466 149.416 222.035 146.804 219.597ZM124.199 154.691C124.199 154.691 124.199 156.787 118.922 159.392C115.139 160.146 113.08 161.493 113.08 162.488C113.08 162.978 114.133 164.22 115.418 165.247C118.074 167.368 118.34 168.121 116.434 168.121C114.166 168.121 109.125 164.452 99.6458 155.904C93.6204 150.47 89.1556 146.931 86.5353 145.512C82.1631 143.145 81.5232 142.356 82.8417 140.96C83.3272 140.446 83.9168 139.167 84.1521 138.117C84.3873 137.066 84.9426 135.544 85.3861 134.734C86.5639 132.583 86.4594 132.365 83.4543 130.722C78.8561 128.207 67.8559 117.407 68.9 116.432C69.1234 116.224 70.5797 116.722 72.1364 117.538C75.9342 119.531 76.3983 119.469 75.9091 117.035C75.4359 114.681 75.1808 114.582 81.9712 119.405C84.6325 121.295 87.1971 122.842 87.6703 122.842C88.7282 122.842 88.7285 122.872 87.646 120.454C86.4252 117.727 87.1569 117.86 93.499 121.521C98.968 124.677 104.46 127.206 105.847 127.206C106.988 127.206 106.843 126.446 105.482 125.297C104.839 124.754 104.313 123.953 104.313 123.516C104.313 121.341 115.297 126.423 121.264 131.359C130.128 138.692 134.183 141.459 135.808 141.283L137.338 141.117L137.32 135.662C137.298 129.029 136.791 127.904 131.18 122.04C125.724 116.338 125.684 115.384 131.04 118.75C134.816 121.124 135.672 121.146 136.195 118.887C136.828 116.148 138.714 112.954 141.026 110.704C142.904 108.877 145.223 107.975 145.234 109.067C145.236 109.292 143.878 112.002 142.217 115.089C139.587 119.975 139.203 121.105 139.245 123.817C139.332 129.351 143.71 140.299 145.836 140.299C148.289 140.299 154.298 133.716 160.473 124.265C164.437 118.198 168.963 113.539 172.969 111.399C176.904 109.298 177.847 109.258 176.493 111.249C175.932 112.074 174.803 113.422 173.984 114.244C173.165 115.066 172.63 115.864 172.795 116.018C172.959 116.172 175.646 115.085 178.764 113.604C185.014 110.634 189.772 109.453 193.341 109.986C196.569 110.467 196.868 110.745 195.799 112.268C194.897 113.553 194.927 113.623 196.754 114.536C199.141 115.728 201.496 117.806 201.114 118.383C200.953 118.626 198.809 118.607 196.35 118.34C193.892 118.073 191.723 118.001 191.531 118.18C191.339 118.359 191.52 119.377 191.933 120.442C192.345 121.507 192.558 122.495 192.405 122.638C192.251 122.781 190.861 122.149 189.314 121.233C185.914 119.221 183.55 119.068 182.564 120.796C182.179 121.471 181.456 122.304 180.957 122.647C180.175 123.185 180.417 123.67 182.74 126.208C184.219 127.824 185.831 130.243 186.321 131.585L187.213 134.025H191.794C195.358 134.025 196.375 134.197 196.375 134.799C196.375 135.224 193.264 137.235 189.462 139.267C180.308 144.159 179.421 144.838 173.673 151.357C170.967 154.426 167.112 158.351 165.107 160.079L124.199 154.691ZM161.011 156.775C161.011 156.536 159.936 155.37 158.623 154.184C155.955 151.774 154.45 149.352 153.434 145.831C152.845 143.788 152.573 143.499 151.474 143.75C150.772 143.911 149.029 144.316 147.602 144.651C145.264 145.2 144.834 145.141 143.264 144.058L141.521 142.856L138.62 144.378C135.988 145.759 135.347 145.871 131.719 145.587L127.72 145.274L127.092 147.56C126.747 148.817 126.079 150.782 125.607 151.927C125.135 153.072 124.753 154.205 124.199 154.691L165.107 160.079C165.107 160.079 161.011 157.553 161.011 156.775ZM115.405 155.026C121.447 152.124 124.431 144.71 121.038 141.029C119.837 139.726 119.513 139.617 118.7 140.247C118.181 140.649 117.757 141.471 117.757 142.074C117.757 142.677 117.205 144.003 116.531 145.021C113.384 149.773 106.405 149.662 102.868 144.803C101.674 143.163 101.39 142.113 101.39 139.34C101.39 135.437 101.113 135.209 95.553 134.52C92.1027 134.093 90.7478 134.88 89.6661 137.939C88.6593 140.786 89.3393 142.155 92.7634 144.174C94.4539 145.171 98.5361 148.416 101.835 151.387L107.833 156.787L110.589 156.401C112.105 156.189 114.272 155.57 115.405 155.026ZM169.02 149.982C170.015 149.007 172.121 146.693 173.699 144.841C175.277 142.988 177.934 140.326 179.603 138.926C182.287 136.674 182.638 136.13 182.638 134.226C182.638 130.246 178.815 125.579 175.549 125.572C173.529 125.567 173.004 127.073 174.063 129.832C175.338 133.151 175.285 136.196 173.902 139.038C172.742 141.422 168.658 144.663 166.814 144.663C166.244 144.663 164.595 143.401 163.15 141.86C160.282 138.8 159.095 138.646 158.055 141.198C157.392 142.827 157.776 145.199 159.092 147.602C161.544 152.078 165.833 153.106 169.02 149.982Z" fill="#040402"/>
<path fill-rule="evenodd" clip-rule="evenodd" d="M123.625 167.408C122.457 165.051 122.28 164.138 122.565 161.94C122.637 161.388 122.688 160.951 122.714 160.604C123.062 159.338 126.489 154.775 127.428 154.589C129.444 154.19 129.747 154.132 130.041 154.041C130.215 153.988 130.385 153.923 130.904 153.769C131.976 153.451 132.901 153.275 133.65 153.132C133.876 153.089 134.087 153.049 134.28 153.009C135.114 152.837 136.317 152.128 136.954 151.434C139.803 148.328 142.357 148.177 147.239 150.826C149.18 151.879 151.325 152.74 152.006 152.74C152.687 152.74 154.653 153.718 156.374 154.912C160.851 157.597 161.555 165.787 161.604 166.476C161.644 167.041 161.428 167.266 158.393 167.272C158.941 167.279 157.965 167.272 158.393 167.272L155.924 167.244C150.733 167.142 149.446 167.3 146.829 168.359C142.054 170.292 140.844 170.41 136.521 169.368C132.77 168.464 132.347 168.461 129.316 169.323C128.652 169.512 128 169.688 127.428 169.834C126.474 170.077 125.746 170.238 125.562 170.238C125.268 170.238 124.396 168.965 123.625 167.408ZM150.795 163.692C149.626 163.419 149.201 163.11 145.256 165.044C142.731 166.281 141.734 166.798 140.732 166.809C139.984 166.816 139.234 166.542 137.844 166.073C136.186 165.515 136.531 165.376 133.551 165.601C132.664 165.669 129.752 169.2 129.316 169.323L127.428 169.834C126.833 169.535 126.079 164.546 126.079 163.66C126.079 160.733 130.185 157.115 133.507 157.115C134.603 157.115 135.882 156.428 137.577 154.927C139.034 153.637 140.595 152.74 141.38 152.74C142.113 152.74 144.34 153.601 146.329 154.654C148.319 155.707 150.481 156.568 151.135 156.568C151.789 156.568 153.314 157.511 154.523 158.665C156.355 160.412 158.684 166.088 158.393 167.272L155.924 167.244C155.86 167.296 155.992 167.199 155.924 167.244C155.924 167.244 151.624 163.886 150.795 163.692Z" fill="black"/>
</svg>
