<svg width="267" height="268" viewBox="0 0 267 268" fill="none" xmlns="http://www.w3.org/2000/svg">
<g filter="url(#filter0_d_354_182)">
<path d="M127.5 211.815L68.0336 171.416L83 125.483L188 124.981L201 177.181L127.5 211.815Z" fill="#59005C"/>
<path d="M193.012 248.589L209.991 240.818L225.071 231.776L238.021 221.867L248.554 211.524L256.41 201.124L261.302 191.158L263 182L262.137 175.962L259.604 170.127L255.489 164.522L249.906 159.236L242.942 154.238L234.683 149.616L225.244 145.369L214.74 141.584L203.228 138.233L190.825 135.431L198.25 169L192.782 173.68L186.998 177.898L180.983 181.682L174.71 185.033L168.235 187.893L161.558 190.32L154.738 192.227L147.745 193.671L140.666 194.596L133.5 195L126.334 194.596L119.255 193.671L112.262 192.227L105.442 190.32L98.7652 187.893L92.2902 185.033L86.0166 181.682L80.0021 177.898L74.2178 173.68L68.7836 169.029L68.75 169L68.8938 168.596L69.2679 167.353L69.8724 165.389L70.7069 162.731L71.7428 159.409L72.9517 155.48L74.3616 151.002L75.9444 146.033L77.6998 140.602L79.5397 134.767L66.6205 137.54L54.5914 140.833L43.5982 144.647L33.6986 148.893L25.0654 153.602L17.7557 158.687L11.9139 164.089L7.56842 169.809L4.92081 175.789L4 182L5.69785 191.158L10.619 201.124L18.4464 211.524L28.979 221.867L41.9291 231.776L57.0087 240.818L73.9875 248.589L92.5781 254.656L112.492 258.584L133.5 260L154.508 258.584L174.422 254.656L193.012 248.589Z" fill="#080808"/>
<path d="M183.573 128.18L188.494 124.887L172.35 52L211.2 103.913L214.711 99.5222L217.79 94.8711L220.351 89.96L222.452 84.8467L224.035 79.56L225.1 74.1578L225.675 68.64L225.704 63.0933L225.186 57.5467L224.15 52L218.826 41.08L210.999 31.6044L201.301 23.5733L190.365 16.8422L178.825 11.3822L167.285 7.07778L156.35 3.87111L146.651 1.67554L138.824 0.404443L133.5 0L129.615 3.17777L124.55 11.8444L118.593 24.7578L112.147 40.6466L105.499 58.2111L99.0243 76.2089L93.096 93.3689L88.0598 108.42L84.2325 120.091L81.9877 127.111L86.6498 130L91.4557 132.629L96.4054 134.969L101.442 137.02L106.593 138.782L111.859 140.227L117.183 141.382L122.565 142.22L128.003 142.769L133.5 143L139.399 142.74L145.27 142.104L151.054 141.122L156.752 139.822L162.364 138.147L167.861 136.153L173.271 133.813L178.48 131.156L183.573 128.18Z" fill="#080808"/>
</g>
<defs>
<filter id="filter0_d_354_182" x="0" y="0" width="267" height="268" filterUnits="userSpaceOnUse" color-interpolation-filters="sRGB">
<feFlood flood-opacity="0" result="BackgroundImageFix"/>
<feColorMatrix in="SourceAlpha" type="matrix" values="0 0 0 0 0 0 0 0 0 0 0 0 0 0 0 0 0 0 127 0" result="hardAlpha"/>
<feOffset dy="4"/>
<feGaussianBlur stdDeviation="2"/>
<feComposite in2="hardAlpha" operator="out"/>
<feColorMatrix type="matrix" values="0 0 0 0 0 0 0 0 0 0 0 0 0 0 0 0 0 0 0.25 0"/>
<feBlend mode="normal" in2="BackgroundImageFix" result="effect1_dropShadow_354_182"/>
<feBlend mode="normal" in="SourceGraphic" in2="effect1_dropShadow_354_182" result="shape"/>
</filter>
</defs>
</svg>
