<svg width="270" height="181" viewBox="0 0 270 181" fill="none" xmlns="http://www.w3.org/2000/svg">
<g filter="url(#filter0_d_354_184)">
<path d="M18.0825 114.178H216.875V160.93H18.0825V114.178Z" fill="#D9D9D9"/>
<path d="M54.435 86.5079H253.227V133.26H54.435V86.5079Z" fill="#D9D9D9"/>
<path d="M232.979 73.6043C231.123 73.33 229.204 73.1924 227.278 73.1924C226.964 73.1924 226.653 73.2132 226.342 73.2301L225.056 73.2888L224.738 72.6914C221.158 65.9817 213.418 52.7213 201.834 39.347C192.055 28.0902 181.549 19.0851 170.608 12.5747C156.596 4.23197 141.831 0 126.695 0C122.511 0 118.242 0.332953 114.005 0.984943C99.498 3.21224 85.8847 9.34851 73.5513 19.2258C55.069 34.0446 43.3471 53.9532 36.7664 68.0445C33.0595 76.01 29.9779 84.3219 27.8609 92.0777C26.4967 97.1227 25.6135 101.557 25.1575 105.634L25.0936 106.221L24.546 106.471C12.0647 112.252 4 124.64 4 138.032C4 157.312 20.1539 173 40.0076 173H197.424C213.108 173 226.887 163.25 231.71 148.743L231.919 148.112L232.597 148.022C251.638 145.503 266 129.5 266 110.796C266 92.2809 251.804 76.2918 232.979 73.6043ZM214.829 147.73C213.938 149.234 212.86 150.61 211.616 151.814C207.817 155.504 202.778 157.535 197.424 157.535H40.0076C34.654 157.535 29.6141 155.504 25.8151 151.814C22.0161 148.125 19.9242 143.231 19.9242 138.032C19.9242 132.832 22.0161 127.938 25.8151 124.249C29.6141 120.56 34.6535 118.528 40.0076 118.528H189.387L189.578 119.345C192.49 131.672 201.947 141.965 214.252 146.213L215.479 146.635L214.829 147.73ZM243.39 126.442C240.775 128.982 237.658 130.828 234.103 131.944C231.834 132.603 229.537 132.936 227.279 132.936C221.201 132.936 215.479 130.63 211.168 126.443C206.856 122.256 204.481 116.7 204.481 110.797C204.481 108.014 204.994 105.341 206.001 102.866C207.111 100.02 208.899 97.3537 211.168 95.1508C215.479 90.9635 221.201 88.6577 227.279 88.6577C233.357 88.6577 239.079 90.9635 243.39 95.1508C247.701 99.3375 250.076 104.894 250.076 110.797C250.076 116.699 247.701 122.255 243.39 126.442Z" fill="black"/>
<path d="M154.916 78.3432L154.928 78.2934L155.089 77.6454L155.335 76.9475L155.656 76.2746L156.026 75.6266L156.47 75.0284L156.988 74.4801L157.53 73.9567L158.147 73.5081L158.788 73.1342L159.479 72.8102L160.194 72.536L160.909 72.3615L161.674 72.237L162.413 72.1871L163.178 72.2121L163.943 72.3117L164.682 72.4862L165.398 72.7355L166.088 73.0345L166.729 73.4084L194.402 90.9016L200.147 83.627L208.286 77.5457L213.272 75.5248L212.38 73.8071L211.098 71.5142L209.618 68.8972L209.174 68.1666L207.565 65.5325L205.992 63.0152L203.847 59.7752L201.529 56.3856L198.964 52.8714L196.547 49.7248L193.267 45.6934L190.677 42.7026L185.35 37.1197L182.637 34.5028L177.137 29.6427L174.35 27.4245L171.514 25.3309L168.653 23.3619L165.792 21.5425L162.068 19.3742L158.319 17.4551L151.217 14.4892L150.699 14.2898L146.827 13.0187L139.033 11.1993L135.087 10.626L131.116 10.302L127.146 10.1774H126.036L124.926 10.2272L123.791 10.2522L121.572 10.4017L120.437 10.5014L118.218 10.7507L117.083 10.9002L115.974 11.0746L112.151 11.7725L108.402 12.6947L104.703 13.8162L101.052 15.1621L93.9002 18.4769L90.4228 20.4209L87.0193 22.5893L83.6405 24.9571L80.3604 27.5241L74.3827 32.9522L71.3091 36.0231L67.289 40.5592C65.4611 42.1893 60.2356 49.8058 60.2356 49.8058L57.202 54.4416L54.4644 59.0025C53.2462 60.9281 52.4631 62.3848 50.9377 65.5325L49.8526 67.651L47.9781 71.6139L47.0163 73.7822L46.1039 75.9506L45.2159 78.1438L44.3526 80.3371L43.5388 82.5304L42.7743 84.6987L42.0591 86.892L41.3685 89.0354L40.7273 91.1788L40.16 93.2973L39.7901 94.6432L39.4694 95.9641L39.1735 97.2601L38.9023 98.5063L38.6556 99.7525L38.4336 100.949L38.2364 102.12L38.0637 103.292L37.8911 104.413L37.7677 105.535L37.7325 105.909H189.295L189.329 105.659L158.319 86.0446L157.703 85.6209L157.136 85.1224L156.618 84.5741L156.149 84.0009L155.755 83.3778L155.409 82.7048L155.163 82.007L154.965 81.2842L154.842 80.5614L154.793 79.8386L154.817 79.0909L154.916 78.3432Z" fill="#FF0000"/>
</g>
<defs>
<filter id="filter0_d_354_184" x="0" y="0" width="270" height="181" filterUnits="userSpaceOnUse" color-interpolation-filters="sRGB">
<feFlood flood-opacity="0" result="BackgroundImageFix"/>
<feColorMatrix in="SourceAlpha" type="matrix" values="0 0 0 0 0 0 0 0 0 0 0 0 0 0 0 0 0 0 127 0" result="hardAlpha"/>
<feOffset dy="4"/>
<feGaussianBlur stdDeviation="2"/>
<feComposite in2="hardAlpha" operator="out"/>
<feColorMatrix type="matrix" values="0 0 0 0 0 0 0 0 0 0 0 0 0 0 0 0 0 0 0.25 0"/>
<feBlend mode="normal" in2="BackgroundImageFix" result="effect1_dropShadow_354_184"/>
<feBlend mode="normal" in="SourceGraphic" in2="effect1_dropShadow_354_184" result="shape"/>
</filter>
</defs>
</svg>
