<svg width="222" height="181" viewBox="0 0 222 181" fill="none" xmlns="http://www.w3.org/2000/svg">
<g filter="url(#filter0_d_354_185)">
<path d="M115.082 0.62254L116.919 1.39533L118.608 2.42573L120.125 3.67081L121.407 5.152L122.454 6.78347L123.245 8.60814L123.736 10.5401L123.908 12.5795L123.843 13.7387L123.694 14.8764L123.416 15.9927L123.053 17.0445L122.604 18.0749L122.048 19.041L121.429 19.964L120.723 20.8227L119.954 21.617L119.099 22.3468L120.381 27.9282L121.771 33.7027L123.288 39.606L124.89 45.4879L126.557 51.3054L128.288 56.9082L130.041 62.2105L131.814 67.1263L133.588 71.5699L135.319 75.391L137.392 73.137L139.679 70.5825L142.093 67.7918L144.637 64.765L147.244 61.545L149.894 58.1532L152.522 54.6327L155.108 51.0049L157.587 47.2696L159.937 43.4915L159.36 42.826L158.869 42.0962L158.399 41.3448L157.993 40.572L157.63 39.7563L157.352 38.9191L157.117 38.039L156.946 37.1588L156.839 36.2358L156.796 35.3127L156.967 33.2734L157.459 31.3414L158.249 29.5382L159.296 27.8852L160.6 26.4255L162.096 25.159L163.784 24.15L165.643 23.3772L167.631 22.905L169.725 22.7332L171.798 22.905L173.785 23.3772L175.644 24.15L177.333 25.159L178.85 26.4255L180.132 27.8852L181.179 29.5382L181.97 31.3414L182.462 33.2734L182.633 35.3127L182.547 36.6436L182.355 37.9316L182.013 39.1767L181.543 40.3574L180.966 41.4736L180.282 42.547L179.491 43.513L178.594 44.4146L177.632 45.2303L176.563 45.9602L176.756 48.8582L176.991 51.885L177.333 54.9977L177.76 58.1532L178.252 61.3089L178.85 64.4215L179.555 67.4698L180.324 70.3678L181.222 73.0941L182.205 75.6057L193.686 64.4112L193.83 64.2708L193.852 64.2498L193.553 63.6917L193.275 63.112L193.018 62.5325L192.805 61.9314L192.612 61.3089L192.463 60.6863L192.335 60.0423L192.249 59.3983L192.185 58.7329V58.0674L192.356 56.028L192.826 54.0961L193.617 52.2929L194.664 50.6399L195.967 49.1802L197.463 47.9137L199.152 46.8832L201.011 46.1319L202.998 45.6382L205.093 45.4879L207.187 45.6382L209.174 46.1319L211.012 46.8832L212.7 47.9137L214.217 49.1802L215.5 50.6399L216.547 52.2929L217.338 54.0961L217.829 56.028L218 58.0674L217.915 59.57L217.637 61.0083L217.209 62.4037L216.611 63.7131L215.884 64.9367L215.008 66.0745L214.025 67.1263L212.914 68.0494L211.717 68.8437L210.414 69.5091L209.217 75.4769L207.999 81.7666L206.738 88.2066L205.52 94.6896L204.344 101.087L203.255 107.269L202.25 113.087L201.395 118.432L200.69 123.176L200.156 127.169L21.8226 127.169L21.3097 123.154L20.6045 118.432L19.7284 113.086L18.7454 107.248L17.6341 101.087L16.4587 94.6896L15.2407 88.2066L14.0013 81.7666L12.7618 75.4769L11.5649 69.5091L10.2828 68.8437L9.06469 68.0494L7.97477 67.1263L6.97043 66.0745L6.11561 64.9367L5.36773 63.7131L4.79076 62.4036L4.34187 61.0083L4.08541 59.57L4 58.0674L4.17104 56.028L4.64107 54.0961L5.43183 52.2928L6.47887 50.6399L7.78254 49.1802L9.27844 47.9136L10.9666 46.8832L12.8259 46.1319L14.8132 45.6382L16.9075 45.4879L19.0018 45.6382L20.9892 46.1319L22.827 46.8832L24.5153 47.9136L26.0325 49.1802L27.3148 50.6399L28.3619 52.2928L29.1526 54.0961L29.644 56.028L29.815 58.0674L29.7937 58.7328L29.751 59.3983L29.5372 60.6863L29.3662 61.3088L29.174 61.9314L28.9602 62.5325L28.7251 63.112L28.4473 63.6917L28.1268 64.2498L39.7949 75.6057L40.7779 73.0941L41.6755 70.3678L42.4449 67.4698L43.15 64.443L43.7484 61.3088L44.2399 58.1532L44.6672 54.9977L44.9878 51.885L45.2443 48.8582L45.4153 45.9602L44.3681 45.2303L43.4064 44.436L42.5089 43.5344L41.7182 42.547L41.0344 41.4736L40.4574 40.3574L39.9872 39.1767L39.6453 37.9316L39.4315 36.6436L39.3674 35.3127L39.5385 33.2734L40.0299 31.3414L40.7993 29.5382L41.8678 27.8852L43.15 26.4255L44.6459 25.159L46.3555 24.15L48.1933 23.3772L50.1808 22.905L52.2751 22.7332L54.3693 22.905L56.3566 23.3772L58.1946 24.15L59.9041 25.159L61.4 26.4255L62.7037 27.8852L63.7507 29.5382L64.5201 31.3414L65.0117 33.2734L65.1825 35.3127L65.1611 36.2358L65.0544 37.1588L64.8833 38.039L64.6482 38.9191L64.3491 39.7563L64.0072 40.572L63.6012 41.3448L63.131 42.0962L62.618 42.826L62.0626 43.4915L64.4133 47.2911L66.8922 51.0048L69.478 54.6542L72.1064 58.1747L74.7349 61.5665L77.3635 64.765L79.8852 67.7918L82.3214 70.5825L84.5866 73.137L86.6594 75.391L88.4118 71.5699L90.1641 67.1478L91.9378 62.2104L93.7115 56.9082L95.4212 51.3054L97.1095 45.4879L98.7122 39.606L100.208 33.7027L101.619 27.9282L102.901 22.3468L102.046 21.617L101.277 20.8227L100.571 19.964L99.9303 19.041L99.396 18.0749L98.9259 17.0445L98.5627 15.9927L98.3062 14.8764L98.1352 13.7387L98.0925 12.5795L98.2635 10.5401L98.7335 8.60814L99.5243 6.78347L100.571 5.152L101.875 3.67081L103.371 2.42573L105.059 1.39533L106.918 0.62254L108.906 0.150266L111 0L113.094 0.150266L115.082 0.62254ZM199.429 168.277L199.002 169.265L198.425 170.188L197.72 170.982L196.886 171.669L195.967 172.227L194.942 172.657L193.852 172.914L192.698 173H29.2808L28.1267 172.914L27.037 172.657L26.0325 172.227L25.1136 171.669L24.2801 170.982L23.575 170.188L22.998 169.265L22.5707 168.277L22.2928 167.225L22.2072 166.109L22.2072 136.807H199.771V166.109L199.686 167.226L199.429 168.277Z" fill="#FFDD00"/>
</g>
<defs>
<filter id="filter0_d_354_185" x="0" y="0" width="222" height="181" filterUnits="userSpaceOnUse" color-interpolation-filters="sRGB">
<feFlood flood-opacity="0" result="BackgroundImageFix"/>
<feColorMatrix in="SourceAlpha" type="matrix" values="0 0 0 0 0 0 0 0 0 0 0 0 0 0 0 0 0 0 127 0" result="hardAlpha"/>
<feOffset dy="4"/>
<feGaussianBlur stdDeviation="2"/>
<feComposite in2="hardAlpha" operator="out"/>
<feColorMatrix type="matrix" values="0 0 0 0 0 0 0 0 0 0 0 0 0 0 0 0 0 0 0.25 0"/>
<feBlend mode="normal" in2="BackgroundImageFix" result="effect1_dropShadow_354_185"/>
<feBlend mode="normal" in="SourceGraphic" in2="effect1_dropShadow_354_185" result="shape"/>
</filter>
</defs>
</svg>
