<svg width="1920" height="1080" viewBox="0 0 1920 1080" fill="none" xmlns="http://www.w3.org/2000/svg">
<g clip-path="url(#clip0_156_149)">
<path d="M476.648 16.1942C462.966 12.7119 449.199 9.41813 435.457 6.06927C410.397 -85.151 376.252 -169.131 412.321 -262.026C434.901 -275.238 457.484 -288.434 480.119 -301.495C486.913 -305.416 480.444 -314.734 473.58 -310.773C453.278 -299.055 432.676 -287.525 412.23 -275.897C412.286 -277.281 411.569 -278.639 409.575 -278.869C329.369 -288.053 215.139 -300.152 159.068 -353.432C158.271 -354.189 157.396 -354.572 156.508 -354.804C161.031 -366.824 165.471 -378.865 170.309 -390.821C173.206 -397.986 159.495 -401.102 156.668 -393.94C152.036 -382.196 147.695 -370.368 143.294 -358.557C58.9168 -339.566 -35.4937 -312.038 -120.728 -339.894C-133.861 -358.263 -147.068 -376.586 -160.516 -394.767C-163.399 -398.667 -170.288 -395.249 -167.856 -391.207C-156.976 -373.107 -145.819 -355.103 -134.617 -337.114C-170.427 -307.517 -200.55 -272.45 -234.88 -241.596C-270.579 -209.512 -314.573 -160.959 -369.1 -154.409C-371.056 -154.174 -372.137 -153.118 -372.781 -151.864C-373.127 -151.702 -373.365 -151.499 -373.578 -151.214C-379.718 -152.285 -385.89 -153.356 -392.016 -154.424C-397.043 -155.3 -399.135 -149.241 -394.15 -148.005C-387.349 -146.319 -380.505 -144.76 -373.69 -143.118C-368.425 -36.8131 -342.095 57.4543 -364.99 165.323C-365.556 167.993 -363.748 169.949 -361.418 170.901C-363.328 172.482 -363.884 175.349 -360.924 176.423C-253.104 215.533 -127.613 224.793 -50.6282 306.341C-54.6305 321.182 -58.4929 336.101 -62.5651 350.901C-63.4293 354.046 -57.9191 355.312 -56.7401 352.233C-51.7723 339.235 -47.3152 326.127 -42.6692 313.059C-40.1013 313.779 -37.2045 313.1 -35.4168 311.692C23.442 304.661 79.8414 291.77 139.904 290.523C187.266 289.536 260.06 286.811 299.299 313.634C302.392 318.248 305.537 322.85 308.619 327.467C313.454 334.702 326.846 328.228 322.001 320.979C301.972 291.03 282.258 260.792 262.411 230.678C262.572 230.536 262.817 230.524 262.939 230.333C312.8 152.932 369.601 86.3085 437.875 19.4763C449.528 22.2071 461.213 24.8449 472.832 27.6976C481.728 29.8827 485.482 18.4403 476.648 16.1942ZM425.882 3.71576C398.709 -2.84268 371.473 -9.2589 344.139 -15.4575C321.224 -78.9844 294.537 -137.984 314.972 -204.755C341.431 -220.403 367.898 -236.015 394.388 -251.561C366.232 -167.433 387.898 -76.7934 425.882 3.71576ZM-160.149 -97.0781C-138.129 -92.7861 -116.092 -88.5551 -94.0237 -84.4198C-96.791 -51.3171 -97.3507 -18.0577 -99.8592 15.0682C-125.731 30.1904 -151.259 45.6346 -176.914 60.9628C-157.833 9.48198 -151.193 -43.5746 -160.149 -97.0781ZM-146.277 -111.623C-107.119 -132.607 -66.8333 -162.752 -45.6254 -197.396C-37.8517 -185.489 -30.281 -173.51 -22.4443 -161.629C-47.5811 -144.145 -69.5936 -123.483 -89.0138 -101.576C-108.102 -104.98 -127.186 -108.265 -146.277 -111.623ZM54.3968 -85.7373C37.8488 -110.633 21.203 -135.477 4.45567 -160.265C28.9557 -160.173 53.5291 -161.56 77.7248 -164.827C69.7167 -138.524 61.9535 -112.154 54.3968 -85.7373ZM59.8544 -38.4672C71.7843 -20.8378 83.7982 -3.24607 95.784 14.3572C87.8879 14.4501 79.7399 15.5993 72.2811 16.2406C63.108 17.0299 53.921 17.8745 44.7689 18.8785C49.7962 -0.233793 54.8131 -19.352 59.8544 -38.4672ZM32.2303 -79.5183C-3.68536 -86.2219 -39.6429 -92.7687 -75.6215 -99.2111C-57.8037 -118.854 -38.359 -137.032 -18.0117 -154.885C-1.37985 -129.719 15.378 -104.6 32.2303 -79.5183ZM32.2372 -61.2012C10.1162 -48.6124 -11.8928 -35.9076 -33.9229 -23.2261C-26.5935 -38.2611 -19.2187 -54.0507 -14.1739 -69.6285C1.29301 -66.8135 16.7634 -64.0045 32.2372 -61.2012ZM42.5053 -43.7662C37.555 -25.9742 32.825 -8.13588 28.0041 9.68507C19.4257 3.9595 8.13958 0.0360477 -1.30987 -3.81776C-6.30223 -5.85203 -11.3926 -7.70927 -16.4934 -9.54331C3.18219 -20.9393 22.8892 -32.2889 42.5053 -43.7662ZM42.8237 26.2437C54.4597 26.3453 66.1518 26.1305 77.7598 25.7736C86.0722 25.5182 94.5946 25.8809 102.603 24.3835C112.031 38.2172 121.477 52.0189 130.919 65.8439C97.0295 68.029 62.5133 70.8149 29.274 77.1557C33.8326 60.1937 38.3491 43.226 42.8237 26.2437ZM75.944 -53.2759C106.696 -47.6983 137.437 -42.0656 168.147 -36.3429C157.267 -29.5494 147.53 -20.9045 138.242 -12.9444C130.437 -6.25247 123.125 0.755775 116.082 7.95845C102.694 -12.454 89.4167 -32.9012 75.944 -53.2759ZM86.0162 -69.2454C112.203 -84.6606 138.326 -100.143 164.453 -115.622C166.618 -93.9353 170.939 -71.9674 178.188 -51.0907C147.516 -57.2835 116.793 -63.3457 86.0162 -69.2454ZM163.529 -135.378C140.225 -145.509 117.475 -156 95.1683 -167.741C98.9887 -181.064 102.998 -194.346 106.99 -207.634C136.167 -188.652 172.009 -169.441 208.338 -160.556C193.389 -152.166 178.478 -143.776 163.529 -135.378ZM153.789 -129.891C126.48 -114.539 99.1671 -99.1879 71.9102 -83.7639C78.5084 -108.349 85.2466 -132.906 92.2051 -157.419C111.254 -146.438 132.102 -137.044 153.789 -129.891ZM79.8868 -171.673C52.4866 -171.058 25.1213 -170.329 -2.30346 -170.219C-9.58734 -180.971 -17.0951 -191.595 -24.428 -202.321C14.5278 -199.683 55.9291 -202.213 92.8943 -213.041C88.5071 -199.265 84.12 -185.489 79.8868 -171.673ZM-86.4389 -83.0094C-65.5319 -79.1063 -44.6318 -75.1857 -23.6968 -71.3638C-35.1264 -54.4715 -43.6173 -34.2071 -49.6312 -16.4877C-49.9286 -15.6084 -49.9111 -14.8423 -49.7501 -14.1429C-62.5267 -6.76325 -75.2157 0.706438 -87.9503 8.12676C-85.6203 -22.1581 -84.1089 -52.7216 -86.4389 -83.0094ZM-26.3172 -3.84676C-19.0613 -0.849035 -11.7214 2.0123 -4.58446 5.21607C5.17986 9.60094 14.9582 15.6805 25.5551 18.7247C21.105 35.2456 16.8509 51.781 12.4707 68.3134C-17.1231 53.0259 -48.914 39.8336 -80.2431 27.0359C-62.2538 16.7659 -44.247 6.51615 -26.3172 -3.84676ZM27.5633 83.4907C62.4888 82.211 97.3864 78.717 132.256 76.6943C134.352 76.5724 135.922 75.8005 136.979 74.7181C151.26 95.618 165.506 116.506 179.78 137.398C148.255 130.906 115.6 129.246 83.3119 132.673C62.3139 134.902 30.8064 138.593 9.52848 148.773C15.6928 127.046 21.6893 105.282 27.5633 83.4907ZM120.809 15.1582C129.209 7.93519 137.539 0.654169 146.281 -6.28152C157.805 -15.4198 171.355 -23.4118 181.987 -33.2088C182.148 -33.3568 182.204 -33.528 182.337 -33.6818C196.464 -31.0323 210.563 -28.2784 224.672 -25.568C209.468 -14.2677 196.677 0.0824941 184.433 13.2458C171.401 27.2565 159.047 41.8853 148.363 57.2424C139.176 43.2115 130.006 29.1863 120.809 15.1582ZM187.179 -49.2857C183.862 -73.697 179.636 -98.0677 176.001 -122.45C190.331 -130.944 204.64 -139.415 218.959 -147.912C224.658 -111.733 228.689 -75.2408 235.595 -39.2188C219.467 -42.5996 203.345 -46.0036 187.179 -49.2857ZM218.581 -166.313C201.537 -173.739 183.366 -179.729 166.639 -187.614C146.922 -196.909 128.499 -207.53 110.229 -218.572C110.324 -218.876 110.422 -219.178 110.516 -219.483C110.719 -219.782 110.814 -220.057 110.803 -220.391C115.666 -236.32 120.711 -252.211 125.889 -268.076C144.837 -247.745 178.936 -234.535 204.895 -224.19C232.579 -213.157 261.589 -206.27 291.504 -207.335C267.193 -193.661 242.921 -179.973 218.581 -166.313ZM95.5776 -221.567C52.4936 -216.134 11.4492 -211.961 -32.4255 -213.929C-42.3998 -228.47 -52.5734 -242.896 -62.6316 -257.391C-42.2703 -252.005 -20.6811 -252.989 1.65336 -255.537C40.2593 -259.936 80.9189 -265.81 115.624 -281.19C108.826 -261.347 101.983 -241.515 95.5776 -221.567ZM-50.5758 -205.034C-64.9721 -189.613 -77.9655 -173.414 -94.6184 -159.293C-115.2 -141.841 -138.483 -127.467 -163.357 -114.618C-193.941 -119.978 -224.395 -125.247 -254.948 -130.561C-180.44 -150.637 -115.462 -195.344 -82.3002 -254.396C-71.7277 -237.942 -61.2707 -221.448 -50.5758 -205.034ZM-168.017 -98.5813C-163.833 -40.5102 -170.76 15.4513 -193.623 70.9165C-220.883 87.2952 -248.038 103.773 -275.012 120.415C-249.354 43.1041 -250.351 -41.5171 -271.387 -119.783C-237.025 -112.409 -202.568 -105.352 -168.017 -98.5813ZM-173.919 79.7588C-148.52 87.9307 -122.166 93.842 -97.1513 102.873C-63.7336 114.936 -35.6931 132.47 -9.95118 153.556C-13.8905 168.568 -17.8613 183.553 -21.8076 198.556C-83.8955 152.694 -182.459 134.191 -264.866 129.466C-234.412 113.114 -204.104 96.5292 -173.919 79.7588ZM-166.268 75.5277C-139.928 60.8554 -113.647 46.0902 -87.4675 31.1712C-55.897 47.7008 -23.6023 64.5583 9.86085 78.1917C4.27724 99.3238 -1.2539 120.436 -6.79902 141.565C-52.4825 104.022 -106.793 91.1925 -166.268 75.5277ZM6.58274 158.907C21.6998 148.466 82.9026 143.303 91.0716 142.708C121.292 140.503 150.105 143.12 179.892 147.778C182.414 148.173 184.398 147.369 185.741 146.127C204.063 172.947 222.342 199.772 240.57 226.604C166.664 191.072 73.1907 185.605 -7.57219 206.984C-2.73027 190.982 1.98221 174.958 6.58274 158.907ZM153.083 64.4596C167.783 47.8024 181.977 30.9304 197.741 14.9115C210.409 2.03843 225.473 -9.69713 237.186 -23.168C265.311 -17.7182 293.369 -12.0506 321.385 -6.2496C259.717 19.2877 221.03 76.4534 195.061 128.555C181.071 107.185 167.07 85.8384 153.083 64.4596ZM244.575 -37.3499C244.922 -76.6019 238.268 -116.208 230.728 -154.888C253.745 -168.545 276.765 -182.138 299.778 -195.762C284.059 -135.192 304.655 -73.7753 334.434 -17.5904C304.54 -24.3172 274.634 -31.012 244.575 -37.3499ZM152.628 -344.674C207.558 -292.253 323.386 -274.937 403.701 -272.682C402.963 -272.113 402.092 -271.707 401.683 -270.758C401.525 -270.392 401.413 -270.021 401.256 -269.655C368.762 -251.172 336.404 -232.608 303.749 -214.222C269.033 -215.156 237.421 -222.251 206.001 -235.835C180.696 -246.776 145.606 -260.578 130.489 -281.829C137.497 -302.856 144.92 -323.794 152.628 -344.674ZM140.278 -350.582C132.644 -329.856 125.21 -309.075 118.024 -288.225C61.5967 -273.367 -15.2899 -250.348 -72.214 -271.173C-84.8646 -289.319 -97.6096 -307.407 -110.425 -325.454C-33.818 -302.92 68.1844 -323.396 140.278 -350.582ZM-248.72 -213.548C-207.48 -249.396 -161.422 -288.242 -131.36 -331.806C-116.683 -308.303 -101.836 -284.861 -86.8447 -261.468C-130.335 -199.738 -192.762 -155.657 -276.925 -135.686C-277.583 -135.75 -278.23 -135.619 -278.654 -135.213C-278.912 -135.152 -279.143 -135.065 -279.402 -135.007C-279.528 -134.978 -279.595 -134.911 -279.714 -134.876C-303.115 -138.942 -326.496 -143.019 -349.89 -147.093C-308.307 -156.873 -277.905 -188.179 -248.72 -213.548ZM-355.215 170.547C-354.375 169.96 -353.675 169.177 -353.417 167.973C-331.586 66.7348 -335.539 -41.1573 -366.141 -141.31C-336.914 -134.325 -307.614 -127.581 -278.188 -121.217C-272.09 -35.4491 -260.339 44.0879 -289.733 129.284C-289.786 129.432 -289.737 129.554 -289.775 129.699C-311.567 143.239 -333.29 156.841 -354.77 170.666C-354.914 170.622 -355.068 170.584 -355.215 170.547ZM-347.042 172.671C-322.409 159.963 -297.902 147.061 -273.49 134.002C-187.5 156.017 -93.8382 155.834 -24.9213 210.396C-32.2156 238.09 -39.7164 265.661 -47.1263 293.285C-121.931 220.608 -240.341 200.393 -347.042 172.671ZM286.522 294.684C253.825 281.46 203.08 280.107 174.731 279.263C136.412 278.122 97.7117 279.971 59.7215 284.286C47.7321 285.65 36.0017 287.174 24.1312 289.254C2.89534 292.972 -15.4263 303.863 -33.755 308.512C-31.4565 307.929 -31.369 305.122 -33.755 304.571C-35.0319 304.275 -35.91 304.095 -36.7882 303.941C-37.4354 303.297 -38.0756 302.644 -38.6984 301.974C-28.6647 273.198 -19.0648 244.329 -10.1821 215.309C82.1959 196.952 162.525 207.378 247.888 240.504C248.732 240.832 249.54 240.951 250.313 240.96C262.46 258.862 274.47 276.776 286.522 294.684ZM258.87 225.324C239.646 196.139 220.285 167.088 201.131 137.83C232.075 83.5487 270.275 23.2953 339.077 -1.37428C339.696 -1.59482 340.123 -1.93147 340.546 -2.2652C369.139 3.76508 397.631 10.132 426.064 16.6991C354.064 73.2323 294.67 149.078 258.87 225.324Z" fill="white" fill-opacity="0.5"/>
<path d="M641.972 26.1896C637.603 25.0783 633.207 24.0271 628.819 22.9583C620.817 -6.15458 609.913 -32.9567 621.431 -62.6039C628.641 -66.8207 635.852 -71.032 643.08 -75.2006C645.249 -76.4519 643.184 -79.4258 640.992 -78.1615C634.509 -74.4217 627.931 -70.7421 621.402 -67.031C621.42 -67.4728 621.191 -67.9062 620.554 -67.9794C594.943 -70.9107 558.467 -74.7718 540.563 -91.7761C540.308 -92.0178 540.029 -92.1401 539.745 -92.2141C541.189 -96.0503 542.607 -99.8929 544.152 -103.709C545.077 -105.995 540.699 -106.99 539.796 -104.704C538.317 -100.956 536.931 -97.1811 535.526 -93.4117C508.583 -87.3509 478.436 -78.5654 451.219 -87.4555C447.025 -93.3181 442.808 -99.1659 438.514 -104.968C437.593 -106.213 435.393 -105.122 436.17 -103.832C439.644 -98.0554 443.207 -92.3095 446.784 -86.5683C435.349 -77.1224 425.73 -65.9307 414.768 -56.0838C403.369 -45.8442 389.321 -30.3486 371.909 -28.2583C371.284 -28.1833 370.939 -27.8461 370.734 -27.446C370.623 -27.3942 370.547 -27.3293 370.479 -27.2386C368.518 -27.5803 366.548 -27.9221 364.592 -28.2629C362.986 -28.5426 362.318 -26.6088 363.91 -26.2142C366.082 -25.6761 368.267 -25.1788 370.443 -24.6546C372.124 9.27244 380.532 39.3578 373.222 73.784C373.041 74.6361 373.618 75.2603 374.362 75.5641C373.752 76.0688 373.575 76.9839 374.52 77.3265C408.949 89.8084 449.02 92.7638 473.603 118.79C472.325 123.526 471.091 128.287 469.791 133.011C469.515 134.015 471.275 134.419 471.651 133.436C473.237 129.288 474.661 125.104 476.144 120.934C476.964 121.163 477.889 120.947 478.46 120.498C497.255 118.253 515.264 114.139 534.443 113.741C549.567 113.426 572.811 112.557 585.341 121.117C586.328 122.59 587.333 124.059 588.317 125.532C589.861 127.841 594.137 125.775 592.59 123.461C586.194 113.903 579.899 104.253 573.562 94.642C573.613 94.5966 573.691 94.5929 573.731 94.5318C589.652 69.8293 607.79 48.5666 629.591 27.2371C633.312 28.1086 637.043 28.9505 640.753 29.8609C643.594 30.5583 644.793 26.9065 641.972 26.1896ZM625.761 22.2072C617.084 20.114 608.387 18.0663 599.659 16.088C592.342 -4.18649 583.82 -23.0162 590.346 -44.3262C598.795 -49.32 607.246 -54.3028 615.705 -59.2642C606.714 -32.4149 613.632 -3.48725 625.761 22.2072ZM438.631 -9.9611C445.662 -8.59131 452.699 -7.24097 459.746 -5.92119C458.862 4.64349 458.683 15.2582 457.882 25.8303C449.621 30.6565 441.47 35.5855 433.278 40.4775C439.37 24.0474 441.491 7.11449 438.631 -9.9611ZM443.06 -14.603C455.564 -21.3001 468.428 -30.921 475.2 -41.9775C477.683 -38.1774 480.1 -34.3543 482.602 -30.5626C474.576 -24.9825 467.547 -18.3882 461.346 -11.3966C455.251 -12.483 449.157 -13.5314 443.06 -14.603ZM507.139 -6.34167C501.855 -14.2872 496.54 -22.216 491.192 -30.1273C499.015 -30.0976 506.862 -30.5403 514.588 -31.5832C512.031 -23.1885 509.552 -14.7725 507.139 -6.34167ZM508.882 8.74452C512.691 14.3709 516.528 19.9853 520.355 25.6034C517.834 25.633 515.232 25.9998 512.85 26.2045C509.921 26.4564 506.987 26.7259 504.065 27.0463C505.67 20.9467 507.272 14.8451 508.882 8.74452ZM500.061 -4.35691C488.593 -6.49634 477.111 -8.58575 465.622 -10.6418C471.312 -16.911 477.521 -22.7124 484.018 -28.4102C489.329 -20.3785 494.68 -12.3617 500.061 -4.35691ZM500.063 1.489C493 5.50667 485.972 9.5614 478.937 13.6087C481.278 8.81029 483.632 3.77105 485.243 -1.20057C490.182 -0.302191 495.122 0.594329 500.063 1.489ZM503.342 7.05336C501.761 12.7316 500.251 18.4247 498.712 24.1123C495.972 22.285 492.368 21.0328 489.351 19.8028C487.757 19.1536 486.131 18.5609 484.503 17.9755C490.785 14.3385 497.078 10.7163 503.342 7.05336ZM503.444 29.3969C507.159 29.4293 510.893 29.3608 514.599 29.2469C517.254 29.1654 519.975 29.2812 522.532 28.8033C525.543 33.2183 528.559 37.6231 531.574 42.0353C520.753 42.7327 509.731 43.6218 499.117 45.6454C500.573 40.2321 502.015 34.8168 503.444 29.3969ZM514.02 4.01834C523.839 5.79842 533.656 7.59609 543.462 9.42247C539.987 11.5906 536.878 14.3496 533.912 16.8901C531.42 19.0258 529.085 21.2625 526.837 23.5612C522.561 17.0466 518.322 10.5209 514.02 4.01834ZM517.236 -1.07831C525.598 -5.99806 533.939 -10.9391 542.282 -15.8792C542.974 -8.95807 544.353 -1.94705 546.668 4.71574C536.874 2.73931 527.063 0.804571 517.236 -1.07831ZM541.987 -22.1845C534.546 -25.4178 527.281 -28.7658 520.158 -32.5131C521.378 -36.765 522.658 -41.0041 523.933 -45.245C533.25 -39.187 544.695 -33.0558 556.295 -30.2199C551.522 -27.5424 546.761 -24.8648 541.987 -22.1845ZM538.877 -20.4332C530.157 -15.5338 521.435 -10.6344 512.732 -5.71188C514.838 -13.5583 516.99 -21.3954 519.212 -29.2187C525.295 -25.7141 531.952 -22.7161 538.877 -20.4332ZM515.279 -33.768C506.529 -33.5717 497.791 -33.3392 489.034 -33.304C486.708 -36.7354 484.311 -40.1261 481.969 -43.5492C494.408 -42.7073 507.628 -43.5149 519.432 -46.9704C518.031 -42.5739 516.63 -38.1774 515.279 -33.768ZM462.168 -5.47108C468.844 -4.2254 475.518 -2.97416 482.203 -1.75441C478.553 3.63676 475.842 10.1041 473.921 15.7592C473.826 16.0399 473.832 16.2844 473.883 16.5076C469.803 18.8628 465.752 21.2467 461.685 23.6149C462.429 13.9495 462.912 4.19523 462.168 -5.47108ZM481.366 19.7936C483.683 20.7503 486.026 21.6635 488.305 22.686C491.423 24.0854 494.546 26.0257 497.93 26.9973C496.509 32.2699 495.15 37.5471 493.751 42.8234C484.302 37.9444 474.15 33.7341 464.146 29.6498C469.891 26.3721 475.64 23.1009 481.366 19.7936ZM498.571 47.6673C509.723 47.2588 520.867 46.1437 532.001 45.4982C532.67 45.4593 533.172 45.2129 533.509 44.8675C538.069 51.5377 542.618 58.2042 547.176 64.8716C537.11 62.7998 526.682 62.27 516.372 63.3638C509.667 64.0751 499.606 65.2531 492.812 68.5021C494.78 61.568 496.695 54.6218 498.571 47.6673ZM528.346 25.859C531.028 23.5538 533.688 21.2301 536.48 19.0165C540.159 16.1001 544.486 13.5494 547.881 10.4227C547.933 10.3755 547.95 10.3208 547.993 10.2718C552.504 11.1173 557.006 11.9963 561.511 12.8613C556.656 16.4678 552.572 21.0476 548.662 25.2487C544.501 29.7202 540.556 34.3889 537.144 39.2901C534.211 34.8122 531.283 30.336 528.346 25.859ZM549.539 5.29181C548.48 -2.49904 547.13 -10.2769 545.97 -18.0585C550.545 -20.7694 555.115 -23.4728 559.687 -26.1846C561.507 -14.6382 562.794 -2.99175 564.999 8.50465C559.849 7.42568 554.701 6.33929 549.539 5.29181ZM559.566 -32.0574C554.124 -34.4274 548.321 -36.339 542.98 -38.8554C536.684 -41.8219 530.801 -45.2116 524.968 -48.7356C524.998 -48.8329 525.029 -48.9292 525.059 -49.0265C525.124 -49.1219 525.154 -49.2098 525.151 -49.3163C526.704 -54.4 528.314 -59.4717 529.968 -64.535C536.018 -58.0463 546.907 -53.8304 555.196 -50.5287C564.036 -47.0074 573.299 -44.8097 582.852 -45.1496C575.089 -40.7855 567.338 -36.4168 559.566 -32.0574ZM520.289 -49.6914C506.531 -47.9577 493.425 -46.6259 479.415 -47.2538C476.23 -51.8948 472.982 -56.4987 469.77 -61.1249C476.272 -59.4059 483.165 -59.7199 490.297 -60.533C502.625 -61.9371 515.608 -63.8116 526.69 -68.7203C524.52 -62.3872 522.334 -56.0579 520.289 -49.6914ZM473.62 -44.4151C469.023 -39.4935 464.874 -34.3237 459.556 -29.817C452.984 -24.2471 445.549 -19.6598 437.606 -15.5588C427.84 -17.2694 418.116 -18.9513 408.36 -20.6471C432.151 -27.0543 452.9 -41.3227 463.489 -60.1691C466.865 -54.9177 470.204 -49.6535 473.62 -44.4151ZM436.118 -10.4408C437.455 8.09251 435.243 25.9525 427.942 43.6542C419.237 48.8814 410.566 54.1402 401.953 59.4517C410.146 34.7779 409.828 7.77113 403.11 -17.2074C414.083 -14.854 425.086 -12.6016 436.118 -10.4408ZM434.234 46.4762C442.344 49.0843 450.76 50.9709 458.747 53.8531C469.418 57.7031 478.372 63.299 486.592 70.0284C485.334 74.8194 484.066 79.6021 482.806 84.3904C462.98 69.7534 431.507 63.8482 405.193 62.3404C414.917 57.1215 424.595 51.8285 434.234 46.4762ZM436.677 45.1259C445.088 40.4432 453.48 35.7309 461.839 30.9695C471.92 36.2449 482.233 41.625 492.918 45.9761C491.135 52.7204 489.369 59.4582 487.598 66.2015C473.011 54.2198 455.668 50.1253 436.677 45.1259ZM491.871 71.7363C496.698 68.4039 516.242 66.7563 518.85 66.5664C528.5 65.8626 537.701 66.698 547.212 68.1844C548.017 68.3104 548.651 68.0539 549.08 67.6575C554.93 76.217 560.767 84.7784 566.588 93.3417C542.988 82.0018 513.14 80.2569 487.351 87.0799C488.897 81.9731 490.402 76.8588 491.871 71.7363ZM538.651 41.5935C543.346 36.2774 547.878 30.8927 552.912 25.7803C556.957 21.6718 561.767 17.9265 565.507 13.6272C574.488 15.3666 583.447 17.1753 592.393 19.0267C572.702 27.1769 560.348 45.4213 552.056 62.0496C547.588 55.2293 543.118 48.4165 538.651 41.5935ZM567.867 9.1011C567.977 -3.42612 565.852 -16.0663 563.445 -28.4111C570.795 -32.7696 578.145 -37.1077 585.494 -41.456C580.475 -22.1253 587.051 -2.52404 596.56 15.4073C587.014 13.2605 577.465 11.1238 567.867 9.1011ZM538.506 -88.9809C556.046 -72.2508 593.032 -66.7244 618.678 -66.0048C618.443 -65.8233 618.165 -65.6936 618.034 -65.3907C617.984 -65.2741 617.948 -65.1555 617.898 -65.0388C607.522 -59.1401 597.189 -53.2155 586.762 -47.3473C575.677 -47.6456 565.582 -49.91 555.549 -54.2454C547.469 -57.737 536.264 -62.1418 531.437 -68.924C533.675 -75.635 536.045 -82.3172 538.506 -88.9809ZM534.563 -90.8666C532.125 -84.252 529.751 -77.6197 527.457 -70.9653C509.438 -66.2234 484.887 -58.8771 466.71 -65.5232C462.671 -71.3145 458.601 -77.0872 454.509 -82.847C478.971 -75.6554 511.542 -82.1903 534.563 -90.8666ZM410.348 -47.1325C423.517 -58.5733 438.224 -70.9709 447.824 -84.8743C452.51 -77.3734 457.251 -69.8919 462.038 -62.4261C448.151 -42.7249 428.217 -28.6565 401.342 -22.2827C401.132 -22.3031 400.925 -22.2614 400.79 -22.1317C400.707 -22.1123 400.634 -22.0845 400.551 -22.066C400.511 -22.0567 400.49 -22.0354 400.452 -22.0243C392.979 -23.3219 385.513 -24.6231 378.043 -25.9234C391.321 -29.0446 401.029 -39.036 410.348 -47.1325ZM376.343 75.4511C376.611 75.264 376.834 75.0139 376.917 74.6296C383.888 42.3196 382.626 7.88598 372.854 -24.0776C382.187 -21.8483 391.543 -19.6959 400.939 -17.6649C402.886 9.70773 406.638 35.0919 397.252 62.282C397.235 62.3293 397.251 62.3682 397.239 62.4145C390.28 66.7359 383.344 71.0768 376.485 75.4891C376.439 75.4752 376.39 75.4631 376.343 75.4511ZM378.952 76.129C386.818 72.0734 394.644 67.9557 402.439 63.788C429.897 70.8138 459.805 70.7555 481.812 88.1691C479.482 97.0074 477.087 105.807 474.721 114.623C450.834 91.4282 413.024 84.9766 378.952 76.129ZM581.261 115.069C570.82 110.849 554.616 110.417 545.564 110.148C533.328 109.784 520.97 110.374 508.839 111.751C505.011 112.186 501.265 112.672 497.475 113.337C490.694 114.523 484.843 117.999 478.991 119.483C479.725 119.296 479.753 118.401 478.991 118.225C478.583 118.13 478.303 118.073 478.022 118.024C477.816 117.818 477.611 117.61 477.412 117.396C480.616 108.212 483.682 98.9987 486.518 89.7371C516.016 83.8782 541.666 87.2059 568.925 97.778C569.194 97.8826 569.452 97.9206 569.699 97.9234C573.577 103.637 577.413 109.354 581.261 115.069ZM572.431 92.9333C566.293 83.6189 560.11 74.3471 553.994 65.0096C563.875 47.6858 576.073 28.456 598.043 20.5827C598.24 20.5123 598.377 20.4049 598.512 20.2983C607.642 22.2229 616.74 24.2549 625.819 26.3508C602.829 44.3933 583.863 68.5994 572.431 92.9333Z" fill="white" fill-opacity="0.5"/>
<path d="M2334.65 99.1942C2320.97 95.7119 2307.2 92.4181 2293.46 89.0693C2268.4 -2.15103 2234.25 -86.1309 2270.32 -179.026C2292.9 -192.238 2315.48 -205.434 2338.12 -218.495C2344.91 -222.416 2338.44 -231.734 2331.58 -227.773C2311.28 -216.055 2290.68 -204.525 2270.23 -192.897C2270.29 -194.281 2269.57 -195.639 2267.58 -195.869C2187.37 -205.053 2073.14 -217.152 2017.07 -270.432C2016.27 -271.189 2015.4 -271.572 2014.51 -271.804C2019.03 -283.824 2023.47 -295.865 2028.31 -307.821C2031.21 -314.986 2017.5 -318.102 2014.67 -310.94C2010.04 -299.196 2005.69 -287.368 2001.29 -275.557C1916.92 -256.566 1822.51 -229.038 1737.27 -256.894C1724.14 -275.263 1710.93 -293.586 1697.48 -311.767C1694.6 -315.667 1687.71 -312.249 1690.14 -308.207C1701.02 -290.107 1712.18 -272.103 1723.38 -254.114C1687.57 -224.517 1657.45 -189.45 1623.12 -158.596C1587.42 -126.512 1543.43 -77.959 1488.9 -71.4093C1486.94 -71.1742 1485.86 -70.1179 1485.22 -68.8643C1484.87 -68.7018 1484.63 -68.4986 1484.42 -68.2142C1478.28 -69.2851 1472.11 -70.3559 1465.98 -71.4238C1460.96 -72.3002 1458.87 -66.2409 1463.85 -65.0046C1470.65 -63.3186 1477.49 -61.7603 1484.31 -60.1177C1489.57 46.1869 1515.9 140.454 1493.01 248.323C1492.44 250.993 1494.25 252.949 1496.58 253.901C1494.67 255.482 1494.12 258.349 1497.08 259.423C1604.9 298.533 1730.39 307.793 1807.37 389.341C1803.37 404.182 1799.51 419.101 1795.43 433.901C1794.57 437.046 1800.08 438.312 1801.26 435.233C1806.23 422.235 1810.68 409.127 1815.33 396.059C1817.9 396.779 1820.8 396.1 1822.58 394.692C1881.44 387.661 1937.84 374.77 1997.9 373.523C2045.27 372.536 2118.06 369.811 2157.3 396.634C2160.39 401.248 2163.54 405.85 2166.62 410.467C2171.45 417.702 2184.85 411.228 2180 403.979C2159.97 374.03 2140.26 343.792 2120.41 313.678C2120.57 313.536 2120.82 313.524 2120.94 313.333C2170.8 235.932 2227.6 169.309 2295.87 102.476C2307.53 105.207 2319.21 107.845 2330.83 110.698C2339.73 112.883 2343.48 101.44 2334.65 99.1942ZM2283.88 86.7158C2256.71 80.1573 2229.47 73.7411 2202.14 67.5425C2179.22 4.01564 2152.54 -54.9842 2172.97 -121.755C2199.43 -137.403 2225.9 -153.015 2252.39 -168.561C2224.23 -84.4333 2245.9 6.20661 2283.88 86.7158ZM1697.85 -14.0781C1719.87 -9.78611 1741.91 -5.55505 1763.98 -1.41976C1761.21 31.6829 1760.65 64.9423 1758.14 98.0682C1732.27 113.19 1706.74 128.635 1681.09 143.963C1700.17 92.482 1706.81 39.4254 1697.85 -14.0781ZM1711.72 -28.6228C1750.88 -49.6068 1791.17 -79.7524 1812.37 -114.396C1820.15 -102.489 1827.72 -90.51 1835.56 -78.6294C1810.42 -61.145 1788.41 -40.4831 1768.99 -18.5761C1749.9 -21.9801 1730.81 -25.2652 1711.72 -28.6228ZM1912.4 -2.73725C1895.85 -27.6332 1879.2 -52.4769 1862.46 -77.2655C1886.96 -77.1726 1911.53 -78.5597 1935.72 -81.8273C1927.72 -55.524 1919.95 -29.1538 1912.4 -2.73725ZM1917.85 44.5328C1929.78 62.1622 1941.8 79.7539 1953.78 97.3572C1945.89 97.4501 1937.74 98.5993 1930.28 99.2406C1921.11 100.03 1911.92 100.874 1902.77 101.879C1907.8 82.7662 1912.81 63.648 1917.85 44.5328ZM1890.23 3.48167C1854.31 -3.22187 1818.36 -9.7687 1782.38 -16.2111C1800.2 -35.8544 1819.64 -54.0323 1839.99 -71.8852C1856.62 -46.7194 1873.38 -21.6 1890.23 3.48167ZM1890.24 21.7988C1868.12 34.3876 1846.11 47.0924 1824.08 59.7739C1831.41 44.7389 1838.78 28.9493 1843.83 13.3715C1859.29 16.1865 1874.76 18.9955 1890.24 21.7988ZM1900.51 39.2338C1895.55 57.0258 1890.82 74.8641 1886 92.6851C1877.43 86.9595 1866.14 83.036 1856.69 79.1822C1851.7 77.148 1846.61 75.2907 1841.51 73.4567C1861.18 62.0607 1880.89 50.7111 1900.51 39.2338ZM1900.82 109.244C1912.46 109.345 1924.15 109.131 1935.76 108.774C1944.07 108.518 1952.59 108.881 1960.6 107.384C1970.03 121.217 1979.48 135.019 1988.92 148.844C1955.03 151.029 1920.51 153.815 1887.27 160.156C1891.83 143.194 1896.35 126.226 1900.82 109.244ZM1933.94 29.7241C1964.7 35.3017 1995.44 40.9344 2026.15 46.6571C2015.27 53.4506 2005.53 62.0955 1996.24 70.0556C1988.44 76.7475 1981.12 83.7558 1974.08 90.9584C1960.69 70.546 1947.42 50.0988 1933.94 29.7241ZM1944.02 13.7546C1970.2 -1.66061 1996.33 -17.1426 2022.45 -32.6217C2024.62 -10.9353 2028.94 11.0326 2036.19 31.9093C2005.52 25.7165 1974.79 19.6543 1944.02 13.7546ZM2021.53 -52.3782C1998.23 -62.509 1975.47 -72.9996 1953.17 -84.7409C1956.99 -98.0638 1961 -111.346 1964.99 -124.634C1994.17 -105.652 2030.01 -86.4415 2066.34 -77.5557C2051.39 -69.1661 2036.48 -60.7765 2021.53 -52.3782ZM2011.79 -46.8906C1984.48 -31.5392 1957.17 -16.1879 1929.91 -0.763919C1936.51 -25.3493 1943.25 -49.9057 1950.21 -74.4186C1969.25 -63.4376 1990.1 -54.0439 2011.79 -46.8906ZM1937.89 -88.6731C1910.49 -88.0579 1883.12 -87.3295 1855.7 -87.2192C1848.41 -97.971 1840.9 -108.595 1833.57 -119.321C1872.53 -116.683 1913.93 -119.213 1950.89 -130.041C1946.51 -116.265 1942.12 -102.489 1937.89 -88.6731ZM1771.56 -0.00940249C1792.47 3.89374 1813.37 7.81429 1834.3 11.6362C1822.87 28.5285 1814.38 48.7929 1808.37 66.5123C1808.07 67.3916 1808.09 68.1577 1808.25 68.8571C1795.47 76.2368 1782.78 83.7064 1770.05 91.1268C1772.38 60.8419 1773.89 30.2784 1771.56 -0.00940249ZM1831.68 79.1532C1838.94 82.151 1846.28 85.0123 1853.42 88.2161C1863.18 92.6009 1872.96 98.6805 1883.56 101.725C1879.11 118.246 1874.85 134.781 1870.47 151.313C1840.88 136.026 1809.09 122.834 1777.76 110.036C1795.75 99.7659 1813.75 89.5161 1831.68 79.1532ZM1885.56 166.491C1920.49 165.211 1955.39 161.717 1990.26 159.694C1992.35 159.572 1993.92 158.801 1994.98 157.718C2009.26 178.618 2023.51 199.506 2037.78 220.398C2006.25 213.906 1973.6 212.246 1941.31 215.673C1920.31 217.902 1888.81 221.593 1867.53 231.773C1873.69 210.046 1879.69 188.282 1885.56 166.491ZM1978.81 98.1582C1987.21 90.9352 1995.54 83.6542 2004.28 76.7185C2015.81 67.5802 2029.36 59.5882 2039.99 49.7912C2040.15 49.6432 2040.2 49.472 2040.34 49.3182C2054.46 51.9677 2068.56 54.7216 2082.67 57.432C2067.47 68.7323 2054.68 83.0825 2042.43 96.2458C2029.4 110.256 2017.05 124.885 2006.36 140.242C1997.18 126.211 1988.01 112.186 1978.81 98.1582ZM2045.18 33.7143C2041.86 9.303 2037.64 -15.0677 2034 -39.45C2048.33 -47.944 2062.64 -56.4148 2076.96 -64.9118C2082.66 -28.733 2086.69 7.75916 2093.59 43.7812C2077.47 40.4004 2061.35 36.9964 2045.18 33.7143ZM2076.58 -83.3131C2059.54 -90.7393 2041.37 -96.7289 2024.64 -104.614C2004.92 -113.909 1986.5 -124.53 1968.23 -135.572C1968.32 -135.876 1968.42 -136.178 1968.52 -136.483C1968.72 -136.782 1968.81 -137.057 1968.8 -137.391C1973.67 -153.32 1978.71 -169.211 1983.89 -185.076C2002.84 -164.745 2036.94 -151.535 2062.9 -141.19C2090.58 -130.157 2119.59 -123.27 2149.5 -124.335C2125.19 -110.661 2100.92 -96.9727 2076.58 -83.3131ZM1953.58 -138.567C1910.49 -133.134 1869.45 -128.961 1825.57 -130.929C1815.6 -145.47 1805.43 -159.896 1795.37 -174.391C1815.73 -169.005 1837.32 -169.989 1859.65 -172.537C1898.26 -176.936 1938.92 -182.81 1973.62 -198.19C1966.83 -178.347 1959.98 -158.515 1953.58 -138.567ZM1807.42 -122.034C1793.03 -106.613 1780.03 -90.4142 1763.38 -76.2933C1742.8 -58.8409 1719.52 -44.4675 1694.64 -31.6176C1664.06 -36.9775 1633.6 -42.2475 1603.05 -47.561C1677.56 -67.6367 1742.54 -112.344 1775.7 -171.396C1786.27 -154.942 1796.73 -138.448 1807.42 -122.034ZM1689.98 -15.5813C1694.17 42.4898 1687.24 98.4513 1664.38 153.917C1637.12 170.295 1609.96 186.773 1582.99 203.415C1608.65 126.104 1607.65 41.4829 1586.61 -36.7831C1620.98 -29.4092 1655.43 -22.3516 1689.98 -15.5813ZM1684.08 162.759C1709.48 170.931 1735.83 176.842 1760.85 185.873C1794.27 197.936 1822.31 215.47 1848.05 236.556C1844.11 251.568 1840.14 266.553 1836.19 281.556C1774.1 235.694 1675.54 217.191 1593.13 212.466C1623.59 196.114 1653.9 179.529 1684.08 162.759ZM1691.73 158.528C1718.07 143.855 1744.35 129.09 1770.53 114.171C1802.1 130.701 1834.4 147.558 1867.86 161.192C1862.28 182.324 1856.75 203.436 1851.2 224.565C1805.52 187.022 1751.21 174.193 1691.73 158.528ZM1864.58 241.907C1879.7 231.466 1940.9 226.303 1949.07 225.708C1979.29 223.503 2008.11 226.12 2037.89 230.778C2040.41 231.173 2042.4 230.369 2043.74 229.127C2062.06 255.947 2080.34 282.772 2098.57 309.604C2024.66 274.072 1931.19 268.605 1850.43 289.984C1855.27 273.982 1859.98 257.958 1864.58 241.907ZM2011.08 147.46C2025.78 130.802 2039.98 113.93 2055.74 97.9115C2068.41 85.0384 2083.47 73.3029 2095.19 59.832C2123.31 65.2818 2151.37 70.9494 2179.38 76.7504C2117.72 102.288 2079.03 159.453 2053.06 211.555C2039.07 190.185 2025.07 168.838 2011.08 147.46ZM2102.58 45.6501C2102.92 6.39813 2096.27 -33.2078 2088.73 -71.8881C2111.74 -85.5447 2134.77 -99.1375 2157.78 -112.762C2142.06 -52.1925 2162.66 9.22466 2192.43 65.4096C2162.54 58.6828 2132.63 51.988 2102.58 45.6501ZM2010.63 -261.674C2065.56 -209.253 2181.39 -191.937 2261.7 -189.682C2260.96 -189.113 2260.09 -188.707 2259.68 -187.758C2259.53 -187.392 2259.41 -187.021 2259.26 -186.655C2226.76 -168.172 2194.4 -149.608 2161.75 -131.222C2127.03 -132.156 2095.42 -139.251 2064 -152.835C2038.7 -163.776 2003.61 -177.578 1988.49 -198.829C1995.5 -219.856 2002.92 -240.794 2010.63 -261.674ZM1998.28 -267.582C1990.64 -246.856 1983.21 -226.075 1976.02 -205.225C1919.6 -190.367 1842.71 -167.348 1785.79 -188.173C1773.14 -206.319 1760.39 -224.407 1747.58 -242.454C1824.18 -219.92 1926.18 -240.396 1998.28 -267.582ZM1609.28 -130.548C1650.52 -166.396 1696.58 -205.242 1726.64 -248.806C1741.32 -225.303 1756.16 -201.861 1771.16 -178.468C1727.67 -116.738 1665.24 -72.6571 1581.07 -52.6858C1580.42 -52.7497 1579.77 -52.6191 1579.35 -52.2128C1579.09 -52.1519 1578.86 -52.0648 1578.6 -52.0068C1578.47 -51.9777 1578.41 -51.911 1578.29 -51.8762C1554.88 -55.9418 1531.5 -60.0191 1508.11 -64.0934C1549.69 -73.8731 1580.1 -105.179 1609.28 -130.548ZM1502.79 253.547C1503.62 252.96 1504.32 252.177 1504.58 250.973C1526.41 149.735 1522.46 41.8427 1491.86 -58.3098C1521.09 -51.3248 1550.39 -44.5806 1579.81 -38.2166C1585.91 47.5509 1597.66 127.088 1568.27 212.284C1568.21 212.432 1568.26 212.554 1568.22 212.699C1546.43 226.239 1524.71 239.841 1503.23 253.666C1503.09 253.622 1502.93 253.584 1502.79 253.547ZM1510.96 255.671C1535.59 242.963 1560.1 230.061 1584.51 217.002C1670.5 239.017 1764.16 238.834 1833.08 293.396C1825.78 321.09 1818.28 348.661 1810.87 376.285C1736.07 303.608 1617.66 283.393 1510.96 255.671ZM2144.52 377.684C2111.83 364.46 2061.08 363.107 2032.73 362.263C1994.41 361.122 1955.71 362.971 1917.72 367.286C1905.73 368.65 1894 370.174 1882.13 372.254C1860.9 375.972 1842.57 386.863 1824.25 391.512C1826.54 390.929 1826.63 388.122 1824.25 387.571C1822.97 387.275 1822.09 387.095 1821.21 386.941C1820.56 386.297 1819.92 385.644 1819.3 384.974C1829.34 356.198 1838.94 327.329 1847.82 298.309C1940.2 279.952 2020.52 290.378 2105.89 323.504C2106.73 323.832 2107.54 323.951 2108.31 323.96C2120.46 341.862 2132.47 359.776 2144.52 377.684ZM2116.87 308.324C2097.65 279.139 2078.29 250.088 2059.13 220.83C2090.08 166.549 2128.28 106.295 2197.08 81.6257C2197.7 81.4052 2198.12 81.0685 2198.55 80.7348C2227.14 86.7651 2255.63 93.132 2284.06 99.6991C2212.06 156.232 2152.67 232.078 2116.87 308.324Z" fill="white" fill-opacity="0.25"/>
</g>
<defs>
<clipPath id="clip0_156_149">
<rect width="1920" height="1080" fill="white"/>
</clipPath>
</defs>
</svg>
