<svg width="311" height="235" viewBox="0 0 311 235" fill="none" xmlns="http://www.w3.org/2000/svg">
<path d="M93.9235 161.649C88.4712 175.954 90.7186 192.677 106.891 204.938C107.488 205.315 108.019 205.628 108.706 205.709C119.873 221.425 143.38 213.719 155.914 203.22C174.875 187.368 176.031 160.57 159.075 143.106C143.156 126.628 123.086 129.514 108.879 140.969C101.779 145.554 96.2077 152.484 93.9235 161.649ZM116.715 194.409C115.563 192.74 114.507 190.971 113.807 189.095C112.203 185.022 111.196 179.988 113.085 175.925C115.523 170.282 126.869 168.397 130.625 173.69C133.836 178.082 133.705 184.581 131.312 189.375C128.427 195.421 122.434 195.963 116.715 194.409Z" fill="#9D1900"/>
<path d="M46.0027 27.6029C46.5043 28.08 47.1394 28.6841 47.641 29.1612C50.825 37.667 53.0887 43.3231 49.1633 53.4112C45.2278 63.1076 38.0372 71.8735 30.4472 79.0495C26.8432 82.437 30.8735 88.2447 35.3483 87.0229C52.4087 82.6122 66.0197 95.5575 50.8335 110.923C47.9021 113.803 50.5167 117.819 54.1149 118.12C68.2512 119.463 79.2878 126.075 78.461 141.275C78.3307 143.89 80.0602 145.153 81.954 145.171C81.5371 148.086 84.5335 151.7 87.3468 149.344C92.3385 145.302 96.2898 140.143 101.075 135.714C107.334 130.138 114.226 126.374 122.154 123.596C124.39 125.532 128.935 123.231 127.776 119.962C122.639 106.478 123.491 96.2061 136.04 86.2939C138.662 84.1386 139.238 78.4439 134.718 77.8393C125.224 76.7715 97.7565 69.7555 112.934 50.1145C115.751 46.5508 112.93 42.1495 108.573 42.8463C98.7249 44.5622 89.9248 43.8358 81.8561 41.0024C79.0429 39.4733 75.9737 38.1465 73.0746 37.1089C65.6974 33.2135 58.8663 27.6719 52.206 21.1463C47.9322 17.3364 42.1801 23.5858 46.0027 27.6029Z" fill="#006223"/>
<path d="M162.674 139.523C164.252 142.552 167.008 144.409 169.354 146.832C173.143 150.817 175.793 156.268 177.617 161.315C180.211 168.432 180.359 175.642 179.169 182.854C178.398 184.669 177.862 186.706 177.625 188.965C177.625 188.965 177.725 189.06 177.63 189.161C177.444 189.557 177.358 190.049 177.241 190.574C176.485 192.976 178.93 194.155 180.804 193.39C182.084 193.652 183.409 193.129 184.024 191.612C189.107 179.504 202.002 175.59 209.057 190.07C210.434 192.909 215.527 192.912 216.626 189.881C225.248 167.89 243.083 185.235 247.002 198.325C248.425 202.99 256.302 202.075 255.748 196.898C253.239 173.685 270.037 161.381 289.748 154.586C294.504 152.867 293.778 144.79 288.311 145.449C266.896 148.075 249.121 137.03 244.602 115.597C243.68 111.409 238.203 111.677 236.287 114.696C231.199 126.608 221.541 128.124 207.311 119.111C204.812 115.778 199.863 116.294 198.661 120.438C191.264 132.702 181.615 137.155 169.837 133.533C168.657 133.367 167.528 133.885 166.865 134.782C166.373 134.697 165.876 134.415 165.256 134.398C162.772 134.331 161.713 137.654 162.674 139.523Z" fill="#006223"/>
</svg>
