<svg width="668" height="164" viewBox="0 0 668 164" fill="none" xmlns="http://www.w3.org/2000/svg">
<g filter="url(#filter0_d_265_240)">
<mask id="path-1-outside-1_265_240" maskUnits="userSpaceOnUse" x="-6" y="0" width="670" height="156" fill="black">
<rect fill="white" x="-6" width="670" height="156"/>
<path d="M592.744 42C592.744 42 594.765 42.1157 597.196 42.4902C594.564 42.0563 592.744 42 592.744 42ZM600.15 43.1035C600.464 43.1844 600.784 43.2714 601.111 43.3633C600.786 43.272 600.465 43.1845 600.15 43.1035Z"/>
<path d="M597.196 42.4902C597.525 42.5445 597.842 42.5959 598.192 42.6621C597.78 42.5821 597.629 42.5569 597.196 42.4902ZM600.15 43.1035C600.464 43.1844 600.784 43.2714 601.111 43.3633C600.786 43.272 600.465 43.1845 600.15 43.1035Z"/>
<path d="M601.111 43.3633C600.786 43.272 600.465 43.1845 600.15 43.1035C600.464 43.1844 600.784 43.2714 601.111 43.3633Z"/>
<path d="M611.221 47.8867C612.11 48.4744 612.991 49.1231 613.852 49.8359C612.99 49.1216 612.111 48.4745 611.221 47.8867Z"/>
<path d="M622.228 94.8516C620.747 98.3214 618.829 101.16 616.684 103.486C618.834 101.162 620.749 98.3238 622.228 94.8516Z"/>
<path d="M606.696 110.537C606.362 110.692 606.029 110.844 605.698 110.99C606.027 110.846 606.359 110.694 606.696 110.537Z"/>
<path d="M656.23 97.0098C656.143 97.4589 656.052 97.9037 655.957 98.3438C656.051 97.9033 656.143 97.458 656.23 97.0098ZM655.86 98.7773C655.754 99.2622 655.644 99.7428 655.531 100.219C655.644 99.7421 655.753 99.2622 655.86 98.7773ZM601.625 112.471C601.464 112.517 601.305 112.562 601.147 112.605C601.303 112.562 601.462 112.518 601.625 112.471Z"/>
<path d="M656.23 97.0098C656.143 97.4589 656.052 97.9037 655.957 98.3438C656.051 97.9033 656.143 97.458 656.23 97.0098ZM655.86 98.7773C655.754 99.2622 655.644 99.7428 655.531 100.219C655.644 99.7421 655.753 99.2622 655.86 98.7773ZM598.674 113.209C598.168 113.322 597.669 113.431 597.226 113.506C597.764 113.422 598.148 113.329 598.674 113.209Z"/>
<path d="M656.23 97.0098C656.143 97.4589 656.052 97.9037 655.957 98.3438C656.051 97.9033 656.143 97.458 656.23 97.0098ZM655.86 98.7773C655.754 99.2622 655.644 99.7428 655.531 100.219C655.644 99.7421 655.753 99.2622 655.86 98.7773ZM597.226 113.506C594.766 113.888 592.744 114 592.744 114C592.744 114 594.551 113.956 597.226 113.506Z"/>
<path d="M656.23 97.0098C656.143 97.4589 656.052 97.9037 655.957 98.3438C656.051 97.9033 656.143 97.458 656.23 97.0098ZM655.86 98.7773C655.754 99.2622 655.644 99.7428 655.531 100.219C655.644 99.7421 655.753 99.2622 655.86 98.7773ZM473.107 114V128.863L493.5 114H473.107Z"/>
<path d="M656.23 97.0098C656.143 97.4589 656.052 97.9037 655.957 98.3438C656.051 97.9033 656.143 97.458 656.23 97.0098ZM655.86 98.7773C655.754 99.2622 655.644 99.7428 655.531 100.219C655.644 99.7421 655.753 99.2622 655.86 98.7773ZM542.895 114L493.5 150H542.442L591.837 114H542.895Z"/>
<path d="M656.23 97.0098C656.143 97.4589 656.052 97.9037 655.957 98.3438C656.051 97.9033 656.143 97.458 656.23 97.0098ZM655.86 98.7773C655.754 99.2622 655.644 99.7428 655.531 100.219C655.644 99.7421 655.753 99.2622 655.86 98.7773ZM654.417 104.391L591.837 150H592.744C592.744 150 640.809 149.955 654.417 104.391Z"/>
<path d="M656.23 97.0098C656.143 97.4589 656.052 97.9037 655.957 98.3438C656.051 97.9033 656.143 97.458 656.23 97.0098ZM655.531 100.219C655.644 99.7421 655.753 99.2622 655.86 98.7773C655.754 99.2622 655.644 99.7428 655.531 100.219Z"/>
<path d="M655.957 98.3438C656.051 97.9033 656.143 97.458 656.23 97.0098C656.143 97.4589 656.052 97.9037 655.957 98.3438Z"/>
<path d="M648.264 37.2051L620.428 57.4922C623.393 62.5225 625.372 69.1663 625.372 78C625.372 82.9324 624.717 87.1333 623.66 90.8066L657.35 66.2539C656.031 54.3855 652.727 44.8568 648.264 37.2051Z"/>
<path d="M639.755 26.1133C640.226 26.6007 640.695 27.0895 641.16 27.5879C640.695 27.0886 640.226 26.5984 639.755 26.1133Z"/>
<path d="M633.704 20.6289C633.957 20.8264 634.209 21.0251 634.46 21.2266C634.209 21.025 633.957 20.8254 633.704 20.6289ZM637.259 23.6074C637.615 23.9307 637.968 24.2611 638.319 24.5977C637.968 24.2595 637.614 23.9303 637.259 23.6074Z"/>
<path d="M629.397 17.5234C630.598 18.3082 631.792 19.1482 632.971 20.0371C631.788 19.1411 630.597 18.3059 629.397 17.5234Z"/>
<path d="M593.592 6.04297L544.18 42H592.291L627.503 16.3359C611.739 6.84279 595.89 6.09278 593.592 6.04297Z"/>
<path d="M494.707 6L445.238 42H494.707L544.18 6H494.707Z"/>
<path d="M395.768 6L346.295 42H395.768L445.238 6H395.768Z"/>
<path d="M296.825 6L247.355 42H296.825L346.295 6H296.825Z"/>
<path d="M197.882 6L148.413 42H197.882L247.355 6H197.882Z"/>
<path d="M98.9429 6L49.4714 42H98.9429L148.413 6H98.9429Z"/>
<path d="M0 6V42L49.4714 6H0Z"/>
<path d="M657.864 72.6602C657.9 73.4037 657.931 74.1535 657.954 74.9121C657.932 74.1529 657.901 73.4024 657.864 72.6602Z"/>
<path d="M657.598 68.7754C657.688 69.8062 657.764 70.853 657.825 71.918C657.767 70.8504 657.689 69.8043 657.598 68.7754Z"/>
<path d="M657.35 66.2539L623.66 90.8066C622.007 96.5522 619.279 100.861 616.093 104.107C616.053 104.148 616.015 104.191 615.976 104.23C615.209 105.002 614.426 105.713 613.618 106.367C613.561 106.414 613.504 106.46 613.446 106.506C611.345 108.181 609.194 109.374 607.036 110.379C606.125 110.808 605.262 111.201 604.379 111.531C603.408 111.892 602.532 112.212 601.625 112.471C600.742 112.726 599.974 112.922 599.18 113.096C598.358 113.274 597.922 113.398 597.226 113.506C594.551 113.956 592.744 114 592.744 114H591.837L542.442 150H591.837L654.417 104.391C654.954 102.592 655.432 100.717 655.86 98.7773C655.892 98.6322 655.926 98.4897 655.957 98.3438C656.335 96.5835 656.652 94.7469 656.931 92.8652C656.979 92.5325 657.038 92.2116 657.083 91.875C657.319 90.1489 657.491 88.3471 657.637 86.5156C657.675 86.0269 657.735 85.5626 657.766 85.0664C657.915 82.7905 658 80.4428 658 78C658 75.9079 657.932 73.8903 657.825 71.918C657.714 69.9751 657.554 68.0895 657.35 66.2539Z"/>
<path d="M544.18 6L494.707 42H544.18L593.592 6.04297C593.412 6.03908 592.744 6 592.744 6H544.18Z"/>
<path d="M445.238 6L395.768 42H445.238L494.707 6H445.238Z"/>
<path d="M346.295 6L296.825 42H346.295L395.768 6H346.295Z"/>
<path d="M247.355 6L197.882 42H247.355L296.825 6H247.355Z"/>
<path d="M148.413 6L98.9429 42H148.413L197.882 6H148.413Z"/>
<path d="M49.4714 6L0 42H49.4714L98.9429 6H49.4714Z"/>
<path d="M493.5 114L473.107 128.863V150H493.5L542.895 114H493.5Z"/>
<path d="M627.503 16.3359L592.291 42H592.744C592.744 42 594.564 42.0563 597.196 42.4902C597.683 42.5652 597.793 42.5834 598.345 42.6914C599.495 42.9175 600.751 43.2436 602.112 43.6543C602.534 43.781 602.895 43.8658 603.331 44.0137C604.921 44.5548 606.586 45.2845 608.27 46.1582C611.022 47.5795 613.759 49.4774 616.257 52.0645C616.533 52.35 616.807 52.6277 617.075 52.9297C617.486 53.3922 617.887 53.8665 618.279 54.3691C618.681 54.8859 619.058 55.4449 619.436 56.0059C619.769 56.4992 620.116 56.9633 620.428 57.4922L648.264 37.2051C647.308 35.5663 646.234 34.1355 645.18 32.668C644.594 31.8493 644.044 30.9662 643.431 30.1973C642.256 28.7275 641.011 27.4068 639.755 26.1133C639.273 25.6147 638.811 25.0717 638.319 24.5977C636.82 23.161 635.275 21.8505 633.704 20.6289C633.458 20.4366 633.219 20.2243 632.971 20.0371C631.173 18.6821 629.344 17.4444 627.503 16.3359Z"/>
</mask>
<path d="M592.744 42C592.744 42 594.765 42.1157 597.196 42.4902C594.564 42.0563 592.744 42 592.744 42ZM600.15 43.1035C600.464 43.1844 600.784 43.2714 601.111 43.3633C600.786 43.272 600.465 43.1845 600.15 43.1035Z" fill="#9D1900"/>
<path d="M597.196 42.4902C597.525 42.5445 597.842 42.5959 598.192 42.6621C597.78 42.5821 597.629 42.5569 597.196 42.4902ZM600.15 43.1035C600.464 43.1844 600.784 43.2714 601.111 43.3633C600.786 43.272 600.465 43.1845 600.15 43.1035Z" fill="#9D1900"/>
<path d="M601.111 43.3633C600.786 43.272 600.465 43.1845 600.15 43.1035C600.464 43.1844 600.784 43.2714 601.111 43.3633Z" fill="#9D1900"/>
<path d="M611.221 47.8867C612.11 48.4744 612.991 49.1231 613.852 49.8359C612.99 49.1216 612.111 48.4745 611.221 47.8867Z" fill="#9D1900"/>
<path d="M622.228 94.8516C620.747 98.3214 618.829 101.16 616.684 103.486C618.834 101.162 620.749 98.3238 622.228 94.8516Z" fill="#9D1900"/>
<path d="M606.696 110.537C606.362 110.692 606.029 110.844 605.698 110.99C606.027 110.846 606.359 110.694 606.696 110.537Z" fill="#9D1900"/>
<path d="M656.23 97.0098C656.143 97.4589 656.052 97.9037 655.957 98.3438C656.051 97.9033 656.143 97.458 656.23 97.0098ZM655.86 98.7773C655.754 99.2622 655.644 99.7428 655.531 100.219C655.644 99.7421 655.753 99.2622 655.86 98.7773ZM601.625 112.471C601.464 112.517 601.305 112.562 601.147 112.605C601.303 112.562 601.462 112.518 601.625 112.471Z" fill="#9D1900"/>
<path d="M656.23 97.0098C656.143 97.4589 656.052 97.9037 655.957 98.3438C656.051 97.9033 656.143 97.458 656.23 97.0098ZM655.86 98.7773C655.754 99.2622 655.644 99.7428 655.531 100.219C655.644 99.7421 655.753 99.2622 655.86 98.7773ZM598.674 113.209C598.168 113.322 597.669 113.431 597.226 113.506C597.764 113.422 598.148 113.329 598.674 113.209Z" fill="#9D1900"/>
<path d="M656.23 97.0098C656.143 97.4589 656.052 97.9037 655.957 98.3438C656.051 97.9033 656.143 97.458 656.23 97.0098ZM655.86 98.7773C655.754 99.2622 655.644 99.7428 655.531 100.219C655.644 99.7421 655.753 99.2622 655.86 98.7773ZM597.226 113.506C594.766 113.888 592.744 114 592.744 114C592.744 114 594.551 113.956 597.226 113.506Z" fill="#9D1900"/>
<path d="M656.23 97.0098C656.143 97.4589 656.052 97.9037 655.957 98.3438C656.051 97.9033 656.143 97.458 656.23 97.0098ZM655.86 98.7773C655.754 99.2622 655.644 99.7428 655.531 100.219C655.644 99.7421 655.753 99.2622 655.86 98.7773ZM473.107 114V128.863L493.5 114H473.107Z" fill="#9D1900"/>
<path d="M656.23 97.0098C656.143 97.4589 656.052 97.9037 655.957 98.3438C656.051 97.9033 656.143 97.458 656.23 97.0098ZM655.86 98.7773C655.754 99.2622 655.644 99.7428 655.531 100.219C655.644 99.7421 655.753 99.2622 655.86 98.7773ZM542.895 114L493.5 150H542.442L591.837 114H542.895Z" fill="#9D1900"/>
<path d="M656.23 97.0098C656.143 97.4589 656.052 97.9037 655.957 98.3438C656.051 97.9033 656.143 97.458 656.23 97.0098ZM655.86 98.7773C655.754 99.2622 655.644 99.7428 655.531 100.219C655.644 99.7421 655.753 99.2622 655.86 98.7773ZM654.417 104.391L591.837 150H592.744C592.744 150 640.809 149.955 654.417 104.391Z" fill="#9D1900"/>
<path d="M656.23 97.0098C656.143 97.4589 656.052 97.9037 655.957 98.3438C656.051 97.9033 656.143 97.458 656.23 97.0098ZM655.531 100.219C655.644 99.7421 655.753 99.2622 655.86 98.7773C655.754 99.2622 655.644 99.7428 655.531 100.219Z" fill="#9D1900"/>
<path d="M655.957 98.3438C656.051 97.9033 656.143 97.458 656.23 97.0098C656.143 97.4589 656.052 97.9037 655.957 98.3438Z" fill="#9D1900"/>
<path d="M648.264 37.2051L620.428 57.4922C623.393 62.5225 625.372 69.1663 625.372 78C625.372 82.9324 624.717 87.1333 623.66 90.8066L657.35 66.2539C656.031 54.3855 652.727 44.8568 648.264 37.2051Z" fill="#9D1900"/>
<path d="M639.755 26.1133C640.226 26.6007 640.695 27.0895 641.16 27.5879C640.695 27.0886 640.226 26.5984 639.755 26.1133Z" fill="#9D1900"/>
<path d="M633.704 20.6289C633.957 20.8264 634.209 21.0251 634.46 21.2266C634.209 21.025 633.957 20.8254 633.704 20.6289ZM637.259 23.6074C637.615 23.9307 637.968 24.2611 638.319 24.5977C637.968 24.2595 637.614 23.9303 637.259 23.6074Z" fill="#9D1900"/>
<path d="M629.397 17.5234C630.598 18.3082 631.792 19.1482 632.971 20.0371C631.788 19.1411 630.597 18.3059 629.397 17.5234Z" fill="#9D1900"/>
<path d="M593.592 6.04297L544.18 42H592.291L627.503 16.3359C611.739 6.84279 595.89 6.09278 593.592 6.04297Z" fill="#9D1900"/>
<path d="M494.707 6L445.238 42H494.707L544.18 6H494.707Z" fill="#9D1900"/>
<path d="M395.768 6L346.295 42H395.768L445.238 6H395.768Z" fill="#9D1900"/>
<path d="M296.825 6L247.355 42H296.825L346.295 6H296.825Z" fill="#9D1900"/>
<path d="M197.882 6L148.413 42H197.882L247.355 6H197.882Z" fill="#9D1900"/>
<path d="M98.9429 6L49.4714 42H98.9429L148.413 6H98.9429Z" fill="#9D1900"/>
<path d="M0 6V42L49.4714 6H0Z" fill="#9D1900"/>
<path d="M657.864 72.6602C657.9 73.4037 657.931 74.1535 657.954 74.9121C657.932 74.1529 657.901 73.4024 657.864 72.6602Z" fill="white"/>
<path d="M657.598 68.7754C657.688 69.8062 657.764 70.853 657.825 71.918C657.767 70.8504 657.689 69.8043 657.598 68.7754Z" fill="white"/>
<path d="M657.35 66.2539L623.66 90.8066C622.007 96.5522 619.279 100.861 616.093 104.107C616.053 104.148 616.015 104.191 615.976 104.23C615.209 105.002 614.426 105.713 613.618 106.367C613.561 106.414 613.504 106.46 613.446 106.506C611.345 108.181 609.194 109.374 607.036 110.379C606.125 110.808 605.262 111.201 604.379 111.531C603.408 111.892 602.532 112.212 601.625 112.471C600.742 112.726 599.974 112.922 599.18 113.096C598.358 113.274 597.922 113.398 597.226 113.506C594.551 113.956 592.744 114 592.744 114H591.837L542.442 150H591.837L654.417 104.391C654.954 102.592 655.432 100.717 655.86 98.7773C655.892 98.6322 655.926 98.4897 655.957 98.3438C656.335 96.5835 656.652 94.7469 656.931 92.8652C656.979 92.5325 657.038 92.2116 657.083 91.875C657.319 90.1489 657.491 88.3471 657.637 86.5156C657.675 86.0269 657.735 85.5626 657.766 85.0664C657.915 82.7905 658 80.4428 658 78C658 75.9079 657.932 73.8903 657.825 71.918C657.714 69.9751 657.554 68.0895 657.35 66.2539Z" fill="white"/>
<path d="M544.18 6L494.707 42H544.18L593.592 6.04297C593.412 6.03908 592.744 6 592.744 6H544.18Z" fill="white"/>
<path d="M445.238 6L395.768 42H445.238L494.707 6H445.238Z" fill="white"/>
<path d="M346.295 6L296.825 42H346.295L395.768 6H346.295Z" fill="white"/>
<path d="M247.355 6L197.882 42H247.355L296.825 6H247.355Z" fill="white"/>
<path d="M148.413 6L98.9429 42H148.413L197.882 6H148.413Z" fill="white"/>
<path d="M49.4714 6L0 42H49.4714L98.9429 6H49.4714Z" fill="white"/>
<path d="M493.5 114L473.107 128.863V150H493.5L542.895 114H493.5Z" fill="white"/>
<path d="M627.503 16.3359L592.291 42H592.744C592.744 42 594.564 42.0563 597.196 42.4902C597.683 42.5652 597.793 42.5834 598.345 42.6914C599.495 42.9175 600.751 43.2436 602.112 43.6543C602.534 43.781 602.895 43.8658 603.331 44.0137C604.921 44.5548 606.586 45.2845 608.27 46.1582C611.022 47.5795 613.759 49.4774 616.257 52.0645C616.533 52.35 616.807 52.6277 617.075 52.9297C617.486 53.3922 617.887 53.8665 618.279 54.3691C618.681 54.8859 619.058 55.4449 619.436 56.0059C619.769 56.4992 620.116 56.9633 620.428 57.4922L648.264 37.2051C647.308 35.5663 646.234 34.1355 645.18 32.668C644.594 31.8493 644.044 30.9662 643.431 30.1973C642.256 28.7275 641.011 27.4068 639.755 26.1133C639.273 25.6147 638.811 25.0717 638.319 24.5977C636.82 23.161 635.275 21.8505 633.704 20.6289C633.458 20.4366 633.219 20.2243 632.971 20.0371C631.173 18.6821 629.344 17.4444 627.503 16.3359Z" fill="white"/>
<path d="M600.15 43.1035L600.899 40.1984L599.401 46.0085L600.15 43.1035ZM601.111 43.3633L600.302 46.252L601.923 40.4751L601.111 43.3633ZM656.23 97.0098L659.175 97.5815L653.285 96.4365L656.23 97.0098ZM655.957 98.3438L653.023 97.7195L658.89 98.9739L655.957 98.3438ZM655.86 98.7773L658.791 99.4176L652.93 98.1314L655.86 98.7773ZM655.531 100.219L652.612 99.5255L658.449 100.913L655.531 100.219ZM597.684 39.5302C596.28 39.2988 595.09 39.1675 594.243 39.0937C593.819 39.0568 593.479 39.0341 593.24 39.0204C593.12 39.0136 593.025 39.009 592.957 39.0061C592.923 39.0046 592.896 39.0035 592.876 39.0028C592.866 39.0024 592.858 39.0021 592.851 39.0019C592.848 39.0018 592.845 39.0017 592.842 39.0016C592.841 39.0016 592.84 39.0015 592.839 39.0015C592.839 39.0015 592.838 39.0015 592.838 39.0015C592.838 39.0015 592.837 39.0015 592.837 39.0015C592.837 39.0014 592.837 39.0014 592.744 42C592.651 44.9986 592.651 44.9986 592.651 44.9986C592.65 44.9985 592.65 44.9985 592.65 44.9985C592.65 44.9985 592.649 44.9985 592.649 44.9985C592.649 44.9985 592.648 44.9985 592.648 44.9985C592.647 44.9984 592.647 44.9984 592.647 44.9984C592.648 44.9985 592.65 44.9985 592.654 44.9987C592.661 44.999 592.676 44.9995 592.697 45.0004C592.739 45.0023 592.807 45.0055 592.899 45.0107C593.083 45.0212 593.362 45.0397 593.722 45.0711C594.443 45.1339 595.479 45.2477 596.708 45.4503L597.684 39.5302ZM599.401 46.0085C599.69 46.083 599.989 46.1641 600.3 46.2515L601.923 40.4751C601.58 40.3787 601.238 40.2859 600.899 40.1985L599.401 46.0085ZM601.921 40.4746C601.582 40.3796 601.24 40.2863 600.899 40.1984L599.402 46.0086C599.69 46.0828 599.989 46.1644 600.302 46.252L601.921 40.4746ZM605.719 48.2397C605.92 48.3356 606.114 48.4296 606.306 48.5248L608.974 43.151C608.747 43.038 608.524 42.9302 608.307 42.8267L605.719 48.2397ZM606.307 48.5267C606.505 48.6252 606.699 48.7229 606.888 48.8211L609.652 43.4953C609.422 43.3762 609.196 43.262 608.976 43.153L606.307 48.5267ZM608.875 49.9471C609.101 50.0867 609.331 50.235 609.566 50.3903L612.872 45.3831C612.6 45.2032 612.319 45.0225 612.034 44.8459L608.875 49.9471ZM619.826 92.7977C619.712 93.0915 619.592 93.3831 619.469 93.6721L624.987 96.0271C625.133 95.6862 625.276 95.3368 625.416 94.9797L619.826 92.7977ZM654.403 88.9787C654.36 89.4041 654.315 89.8218 654.266 90.232L660.225 90.9321C660.278 90.4839 660.326 90.0347 660.372 89.5877L654.403 88.9787ZM653.285 96.438C653.201 96.8681 653.114 97.2935 653.024 97.7136L658.89 98.9739C658.989 98.5139 659.084 98.0496 659.175 97.5815L653.285 96.438ZM658.892 98.968C658.988 98.5147 659.083 98.052 659.174 97.583L653.285 96.4365C653.202 96.8641 653.114 97.2919 653.023 97.7195L658.892 98.968ZM652.929 98.137C652.827 98.6023 652.721 99.0648 652.612 99.5245L658.449 100.913C658.566 100.421 658.68 99.9222 658.791 99.4176L652.929 98.137ZM658.449 100.912C658.567 100.417 658.68 99.9208 658.789 99.4233L652.93 98.1314C652.826 98.6036 652.721 99.0675 652.612 99.5255L658.449 100.912ZM652.099 101.564C651.982 102.004 651.859 102.444 651.732 102.884L657.499 104.542C657.633 104.073 657.767 103.595 657.897 103.108L652.099 101.564ZM592.744 114C592.817 116.999 592.817 116.999 592.817 116.999C592.818 116.999 592.818 116.999 592.818 116.999C592.819 116.999 592.819 116.999 592.82 116.999C592.821 116.999 592.822 116.999 592.823 116.999C592.826 116.999 592.829 116.999 592.832 116.999C592.839 116.999 592.848 116.998 592.858 116.998C592.879 116.997 592.906 116.996 592.941 116.995C593.01 116.992 593.105 116.988 593.226 116.982C593.468 116.969 593.81 116.947 594.237 116.911C595.092 116.838 596.294 116.705 597.724 116.464L596.728 110.547C595.482 110.757 594.444 110.871 593.726 110.933C593.368 110.963 593.091 110.981 592.91 110.99C592.819 110.995 592.753 110.998 592.712 110.999C592.692 111 592.678 111.001 592.671 111.001C592.668 111.001 592.666 111.001 592.666 111.001C592.666 111.001 592.666 111.001 592.667 111.001C592.667 111.001 592.668 111.001 592.669 111.001C592.669 111.001 592.669 111.001 592.67 111.001C592.67 111.001 592.67 111.001 592.67 111.001C592.67 111.001 592.671 111.001 592.744 114ZM474.874 131.288L495.267 116.424L491.733 111.576L471.34 126.439L474.874 131.288ZM541.128 111.576L491.733 147.576L495.267 152.424L544.662 116.424L541.128 111.576ZM544.209 152.424L593.604 116.424L590.07 111.576L540.675 147.576L544.209 152.424ZM652.65 101.966L590.07 147.576L593.604 152.424L656.184 106.815L652.65 101.966ZM646.497 34.7806L618.661 55.0677L622.195 59.9166L650.031 39.6295L646.497 34.7806ZM625.427 93.2311L659.117 68.6784L655.583 63.8294L621.893 88.3822L625.427 93.2311ZM634.227 24.9298C634.565 25.221 634.903 25.5201 635.24 25.8261L639.274 21.3849C638.9 21.0452 638.522 20.7106 638.141 20.3827L634.227 24.9298ZM654.517 68.0431C654.549 68.3735 654.58 68.7046 654.61 69.0384L660.586 68.5085C660.555 68.1559 660.522 67.8061 660.488 67.4569L654.517 68.0431ZM654.888 82.7731C654.862 83.3396 654.832 83.9006 654.798 84.4554L660.787 84.8219C660.823 84.2342 660.855 83.6423 660.882 83.0472L654.888 82.7731ZM632.583 23.5666C632.82 23.7573 633.06 23.9526 633.302 24.1524L637.119 19.5234C636.863 19.3118 636.602 19.0987 636.337 18.8865L632.583 23.5666ZM591.826 3.61726L542.415 39.5743L545.946 44.4257L595.357 8.46867L591.826 3.61726ZM594.058 44.4244L629.27 18.7603L625.736 13.9115L590.524 39.5756L594.058 44.4244ZM492.942 3.57431L443.472 39.5743L447.003 44.4257L496.472 8.42569L492.942 3.57431ZM496.472 44.4258L545.946 8.42575L542.415 3.57425L492.942 39.5742L496.472 44.4258ZM394.003 3.57425L344.53 39.5742L348.06 44.4258L397.533 8.42575L394.003 3.57425ZM397.533 44.4257L447.003 8.42569L443.472 3.57431L394.003 39.5743L397.533 44.4257ZM295.06 3.57431L245.59 39.5743L249.121 44.4257L298.59 8.42569L295.06 3.57431ZM298.59 44.4257L348.06 8.42569L344.53 3.57431L295.06 39.5743L298.59 44.4257ZM196.117 3.57431L146.647 39.5743L150.178 44.4257L199.647 8.42569L196.117 3.57431ZM199.647 44.4258L249.121 8.42575L245.59 3.57425L196.117 39.5742L199.647 44.4258ZM97.1777 3.57428L47.7063 39.5743L51.2366 44.4257L100.708 8.42572L97.1777 3.57428ZM100.708 44.4257L150.178 8.42569L146.647 3.57431L97.1776 39.5743L100.708 44.4257ZM1.76518 44.4257L51.2366 8.42572L47.7063 3.57428L-1.76518 39.5743L1.76518 44.4257ZM654.955 74.9981C654.962 75.2436 654.968 75.4917 654.974 75.7431L660.973 75.6045C660.967 75.3462 660.96 75.0863 660.953 74.8261L654.955 74.9981ZM592.744 42L593.087 36.0098L592.915 36H592.744V42ZM597.196 42.4902L598.109 36.5602L598.109 36.5602L597.196 42.4902ZM608.27 46.1582L605.507 51.484L605.516 51.489L608.27 46.1582ZM598.192 42.6621L597.077 48.5576L599.334 36.7718L598.192 42.6621ZM611.221 47.8867L614.527 42.8797L607.913 52.8926L611.221 47.8867ZM613.852 49.8359L610.025 54.4575L617.681 45.2166L613.852 49.8359ZM622.228 94.8516L627.748 97.2035L616.71 92.4962L622.228 94.8516ZM616.684 103.486L612.273 99.419L621.088 107.561L616.684 103.486ZM606.696 110.537L609.23 115.976L604.173 105.093L606.696 110.537ZM605.698 110.99L603.278 105.5L608.11 116.484L605.698 110.99ZM655.957 98.3438L650.091 97.0835L650.088 97.0969L655.957 98.3438ZM655.86 98.7773L661.719 100.069L661.721 100.058L655.86 98.7773ZM601.625 112.471L599.981 106.7L599.98 106.701L601.625 112.471ZM601.147 112.605L599.544 106.823L602.743 118.389L601.147 112.605ZM598.674 113.209L600.011 119.058L597.368 107.353L598.674 113.209ZM592.744 114V120H592.91L593.075 119.991L592.744 114ZM473.107 114V108H467.107V114H473.107ZM654.417 104.391L648.668 102.674V102.674L654.417 104.391ZM592.744 150V156H592.749L592.744 150ZM648.264 37.2051L643.081 40.2281V40.2281L648.264 37.2051ZM620.428 57.4922L615.259 60.5389V60.5389L620.428 57.4922ZM623.66 90.8066L629.426 92.466V92.466L623.66 90.8066ZM657.35 66.2539L651.387 66.9167V66.9167L657.35 66.2539ZM641.16 27.5879L636.773 31.6812L645.551 23.4988L641.16 27.5879ZM634.46 21.2266L630.705 25.9066L638.216 16.5479L634.46 21.2266ZM637.259 23.6074L641.292 19.1656L633.224 28.0484L637.259 23.6074ZM638.319 24.5977L642.483 20.2774V20.2774L638.319 24.5977ZM629.397 17.5234L632.674 12.4972L626.115 22.5462L629.397 17.5234ZM632.971 20.0371L636.594 15.254L636.594 15.2539L632.971 20.0371ZM593.592 6.04297L593.722 0.0443778V0.0443773L593.592 6.04297ZM627.503 16.3359L624.408 21.4759V21.4759L627.503 16.3359ZM0 6V0H-6V6H0ZM0 42H-6V48H0V42ZM657.864 72.6602L663.856 72.3587L651.871 72.9523L657.864 72.6602ZM657.954 74.9121L651.957 75.0927L663.951 74.7353L657.954 74.9121ZM657.598 68.7754L663.575 68.2457L651.621 69.2983L657.598 68.7754ZM616.093 104.107L611.811 99.9042L611.804 99.9116L616.093 104.107ZM615.976 104.23L620.233 108.458L620.241 108.45L615.976 104.23ZM613.618 106.367L609.843 101.703L609.837 101.708L609.831 101.713L613.618 106.367ZM613.446 106.506L617.186 111.197L617.193 111.192L617.199 111.187L613.446 106.506ZM607.036 110.379L604.503 104.94L604.492 104.945L604.482 104.95L607.036 110.379ZM604.379 111.531L606.468 117.156L606.475 117.153L606.482 117.151L604.379 111.531ZM599.18 113.096L600.451 118.96L600.458 118.958L600.465 118.956L599.18 113.096ZM656.931 92.8652L662.866 93.7448L662.867 93.7376L662.868 93.7304L656.931 92.8652ZM657.083 91.875L651.138 91.0619L651.137 91.0756L657.083 91.875ZM657.637 86.5156L663.618 86.9931L663.619 86.9827L657.637 86.5156ZM657.766 85.0664L651.779 84.6765L651.778 84.6852L657.766 85.0664ZM592.744 6L593.094 0.0102267L592.919 0H592.744V6ZM473.107 150H467.107V156H473.107V150ZM598.345 42.6914L599.502 36.8041L599.498 36.8033L598.345 42.6914ZM602.112 43.6543L600.377 49.3981L600.388 49.4015L602.112 43.6543ZM603.331 44.0137L605.265 38.3337L605.257 38.3311L603.331 44.0137ZM616.257 52.0645L620.575 47.8983L620.573 47.8963L616.257 52.0645ZM617.075 52.9297L612.589 56.9135L612.591 56.9159L617.075 52.9297ZM618.279 54.3691L623.014 50.6841L623.013 50.6828L618.279 54.3691ZM619.436 56.0059L614.461 59.3599L614.462 59.3608L619.436 56.0059ZM645.18 32.668L640.302 36.1615L640.306 36.1665L645.18 32.668ZM643.431 30.1973L648.124 26.4585L648.118 26.4507L643.431 30.1973ZM592.744 42C592.401 47.9902 592.401 47.9902 592.4 47.9902C592.4 47.9902 592.4 47.9901 592.4 47.9901C592.399 47.9901 592.399 47.9901 592.399 47.9901C592.398 47.99 592.397 47.99 592.397 47.99C592.396 47.9899 592.396 47.9899 592.396 47.9899C592.396 47.9899 592.398 47.99 592.402 47.9903C592.41 47.9907 592.425 47.9917 592.447 47.9931C592.491 47.996 592.562 48.0008 592.658 48.0078C592.85 48.0219 593.139 48.0448 593.499 48.0785C594.225 48.1465 595.215 48.2558 596.282 48.4203L598.109 36.5602C596.746 36.3501 595.51 36.2143 594.617 36.1308C594.168 36.0887 593.799 36.0593 593.537 36.04C593.405 36.0304 593.3 36.0232 593.224 36.0183C593.186 36.0158 593.155 36.0139 593.132 36.0125C593.121 36.0118 593.111 36.0112 593.104 36.0108C593.1 36.0106 593.096 36.0104 593.094 36.0102C593.092 36.0101 593.091 36.01 593.09 36.01C593.089 36.0099 593.089 36.0099 593.088 36.0099C593.088 36.0099 593.087 36.0099 593.087 36.0098C593.087 36.0098 593.087 36.0098 592.744 42ZM596.22 48.4103C596.573 48.4685 596.812 48.5073 597.077 48.5576L599.307 36.7666C598.873 36.6844 598.478 36.6206 598.172 36.5701L596.22 48.4103ZM599.334 36.7718C598.83 36.674 598.601 36.6359 598.109 36.5602L596.282 48.4203C596.656 48.4779 596.73 48.4902 597.051 48.5525L599.334 36.7718ZM607.913 52.8926C608.627 53.3645 609.334 53.8853 610.025 54.4575L617.678 45.2144C616.647 44.3609 615.593 43.5843 614.529 42.8809L607.913 52.8926ZM617.681 45.2166C616.646 44.3594 615.593 43.5833 614.527 42.8797L607.915 52.8937C608.63 53.3656 609.333 53.8839 610.022 54.4552L617.681 45.2166ZM616.71 92.4962C615.505 95.3178 613.968 97.5808 612.273 99.419L621.095 107.554C623.69 104.739 625.989 101.325 627.746 97.2069L616.71 92.4962ZM621.088 107.561C623.696 104.742 625.992 101.323 627.748 97.2035L616.708 92.4997C615.505 95.3242 613.971 97.5826 612.279 99.4121L621.088 107.561ZM604.173 105.093C603.856 105.24 603.561 105.375 603.278 105.5L608.118 116.48C608.497 116.313 608.868 116.144 609.22 115.981L604.173 105.093ZM608.11 116.484C608.492 116.316 608.866 116.146 609.23 115.976L604.163 105.098C603.853 105.243 603.563 105.375 603.286 105.497L608.11 116.484ZM599.98 106.701C599.823 106.745 599.68 106.786 599.544 106.823L602.75 118.387C602.929 118.338 603.105 118.288 603.27 118.241L599.98 106.701ZM602.743 118.389C602.912 118.343 603.099 118.291 603.295 118.233L599.954 106.708C599.826 106.745 599.693 106.782 599.551 106.822L602.743 118.389ZM597.368 107.353C596.842 107.47 596.493 107.545 596.23 107.589L598.221 119.423C598.845 119.318 599.494 119.173 599.98 119.065L597.368 107.353ZM598.147 119.435C598.939 119.312 599.552 119.163 600.011 119.058L597.337 107.36C596.745 107.495 596.589 107.533 596.305 107.577L598.147 119.435ZM596.305 107.577C595.226 107.745 594.232 107.854 593.506 107.922C593.145 107.956 592.858 107.978 592.666 107.992C592.571 107.999 592.5 108.004 592.456 108.006C592.435 108.008 592.42 108.009 592.412 108.009C592.409 108.009 592.407 108.009 592.407 108.009C592.407 108.009 592.407 108.009 592.408 108.009C592.409 108.009 592.409 108.009 592.41 108.009C592.41 108.009 592.411 108.009 592.411 108.009C592.411 108.009 592.411 108.009 592.412 108.009C592.412 108.009 592.412 108.009 592.744 114C593.075 119.991 593.076 119.991 593.076 119.991C593.076 119.991 593.076 119.991 593.077 119.991C593.077 119.991 593.078 119.991 593.078 119.991C593.08 119.991 593.081 119.991 593.082 119.99C593.085 119.99 593.089 119.99 593.093 119.99C593.1 119.989 593.11 119.989 593.122 119.988C593.145 119.987 593.176 119.985 593.215 119.982C593.292 119.978 593.398 119.971 593.53 119.961C593.795 119.942 594.167 119.913 594.619 119.87C595.519 119.787 596.766 119.649 598.147 119.435L596.305 107.577ZM467.107 114V128.863H479.107V114H467.107ZM493.5 108H473.107V120H493.5V108ZM493.5 156H542.442V144H493.5V156ZM591.837 108H542.895V120H591.837V108ZM591.837 156H592.744V144H591.837V156ZM592.744 150C592.749 156 592.752 156 592.756 156C592.757 156 592.76 156 592.763 156C592.768 156 592.774 156 592.781 156C592.794 156 592.81 156 592.829 156C592.868 155.999 592.918 155.999 592.979 155.998C593.102 155.996 593.27 155.992 593.48 155.985C593.901 155.972 594.494 155.946 595.239 155.896C596.726 155.795 598.824 155.599 601.367 155.213C606.439 154.443 613.367 152.907 620.782 149.822C635.709 143.611 652.721 131.038 660.166 106.108L648.668 102.674C642.506 123.307 628.68 133.539 616.173 138.742C609.871 141.364 603.932 142.686 599.566 143.349C597.391 143.679 595.628 143.842 594.433 143.923C593.836 143.963 593.383 143.982 593.094 143.991C592.949 143.996 592.845 143.998 592.785 143.999C592.755 144 592.736 144 592.728 144C592.724 144 592.723 144 592.725 144C592.725 144 592.727 144 592.729 144C592.73 144 592.733 144 592.733 144C592.736 144 592.738 144 592.744 150ZM615.259 60.5389C617.612 64.5309 619.372 70.0956 619.372 78H631.372C631.372 68.2369 629.174 60.5142 625.597 54.4455L615.259 60.5389ZM619.372 78C619.372 82.3861 618.792 86.0277 617.894 89.1473L629.426 92.466C630.643 88.2389 631.372 83.4786 631.372 78H619.372ZM663.314 65.5911C661.91 52.9613 658.367 42.6169 653.447 34.182L643.081 40.2281C647.088 47.0968 650.153 55.8097 651.387 66.9167L663.314 65.5911ZM635.44 30.283C635.905 30.7636 636.345 31.2222 636.773 31.6812L645.547 23.4946C645.045 22.9568 644.547 22.4378 644.069 21.9435L635.44 30.283ZM645.551 23.4988C645.049 22.9599 644.549 22.4379 644.059 21.9328L635.451 30.2938C635.902 30.7588 636.341 31.2172 636.769 31.677L645.551 23.4988ZM630.008 25.3556C630.25 25.5444 630.481 25.7264 630.705 25.9066L638.215 16.5465C637.937 16.3238 637.664 16.1084 637.4 15.9022L630.008 25.3556ZM638.216 16.5479C637.944 16.329 637.667 16.1101 637.388 15.8928L630.02 25.365C630.246 25.5406 630.474 25.721 630.704 25.9052L638.216 16.5479ZM633.225 28.0492C633.537 28.3326 633.851 28.626 634.167 28.9295L642.471 20.2659C642.085 19.8962 641.692 19.5289 641.292 19.1656L633.225 28.0492ZM642.483 20.2774C642.081 19.8903 641.683 19.5202 641.293 19.1664L633.224 28.0484C633.545 28.3403 633.855 28.6286 634.156 28.918L642.483 20.2774ZM626.115 22.5462C627.199 23.2543 628.283 24.0169 629.361 24.8291L636.582 15.2451C635.3 14.2795 633.998 13.3621 632.679 12.5007L626.115 22.5462ZM636.594 15.2539C635.296 14.2714 633.99 13.3553 632.674 12.4972L626.121 22.5497C627.205 23.2565 628.28 24.0107 629.349 24.8203L636.594 15.2539ZM544.18 48H592.291V36H544.18V48ZM630.598 11.1959C613.541 0.924312 596.479 0.10413 593.722 0.0443778L593.462 12.0416C595.301 12.0814 609.936 12.7613 624.408 21.4759L630.598 11.1959ZM445.238 48H494.707V36H445.238V48ZM544.18 0H494.707V12H544.18V0ZM346.295 48H395.768V36H346.295V48ZM445.238 0H395.768V12H445.238V0ZM247.355 48H296.825V36H247.355V48ZM346.295 0H296.825V12H346.295V0ZM148.413 48H197.882V36H148.413V48ZM247.355 0H197.882V12H247.355V0ZM49.4714 48H98.9429V36H49.4714V48ZM148.413 0H98.9429V12H148.413V0ZM-6 6V42H6V6H-6ZM49.4714 0H0V12H49.4714V0ZM651.871 72.9523C651.906 73.6674 651.935 74.3791 651.957 75.0927L663.951 74.7315C663.927 73.9279 663.894 73.14 663.857 72.368L651.871 72.9523ZM663.951 74.7353C663.928 73.9318 663.895 73.1396 663.856 72.3587L651.871 72.9616C651.907 73.6652 651.935 74.3741 651.957 75.089L663.951 74.7353ZM651.621 69.2983C651.706 70.2674 651.777 71.2541 651.835 72.2604L663.815 71.5755C663.751 70.4519 663.671 69.3449 663.575 68.2525L651.621 69.2983ZM663.816 71.5929C663.754 70.448 663.671 69.3331 663.575 68.2457L651.622 69.3051C651.708 70.2755 651.78 71.2527 651.834 72.243L663.816 71.5929ZM617.894 89.1473C616.518 93.9281 614.304 97.3643 611.811 99.9042L620.374 108.311C624.255 104.358 627.495 99.1763 629.426 92.466L617.894 89.1473ZM611.804 99.9116C611.759 99.9569 611.722 99.9957 611.697 100.022C611.674 100.047 611.652 100.071 611.647 100.076C611.637 100.087 611.642 100.081 611.651 100.072C611.66 100.062 611.682 100.04 611.711 100.011L620.241 108.45C620.29 108.401 620.331 108.358 620.36 108.328C620.388 108.298 620.412 108.272 620.422 108.262C620.436 108.247 620.433 108.25 620.429 108.254C620.423 108.26 620.406 108.278 620.381 108.303L611.804 99.9116ZM611.719 100.002C611.095 100.631 610.472 101.195 609.843 101.703L617.393 111.031C618.38 110.232 619.324 109.374 620.233 108.458L611.719 100.002ZM609.831 101.713C609.785 101.751 609.739 101.787 609.693 101.824L617.199 111.187C617.268 111.132 617.336 111.077 617.404 111.021L609.831 101.713ZM609.706 101.814C608.092 103.101 606.39 104.061 604.503 104.94L609.57 115.818C611.998 114.687 614.598 113.261 617.186 111.197L609.706 101.814ZM604.482 104.95C603.592 105.369 602.915 105.673 602.276 105.912L606.482 117.151C607.609 116.729 608.658 116.247 609.591 115.808L604.482 104.95ZM602.29 105.907C601.305 106.272 600.633 106.514 599.981 106.7L603.268 118.241C604.43 117.91 605.511 117.511 606.468 117.156L602.29 105.907ZM599.955 106.708C599.191 106.929 598.552 107.091 597.895 107.235L600.465 118.956C601.397 118.752 602.293 118.524 603.294 118.234L599.955 106.708ZM597.91 107.232C596.751 107.483 596.772 107.504 596.305 107.577L598.147 119.435C599.072 119.291 599.966 119.065 600.451 118.96L597.91 107.232ZM592.744 108H591.837V120H592.744V108ZM542.442 156H591.837V144H542.442V156ZM660.166 106.108C660.751 104.15 661.265 102.131 661.719 100.069L650.001 97.4854C649.6 99.3025 649.158 101.034 648.668 102.674L660.166 106.108ZM661.721 100.058C661.729 100.023 661.738 99.9867 661.757 99.9009C661.774 99.828 661.8 99.7148 661.826 99.5906L650.088 97.0969C650.033 97.3574 650.099 97.0338 649.998 97.4964L661.721 100.058ZM661.823 99.604C662.236 97.683 662.574 95.7134 662.866 93.7448L650.996 91.9857C650.73 93.7805 650.435 95.4841 650.091 97.0835L661.823 99.604ZM662.868 93.7304C662.884 93.6193 662.902 93.5124 662.932 93.3237C662.959 93.1552 662.996 92.9252 663.03 92.6744L651.137 91.0756C651.076 91.5223 651.105 91.2375 650.993 92.0001L662.868 93.7304ZM663.028 92.6881C663.286 90.8031 663.468 88.8761 663.618 86.9931L651.656 86.0382C651.514 87.8182 651.353 89.4946 651.138 91.0619L663.028 92.6881ZM663.619 86.9827C663.632 86.8153 663.648 86.6548 663.675 86.3827C663.699 86.1369 663.731 85.8077 663.754 85.4476L651.778 84.6852C651.736 85.3552 651.741 84.947 651.655 86.0486L663.619 86.9827ZM663.754 85.4563C663.91 83.0617 664 80.5836 664 78H652C652 80.302 651.919 82.5192 651.779 84.6765L663.754 85.4563ZM664 78C664 75.7771 663.927 73.6486 663.816 71.5929L651.834 72.243C651.936 74.132 652 76.0386 652 78H664ZM663.815 71.5756C663.698 69.5269 663.53 67.5345 663.314 65.5911L651.387 66.9167C651.579 68.6446 651.729 70.4233 651.835 72.2604L663.815 71.5756ZM494.707 48H544.18V36H494.707V48ZM593.722 0.0443773C593.752 0.0450349 593.654 0.0412045 593.425 0.0287895C593.337 0.0240493 593.254 0.0193701 593.192 0.0158515C593.161 0.0141015 593.136 0.0126619 593.119 0.0116735C593.11 0.0111799 593.104 0.0108004 593.1 0.0105534C593.097 0.0104294 593.096 0.0103388 593.095 0.0102839C593.094 0.0102563 593.094 0.0102377 593.094 0.0102277C593.094 0.0102229 593.094 0.0102205 593.094 0.0102205C593.094 0.0102205 593.094 0.010221 593.094 0.010222C593.094 0.0102224 593.094 0.0102239 593.094 0.0102239C593.094 0.0102253 593.094 0.0102267 592.744 6C592.394 11.9898 592.394 11.9898 592.394 11.9898C592.394 11.9898 592.394 11.9898 592.394 11.9898C592.394 11.9898 592.394 11.9898 592.394 11.9898C592.394 11.9898 592.394 11.9898 592.395 11.9898C592.395 11.9899 592.396 11.9899 592.396 11.9899C592.398 11.99 592.4 11.9902 592.403 11.9903C592.409 11.9907 592.417 11.9911 592.427 11.9917C592.447 11.9929 592.476 11.9945 592.51 11.9965C592.579 12.0004 592.674 12.0057 592.776 12.0113C592.926 12.0194 593.252 12.037 593.462 12.0416L593.722 0.0443773ZM592.744 0H544.18V12H592.744V0ZM395.768 48H445.238V36H395.768V48ZM494.707 0H445.238V12H494.707V0ZM296.825 48H346.295V36H296.825V48ZM395.768 0H346.295V12H395.768V0ZM197.882 48H247.355V36H197.882V48ZM296.825 0H247.355V12H296.825V0ZM98.9429 48H148.413V36H98.9429V48ZM197.882 0H148.413V12H197.882V0ZM0 48H49.4714V36H0V48ZM98.9429 0H49.4714V12H98.9429V0ZM467.107 128.863V150H479.107V128.863H467.107ZM473.107 156H493.5V144H473.107V156ZM542.895 108H493.5V120H542.895V108ZM592.291 48H592.744V36H592.291V48ZM596.282 48.4203C596.532 48.4587 596.625 48.4736 596.717 48.4895C596.807 48.5052 596.92 48.5263 597.191 48.5795L599.498 36.8033C598.861 36.6785 598.67 36.6466 598.109 36.5602L596.282 48.4203ZM597.188 48.5788C598.089 48.7559 599.145 49.0261 600.377 49.3981L603.846 37.9105C602.358 37.461 600.901 37.0791 599.502 36.8041L597.188 48.5788ZM600.388 49.4015C600.666 49.4847 600.968 49.5672 601.093 49.6022C601.252 49.6469 601.334 49.6721 601.406 49.6963L605.257 38.3311C604.892 38.2073 604.576 38.1162 604.34 38.0498C604.069 37.9738 603.98 37.9505 603.835 37.9071L600.388 49.4015ZM601.398 49.6936C602.651 50.1201 604.037 50.7214 605.507 51.484L611.034 40.8325C609.135 39.8476 607.191 38.9894 605.265 38.3337L601.398 49.6936ZM605.516 51.489C607.767 52.6516 609.955 54.176 611.941 56.2326L620.573 47.8963C617.562 44.7787 614.276 42.5074 611.024 40.8274L605.516 51.489ZM611.939 56.2306C612.278 56.5819 612.427 56.7319 612.589 56.9135L621.562 48.9458C621.186 48.5234 620.787 48.118 620.575 47.8983L611.939 56.2306ZM612.591 56.9159C612.936 57.3047 613.25 57.6776 613.545 58.0555L623.013 50.6828C622.524 50.0553 622.036 49.4797 621.559 48.9434L612.591 56.9159ZM613.544 58.0542C613.799 58.3823 614.064 58.7697 614.461 59.3599L624.411 52.6519C624.053 52.1201 623.563 51.3895 623.014 50.6841L613.544 58.0542ZM614.462 59.3608C615.006 60.1679 615.066 60.2123 615.259 60.5389L625.597 54.4455C625.166 53.7143 624.532 52.8305 624.411 52.6509L614.462 59.3608ZM653.447 34.182C652.309 32.2308 651.008 30.498 650.055 29.1694L640.306 36.1665C641.459 37.773 642.307 38.9017 643.081 40.2281L653.447 34.182ZM650.058 29.1744C649.822 28.844 648.823 27.3359 648.124 26.4585L638.739 33.9361C639.265 34.5964 639.366 34.8547 640.302 36.1615L650.058 29.1744ZM648.118 26.4507C646.755 24.7465 645.345 23.2572 644.059 21.9328L635.451 30.2938C636.677 31.5564 637.757 32.7085 638.745 33.9439L648.118 26.4507ZM644.069 21.9435C644.037 21.9102 642.986 20.7623 642.483 20.2774L634.155 28.9179C634.636 29.3811 634.509 29.3191 635.44 30.283L644.069 21.9435ZM642.471 20.2659C640.8 18.6649 639.094 17.2202 637.388 15.8929L630.02 25.365C631.455 26.4807 632.84 27.6572 634.167 28.9294L642.471 20.2659ZM637.4 15.9022C637.357 15.8689 637.312 15.8316 637.161 15.7069C637.04 15.6069 636.83 15.4332 636.594 15.254L629.349 24.8203C629.349 24.8199 629.352 24.8222 629.359 24.8277C629.366 24.8333 629.376 24.8414 629.39 24.8529C629.421 24.8775 629.458 24.9079 629.515 24.9554C629.607 25.0317 629.805 25.1966 630.008 25.3556L637.4 15.9022ZM636.582 15.2451C634.625 13.7708 632.625 12.416 630.598 11.1959L624.408 21.4759C626.063 22.4728 627.721 23.5935 629.361 24.8291L636.582 15.2451Z" fill="#9D1900" mask="url(#path-1-outside-1_265_240)"/>
</g>
<defs>
<filter id="filter0_d_265_240" x="-10" y="0" width="678" height="164" filterUnits="userSpaceOnUse" color-interpolation-filters="sRGB">
<feFlood flood-opacity="0" result="BackgroundImageFix"/>
<feColorMatrix in="SourceAlpha" type="matrix" values="0 0 0 0 0 0 0 0 0 0 0 0 0 0 0 0 0 0 127 0" result="hardAlpha"/>
<feOffset dy="4"/>
<feGaussianBlur stdDeviation="2"/>
<feComposite in2="hardAlpha" operator="out"/>
<feColorMatrix type="matrix" values="0 0 0 0 0 0 0 0 0 0 0 0 0 0 0 0 0 0 0.25 0"/>
<feBlend mode="normal" in2="BackgroundImageFix" result="effect1_dropShadow_265_240"/>
<feBlend mode="normal" in="SourceGraphic" in2="effect1_dropShadow_265_240" result="shape"/>
</filter>
</defs>
</svg>
