<svg width="669" height="164" viewBox="0 0 669 164" fill="none" xmlns="http://www.w3.org/2000/svg">
<g filter="url(#filter0_d_265_241)">
<mask id="path-1-outside-1_265_241" maskUnits="userSpaceOnUse" x="3.99999" y="-5.24537e-07" width="671" height="156" fill="black">
<rect fill="white" x="3.99999" y="-5.24537e-07" width="671" height="156"/>
<path d="M75.3554 114C75.3554 114 73.3314 113.884 70.8966 113.51C73.5329 113.944 75.3554 114 75.3554 114ZM67.9377 112.897C67.6233 112.816 67.3025 112.729 66.975 112.637C67.3011 112.728 67.6228 112.815 67.9377 112.897Z"/>
<path d="M70.8966 113.51C70.5666 113.455 70.2492 113.404 69.8985 113.338C70.3116 113.418 70.4631 113.443 70.8966 113.51ZM67.9377 112.897C67.6233 112.816 67.3025 112.729 66.975 112.637C67.3011 112.728 67.6228 112.815 67.9377 112.897Z"/>
<path d="M66.975 112.637C67.3011 112.728 67.6228 112.815 67.9377 112.897C67.6233 112.816 67.3025 112.729 66.975 112.637Z"/>
<path d="M56.8501 108.113C55.9593 107.526 55.0779 106.877 54.2156 106.164C55.0787 106.878 55.9586 107.526 56.8501 108.113Z"/>
<path d="M45.8263 61.1484C47.3096 57.6786 49.2306 54.8401 51.379 52.5137C49.2259 54.8379 47.308 57.6762 45.8263 61.1484Z"/>
<path d="M61.3816 45.4629C61.7163 45.308 62.05 45.1556 62.3815 45.0098C62.0517 45.1544 61.719 45.3059 61.3816 45.4629Z"/>
<path d="M11.7729 58.9902C11.8602 58.5411 11.9512 58.0963 12.0459 57.6563C11.9521 58.0967 11.8603 58.542 11.7729 58.9902ZM12.1434 57.2227C12.2495 56.7378 12.3598 56.2573 12.4732 55.7813C12.3598 56.2579 12.2505 56.7379 12.1434 57.2227ZM66.4609 43.5293C66.6218 43.4835 66.7814 43.4383 66.9395 43.3945C66.7834 43.4375 66.6238 43.4821 66.4609 43.5293Z"/>
<path d="M11.7729 58.9902C11.8602 58.5411 11.9512 58.0963 12.0459 57.6563C11.9521 58.0967 11.8603 58.542 11.7729 58.9902ZM12.1434 57.2227C12.2495 56.7378 12.3598 56.2573 12.4732 55.7813C12.3598 56.2579 12.2505 56.7379 12.1434 57.2227ZM69.4163 42.791C69.9229 42.6782 70.4228 42.5687 70.8664 42.4941C70.3275 42.5777 69.9426 42.6709 69.4163 42.791Z"/>
<path d="M11.7729 58.9902C11.8602 58.5411 11.9512 58.0963 12.0459 57.6563C11.9521 58.0967 11.8603 58.542 11.7729 58.9902ZM12.1434 57.2227C12.2495 56.7378 12.3598 56.2573 12.4732 55.7813C12.3598 56.2579 12.2505 56.7379 12.1434 57.2227ZM70.8664 42.4941C73.3297 42.1119 75.3554 42 75.3554 42C75.3554 42 73.5456 42.044 70.8664 42.4941Z"/>
<path d="M11.7729 58.9902C11.8602 58.5411 11.9512 58.0963 12.0459 57.6563C11.9521 58.0967 11.8603 58.542 11.7729 58.9902ZM12.1434 57.2227C12.2495 56.7378 12.3598 56.2573 12.4732 55.7813C12.3598 56.2579 12.2505 56.7379 12.1434 57.2227ZM195.174 42L195.174 27.1367L174.75 42L195.174 42Z"/>
<path d="M11.7729 58.9902C11.8602 58.5411 11.9512 58.0963 12.0459 57.6563C11.9521 58.0967 11.8603 58.542 11.7729 58.9902ZM12.1434 57.2227C12.2495 56.7378 12.3598 56.2573 12.4732 55.7813C12.3598 56.2579 12.2505 56.7379 12.1434 57.2227ZM125.28 42L174.75 5.99998L125.733 5.99999L76.2631 42L125.28 42Z"/>
<path d="M11.7729 58.9902C11.8602 58.5411 11.9512 58.0963 12.0459 57.6563C11.9521 58.0967 11.8603 58.542 11.7729 58.9902ZM12.1434 57.2227C12.2495 56.7378 12.3598 56.2573 12.4732 55.7813C12.3598 56.2579 12.2505 56.7379 12.1434 57.2227ZM13.5883 51.6094L76.2631 5.99999L75.3554 5.99999C75.3554 5.99999 27.2168 6.04519 13.5883 51.6094Z"/>
<path d="M11.7729 58.9902C11.8602 58.5411 11.9512 58.0963 12.0459 57.6563C11.9521 58.0967 11.8603 58.542 11.7729 58.9902ZM12.4732 55.7813C12.3598 56.2579 12.2505 56.7379 12.1434 57.2227C12.2495 56.7378 12.3598 56.2573 12.4732 55.7813Z"/>
<path d="M12.0459 57.6563C11.9521 58.0967 11.8603 58.542 11.7729 58.9902C11.8602 58.5411 11.9512 58.0963 12.0459 57.6563Z"/>
<path d="M19.7509 118.795L47.6293 98.5078C44.6598 93.4775 42.6777 86.8337 42.6777 78C42.6777 73.0677 43.3333 68.8668 44.3921 65.1934L10.6506 89.7461C11.9717 101.615 15.2809 111.143 19.7509 118.795Z"/>
<path d="M28.2731 129.887C27.8013 129.399 27.3312 128.911 26.8654 128.412C27.3311 128.911 27.8012 129.402 28.2731 129.887Z"/>
<path d="M34.3328 135.371C34.0798 135.174 33.8272 134.975 33.5757 134.773C33.8272 134.975 34.0798 135.175 34.3328 135.371ZM30.7728 132.393C30.4163 132.069 30.0626 131.739 29.7109 131.402C30.0623 131.741 30.4169 132.07 30.7728 132.393Z"/>
<path d="M38.6462 138.477C37.4434 137.692 36.2483 136.852 35.0667 135.963C36.2518 136.859 37.4442 137.694 38.6462 138.477Z"/>
<path d="M74.5062 149.957L123.992 114L75.8093 114L40.5432 139.664C56.3317 149.157 72.2048 149.907 74.5062 149.957Z"/>
<path d="M173.541 150L223.086 114L173.541 114L123.992 150L173.541 150Z"/>
<path d="M272.631 150L322.179 114L272.631 114L223.086 150L272.631 150Z"/>
<path d="M371.724 150L421.269 114L371.724 114L322.179 150L371.724 150Z"/>
<path d="M470.817 150L520.362 114L470.817 114L421.269 150L470.817 150Z"/>
<path d="M569.907 150L619.453 114L569.907 114L520.362 150L569.907 150Z"/>
<path d="M669 150L669 114L619.453 150L669 150Z"/>
<path d="M10.1365 83.3399C10.1002 82.5963 10.069 81.8465 10.0461 81.0879C10.0685 81.8471 10.0991 82.5977 10.1365 83.3399Z"/>
<path d="M10.4025 87.2246C10.3121 86.1939 10.2365 85.147 10.1755 84.0821C10.2335 85.1496 10.3112 86.1957 10.4025 87.2246Z"/>
<path d="M10.6506 89.7461L44.3921 65.1934C46.0481 59.4478 48.7794 55.1389 51.9711 51.8926C52.0106 51.8523 52.0486 51.8095 52.0881 51.7695C52.8559 50.9976 53.6403 50.2869 54.4496 49.6328C54.5069 49.5862 54.564 49.5402 54.6216 49.4941C56.7261 47.8188 58.88 46.6263 61.0412 45.6211C61.954 45.1923 62.8181 44.7992 63.7023 44.4687C64.6749 44.108 65.5526 43.7876 66.4609 43.5293C67.3451 43.2735 68.1138 43.0785 68.9092 42.9043C69.7326 42.7261 70.1691 42.6024 70.8664 42.4941C73.5456 42.044 75.3554 42 75.3554 42L76.2631 42L125.733 5.99999L76.2631 5.99999L13.5883 51.6094C13.0504 53.4078 12.5717 55.2834 12.1434 57.2227C12.1116 57.3678 12.077 57.5103 12.0459 57.6563C11.6672 59.4165 11.3501 61.2531 11.0709 63.1348C11.0223 63.4675 10.9637 63.7884 10.9184 64.125C10.6819 65.8511 10.5099 67.6529 10.3635 69.4844C10.3252 69.9731 10.2657 70.4374 10.234 70.9336C10.0856 73.2096 9.99999 75.5572 9.99999 78C9.99999 80.0921 10.0684 82.1098 10.1755 84.0821C10.2867 86.0249 10.4463 87.9105 10.6506 89.7461Z"/>
<path d="M123.992 150L173.541 114L123.992 114L74.5062 149.957C74.6859 149.961 75.3554 150 75.3554 150L123.992 150Z"/>
<path d="M223.086 150L272.631 114L223.086 114L173.541 150L223.086 150Z"/>
<path d="M322.179 150L371.724 114L322.179 114L272.631 150L322.179 150Z"/>
<path d="M421.269 150L470.817 114L421.269 114L371.724 150L421.269 150Z"/>
<path d="M520.362 150L569.907 114L520.362 114L470.817 150L520.362 150Z"/>
<path d="M619.453 150L669 114L619.453 114L569.907 150L619.453 150Z"/>
<path d="M174.75 42L195.174 27.1367L195.174 5.99998L174.75 5.99998L125.28 42L174.75 42Z"/>
<path d="M40.5432 139.664L75.8093 114L75.3554 114C75.3554 114 73.5329 113.944 70.8966 113.51C70.4091 113.435 70.2985 113.417 69.746 113.309C68.5939 113.083 67.3356 112.756 65.9733 112.346C65.5503 112.219 65.1889 112.134 64.7518 111.986C63.1598 111.445 61.4919 110.716 59.8055 109.842C57.0498 108.421 54.3086 106.523 51.8063 103.936C51.5303 103.65 51.2558 103.372 50.9872 103.07C50.5754 102.608 50.1736 102.134 49.7816 101.631C49.3788 101.114 49.0009 100.555 48.6222 99.9942C48.2889 99.5009 47.9415 99.0367 47.6293 98.5078L19.7509 118.795C20.7082 120.434 21.7844 121.865 22.8392 123.332C23.4264 124.151 23.9773 125.034 24.5908 125.803C25.7676 127.273 27.0147 128.593 28.2731 129.887C28.7557 130.385 29.2183 130.928 29.7109 131.402C31.2122 132.839 32.7599 134.15 34.3328 135.371C34.579 135.563 34.8192 135.776 35.0667 135.963C36.8678 137.318 38.6996 138.556 40.5432 139.664Z"/>
</mask>
<path d="M75.3554 114C75.3554 114 73.3314 113.884 70.8966 113.51C73.5329 113.944 75.3554 114 75.3554 114ZM67.9377 112.897C67.6233 112.816 67.3025 112.729 66.975 112.637C67.3011 112.728 67.6228 112.815 67.9377 112.897Z" fill="#9D1900"/>
<path d="M70.8966 113.51C70.5666 113.455 70.2492 113.404 69.8985 113.338C70.3116 113.418 70.4631 113.443 70.8966 113.51ZM67.9377 112.897C67.6233 112.816 67.3025 112.729 66.975 112.637C67.3011 112.728 67.6228 112.815 67.9377 112.897Z" fill="#9D1900"/>
<path d="M66.975 112.637C67.3011 112.728 67.6228 112.815 67.9377 112.897C67.6233 112.816 67.3025 112.729 66.975 112.637Z" fill="#9D1900"/>
<path d="M56.8501 108.113C55.9593 107.526 55.0779 106.877 54.2156 106.164C55.0787 106.878 55.9586 107.526 56.8501 108.113Z" fill="#9D1900"/>
<path d="M45.8263 61.1484C47.3096 57.6786 49.2306 54.8401 51.379 52.5137C49.2259 54.8379 47.308 57.6762 45.8263 61.1484Z" fill="#9D1900"/>
<path d="M61.3816 45.4629C61.7163 45.308 62.05 45.1556 62.3815 45.0098C62.0517 45.1544 61.719 45.3059 61.3816 45.4629Z" fill="#9D1900"/>
<path d="M11.7729 58.9902C11.8602 58.5411 11.9512 58.0963 12.0459 57.6563C11.9521 58.0967 11.8603 58.542 11.7729 58.9902ZM12.1434 57.2227C12.2495 56.7378 12.3598 56.2573 12.4732 55.7813C12.3598 56.2579 12.2505 56.7379 12.1434 57.2227ZM66.4609 43.5293C66.6218 43.4835 66.7814 43.4383 66.9395 43.3945C66.7834 43.4375 66.6238 43.4821 66.4609 43.5293Z" fill="#9D1900"/>
<path d="M11.7729 58.9902C11.8602 58.5411 11.9512 58.0963 12.0459 57.6563C11.9521 58.0967 11.8603 58.542 11.7729 58.9902ZM12.1434 57.2227C12.2495 56.7378 12.3598 56.2573 12.4732 55.7813C12.3598 56.2579 12.2505 56.7379 12.1434 57.2227ZM69.4163 42.791C69.9229 42.6782 70.4228 42.5687 70.8664 42.4941C70.3275 42.5777 69.9426 42.6709 69.4163 42.791Z" fill="#9D1900"/>
<path d="M11.7729 58.9902C11.8602 58.5411 11.9512 58.0963 12.0459 57.6563C11.9521 58.0967 11.8603 58.542 11.7729 58.9902ZM12.1434 57.2227C12.2495 56.7378 12.3598 56.2573 12.4732 55.7813C12.3598 56.2579 12.2505 56.7379 12.1434 57.2227ZM70.8664 42.4941C73.3297 42.1119 75.3554 42 75.3554 42C75.3554 42 73.5456 42.044 70.8664 42.4941Z" fill="#9D1900"/>
<path d="M11.7729 58.9902C11.8602 58.5411 11.9512 58.0963 12.0459 57.6563C11.9521 58.0967 11.8603 58.542 11.7729 58.9902ZM12.1434 57.2227C12.2495 56.7378 12.3598 56.2573 12.4732 55.7813C12.3598 56.2579 12.2505 56.7379 12.1434 57.2227ZM195.174 42L195.174 27.1367L174.75 42L195.174 42Z" fill="#9D1900"/>
<path d="M11.7729 58.9902C11.8602 58.5411 11.9512 58.0963 12.0459 57.6563C11.9521 58.0967 11.8603 58.542 11.7729 58.9902ZM12.1434 57.2227C12.2495 56.7378 12.3598 56.2573 12.4732 55.7813C12.3598 56.2579 12.2505 56.7379 12.1434 57.2227ZM125.28 42L174.75 5.99998L125.733 5.99999L76.2631 42L125.28 42Z" fill="#9D1900"/>
<path d="M11.7729 58.9902C11.8602 58.5411 11.9512 58.0963 12.0459 57.6563C11.9521 58.0967 11.8603 58.542 11.7729 58.9902ZM12.1434 57.2227C12.2495 56.7378 12.3598 56.2573 12.4732 55.7813C12.3598 56.2579 12.2505 56.7379 12.1434 57.2227ZM13.5883 51.6094L76.2631 5.99999L75.3554 5.99999C75.3554 5.99999 27.2168 6.04519 13.5883 51.6094Z" fill="#9D1900"/>
<path d="M11.7729 58.9902C11.8602 58.5411 11.9512 58.0963 12.0459 57.6563C11.9521 58.0967 11.8603 58.542 11.7729 58.9902ZM12.4732 55.7813C12.3598 56.2579 12.2505 56.7379 12.1434 57.2227C12.2495 56.7378 12.3598 56.2573 12.4732 55.7813Z" fill="#9D1900"/>
<path d="M12.0459 57.6563C11.9521 58.0967 11.8603 58.542 11.7729 58.9902C11.8602 58.5411 11.9512 58.0963 12.0459 57.6563Z" fill="#9D1900"/>
<path d="M19.7509 118.795L47.6293 98.5078C44.6598 93.4775 42.6777 86.8337 42.6777 78C42.6777 73.0677 43.3333 68.8668 44.3921 65.1934L10.6506 89.7461C11.9717 101.615 15.2809 111.143 19.7509 118.795Z" fill="#9D1900"/>
<path d="M28.2731 129.887C27.8013 129.399 27.3312 128.911 26.8654 128.412C27.3311 128.911 27.8012 129.402 28.2731 129.887Z" fill="#9D1900"/>
<path d="M34.3328 135.371C34.0798 135.174 33.8272 134.975 33.5757 134.773C33.8272 134.975 34.0798 135.175 34.3328 135.371ZM30.7728 132.393C30.4163 132.069 30.0626 131.739 29.7109 131.402C30.0623 131.741 30.4169 132.07 30.7728 132.393Z" fill="#9D1900"/>
<path d="M38.6462 138.477C37.4434 137.692 36.2483 136.852 35.0667 135.963C36.2518 136.859 37.4442 137.694 38.6462 138.477Z" fill="#9D1900"/>
<path d="M74.5062 149.957L123.992 114L75.8093 114L40.5432 139.664C56.3317 149.157 72.2048 149.907 74.5062 149.957Z" fill="#9D1900"/>
<path d="M173.541 150L223.086 114L173.541 114L123.992 150L173.541 150Z" fill="#9D1900"/>
<path d="M272.631 150L322.179 114L272.631 114L223.086 150L272.631 150Z" fill="#9D1900"/>
<path d="M371.724 150L421.269 114L371.724 114L322.179 150L371.724 150Z" fill="#9D1900"/>
<path d="M470.817 150L520.362 114L470.817 114L421.269 150L470.817 150Z" fill="#9D1900"/>
<path d="M569.907 150L619.453 114L569.907 114L520.362 150L569.907 150Z" fill="#9D1900"/>
<path d="M669 150L669 114L619.453 150L669 150Z" fill="#9D1900"/>
<path d="M10.1365 83.3399C10.1002 82.5963 10.069 81.8465 10.0461 81.0879C10.0685 81.8471 10.0991 82.5977 10.1365 83.3399Z" fill="white"/>
<path d="M10.4025 87.2246C10.3121 86.1939 10.2365 85.147 10.1755 84.0821C10.2335 85.1496 10.3112 86.1957 10.4025 87.2246Z" fill="white"/>
<path d="M10.6506 89.7461L44.3921 65.1934C46.0481 59.4478 48.7794 55.1389 51.9711 51.8926C52.0106 51.8523 52.0486 51.8095 52.0881 51.7695C52.8559 50.9976 53.6403 50.2869 54.4496 49.6328C54.5069 49.5862 54.564 49.5402 54.6216 49.4941C56.7261 47.8188 58.88 46.6263 61.0412 45.6211C61.954 45.1923 62.8181 44.7992 63.7023 44.4687C64.6749 44.108 65.5526 43.7876 66.4609 43.5293C67.3451 43.2735 68.1138 43.0785 68.9092 42.9043C69.7326 42.7261 70.1691 42.6024 70.8664 42.4941C73.5456 42.044 75.3554 42 75.3554 42L76.2631 42L125.733 5.99999L76.2631 5.99999L13.5883 51.6094C13.0504 53.4078 12.5717 55.2834 12.1434 57.2227C12.1116 57.3678 12.077 57.5103 12.0459 57.6563C11.6672 59.4165 11.3501 61.2531 11.0709 63.1348C11.0223 63.4675 10.9637 63.7884 10.9184 64.125C10.6819 65.8511 10.5099 67.6529 10.3635 69.4844C10.3252 69.9731 10.2657 70.4374 10.234 70.9336C10.0856 73.2096 9.99999 75.5572 9.99999 78C9.99999 80.0921 10.0684 82.1098 10.1755 84.0821C10.2867 86.0249 10.4463 87.9105 10.6506 89.7461Z" fill="white"/>
<path d="M123.992 150L173.541 114L123.992 114L74.5062 149.957C74.6859 149.961 75.3554 150 75.3554 150L123.992 150Z" fill="white"/>
<path d="M223.086 150L272.631 114L223.086 114L173.541 150L223.086 150Z" fill="white"/>
<path d="M322.179 150L371.724 114L322.179 114L272.631 150L322.179 150Z" fill="white"/>
<path d="M421.269 150L470.817 114L421.269 114L371.724 150L421.269 150Z" fill="white"/>
<path d="M520.362 150L569.907 114L520.362 114L470.817 150L520.362 150Z" fill="white"/>
<path d="M619.453 150L669 114L619.453 114L569.907 150L619.453 150Z" fill="white"/>
<path d="M174.75 42L195.174 27.1367L195.174 5.99998L174.75 5.99998L125.28 42L174.75 42Z" fill="white"/>
<path d="M40.5432 139.664L75.8093 114L75.3554 114C75.3554 114 73.5329 113.944 70.8966 113.51C70.4091 113.435 70.2985 113.417 69.746 113.309C68.5939 113.083 67.3356 112.756 65.9733 112.346C65.5503 112.219 65.1889 112.134 64.7518 111.986C63.1598 111.445 61.4919 110.716 59.8055 109.842C57.0498 108.421 54.3086 106.523 51.8063 103.936C51.5303 103.65 51.2558 103.372 50.9872 103.07C50.5754 102.608 50.1736 102.134 49.7816 101.631C49.3788 101.114 49.0009 100.555 48.6222 99.9942C48.2889 99.5009 47.9415 99.0367 47.6293 98.5078L19.7509 118.795C20.7082 120.434 21.7844 121.865 22.8392 123.332C23.4264 124.151 23.9773 125.034 24.5908 125.803C25.7676 127.273 27.0147 128.593 28.2731 129.887C28.7557 130.385 29.2183 130.928 29.7109 131.402C31.2122 132.839 32.7599 134.15 34.3328 135.371C34.579 135.563 34.8192 135.776 35.0667 135.963C36.8678 137.318 38.6996 138.556 40.5432 139.664Z" fill="white"/>
<path d="M67.9377 112.897L67.19 115.802L68.6855 109.991L67.9377 112.897ZM66.975 112.637L67.7833 109.748L66.1649 115.525L66.975 112.637ZM11.7729 58.9902L8.82806 58.4177L14.7175 59.5643L11.7729 58.9902ZM12.0459 57.6563L14.98 58.2814L9.11303 57.0252L12.0459 57.6563ZM12.1434 57.2227L9.21276 56.5814L15.0729 57.8696L12.1434 57.2227ZM12.4732 55.7813L15.3917 56.4755L9.55486 55.086L12.4732 55.7813ZM70.4094 116.47C71.8148 116.701 73.0064 116.833 73.8546 116.906C74.2792 116.943 74.6194 116.966 74.8591 116.98C74.979 116.986 75.0739 116.991 75.1418 116.994C75.1758 116.995 75.203 116.996 75.2233 116.997C75.2334 116.998 75.2418 116.998 75.2483 116.998C75.2516 116.998 75.2545 116.998 75.2569 116.998C75.2581 116.998 75.2592 116.998 75.2602 116.999C75.2607 116.999 75.2612 116.999 75.2616 116.999C75.2618 116.999 75.2621 116.999 75.2622 116.999C75.2625 116.999 75.2628 116.999 75.3554 114C75.448 111.001 75.4482 111.001 75.4485 111.001C75.4486 111.001 75.4488 111.001 75.449 111.001C75.4493 111.002 75.4496 111.002 75.4499 111.002C75.4504 111.002 75.4509 111.002 75.4512 111.002C75.4518 111.002 75.452 111.002 75.4518 111.002C75.4514 111.002 75.4492 111.001 75.4453 111.001C75.4376 111.001 75.423 111.001 75.402 111C75.36 110.998 75.2919 110.995 75.1997 110.989C75.0153 110.979 74.7352 110.96 74.3746 110.929C73.6525 110.866 72.6147 110.752 71.3838 110.55L70.4094 116.47ZM68.6855 109.991C68.3963 109.917 68.0967 109.836 67.7851 109.748L66.1649 115.525C66.5083 115.622 66.8503 115.714 67.1898 115.802L68.6855 109.991ZM66.1666 115.526C66.5058 115.621 66.8488 115.714 67.19 115.802L68.6853 109.991C68.3968 109.917 68.0964 109.835 67.7833 109.748L66.1666 115.526ZM62.3567 107.76C62.1558 107.664 61.9613 107.57 61.7693 107.474L59.1039 112.85C59.3317 112.963 59.5549 113.071 59.7717 113.174L62.3567 107.76ZM61.7678 107.473C61.5691 107.374 61.3751 107.276 61.1855 107.178L58.4254 112.506C58.6553 112.625 58.8823 112.739 59.1019 112.848L61.7678 107.473ZM59.1954 106.052C58.9695 105.912 58.7386 105.764 58.503 105.609L55.2007 110.618C55.4736 110.798 55.7545 110.979 56.0402 111.155L59.1954 106.052ZM48.2268 63.2038C48.3417 62.91 48.4614 62.6184 48.585 62.3294L43.0677 59.9714C42.922 60.3123 42.7784 60.6618 42.6387 61.0189L48.2268 63.2038ZM13.5979 67.0218C13.6414 66.5964 13.6865 66.1787 13.7347 65.7686L7.77581 65.0674C7.72308 65.5157 7.67461 65.9649 7.62896 66.4119L13.5979 67.0218ZM14.7178 59.5628C14.8014 59.1328 14.8884 58.7074 14.9788 58.2873L9.11303 57.0252C9.01409 57.4852 8.91906 57.9495 8.82806 58.4177L14.7178 59.5628ZM9.11175 57.0311C9.01519 57.4845 8.91979 57.9472 8.82836 58.4162L14.7175 59.5643C14.8008 59.1368 14.889 58.709 14.98 58.2814L9.11175 57.0311ZM15.0741 57.8639C15.1759 57.3987 15.282 56.9362 15.3915 56.4765L9.55486 55.086C9.43755 55.5783 9.32317 56.0769 9.21276 56.5814L15.0741 57.8639ZM9.55462 55.087C9.43682 55.5823 9.32384 56.0783 9.21398 56.5758L15.0729 57.8696C15.1771 57.3974 15.2828 56.9335 15.3917 56.4755L9.55462 55.087ZM15.9054 54.4374C16.0229 53.9969 16.1459 53.5573 16.2726 53.1171L10.5068 51.4571C10.3719 51.9257 10.238 52.4041 10.1082 52.8907L15.9054 54.4374ZM75.3554 42C75.2825 39.0009 75.2822 39.0009 75.2818 39.0009C75.2817 39.0009 75.2814 39.0009 75.2811 39.0009C75.2807 39.0009 75.2801 39.0009 75.2797 39.001C75.2786 39.001 75.2774 39.001 75.2761 39.001C75.2736 39.0011 75.2706 39.0012 75.2671 39.0013C75.2602 39.0015 75.2516 39.0017 75.2413 39.0021C75.2204 39.0027 75.1927 39.0036 75.1583 39.0049C75.0894 39.0076 74.9936 39.0117 74.8727 39.0181C74.631 39.0308 74.2885 39.0526 73.8602 39.0892C73.0046 39.1623 71.8008 39.2951 70.3694 39.5356L71.3635 45.4527C72.6113 45.243 73.6519 45.1288 74.371 45.0674C74.73 45.0367 75.0074 45.0193 75.1888 45.0097C75.2794 45.005 75.3459 45.0021 75.3865 45.0006C75.4067 44.9998 75.4205 44.9994 75.4275 44.9992C75.4311 44.999 75.4329 44.999 75.4331 44.999C75.4332 44.999 75.4328 44.999 75.432 44.999C75.4316 44.999 75.4311 44.999 75.4305 44.9991C75.4302 44.9991 75.4298 44.9991 75.4294 44.9991C75.4293 44.9991 75.429 44.9991 75.4289 44.9991C75.4286 44.9991 75.4283 44.9991 75.3554 42ZM193.408 24.711L172.985 39.5743L176.515 44.4256L196.939 29.5624L193.408 24.711ZM127.045 44.4257L176.515 8.42569L172.985 3.57426L123.514 39.5743L127.045 44.4257ZM123.968 3.57427L74.4979 39.5743L78.0283 44.4257L127.499 8.42569L123.968 3.57427ZM15.3535 54.0351L78.0283 8.42568L74.4979 3.57429L11.8231 49.1837L15.3535 54.0351ZM21.516 121.221L49.3945 100.934L45.8641 96.0821L17.9857 116.369L21.516 121.221ZM42.6269 62.7676L8.88549 87.3204L12.4158 92.1719L46.1572 67.6191L42.6269 62.7676ZM33.8046 131.069C33.4658 130.778 33.1274 130.478 32.7901 130.172L28.7591 134.617C29.1336 134.956 29.512 135.291 29.8934 135.619L33.8046 131.069ZM13.4838 87.9565C13.4513 87.6261 13.4203 87.295 13.3907 86.9613L7.41424 87.4919C7.44549 87.8445 7.47827 88.1944 7.51257 88.5435L13.4838 87.9565ZM13.1121 73.2271C13.1381 72.6606 13.1678 72.0996 13.2018 71.5449L7.21307 71.1778C7.17706 71.7656 7.14562 72.3575 7.1184 72.9526L13.1121 73.2271ZM35.4513 132.432C35.2132 132.241 34.9736 132.046 34.7311 131.846L30.9171 136.478C31.174 136.69 31.4353 136.903 31.7002 137.115L35.4513 132.432ZM76.2697 152.384L125.756 116.427L122.229 111.573L72.7427 147.53L76.2697 152.384ZM74.044 111.574L38.7779 137.238L42.3084 142.09L77.5745 116.426L74.044 111.574ZM175.304 152.427L224.849 116.427L221.322 111.573L171.777 147.573L175.304 152.427ZM171.778 111.573L122.229 147.573L125.756 152.427L175.304 116.427L171.778 111.573ZM274.394 152.427L323.942 116.427L320.416 111.573L270.867 147.573L274.394 152.427ZM270.867 111.573L221.322 147.573L224.849 152.427L274.394 116.427L270.867 111.573ZM373.487 152.427L423.032 116.427L419.505 111.573L369.96 147.573L373.487 152.427ZM369.96 111.573L320.416 147.573L323.942 152.427L373.487 116.427L369.96 111.573ZM472.581 152.427L522.125 116.427L518.598 111.573L469.054 147.573L472.581 152.427ZM469.054 111.573L419.505 147.573L423.032 152.427L472.58 116.427L469.054 111.573ZM571.67 152.427L621.217 116.427L617.69 111.573L568.143 147.573L571.67 152.427ZM568.143 111.573L518.598 147.573L522.125 152.427L571.67 116.427L568.143 111.573ZM667.237 111.573L617.69 147.573L621.217 152.427L670.763 116.427L667.237 111.573ZM13.0449 81.0018C13.0378 80.7563 13.0316 80.5082 13.0258 80.2568L7.0274 80.3956C7.03338 80.6539 7.03985 80.9138 7.04736 81.174L13.0449 81.0018ZM75.3554 114L75.0131 119.99L75.1841 120L75.3554 120L75.3554 114ZM70.8966 113.51L69.9843 119.44L69.9843 119.44L70.8966 113.51ZM59.8055 109.842L62.5655 104.514L62.5558 104.509L59.8055 109.842ZM69.8985 113.338L71.0119 107.442L68.7583 119.229L69.8985 113.338ZM56.8501 108.113L53.5475 113.123L60.1544 103.105L56.8501 108.113ZM54.2156 106.164L58.0386 101.54L50.39 110.786L54.2156 106.164ZM45.8263 61.1484L40.3078 58.7935L51.3434 63.5068L45.8263 61.1484ZM51.379 52.5137L55.7869 56.5843L46.9774 48.4361L51.379 52.5137ZM61.3816 45.4629L58.8508 40.0227L63.9017 50.908L61.3816 45.4629ZM62.3815 45.0098L64.7986 50.5014L59.972 39.5148L62.3815 45.0098ZM12.0459 57.6563L17.9117 58.9183L17.9145 58.9049L12.0459 57.6563ZM12.1434 57.2227L6.2846 55.9288L6.28216 55.9399L12.1434 57.2227ZM66.4609 43.5293L68.102 49.3005L68.1033 49.3001L66.4609 43.5293ZM66.9395 43.3945L68.54 49.1771L65.346 37.61L66.9395 43.3945ZM69.4163 42.791L68.081 36.9415L70.7205 48.6476L69.4163 42.791ZM75.3554 42L75.3554 36L75.1897 36L75.0244 36.0091L75.3554 42ZM195.174 42L195.174 48L201.174 48L201.174 42L195.174 42ZM13.5883 51.6094L19.3367 53.3288L19.3367 53.3288L13.5883 51.6094ZM75.3554 5.99999L75.3554 -2.43959e-05L75.3497 -9.1366e-06L75.3554 5.99999ZM19.7509 118.795L24.9316 115.769L24.9316 115.768L19.7509 118.795ZM47.6293 98.5078L52.7963 95.4577L52.7962 95.4577L47.6293 98.5078ZM44.3921 65.1934L38.6268 63.5317L38.6268 63.5317L44.3921 65.1934ZM10.6506 89.7461L16.6138 89.0823L16.6138 89.0823L10.6506 89.7461ZM26.8654 128.412L31.2491 124.316L22.4777 132.505L26.8654 128.412ZM33.5757 134.773L37.3269 130.091L29.8229 139.455L33.5757 134.773ZM30.7728 132.393L26.7426 136.837L34.804 127.949L30.7728 132.393ZM29.7109 131.402L25.5506 135.726L25.5506 135.726L29.7109 131.402ZM38.6462 138.477L35.373 143.505L41.9248 133.452L38.6462 138.477ZM35.0667 135.963L31.4479 140.749L31.4479 140.749L35.0667 135.963ZM74.5062 149.957L74.3763 155.956V155.956L74.5062 149.957ZM40.5432 139.664L43.6349 134.522L43.6349 134.522L40.5432 139.664ZM669 150L669 156L675 156L675 150L669 150ZM669 114L675 114L675 108L669 108L669 114ZM10.1365 83.3399L4.1441 83.6418L16.1294 83.0472L10.1365 83.3399ZM10.0461 81.0879L16.0434 80.9071L4.0487 81.265L10.0461 81.0879ZM10.4025 87.2246L4.42596 87.7551L16.3796 86.7009L10.4025 87.2246ZM51.9711 51.8926L56.2496 56.0991L56.2568 56.0917L51.9711 51.8926ZM52.0881 51.7695L47.8341 47.5383L47.8261 47.5464L52.0881 51.7695ZM54.4496 49.6328L58.2209 54.2994L58.2268 54.2947L58.2326 54.2899L54.4496 49.6328ZM54.6216 49.4941L50.8848 44.7999L50.8785 44.8049L50.8722 44.8099L54.6216 49.4941ZM61.0412 45.6211L63.5715 51.0614L63.5819 51.0566L63.5923 51.0517L61.0412 45.6211ZM63.7023 44.4687L61.6159 38.8432L61.6089 38.8458L61.6019 38.8484L63.7023 44.4687ZM68.9092 42.9043L67.6404 37.04L67.6331 37.0416L67.6258 37.0432L68.9092 42.9043ZM11.0709 63.1348L5.13586 62.254L5.13476 62.2611L5.13372 62.2683L11.0709 63.1348ZM10.9184 64.125L16.8628 64.9394L16.8647 64.9256L10.9184 64.125ZM10.3635 69.4844L4.3825 69.0062L4.38171 69.0166L10.3635 69.4844ZM10.234 70.9336L16.2213 71.3241L16.2219 71.3154L10.234 70.9336ZM75.3554 150L75.0057 155.99L75.1804 156L75.3554 156L75.3554 150ZM195.174 5.99998L201.174 5.99998L201.174 -2.01365e-05L195.174 -1.96119e-05L195.174 5.99998ZM69.746 113.309L68.5905 119.196L68.5944 119.197L69.746 113.309ZM65.9733 112.346L67.7054 106.601L67.6942 106.598L65.9733 112.346ZM64.7518 111.986L62.821 117.667L62.8289 117.67L64.7518 111.986ZM51.8063 103.936L47.4917 108.105L47.4936 108.107L51.8063 103.936ZM50.9872 103.07L55.4707 99.0831L55.4686 99.0807L50.9872 103.07ZM49.7816 101.631L45.0493 105.319L45.0503 105.321L49.7816 101.631ZM48.6222 99.9942L53.5948 96.6367L53.5941 96.6357L48.6222 99.9942ZM22.8392 123.332L27.7147 119.835L27.7111 119.83L22.8392 123.332ZM24.5908 125.803L19.9009 129.545L19.9071 129.553L24.5908 125.803ZM75.3554 114C75.6977 108.01 75.6981 108.01 75.6984 108.01C75.6985 108.01 75.6988 108.01 75.699 108.01C75.6994 108.01 75.6998 108.01 75.7001 108.01C75.7007 108.01 75.7013 108.01 75.7017 108.01C75.7026 108.01 75.7029 108.01 75.7028 108.01C75.7026 108.01 75.7006 108.01 75.6967 108.01C75.6888 108.009 75.6737 108.008 75.6517 108.007C75.6075 108.004 75.5358 107.999 75.4397 107.992C75.2471 107.978 74.9582 107.955 74.5974 107.921C73.8704 107.853 72.8785 107.744 71.8089 107.58L69.9843 119.44C71.3495 119.65 72.587 119.786 73.4807 119.869C73.9302 119.911 74.2995 119.941 74.5625 119.96C74.6942 119.97 74.7996 119.977 74.8757 119.982C74.9138 119.984 74.9445 119.986 74.9675 119.988C74.979 119.988 74.9886 119.989 74.9962 119.989C75 119.99 75.0033 119.99 75.0061 119.99C75.0075 119.99 75.0088 119.99 75.0099 119.99C75.0106 119.99 75.0111 119.99 75.0116 119.99C75.0118 119.99 75.0122 119.99 75.0123 119.99C75.0127 119.99 75.0131 119.99 75.3554 114ZM71.8711 107.589C71.5179 107.531 71.2783 107.492 71.0119 107.442L68.785 119.234C69.2201 119.316 69.6154 119.38 69.9221 119.43L71.8711 107.589ZM68.7583 119.229C69.2629 119.326 69.4923 119.364 69.9843 119.44L71.8089 107.58C71.4338 107.522 71.3603 107.51 71.0386 107.447L68.7583 119.229ZM60.1544 103.105C59.4388 102.633 58.7308 102.112 58.0386 101.54L50.3926 110.788C51.4249 111.642 52.4799 112.418 53.5458 113.121L60.1544 103.105ZM50.39 110.786C51.4255 111.643 52.4806 112.419 53.5475 113.123L60.1526 103.104C59.4366 102.632 58.7318 102.113 58.0413 101.542L50.39 110.786ZM51.3434 63.5068C52.5492 60.6858 54.0891 58.4228 55.7869 56.5843L46.9711 48.443C44.3721 51.2573 42.0699 54.6714 40.3093 58.7901L51.3434 63.5068ZM46.9774 48.4361C44.3664 51.2547 42.0661 54.673 40.3078 58.7935L51.3449 63.5034C52.55 60.6793 54.0854 58.421 55.7805 56.5912L46.9774 48.4361ZM63.9017 50.908C64.2192 50.761 64.5153 50.6261 64.7986 50.5014L59.9643 39.5182C59.5848 39.6852 59.2134 39.8549 58.8614 40.0178L63.9017 50.908ZM59.972 39.5148C59.5904 39.6821 59.2157 39.853 58.8508 40.0227L63.9123 50.9031C64.2223 50.7588 64.5129 50.6266 64.7909 50.5048L59.972 39.5148ZM68.1033 49.3001C68.2606 49.2554 68.4034 49.2149 68.54 49.1771L65.339 37.6119C65.1594 37.6617 64.983 37.7116 64.8184 37.7585L68.1033 49.3001ZM65.346 37.61C65.1764 37.6567 64.9897 37.7088 64.7926 37.7659L68.1291 49.2927C68.2579 49.2554 68.3904 49.2183 68.5331 49.1791L65.346 37.61ZM70.7205 48.6476C71.2471 48.5303 71.5967 48.4555 71.8606 48.4112L69.8724 36.5771C69.2488 36.6818 68.5987 36.8261 68.112 36.9345L70.7205 48.6476ZM69.9467 36.5651C69.1542 36.688 68.5414 36.8364 68.081 36.9415L70.7515 48.6406C71.3437 48.5054 71.5008 48.4675 71.7862 48.4232L69.9467 36.5651ZM71.7865 48.4232C72.8667 48.2556 73.8628 48.1456 74.5904 48.0779C74.9516 48.0443 75.24 48.0217 75.4318 48.0079C75.5275 48.001 75.5986 47.9964 75.6421 47.9936C75.6639 47.9922 75.6788 47.9913 75.6863 47.9909C75.69 47.9907 75.6919 47.9906 75.6919 47.9906C75.6919 47.9906 75.6915 47.9906 75.6906 47.9906C75.6901 47.9907 75.6895 47.9907 75.6888 47.9907C75.6885 47.9907 75.6881 47.9908 75.6877 47.9908C75.6875 47.9908 75.6871 47.9908 75.6871 47.9908C75.6867 47.9908 75.6863 47.9909 75.3554 42C75.0244 36.0091 75.024 36.0092 75.0237 36.0092C75.0235 36.0092 75.0232 36.0092 75.0229 36.0092C75.0224 36.0093 75.0218 36.0093 75.0212 36.0093C75.02 36.0094 75.0187 36.0095 75.0172 36.0095C75.0143 36.0097 75.0109 36.0099 75.0071 36.0101C74.9993 36.0106 74.9895 36.0111 74.9778 36.0118C74.9545 36.0132 74.9233 36.0151 74.8849 36.0175C74.808 36.0224 74.7017 36.0294 74.569 36.039C74.3039 36.0581 73.932 36.0874 73.4789 36.1295C72.5779 36.2134 71.3295 36.3505 69.9464 36.5651L71.7865 48.4232ZM201.174 42L201.174 27.1367L189.174 27.1367L189.174 42L201.174 42ZM174.75 48L195.174 48L195.174 36L174.75 36L174.75 48ZM174.75 -1.78264e-05L125.733 -1.35413e-05L125.733 12L174.75 12L174.75 -1.78264e-05ZM76.2631 48L125.28 48L125.28 36L76.2631 36L76.2631 48ZM76.2631 -9.21645e-06L75.3554 -9.1371e-06L75.3554 12L76.2631 12L76.2631 -9.21645e-06ZM75.3554 5.99999C75.3497 -9.1366e-06 75.3468 -9.13635e-06 75.3436 -9.13607e-06C75.3423 -9.13596e-06 75.339 6.12312e-06 75.3364 6.12335e-06C75.3312 2.13826e-05 75.3253 5.19007e-05 75.3187 8.24188e-05C75.3053 0.000143455 75.289 0.000235009 75.2698 0.000402858C75.2315 0.000723296 75.1814 0.00128788 75.1201 0.0022797C74.9974 0.00426336 74.8293 0.00792548 74.6184 0.0147157C74.1967 0.028296 73.6031 0.0543581 72.8581 0.104422C71.3692 0.204444 69.2685 0.400779 66.7218 0.78672C61.6433 1.55633 54.7063 3.0926 47.2809 6.17715C32.3348 12.3857 15.2975 24.9572 7.83996 49.89L19.3367 53.3288C25.5077 32.6973 39.3539 22.4641 51.8843 17.2591C58.1969 14.6368 64.1464 13.314 68.5198 12.6513C70.699 12.321 72.4655 12.1578 73.6625 12.0774C74.2604 12.0373 74.7143 12.0178 75.0044 12.0085C75.1495 12.0038 75.2533 12.0017 75.3136 12.0007C75.3438 12.0002 75.363 12 75.371 12C75.375 11.9999 75.3762 11.9999 75.3746 11.9999C75.3737 11.9999 75.3722 12 75.3699 12C75.3688 12 75.3666 12 75.366 12C75.3636 12 75.361 12 75.3554 5.99999ZM52.7962 95.4577C50.44 91.4663 48.6777 85.9027 48.6777 78L36.6777 78C36.6777 87.7647 38.8796 95.4887 42.4625 101.558L52.7962 95.4577ZM48.6777 78C48.6777 73.6148 49.2584 69.974 50.1574 66.8551L38.6268 63.5317C37.4082 67.7595 36.6777 72.5205 36.6777 78L48.6777 78ZM4.68749 90.4099C6.0935 103.041 9.64245 113.386 14.5701 121.821L24.9316 115.768C20.9194 108.9 17.85 100.188 16.6138 89.0823L4.68749 90.4099ZM32.5842 125.714C32.119 125.233 31.6782 124.775 31.2491 124.316L22.4816 132.509C22.9841 133.047 23.4835 133.566 23.9619 134.06L32.5842 125.714ZM22.4777 132.505C22.9803 133.043 23.481 133.565 23.9724 134.071L32.5737 125.703C32.1215 125.238 31.6819 124.78 31.2531 124.32L22.4777 132.505ZM38.025 130.642C37.7832 130.453 37.5519 130.271 37.3269 130.091L29.8246 139.456C30.1026 139.679 30.3765 139.894 30.6405 140.101L38.025 130.642ZM29.8229 139.455C30.0959 139.674 30.3729 139.893 30.6525 140.11L38.013 130.632C37.7868 130.457 37.5585 130.276 37.3286 130.092L29.8229 139.455ZM34.8031 127.948C34.4905 127.664 34.1763 127.371 33.8591 127.067L25.5626 135.737C25.9489 136.107 26.342 136.474 26.7426 136.837L34.8031 127.948ZM25.5506 135.726C25.9528 136.113 26.3516 136.483 26.7416 136.837L34.804 127.949C34.4822 127.657 34.1718 127.368 33.8712 127.079L25.5506 135.726ZM41.9248 133.452C40.8393 132.743 39.7537 131.981 38.6739 131.168L31.4596 140.758C32.7429 141.723 34.0475 142.64 35.3676 143.502L41.9248 133.452ZM31.4479 140.749C32.7471 141.731 34.0549 142.647 35.373 143.505L41.9194 133.448C40.8334 132.741 39.7564 131.987 38.6855 131.177L31.4479 140.749ZM123.992 108L75.8093 108L75.8093 120L123.992 120L123.992 108ZM37.4514 144.806C54.5317 155.076 71.6171 155.896 74.3763 155.956L74.636 143.958C72.7924 143.919 58.1315 143.238 43.6349 134.522L37.4514 144.806ZM223.086 108L173.541 108L173.541 120L223.086 120L223.086 108ZM123.992 156L173.541 156L173.541 144L123.992 144L123.992 156ZM322.179 108L272.631 108L272.631 120L322.179 120L322.179 108ZM223.086 156L272.631 156L272.631 144L223.086 144L223.086 156ZM421.269 108L371.724 108L371.724 120L421.269 120L421.269 108ZM322.179 156L371.724 156L371.724 144L322.179 144L322.179 156ZM520.362 108L470.817 108L470.817 120L520.362 120L520.362 108ZM421.269 156L470.817 156L470.817 144L421.269 144L421.269 156ZM619.453 108L569.907 108L569.907 120L619.453 120L619.453 108ZM520.362 156L569.907 156L569.907 144L520.362 144L520.362 156ZM675 150L675 114L663 114L663 150L675 150ZM619.453 156L669 156L669 144L619.453 144L619.453 156ZM16.1294 83.0472C16.0945 82.3322 16.0649 81.6206 16.0434 80.9071L4.04882 81.2688C4.07305 82.0725 4.10595 82.8604 4.14367 83.6325L16.1294 83.0472ZM4.0487 81.265C4.07244 82.0686 4.10479 82.8608 4.1441 83.6418L16.1289 83.0379C16.0935 82.3345 16.0646 81.6256 16.0435 80.9108L4.0487 81.265ZM16.3796 86.7009C16.2947 85.7319 16.2233 84.7453 16.1657 83.7391L4.18536 84.425C4.24969 85.5487 4.32965 86.6559 4.42535 87.7484L16.3796 86.7009ZM4.18438 84.4076C4.24658 85.5526 4.3294 86.6676 4.42596 87.7551L16.379 86.6942C16.2928 85.7238 16.2205 84.7467 16.1667 83.7565L4.18438 84.4076ZM50.1574 66.8551C51.535 62.0755 53.752 58.6394 56.2496 56.0991L47.6926 47.6861C43.8068 51.6385 40.5611 56.8202 38.6268 63.5317L50.1574 66.8551ZM56.2568 56.0917C56.3012 56.0464 56.3382 56.0076 56.3633 55.981C56.3863 55.9565 56.4089 55.9324 56.4138 55.9271C56.4235 55.9167 56.4186 55.9221 56.4101 55.931C56.4004 55.9411 56.3792 55.9634 56.3502 55.9927L47.8261 47.5464C47.7773 47.5956 47.7364 47.6382 47.7073 47.6689C47.6794 47.6983 47.6551 47.7244 47.6454 47.7347C47.631 47.7502 47.6341 47.7468 47.6377 47.743C47.6434 47.737 47.6608 47.7186 47.6854 47.6935L56.2568 56.0917ZM56.3422 56.0008C56.9672 55.3724 57.5911 54.8084 58.2209 54.2994L50.6783 44.9662C49.6895 45.7653 48.7447 46.6228 47.8341 47.5383L56.3422 56.0008ZM58.2326 54.2899C58.279 54.2523 58.3248 54.2153 58.3709 54.1784L50.8722 44.8099C50.8032 44.8651 50.735 44.9202 50.6666 44.9757L58.2326 54.2899ZM58.3584 54.1884C59.9753 52.9013 61.6807 51.9409 63.5715 51.0614L58.5108 40.1808C56.0793 41.3117 53.4769 42.7364 50.8848 44.7999L58.3584 54.1884ZM63.5923 51.0517C64.4839 50.6329 65.1619 50.3285 65.8027 50.0891L61.6019 38.8484C60.4743 39.2698 59.4242 39.7516 58.4901 40.1905L63.5923 51.0517ZM65.7886 50.0943C66.7748 49.7286 67.4483 49.4864 68.102 49.3005L64.8196 37.7581C63.6569 38.0888 62.5749 38.4875 61.6159 38.8432L65.7886 50.0943ZM68.128 49.293C68.8935 49.0716 69.534 48.9096 70.1926 48.7654L67.6258 37.0432C66.6935 37.2473 65.7967 37.4754 64.7937 37.7656L68.128 49.293ZM70.178 48.7686C71.3378 48.5177 71.3176 48.496 71.7865 48.4232L69.9464 36.5651C69.0207 36.7087 68.1273 36.9346 67.6404 37.04L70.178 48.7686ZM75.3554 48L76.2631 48L76.2631 36L75.3554 36L75.3554 48ZM125.733 -1.35413e-05L76.2631 -9.21645e-06L76.2631 12L125.733 12L125.733 -1.35413e-05ZM7.83996 49.89C7.25432 51.8479 6.73986 53.8672 6.2846 55.9288L18.0023 58.5165C18.4035 56.6996 18.8464 54.9678 19.3367 53.3288L7.83996 49.89ZM6.28216 55.9399C6.27434 55.9755 6.26611 56.0114 6.24639 56.0972C6.22967 56.1701 6.20373 56.2834 6.1773 56.4076L17.9145 58.9049C17.97 58.6443 17.9034 58.9685 18.0047 58.5055L6.28216 55.9399ZM6.18017 56.3942C5.76678 58.3154 5.42803 60.2852 5.13586 62.254L17.0059 64.0156C17.2721 62.2209 17.5676 60.5175 17.9117 58.9183L6.18017 56.3942ZM5.13372 62.2683C5.11755 62.3793 5.10003 62.4862 5.06963 62.6749C5.04253 62.8434 5.00579 63.0735 4.97204 63.3245L16.8647 64.9256C16.9249 64.4787 16.8965 64.7644 17.0079 64.0013L5.13372 62.2683ZM4.97387 63.3107C4.71563 65.1959 4.53307 67.1231 4.38256 69.0062L16.3444 69.9626C16.4867 68.1826 16.6482 66.5064 16.8628 64.9394L4.97387 63.3107ZM4.38171 69.0166C4.36865 69.1839 4.35223 69.3443 4.32531 69.6165C4.30108 69.8622 4.26916 70.1915 4.24621 70.5518L16.2219 71.3154C16.2646 70.6452 16.259 71.0546 16.3452 69.9522L4.38171 69.0166ZM4.24676 70.5431C4.09057 72.9379 3.99999 75.4162 3.99999 78L16 78C16 75.6982 16.0806 73.4812 16.2213 71.3241L4.24676 70.5431ZM3.99999 78C3.99999 80.2231 4.07269 82.3518 4.18438 84.4076L16.1667 83.7565C16.0641 81.8677 16 79.9612 16 78L3.99999 78ZM4.18536 84.425C4.30261 86.4738 4.47112 88.4664 4.68749 90.4099L16.6138 89.0823C16.4215 87.3546 16.2709 85.576 16.1657 83.7391L4.18536 84.425ZM173.541 108L123.992 108L123.992 120L173.541 120L173.541 108ZM74.3763 155.956C74.3464 155.955 74.4448 155.959 74.6745 155.971C74.7623 155.976 74.8458 155.981 74.9077 155.984C74.9385 155.986 74.9636 155.987 74.9808 155.988C74.9893 155.989 74.9959 155.989 75.0001 155.99C75.0023 155.99 75.0038 155.99 75.0048 155.99C75.0052 155.99 75.0056 155.99 75.0057 155.99C75.0058 155.99 75.0059 155.99 75.0059 155.99C75.0059 155.99 75.0059 155.99 75.0059 155.99C75.0058 155.99 75.0058 155.99 75.0058 155.99C75.0058 155.99 75.0057 155.99 75.3554 150C75.705 144.01 75.705 144.01 75.705 144.01C75.705 144.01 75.7049 144.01 75.7049 144.01C75.7048 144.01 75.7048 144.01 75.7047 144.01C75.7045 144.01 75.7043 144.01 75.7041 144.01C75.7036 144.01 75.7029 144.01 75.7021 144.01C75.7006 144.01 75.6984 144.01 75.6955 144.01C75.6899 144.009 75.6819 144.009 75.6718 144.008C75.6516 144.007 75.623 144.006 75.5882 144.004C75.519 144 75.4239 143.994 75.3218 143.989C75.1719 143.981 74.8457 143.963 74.636 143.958L74.3763 155.956ZM75.3554 156L123.992 156L123.992 144L75.3554 144L75.3554 156ZM272.631 108L223.086 108L223.086 120L272.631 120L272.631 108ZM173.541 156L223.086 156L223.086 144L173.541 144L173.541 156ZM371.724 108L322.179 108L322.179 120L371.724 120L371.724 108ZM272.631 156L322.179 156L322.179 144L272.631 144L272.631 156ZM470.817 108L421.269 108L421.269 120L470.817 120L470.817 108ZM371.724 156L421.269 156L421.269 144L371.724 144L371.724 156ZM569.907 108L520.362 108L520.362 120L569.907 120L569.907 108ZM470.817 156L520.362 156L520.362 144L470.817 144L470.817 156ZM669 108L619.453 108L619.453 120L669 120L669 108ZM569.907 156L619.453 156L619.453 144L569.907 144L569.907 156ZM201.174 27.1367L201.174 5.99998L189.174 5.99998L189.174 27.1367L201.174 27.1367ZM195.174 -1.96119e-05L174.75 -1.78264e-05L174.75 12L195.174 12L195.174 -1.96119e-05ZM125.28 48L174.75 48L174.75 36L125.28 36L125.28 48ZM75.8093 108L75.3554 108L75.3554 120L75.8093 120L75.8093 108ZM71.809 107.58C71.559 107.541 71.465 107.526 71.3735 107.51C71.2825 107.494 71.1697 107.473 70.8976 107.42L68.5944 119.197C69.2321 119.322 69.4227 119.354 69.9843 119.44L71.809 107.58ZM70.9015 107.421C69.9983 107.244 68.9396 106.973 67.7054 106.601L64.2413 118.09C65.7315 118.54 67.1896 118.921 68.5905 119.196L70.9015 107.421ZM67.6942 106.598C67.4164 106.515 67.1138 106.432 66.989 106.397C66.8296 106.352 66.7465 106.327 66.6747 106.303L62.8289 117.67C63.1942 117.793 63.5104 117.885 63.7467 117.951C64.0176 118.027 64.1072 118.05 64.2524 118.094L67.6942 106.598ZM66.6826 106.306C65.427 105.879 64.0379 105.277 62.5655 104.514L57.0453 115.169C58.9459 116.154 60.8926 117.012 62.821 117.667L66.6826 106.306ZM62.5558 104.509C60.3007 103.346 58.1085 101.821 56.119 99.7642L47.4936 108.107C50.5087 111.224 53.7989 113.495 57.0551 115.174L62.5558 104.509ZM56.1208 99.7661C55.7814 99.4149 55.6323 99.2648 55.4707 99.0831L46.5037 107.058C46.8793 107.48 47.2793 107.885 47.4917 108.105L56.1208 99.7661ZM55.4686 99.0807C55.1224 98.6919 54.8077 98.319 54.5129 97.9411L45.0503 105.321C45.5397 105.948 46.0284 106.524 46.5058 107.06L55.4686 99.0807ZM54.5139 97.9424C54.2581 97.6142 53.9932 97.2268 53.5948 96.6367L43.6495 103.352C44.0085 103.883 44.4996 104.614 45.0493 105.319L54.5139 97.9424ZM53.5941 96.6357C53.0489 95.8286 52.9889 95.7842 52.7963 95.4577L42.4625 101.558C42.8941 102.289 43.5289 103.173 43.6502 103.353L53.5941 96.6357ZM14.5701 121.821C15.71 123.773 17.0123 125.506 17.9673 126.834L27.7111 119.83C26.5563 118.224 25.7064 117.095 24.9316 115.769L14.5701 121.821ZM17.9637 126.829C18.2007 127.16 19.2007 128.668 19.9009 129.545L29.2808 122.061C28.7538 121.4 28.652 121.142 27.7147 119.835L17.9637 126.829ZM19.9071 129.553C21.2715 131.257 22.684 132.746 23.9724 134.071L32.5737 125.703C31.3454 124.44 30.2637 123.288 29.2745 122.053L19.9071 129.553ZM23.9619 134.06C23.9945 134.093 25.0467 135.241 25.5506 135.726L33.8712 127.079C33.3898 126.616 33.5169 126.677 32.5842 125.714L23.9619 134.06ZM25.5626 135.737C27.2355 137.338 28.9435 138.783 30.6525 140.11L38.013 130.632C36.5762 129.517 35.1888 128.34 33.8592 127.067L25.5626 135.737ZM30.6405 140.101C30.6833 140.134 30.7286 140.171 30.8796 140.296C31.0007 140.396 31.211 140.57 31.4479 140.749L38.6856 131.177C38.686 131.177 38.683 131.175 38.6758 131.17C38.6687 131.164 38.6584 131.156 38.6442 131.144C38.6135 131.12 38.5765 131.089 38.519 131.042C38.4265 130.965 38.2285 130.801 38.025 130.642L30.6405 140.101ZM31.4596 140.758C33.419 142.232 35.4225 143.586 37.4514 144.806L43.6349 134.522C41.9767 133.525 40.3165 132.404 38.6739 131.168L31.4596 140.758Z" fill="#9D1900" mask="url(#path-1-outside-1_265_241)"/>
</g>
<defs>
<filter id="filter0_d_265_241" x="0" y="0" width="679" height="164" filterUnits="userSpaceOnUse" color-interpolation-filters="sRGB">
<feFlood flood-opacity="0" result="BackgroundImageFix"/>
<feColorMatrix in="SourceAlpha" type="matrix" values="0 0 0 0 0 0 0 0 0 0 0 0 0 0 0 0 0 0 127 0" result="hardAlpha"/>
<feOffset dy="4"/>
<feGaussianBlur stdDeviation="2"/>
<feComposite in2="hardAlpha" operator="out"/>
<feColorMatrix type="matrix" values="0 0 0 0 0 0 0 0 0 0 0 0 0 0 0 0 0 0 0.25 0"/>
<feBlend mode="normal" in2="BackgroundImageFix" result="effect1_dropShadow_265_241"/>
<feBlend mode="normal" in="SourceGraphic" in2="effect1_dropShadow_265_241" result="shape"/>
</filter>
</defs>
</svg>
